<svg width="14" height="24" viewBox="0 0 14 24" fill="none" xmlns="http://www.w3.org/2000/svg">
<path d="M12.9991 0.00499355L9.88685 0C6.39037 0 4.13078 2.31826 4.13078 5.90637V8.6296H1.00158C0.731174 8.6296 0.512207 8.84882 0.512207 9.11922V13.0649C0.512207 13.3353 0.731424 13.5542 1.00158 13.5542H4.13078V23.5104C4.13078 23.7808 4.34975 23.9998 4.62015 23.9998H8.70288C8.97328 23.9998 9.19225 23.7805 9.19225 23.5104V13.5542H12.851C13.1214 13.5542 13.3404 13.3353 13.3404 13.0649L13.3419 9.11922C13.3419 8.98939 13.2902 8.86505 13.1986 8.77317C13.1069 8.68129 12.9821 8.6296 12.8523 8.6296H9.19225V6.32109C9.19225 5.21152 9.45665 4.64825 10.902 4.64825L12.9986 4.6475C13.2687 4.6475 13.4877 4.42828 13.4877 4.15813V0.494361C13.4877 0.22446 13.269 0.00549291 12.9991 0.00499355Z" fill="white"/>
</svg>
