<svg width="32" height="36" viewBox="0 0 32 36" fill="none" xmlns="http://www.w3.org/2000/svg">
<g clip-path="url(#clip0_631_5316)">
<path d="M25.485 15.1473C26.8839 14.6929 26.7796 12.9285 25.1775 12.354C25.7423 13.5043 25.3266 14.1554 24.2353 14.2545C23.2336 14.2426 22.0974 15.3639 23.1571 16.2884L23.5913 16.4944" fill="#11C3F2"/>
<path d="M23.5754 16.5248L23.1346 16.3135C22.7387 15.9688 22.6067 15.5554 22.7611 15.1499C22.9604 14.6256 23.5991 14.2188 24.2194 14.2188C24.2247 14.2188 24.23 14.2188 24.2352 14.2188C24.7578 14.1713 25.1234 13.9903 25.2897 13.6958C25.4705 13.3736 25.423 12.9272 25.1471 12.3672L25.1102 12.2919L25.1881 12.3196C25.9918 12.6076 26.5051 13.2402 26.4946 13.9296C26.4853 14.5094 26.1118 14.9756 25.4942 15.1763L25.4731 15.1116C26.0617 14.9201 26.418 14.4777 26.4259 13.9283C26.4352 13.2904 25.9733 12.7013 25.2422 12.4121C25.4955 12.9575 25.5299 13.4 25.3464 13.7275C25.1696 14.0418 24.7855 14.2347 24.2366 14.2849C23.6453 14.2782 23.0119 14.6758 22.8232 15.1724C22.7215 15.4378 22.7004 15.842 23.1742 16.2567L23.6031 16.4614L23.5754 16.5248Z" fill="#390176"/>
<g opacity="0.55">
<path opacity="0.55" d="M25.4795 12.6802C26.0443 13.8305 25.6286 14.483 24.5372 14.5807C23.6464 14.5715 22.6501 15.455 23.1858 16.3029L23.1555 16.2884C22.0945 15.3639 23.232 14.2426 24.2324 14.2545C25.3238 14.1567 25.7395 13.5043 25.1746 12.354C25.6299 12.5164 25.9638 12.7766 26.1776 13.0738C25.9915 12.9153 25.7579 12.7792 25.4795 12.6802Z" fill="white"/>
</g>
<path d="M30.0271 19.1794C30.0271 19.1794 31.6926 20.5371 30.9324 23.407C30.8783 23.5985 30.8388 23.786 30.8176 23.9696C30.7398 24.6049 30.8506 25.1979 31.1291 25.7407C31.426 26.3179 31.4498 27.0073 31.1383 27.5765C30.1037 29.4678 26.749 29.6223 24.198 28.4059C24.2165 29.1112 24.3525 29.823 24.5847 30.5204C24.7286 30.9575 24.9133 31.3907 25.1284 31.8133V31.8147C25.3396 32.2294 25.5811 32.6335 25.849 33.0258C26.0601 33.3348 26.0153 33.7508 25.75 34.0137L25.263 34.4944C24.9503 34.8034 24.4448 34.7916 24.1479 34.468C23.7982 34.0889 23.426 33.7337 23.0367 33.4048H23.0354C22.9945 33.3705 22.9523 33.3361 22.91 33.3018C19.1779 30.2457 13.8609 29.6593 10.3663 34.3914C10.2132 34.5974 10.0654 34.814 9.92026 35.0398C9.9163 35.0465 9.91102 35.0531 9.90575 35.0597C9.63653 35.4598 9.11129 35.6012 8.67183 35.3964L8.39074 35.2644L7.44847 34.8246C7.38249 34.7929 7.32046 34.7559 7.26504 34.7136C6.9206 34.4495 6.77939 33.9806 6.95095 33.5633C7.10667 33.1869 7.28747 32.8329 7.47223 32.5133C7.74409 32.0432 8.0265 31.6443 8.25613 31.3485H8.25481C6.30562 28.7163 7.11063 23.9868 11.4841 22.9263C11.5197 22.9183 11.5554 22.9091 11.5923 22.9012L12.6322 23.7398H12.949C11.5408 22.4627 11.0922 20.1871 13.3528 17.5193C14.171 21.109 18.4191 19.9943 20.3709 16.678C20.3802 16.6634 20.3881 16.6476 20.396 16.6331C20.4224 16.5882 20.4488 16.5419 20.4739 16.4957C20.5095 16.4099 20.5451 16.3267 20.5834 16.2448C20.6375 16.1299 20.6943 16.0203 20.755 15.9146C20.7985 15.838 20.8553 15.772 20.9212 15.7165C21.0928 15.5712 21.3277 15.5091 21.5547 15.5659C22.0192 15.6808 22.4626 15.8684 22.8744 16.1127C22.8744 16.1127 22.8784 16.1153 22.8876 16.1206C23.1251 16.2619 23.3521 16.4231 23.5659 16.6C23.6715 15.8855 24.2508 15.2701 25.0849 15.2146C26.1578 15.1433 26.972 14.2122 26.8546 13.1437C26.8533 13.1305 26.852 13.1186 26.8493 13.1054C28.7484 13.9084 28.8368 15.8803 27.8035 17.1244L31.0552 13.7249C31.3666 13.3986 31.9051 13.7169 31.7705 14.1475L30.3399 18.7105C30.2858 18.9007 30.1736 19.0605 30.0271 19.1794Z" fill="white"/>
<path d="M27.8102 17.1244L31.0619 13.7249C31.3733 13.3986 31.9118 13.7169 31.7771 14.1475L30.3466 18.7105C30.2028 19.1688 29.7488 19.4554 29.2737 19.3881C28.3446 19.256 27.4987 18.6287 27.2849 17.6183" fill="#FFB612"/>
<g opacity="0.3">
<path opacity="0.3" d="M31.7773 14.1488L30.3467 18.7119C30.2028 19.1702 29.7489 19.4568 29.2738 19.3894C28.3777 19.2613 27.5582 18.6723 27.3101 17.7227C27.636 18.078 28.0715 18.3249 28.5453 18.4425C29.0112 18.5574 29.4915 18.3196 29.6816 17.8785L31.5146 13.6192C31.7086 13.6905 31.8538 13.9005 31.7773 14.1488Z" fill="#390176"/>
</g>
<g opacity="0.55">
<path opacity="0.55" d="M31.7968 13.9533C31.6834 13.9467 31.5659 13.9864 31.4696 14.0867L28.2178 17.4862L27.6939 17.9802C27.7665 18.3262 27.9143 18.6287 28.1149 18.8796C27.7098 18.5745 27.4036 18.1374 27.2861 17.584L27.8101 17.09L31.0618 13.6905C31.3336 13.4079 31.7757 13.6126 31.7968 13.9533Z" fill="white"/>
</g>
<path d="M8.91874 31.1966L7.60696 32.7379L6.99858 33.4524L6.01144 32.6679C5.7805 32.4843 5.70923 32.162 5.84384 31.9005C5.96921 31.6575 6.10118 31.4211 6.23315 31.1966C6.81646 30.2061 7.39977 29.4585 7.39977 29.4585L8.91874 31.1966Z" fill="#E4E8EB"/>
<g opacity="0.9">
<path opacity="0.9" d="M6.23697 32.2215C6.11556 32.4552 6.16043 32.7379 6.33726 32.9267L6.00998 32.6679C5.77903 32.4843 5.70777 32.162 5.84238 31.9005C5.96775 31.6575 6.09972 31.4211 6.23169 31.1966C6.81499 30.2061 7.3983 29.4585 7.3983 29.4585L7.7401 29.8495C7.58306 30.0555 7.10401 30.7053 6.62628 31.5175C6.49431 31.742 6.36234 31.9784 6.23697 32.2215Z" fill="white"/>
</g>
<path d="M7.60696 32.7379L6.99858 33.4524L6.01144 32.6679C5.7805 32.4843 5.70923 32.162 5.84384 31.9005C5.96921 31.6575 6.10118 31.4211 6.23315 31.1966C6.23315 31.1966 7.37337 31.5558 7.56473 32.3575C7.56473 32.3575 7.58321 32.5213 7.60696 32.7379Z" fill="#390176"/>
<g opacity="0.55">
<path opacity="0.55" d="M7.0948 33.3309L6.96415 33.4854L5.97702 32.7009C5.74607 32.5173 5.67481 32.1951 5.80942 31.9336C5.93479 31.6905 6.06676 31.4541 6.19873 31.2296C6.19873 31.2296 6.44683 31.3075 6.73188 31.4726C6.61047 31.6813 6.48906 31.8992 6.37425 32.1237C6.23964 32.3852 6.3109 32.7075 6.54185 32.8911L7.0948 33.3309Z" fill="white"/>
<path opacity="0.55" d="M6.968 33.5316L5.9558 32.7273C5.71165 32.5332 5.63775 32.1924 5.77896 31.9177C5.89377 31.6932 6.02178 31.4634 6.16827 31.2124L6.18147 31.1887L6.20654 31.1966C6.2171 31.1992 6.46124 31.2785 6.7463 31.4423L6.77533 31.4594L6.75817 31.4885C6.62224 31.7196 6.50611 31.9322 6.40185 32.1369C6.27516 32.3839 6.34115 32.689 6.56022 32.862L7.1422 33.3243L6.968 33.5316ZM6.21314 31.2706C6.07193 31.5109 5.95052 31.7328 5.83966 31.9494C5.71297 32.1964 5.77896 32.5015 5.99803 32.6745L6.95877 33.4378L7.04587 33.3348L6.51931 32.9162C6.27516 32.722 6.20126 32.3813 6.34247 32.1066C6.44277 31.9098 6.55494 31.7051 6.68427 31.4845C6.47048 31.3643 6.28044 31.2943 6.21314 31.2706Z" fill="#390176"/>
</g>
<path d="M25.7502 34.0137L25.2632 34.4944C24.9504 34.8035 24.445 34.7916 24.1481 34.468C23.7983 34.089 23.4262 33.7337 23.0369 33.4048C23.8656 33.5356 25.1299 32.6613 25.1312 31.8147C25.3424 32.2294 25.5839 32.6335 25.8518 33.0258C26.0603 33.3348 26.0167 33.7509 25.7502 34.0137Z" fill="#390176"/>
<g opacity="0.9">
<path opacity="0.9" d="M25.1298 19.0091C23.9725 17.518 22.786 16.4878 21.5482 16.2593C21.3634 16.225 21.1786 16.3267 21.1047 16.501C20.4396 18.0912 20.3829 19.9705 20.4779 21.9252L19.917 22.2554C19.917 22.2554 19.7243 18.3725 20.4 16.6331C20.4555 16.4905 20.5162 16.361 20.5848 16.2514C20.5861 16.2488 20.5874 16.2474 20.5887 16.2448C20.7154 16.0401 20.8263 15.8658 20.9266 15.7165C21.0981 15.5712 21.3331 15.5092 21.56 15.566C22.0246 15.6809 22.468 15.8684 22.8797 16.1127C22.8797 16.1127 22.8837 16.1154 22.8929 16.1207C23.0592 16.2263 24.8567 17.4031 25.1298 19.0091Z" fill="white"/>
</g>
<path d="M10.3652 34.3914C10.2121 34.5974 10.0643 34.814 9.91909 35.0399C9.65252 35.4559 9.11804 35.6051 8.67066 35.3965L7.44731 34.8246C7.38132 34.7929 7.3193 34.7559 7.26387 34.7136C7.24803 34.7018 7.23352 34.6899 7.219 34.6767C7.20844 34.6687 7.1992 34.6595 7.19129 34.6516C7.18205 34.6437 7.17413 34.6357 7.16621 34.6278C7.16093 34.6225 7.15565 34.6159 7.14905 34.6106C7.13586 34.5961 7.12266 34.5829 7.11078 34.5671C7.09627 34.5499 7.08175 34.5314 7.06855 34.5142C7.06723 34.5129 7.06723 34.5116 7.06591 34.5103C7.05272 34.4931 7.04084 34.4746 7.02896 34.4561C7.01708 34.4389 7.00785 34.4205 6.99729 34.4033C6.99465 34.3993 6.99201 34.394 6.99069 34.3901C6.98277 34.3755 6.97486 34.3597 6.96826 34.3438C6.94714 34.2989 6.92999 34.2514 6.91679 34.2039C6.91019 34.1827 6.90491 34.1616 6.90095 34.1391C6.89699 34.1206 6.89303 34.1022 6.89039 34.0837C6.88907 34.0771 6.88775 34.0691 6.88644 34.0625C6.8838 34.0427 6.88116 34.0229 6.87984 34.0044C6.8772 33.982 6.8772 33.9582 6.8772 33.9344C6.8772 33.8116 6.90095 33.6875 6.94978 33.5673C7.1055 33.1909 7.2863 32.8369 7.47106 32.5173C7.48558 32.5213 7.68749 32.5833 7.99102 32.7101C8.61788 32.9677 9.66967 33.5065 10.3652 34.3914Z" fill="#390176"/>
<g opacity="0.9">
<path opacity="0.9" d="M8.51366 31.0302L8.91881 31.3485C8.91881 31.3485 8.44239 31.89 7.99238 32.7062C7.68885 32.5794 7.48693 32.5173 7.47242 32.5134C7.74428 32.0432 8.02669 31.6443 8.25632 31.3485H8.255C6.30581 28.7163 7.11082 23.9868 11.4843 22.9263L11.8142 23.1244C8.22201 24.6274 7.25467 27.323 8.51366 31.0302Z" fill="white"/>
</g>
<path d="M12.6613 18.4517L11.5106 16.9104C11.5106 16.9104 8.37364 22.1035 13.6102 24.2246" fill="#11C3F2"/>
<path d="M13.597 24.2562C12.107 23.6527 11.1503 22.7414 10.753 21.5488C10.0219 19.3498 11.467 16.9184 11.4815 16.8946L11.5079 16.851L12.689 18.4332L12.6349 18.4742L11.5145 16.9738C11.3245 17.3106 10.1499 19.5215 10.8177 21.529C11.2083 22.7018 12.1519 23.5998 13.622 24.1955L13.597 24.2562Z" fill="#390176"/>
<g opacity="0.55">
<path opacity="0.55" d="M13.5586 24.3236C13.4794 24.2906 13.4016 24.2576 13.3264 24.2245L12.4646 18.98L11.3138 17.4387C11.3138 17.4387 11.0644 17.8521 10.8242 18.4913C11.0974 17.6131 11.4603 17.0095 11.4603 17.0095L12.6111 18.5508L13.5586 24.3236Z" fill="white"/>
</g>
<g opacity="0.3">
<path opacity="0.3" d="M13.6089 24.2246C8.37369 22.1035 11.5093 16.9104 11.5093 16.9104L11.5251 16.9316C11.0342 18.4583 10.7887 20.8752 13.3054 22.3769L13.6089 24.2246Z" fill="#390176"/>
</g>
<path d="M8.38971 24.84L7.73514 25.923C7.68368 25.8688 7.63353 25.8239 7.58338 25.787L8.03867 25.3445C7.13204 23.7531 5.94168 24.42 5.94168 24.42C2.1449 26.4975 0.549391 23.4651 2.6002 21.1777C2.08024 23.5457 3.78133 24.0661 5.87437 23.4744C7.15844 23.0874 8.16932 23.8297 8.38971 24.84Z" fill="#11C3F2"/>
<path d="M7.74157 25.9784L7.71122 25.9468C7.65975 25.8926 7.61224 25.8503 7.56473 25.8147L7.53306 25.7909L7.99759 25.3392C7.11999 23.8244 5.97054 24.4438 5.95866 24.4504C3.94613 25.5519 2.62247 25.1781 2.05501 24.4609C1.38064 23.6091 1.59443 22.2501 2.57497 21.1552L2.66075 21.0601L2.63303 21.1856C2.43112 22.1061 2.55385 22.785 2.99727 23.2049C3.5489 23.7253 4.56638 23.8098 5.86496 23.4427C6.4641 23.2617 7.05797 23.3159 7.53702 23.5972C7.98703 23.8613 8.30904 24.3117 8.42253 24.8321L8.42517 24.8453L7.74157 25.9784ZM7.63467 25.7843C7.66503 25.8094 7.6967 25.8371 7.72837 25.8688L7.98439 25.4449L7.63467 25.7843ZM6.54197 24.251C6.97483 24.251 7.56341 24.4491 8.06225 25.3168L8.35391 24.8334C8.24173 24.3368 7.9316 23.9076 7.5027 23.6553C7.17542 23.4638 6.63039 23.2815 5.88344 23.5074C4.5611 23.8812 3.51987 23.7913 2.95108 23.2538C2.50898 22.8378 2.37173 22.1801 2.54065 21.2978C1.65382 22.3491 1.47302 23.6183 2.10647 24.42C2.65679 25.1147 3.94877 25.4726 5.92435 24.3923C5.93095 24.3883 6.18301 24.251 6.54197 24.251Z" fill="#390176"/>
<g opacity="0.55">
<path opacity="0.55" d="M8.38941 24.84L7.73484 25.923C7.71108 25.8979 7.68601 25.8741 7.66225 25.8517L7.86813 25.5109L8.03837 25.3445C8.02649 25.3247 8.01593 25.3049 8.00274 25.2851L8.03837 25.2283C7.81798 24.2179 6.80709 23.4757 5.52302 23.8627C3.45638 24.4464 1.77113 23.9472 2.23038 21.6544C2.33728 21.4933 2.46001 21.3335 2.5999 21.1777C2.07994 23.5457 3.78103 24.0661 5.87406 23.4744C7.15813 23.0874 8.16902 23.8297 8.38941 24.84Z" fill="white"/>
</g>
<g opacity="0.55">
<path opacity="0.55" d="M7.99224 32.7062C7.68079 33.2727 7.38254 33.9714 7.26509 34.7136C7.24925 34.7018 7.23474 34.6899 7.22022 34.6767C7.20966 34.6687 7.20042 34.6595 7.19251 34.6516C7.18327 34.6436 7.17535 34.6357 7.16743 34.6278C7.16215 34.6225 7.15687 34.6159 7.15028 34.6106C7.13708 34.5961 7.12388 34.5829 7.112 34.567C7.09749 34.5499 7.08297 34.5314 7.06977 34.5142C7.06845 34.5129 7.06845 34.5116 7.06713 34.5103C7.05394 34.4931 7.04206 34.4746 7.03018 34.4561C7.01831 34.4389 7.00907 34.4204 6.99851 34.4033C6.99587 34.3993 6.99323 34.394 6.99191 34.3901C6.98399 34.3755 6.97608 34.3597 6.96948 34.3438C6.94836 34.2989 6.93121 34.2514 6.91801 34.2039C6.91141 34.1827 6.90613 34.1616 6.90217 34.1391C6.89821 34.1206 6.89425 34.1022 6.89161 34.0837C6.8903 34.0771 6.88898 34.0691 6.88766 34.0625C6.88502 34.0427 6.88238 34.0229 6.88106 34.0044C6.87842 33.982 6.87842 33.9582 6.87842 33.9344C6.87842 33.8116 6.90217 33.6875 6.951 33.5673C7.10673 33.1909 7.28752 32.8369 7.47228 32.5173C7.4868 32.5173 7.68871 32.5794 7.99224 32.7062Z" fill="white"/>
<path opacity="0.55" d="M7.28893 34.7731L7.24406 34.7401C7.22822 34.7282 7.21239 34.715 7.19655 34.7018C7.18731 34.6938 7.17675 34.6846 7.16752 34.6754C7.1596 34.6688 7.15168 34.6608 7.14244 34.6516L7.12529 34.6344C7.11077 34.6186 7.09757 34.604 7.08438 34.5882C7.06986 34.5723 7.05534 34.5525 7.04083 34.534C7.02499 34.5116 7.01179 34.4931 6.99992 34.4733C6.98936 34.4574 6.97748 34.4376 6.96692 34.4191C6.96296 34.4112 6.96032 34.4073 6.95901 34.4033C6.95241 34.3901 6.94317 34.3742 6.93657 34.3571C6.91414 34.3095 6.89698 34.2607 6.88246 34.2131C6.87586 34.192 6.87059 34.1695 6.86531 34.1457C6.86135 34.1273 6.85739 34.1075 6.85475 34.0876C6.85343 34.081 6.85211 34.0731 6.85079 34.0639C6.84815 34.0454 6.84551 34.0242 6.84419 34.0044C6.84155 33.9807 6.84155 33.9569 6.84155 33.9331C6.84155 33.8024 6.86663 33.6743 6.91677 33.5527C7.06194 33.2014 7.23746 32.8475 7.44069 32.4988L7.45389 32.4764L7.47897 32.483C7.48029 32.483 7.68616 32.5437 8.00289 32.6771L8.0372 32.6916L8.01872 32.7247C7.63865 33.4154 7.39582 34.0863 7.29421 34.7203L7.28893 34.7731ZM7.4882 32.5543C7.29289 32.8924 7.12265 33.2371 6.98144 33.5765C6.93525 33.6901 6.9115 33.8103 6.9115 33.9305C6.9115 33.9529 6.9115 33.9754 6.91414 33.9965C6.91546 34.0163 6.91809 34.0348 6.91941 34.0533C6.92073 34.0612 6.92073 34.0678 6.92205 34.0731C6.92469 34.0929 6.92865 34.1114 6.93261 34.1286C6.93657 34.151 6.94185 34.1708 6.94845 34.192C6.96164 34.2369 6.97748 34.2818 6.9986 34.3267C7.00519 34.3425 7.01311 34.3571 7.02103 34.3703L7.02631 34.3795C7.03819 34.4007 7.04742 34.4178 7.05798 34.4337C7.06986 34.4535 7.08174 34.4706 7.09361 34.4878L7.09889 34.4971C7.10813 34.5089 7.12265 34.5274 7.13716 34.5433C7.14904 34.5591 7.16224 34.5723 7.17544 34.5855L7.19127 34.6027C7.19919 34.6106 7.20579 34.6172 7.21371 34.6239C7.22294 34.6331 7.23218 34.641 7.24142 34.6489C7.347 34.0348 7.58322 33.3863 7.94482 32.722C7.71255 32.6269 7.54891 32.5728 7.4882 32.5543Z" fill="#390176"/>
</g>
<path d="M8.03842 25.3445L7.58312 25.787C7.5818 25.7856 7.5818 25.7856 7.58048 25.7856C7.56993 25.7777 7.56069 25.7711 7.55013 25.7645C7.31786 25.606 7.10275 25.6192 6.93515 25.6826C6.72268 25.7619 6.58543 25.9243 6.58543 25.9243C0.591371 30.7528 -2.10741 23.2723 2.59995 21.1777C0.549141 23.4651 2.14465 26.4975 5.94142 24.42C5.94142 24.42 7.13179 23.7544 8.03842 25.3445Z" fill="#FF52B9"/>
<path d="M2.94975 27.5528C2.4034 27.5528 1.98506 27.418 1.69604 27.2767C0.731344 26.8026 0.145398 25.7619 0.169153 24.5574C0.196867 23.0835 1.10086 21.809 2.58552 21.1473L2.72936 21.0826L2.62379 21.2001C1.66569 22.2699 1.4519 23.5933 2.10647 24.4187C2.65678 25.1134 3.94876 25.4713 5.92435 24.391C5.93623 24.3844 7.15431 23.7267 8.06754 25.3287L8.08073 25.3511L7.58321 25.8345L7.55945 25.8094L7.53306 25.7909C7.34566 25.6628 7.14903 25.6364 6.94975 25.713C6.74784 25.7883 6.61455 25.9428 6.61323 25.9441C5.05863 27.1975 3.83659 27.5528 2.94975 27.5528ZM2.47202 21.2741C1.09558 21.9411 0.262851 23.1574 0.236457 24.5574C0.214023 25.7341 0.785451 26.7524 1.72639 27.2147C2.46938 27.5792 4.08733 27.8935 6.56572 25.8966C6.56704 25.8939 6.70693 25.7315 6.92468 25.6496C7.14243 25.5664 7.36546 25.5968 7.57001 25.7355L7.57925 25.7421L7.99495 25.3379C7.11736 23.8231 5.9679 24.4425 5.95602 24.4491C3.94349 25.5506 2.61983 25.1768 2.05236 24.4597C1.40439 23.6395 1.57991 22.3465 2.47202 21.2741Z" fill="#390176"/>
<path d="M21.5628 34.4131C21.374 34.4224 21.2051 34.3062 21.1365 34.1305C21.056 33.9218 20.9649 33.7264 20.8673 33.5441C19.6149 31.2065 17.1167 30.9331 17.1167 30.9331C17.1167 30.9331 19.4816 30.9067 22.0365 32.6434C22.2952 32.8204 22.5565 33.0145 22.8178 33.2285C23.0501 33.4186 21.964 34.3933 21.5628 34.4131Z" fill="#E4E8EB"/>
<path d="M21.543 34.4469C21.3517 34.4469 21.1775 34.3267 21.1049 34.1418C21.0257 33.9397 20.936 33.7429 20.837 33.558C19.6083 31.2639 17.1379 30.9668 17.1128 30.9641L17.1154 30.8968C17.1379 30.8955 19.5212 30.8902 22.0538 32.6137C22.323 32.7973 22.5856 32.9954 22.8377 33.2014C22.8693 33.2279 22.901 33.2794 22.868 33.3784C22.7572 33.7126 21.9323 34.4284 21.5628 34.4469C21.5575 34.4456 21.5496 34.4469 21.543 34.4469ZM17.605 30.9972C18.4008 31.2072 19.9858 31.8239 20.8977 33.5263C20.998 33.7126 21.0891 33.912 21.1682 34.1167C21.2316 34.2818 21.3913 34.3861 21.5615 34.3782C21.8716 34.3637 22.6978 33.6848 22.806 33.356C22.8311 33.2807 22.8047 33.2596 22.7967 33.253C22.5473 33.0482 22.2847 32.8515 22.0181 32.6692C20.1811 31.4198 18.4272 31.0856 17.605 30.9972Z" fill="#390176"/>
<g opacity="0.3">
<path opacity="0.3" d="M21.5628 34.4125C21.374 34.4218 21.2051 34.3055 21.1365 34.1299C21.056 33.9212 20.9649 33.7258 20.8673 33.5435C19.6149 31.2058 17.1167 30.9325 17.1167 30.9325C17.1167 30.9325 19.4816 30.906 22.0365 32.6428C22.2952 32.8197 22.5565 33.0139 22.8178 33.2278C23.0501 33.418 21.964 34.3927 21.5628 34.4125Z" fill="#390176"/>
</g>
<path d="M20.4781 16.4944C18.5751 19.952 14.1884 21.1724 13.3557 17.518C7.70873 24.1823 18.9578 28.4046 19.8935 20.7101" fill="#FF52B9"/>
<path d="M15.8406 24.8743C14.3824 24.8743 12.9505 24.1268 12.23 22.917C11.6915 22.0137 11.1174 20.1066 13.3293 17.4968L13.3728 17.4453L13.3873 17.5114C13.6711 18.7594 14.4127 19.5294 15.4738 19.6787C17.1748 19.9164 19.3128 18.5415 20.4477 16.4786L20.5071 16.5116C19.3589 18.5983 17.1907 19.989 15.4645 19.746C14.3929 19.5954 13.6394 18.8321 13.3372 17.5932C11.2032 20.1449 11.7615 22.0018 12.2867 22.884C13.1353 24.3078 14.9855 25.0804 16.6852 24.7211C18.4378 24.35 19.5939 22.888 19.8591 20.7075L19.9264 20.7154C19.6572 22.925 18.4813 24.4095 16.6998 24.7859C16.416 24.8453 16.1283 24.8743 15.8406 24.8743Z" fill="#390176"/>
<g opacity="0.3">
<path opacity="0.3" d="M19.7192 21.628C18.1659 27.5263 9.51399 24.4966 12.3395 19.0077C11.2375 23.3859 17.5985 25.6179 19.7192 21.628Z" fill="#390176"/>
</g>
<path d="M21.5627 34.4125C21.374 34.4218 21.205 34.3055 21.1364 34.1299C21.0559 33.9212 20.9648 33.7258 20.8672 33.5435C20.8672 33.5435 21.7078 33.2913 22.0259 32.6454L22.0364 32.6428C22.2951 32.8198 22.5564 33.0139 22.8177 33.2279C23.05 33.418 21.9639 34.3927 21.5627 34.4125Z" fill="#390176"/>
<path d="M20.4779 16.7546C20.4779 16.7546 20.0437 17.7979 19.917 19.1781C18.3901 23.5298 12.1849 24.3856 13.3555 17.5179C14.1737 21.1076 18.4218 19.9929 20.3737 16.6766L20.4779 16.7546Z" fill="#FF1033"/>
<path d="M15.7916 22.5934C15.566 22.5934 15.3482 22.567 15.141 22.5142C14.4073 22.324 13.8451 21.8142 13.5152 21.0376C13.1391 20.1528 13.0744 18.9668 13.3225 17.5127L13.3515 17.3449L13.3898 17.51C13.6709 18.7422 14.398 19.5096 15.4393 19.672C17.1021 19.9309 19.1674 18.663 20.3472 16.6595L20.367 16.6265L20.5227 16.7427L20.5122 16.7665C20.5082 16.777 20.078 17.8217 19.9539 19.1807L19.9526 19.1886C19.1819 21.3744 17.3238 22.5934 15.7916 22.5934ZM13.3621 17.687C12.9596 20.2769 13.626 22.052 15.1582 22.4495C16.7405 22.8589 19.0156 21.6399 19.884 19.1728C19.9988 17.9208 20.3723 16.9329 20.437 16.7678L20.3842 16.7282C19.2928 18.5613 17.465 19.775 15.8761 19.775C15.723 19.775 15.5739 19.7645 15.4261 19.7407C14.4033 19.5809 13.6749 18.8532 13.3621 17.687Z" fill="#390176"/>
<g opacity="0.55">
<path opacity="0.55" d="M20.478 16.7546C20.478 16.7546 20.35 17.0597 20.2141 17.5602C18.1633 20.5332 14.2543 21.3943 13.4731 17.9657C13.2817 19.0896 13.287 20.0075 13.4387 20.7366C13.1814 19.9481 13.122 18.8862 13.3556 17.518C14.1738 21.1077 18.4219 19.993 20.3738 16.6767L20.478 16.7546Z" fill="white"/>
</g>
<g opacity="0.3">
<path opacity="0.3" d="M19.9593 18.807C19.9421 18.9285 19.9276 19.0513 19.917 19.1781C18.3901 23.5298 12.1849 24.3857 13.3555 17.5179C13.3911 17.6751 13.4334 17.8243 13.4835 17.9643C13.3357 23.065 18.2661 22.3729 19.9593 18.807Z" fill="#390176"/>
</g>
<g opacity="0.3">
<path opacity="0.3" d="M20.478 16.7546C20.478 16.7546 20.4477 16.8272 20.4001 16.9593C20.4186 16.8827 20.4371 16.8087 20.4556 16.7387L20.478 16.7546Z" fill="#792937"/>
<path opacity="0.3" d="M20.4319 16.9712L20.3672 16.9514C20.3857 16.8748 20.4041 16.8008 20.4239 16.7295L20.4371 16.6819L20.5203 16.744L20.5097 16.7678C20.5084 16.7691 20.478 16.8418 20.4319 16.9712Z" fill="#390176"/>
</g>
<g opacity="0.3">
<path opacity="0.3" d="M20.4002 16.962C20.3131 17.3318 20.2325 17.7716 20.1877 18.2523C20.1204 18.4438 20.0438 18.6287 19.9607 18.8057C20.0715 17.9644 20.2853 17.2869 20.4002 16.962Z" fill="#792937"/>
<path opacity="0.3" d="M19.8972 19.0183L19.9263 18.8017C20.0397 17.9578 20.2509 17.2789 20.3684 16.9501L20.433 16.9685C20.3314 17.3991 20.2601 17.831 20.2205 18.2549L20.2192 18.2629C20.1532 18.4504 20.0767 18.6379 19.9909 18.8202L19.8972 19.0183ZM20.2364 17.6012C20.1625 17.8746 20.0873 18.2034 20.0279 18.5693C20.0727 18.4623 20.115 18.354 20.1532 18.2457C20.173 18.033 20.2007 17.8178 20.2364 17.6012Z" fill="#390176"/>
</g>
<g opacity="0.55">
<path opacity="0.55" d="M18.8231 21.0403C16.6112 23.9631 12.0583 23.827 13.0758 17.8587C13.1206 18.0568 13.1761 18.2391 13.2407 18.4094C12.8277 23.275 16.6561 23.4612 18.8231 21.0403Z" fill="white"/>
</g>
<path d="M23.5713 16.6001C23.6755 15.8856 24.2562 15.2701 25.0903 15.2146C26.1632 15.1433 26.9761 14.2135 26.86 13.1438C26.8586 13.1319 26.8573 13.1187 26.856 13.1055C29.8939 14.3892 28.2998 18.667 24.887 18.1678" fill="#FF52B9"/>
<path d="M25.4215 18.2417C25.2473 18.2417 25.0665 18.2285 24.8817 18.2021L24.891 18.1347C26.6977 18.3989 27.9923 17.2868 28.3367 16.0533C28.5967 15.1209 28.371 13.812 26.8943 13.1596C26.9444 13.6681 26.7913 14.1633 26.4614 14.5556C26.1223 14.9597 25.6234 15.212 25.0916 15.2476C24.3248 15.2992 23.7125 15.8565 23.6029 16.604L23.5356 16.5948C23.6505 15.8156 24.2879 15.2331 25.0863 15.1803C25.5997 15.146 26.0827 14.9029 26.41 14.512C26.732 14.1277 26.8784 13.643 26.8243 13.1464L26.8138 13.0513L26.8666 13.0738C28.4317 13.7354 28.6706 15.1011 28.4001 16.0705C28.086 17.2076 26.984 18.2417 25.4215 18.2417Z" fill="#390176"/>
<g opacity="0.3">
<path opacity="0.3" d="M24.887 18.1678L23.5713 16.5987C23.5792 16.5512 23.5871 16.5023 23.599 16.4561L24.2206 17.197C26.7478 17.5668 28.2773 15.3163 27.6663 13.602C29.5363 15.2397 27.9382 18.6142 24.887 18.1678Z" fill="#390176"/>
</g>
<g opacity="0.55">
<path opacity="0.55" d="M27.3022 13.5571C27.4183 14.6269 26.6054 15.558 25.5325 15.628C24.6984 15.6835 24.1178 16.2989 24.0135 17.0134L24.9941 18.1809C24.9584 18.177 24.9241 18.173 24.8885 18.1677L23.5728 16.5987C23.6783 15.8842 24.2577 15.2688 25.0917 15.2133C26.1646 15.142 26.9789 14.2109 26.8614 13.1424C26.8601 13.1292 26.8588 13.1173 26.8561 13.1041C27.322 13.3009 27.6783 13.5677 27.9356 13.8781C27.7509 13.742 27.5397 13.6218 27.2982 13.5188C27.2982 13.532 27.3009 13.5452 27.3022 13.5571Z" fill="white"/>
</g>
<path d="M8.03859 25.3445L7.58329 25.7869L7.58197 25.7883C7.58065 25.7869 7.58065 25.7869 7.58065 25.7856C6.75716 24.5891 5.20388 25.9811 5.20388 25.9811C2.55393 27.8895 -1.02905 24.2245 2.60012 21.1777C0.54931 23.4651 2.14482 26.4975 5.94159 24.42C5.94159 24.42 7.13195 23.7544 8.03859 25.3445Z" fill="#FF1033"/>
<path d="M3.64254 26.5411C2.8019 26.5411 2.03515 26.1198 1.56798 25.5188C0.805197 24.5362 0.611201 22.8035 2.57887 21.1512L2.62506 21.2001C1.66696 22.2699 1.45317 23.5932 2.10774 24.4187C2.65805 25.1134 3.95003 25.4713 5.92562 24.391C5.9375 24.3844 7.15558 23.7266 8.0688 25.3287L8.082 25.3511L7.58448 25.8332L7.55412 25.8028C7.36673 25.5307 7.1239 25.3749 6.83357 25.3405C6.08002 25.2507 5.23542 25.9983 5.2275 26.0062C4.70622 26.3813 4.15986 26.5411 3.64254 26.5411ZM2.30701 21.4854C0.714138 23.0187 0.918691 24.5745 1.62077 25.4779C2.35584 26.4235 3.85501 26.9122 5.18395 25.9534C5.21694 25.9243 6.05627 25.1807 6.84017 25.2732C7.13974 25.3089 7.39048 25.4634 7.58712 25.7341L7.99622 25.3379C7.11862 23.823 5.96917 24.4425 5.95729 24.4491C3.94475 25.5505 2.6211 25.1768 2.05363 24.4596C1.44657 23.6923 1.56006 22.5129 2.30701 21.4854Z" fill="#390176"/>
<g opacity="0.55">
<path opacity="0.55" d="M7.56077 25.7552L7.55153 25.7645C7.31926 25.606 7.10415 25.6192 6.93655 25.6826C6.08799 25.1583 4.90554 26.2188 4.90554 26.2188C2.25559 28.1273 -1.32739 24.4623 2.30178 21.4154C2.24503 21.4801 2.1896 21.5448 2.13814 21.6095C2.13682 21.6108 2.13682 21.6122 2.1355 21.6122C-0.693933 24.5587 2.67921 27.801 5.20379 25.9824C5.20379 25.9811 6.732 24.6128 7.56077 25.7552Z" fill="white"/>
</g>
<g opacity="0.55">
<path opacity="0.55" d="M8.0384 25.3445L7.76918 25.606C6.86518 24.0489 5.68801 24.7066 5.68801 24.7066C1.89124 26.7841 0.295728 23.7517 2.34654 21.4643C2.17102 21.6122 2.01266 21.7614 1.87013 21.9107C2.07072 21.6637 2.31355 21.4193 2.59992 21.1777C0.54911 23.4651 2.14463 26.4975 5.9414 24.42C5.9414 24.42 7.13176 23.7544 8.0384 25.3445Z" fill="white"/>
</g>
<path d="M25.3502 19.4726C25.2565 19.3551 25.1958 19.2322 25.1272 19.1134C25.0572 18.9958 25.0097 18.8704 24.9437 18.7528C24.912 18.6934 24.8843 18.6326 24.854 18.5732C24.8236 18.5138 24.7906 18.4557 24.759 18.3962C24.7273 18.3368 24.6996 18.276 24.6653 18.2179L24.5636 18.0436C24.2878 17.5813 23.9236 17.1746 23.5158 16.8232C23.108 16.4733 22.6488 16.1827 22.1552 15.9767L21.9678 15.9067C21.9045 15.8842 21.8438 15.8578 21.7791 15.8406L21.5864 15.7852L21.5389 15.7706C21.5231 15.7654 21.5059 15.7614 21.4954 15.7601C21.4716 15.7548 21.4465 15.7521 21.4214 15.7495C21.3225 15.7429 21.2209 15.768 21.1338 15.8182C21.0902 15.8433 21.0493 15.875 21.0137 15.9106C20.9965 15.9291 20.9794 15.9489 20.9648 15.9687C20.9569 15.978 20.9503 15.9899 20.9437 16.0004L20.9332 16.0163L20.9213 16.0387C20.6613 16.5023 20.4871 17.0214 20.3617 17.5496C20.2364 18.0806 20.1611 18.6247 20.1202 19.1728C20.0793 19.7209 20.074 20.273 20.0991 20.8224L20.1255 21.2344C20.1374 21.3718 20.1598 21.5078 20.177 21.6439C20.1968 21.7799 20.2086 21.9159 20.2086 22.0546C20.21 22.1933 20.1994 22.3333 20.1466 22.4838L20.1453 22.4865C20.1308 22.5261 20.0886 22.5472 20.049 22.5327C20.0344 22.5274 20.0226 22.5182 20.0133 22.5076C19.917 22.3821 19.8589 22.2474 19.818 22.1101C19.7837 21.9714 19.7573 21.8314 19.7454 21.6901C19.7362 21.5488 19.7309 21.4061 19.719 21.2648L19.6926 20.8409C19.6663 20.2756 19.6715 19.7077 19.7138 19.1424C19.756 18.5772 19.8339 18.0119 19.9645 17.4559C20.0965 16.8998 20.2799 16.3491 20.5663 15.838L20.5795 15.8142L20.5966 15.7865C20.6085 15.768 20.6204 15.7482 20.6336 15.731C20.6587 15.6954 20.689 15.661 20.7181 15.6293C20.7801 15.5659 20.85 15.5105 20.9279 15.4655C21.0823 15.3771 21.2631 15.3322 21.4426 15.344C21.4874 15.348 21.5323 15.3533 21.5759 15.3625C21.5996 15.3665 21.6168 15.3718 21.6339 15.3771L21.6867 15.3916L21.8965 15.4523C21.9678 15.4708 22.0338 15.4986 22.1024 15.5237L22.307 15.6003C22.8428 15.8248 23.3376 16.1378 23.7771 16.5142C23.8906 16.604 23.9896 16.7097 24.0952 16.8087C24.1493 16.8576 24.1954 16.9131 24.2443 16.9659L24.3908 17.1257C24.4818 17.238 24.5755 17.3476 24.6613 17.4638L24.788 17.6394L24.8527 17.7266L24.912 17.8177L25.0308 18C25.0717 18.0608 25.1021 18.1255 25.139 18.1889C25.172 18.2536 25.209 18.3157 25.2393 18.3817C25.267 18.449 25.2974 18.5151 25.3225 18.5824C25.3805 18.7158 25.4175 18.8571 25.4492 18.9985C25.4663 19.0685 25.4716 19.1424 25.4756 19.2164C25.4795 19.2903 25.4822 19.363 25.4742 19.4383C25.4703 19.4779 25.436 19.5069 25.3964 19.503C25.3766 19.5017 25.3594 19.4911 25.3475 19.4766L25.3502 19.4726Z" fill="#390176"/>
<path d="M21.3648 17.2261C21.3648 17.2261 20.7577 19.1847 21.4994 20.9412C21.4994 20.9412 22.2424 20.2664 22.6475 20.6705C22.6832 20.4896 22.5129 17.8851 21.3648 17.2261Z" fill="#F883A0"/>
<path d="M21.4729 17.0702C21.7671 17.2129 22.0245 17.44 22.2224 17.7095C22.4217 17.9802 22.559 18.2932 22.6434 18.6128C22.7279 18.9325 22.7648 19.26 22.7648 19.5836C22.7648 19.9071 22.7332 20.2268 22.6645 20.5398C22.6566 20.5767 22.6197 20.6005 22.5827 20.5913C22.5537 20.5847 22.5326 20.5596 22.5299 20.5318C22.4969 20.2175 22.4732 19.9085 22.4323 19.606C22.39 19.3036 22.3386 19.0064 22.2554 18.7211C22.1736 18.4359 22.0641 18.1638 21.9216 17.9076C21.8859 17.8429 21.845 17.7821 21.8081 17.7187L21.6814 17.5351C21.6352 17.477 21.589 17.4176 21.5415 17.3568C21.4913 17.3 21.4399 17.2419 21.391 17.1799L21.3884 17.1759C21.3646 17.1455 21.3699 17.1033 21.4003 17.0795C21.4227 17.0623 21.4504 17.0597 21.4729 17.0702Z" fill="#390176"/>
<g opacity="0.3">
<path opacity="0.3" d="M22.0061 17.0967C22.5908 17.5338 23.4182 18.4372 23.4578 20.0722C23.4631 20.2915 23.3536 20.4975 23.1701 20.6177L22.121 21.3124C21.9098 21.4524 21.6234 21.348 21.5522 21.1063C21.2249 19.989 20.9068 18.9179 21.3133 17.3766C21.3661 17.0517 21.7435 16.8999 22.0061 17.0967Z" fill="#390176"/>
</g>
<path d="M25.4243 18.4108C25.2408 18.4108 25.0521 18.3975 24.8581 18.3685C24.7473 18.3526 24.6707 18.2496 24.6866 18.1387C24.7024 18.0277 24.8053 17.9511 24.9162 17.967C26.7057 18.2285 27.8604 17.1349 28.1745 16.0071C28.4015 15.1948 28.23 14.0735 27.0713 13.4343C27.0528 13.8834 26.8878 14.3113 26.5922 14.6639C26.224 15.1037 25.6816 15.3771 25.1036 15.4167C24.4173 15.4629 23.8697 15.9608 23.7707 16.6291C23.7548 16.7401 23.6519 16.8167 23.5411 16.7995C23.4302 16.7836 23.3537 16.6806 23.3708 16.5697C23.4975 15.7112 24.1983 15.0694 25.0772 15.0112C25.5457 14.9795 25.9851 14.759 26.2821 14.4037C26.5737 14.0551 26.707 13.6153 26.6582 13.1649L26.6542 13.1292C26.6463 13.0579 26.6767 12.9866 26.7334 12.943C26.7915 12.8994 26.8667 12.8902 26.934 12.9179C28.3052 13.4977 28.9452 14.7524 28.5652 16.1154C28.23 17.3172 27.0686 18.4108 25.4243 18.4108Z" fill="#390176"/>
<path d="M29.4135 19.6007C29.3581 19.6007 29.3013 19.5968 29.2446 19.5888C28.1479 19.433 27.302 18.6762 27.0869 17.6606C27.0632 17.551 27.1331 17.444 27.2426 17.4202C27.3522 17.3978 27.4591 17.4665 27.4828 17.5761C27.6623 18.4227 28.3762 19.0553 29.3013 19.1873C29.6801 19.2415 30.0377 19.0157 30.1525 18.6498L31.5831 14.0881C31.6227 13.9626 31.5567 13.8715 31.4828 13.8279C31.4089 13.7843 31.298 13.7711 31.207 13.8662L27.9553 17.2657C27.8774 17.3463 27.7494 17.3489 27.6689 17.2723C27.5884 17.1957 27.5858 17.0663 27.6623 16.9857L30.914 13.5862C31.1199 13.3709 31.4313 13.3273 31.6887 13.4792C31.946 13.6311 32.0582 13.9243 31.9684 14.2096L30.5379 18.7713C30.3822 19.2719 29.9242 19.6007 29.4135 19.6007Z" fill="#390176"/>
<path d="M30.1553 19.0209C30.183 19.0447 30.2015 19.0619 30.2239 19.0817C30.2463 19.1015 30.2635 19.1213 30.2846 19.1398C30.3255 19.1781 30.3612 19.219 30.3968 19.26C30.4351 19.2996 30.4681 19.3432 30.5024 19.3854C30.5367 19.4277 30.571 19.47 30.6013 19.5149L30.695 19.6469L30.7795 19.7843C30.8389 19.8741 30.8838 19.9732 30.9339 20.0683C31.1239 20.4552 31.2454 20.8739 31.3074 21.2978C31.3457 21.5092 31.3483 21.7231 31.3615 21.9371C31.3602 22.044 31.3549 22.1497 31.3509 22.2567L31.3443 22.4165L31.3245 22.575L31.2849 22.8906C31.2691 22.995 31.2427 23.098 31.2216 23.2023L31.1886 23.3582C31.1767 23.4083 31.1662 23.4651 31.1543 23.51C31.1279 23.6038 31.1081 23.6976 31.0896 23.79C31.0197 24.1638 31.0157 24.5455 31.0936 24.9113C31.1319 25.0949 31.1886 25.2732 31.2638 25.4449C31.281 25.4885 31.3021 25.5307 31.3232 25.573L31.3918 25.7156C31.4169 25.7671 31.4367 25.82 31.4578 25.8728C31.4763 25.9269 31.4974 25.9798 31.5119 26.0339C31.6426 26.4684 31.6452 26.9505 31.4895 27.3863C31.4525 27.496 31.4024 27.6016 31.3483 27.702L31.2599 27.8446C31.2282 27.8908 31.2031 27.9424 31.1662 27.9846C31.0316 28.1629 30.8811 28.3293 30.7109 28.4706C30.3717 28.7559 29.9798 28.9619 29.5759 29.1059C29.1708 29.2499 28.7511 29.3344 28.3301 29.378C27.9092 29.4202 27.4869 29.4242 27.0685 29.3925C26.6502 29.3582 26.2358 29.2921 25.8293 29.197C25.4215 29.1019 25.0217 28.9778 24.635 28.8206C24.247 28.6648 23.8709 28.4799 23.5106 28.2646C23.1516 28.048 22.8164 27.7892 22.5208 27.4907C22.2265 27.1922 21.9705 26.8528 21.7924 26.4764C21.7844 26.4579 21.791 26.4367 21.8095 26.4288C21.824 26.4222 21.8399 26.4262 21.8504 26.4367C22.1342 26.7326 22.4271 27.002 22.7386 27.2477C23.05 27.492 23.376 27.7165 23.7165 27.9159C24.0583 28.114 24.4172 28.2844 24.7881 28.4271C25.1576 28.571 25.539 28.6833 25.927 28.7678C26.7003 28.9382 27.5014 29.0002 28.28 28.9131C28.6693 28.8695 29.052 28.7889 29.4136 28.6569C29.7739 28.5261 30.1131 28.3425 30.3955 28.1008C30.5393 27.982 30.662 27.8433 30.7729 27.698C30.8033 27.6637 30.8231 27.6214 30.8494 27.5831L30.922 27.4669C30.9643 27.389 31.0012 27.3097 31.0302 27.2252C31.149 26.8924 31.1477 26.5186 31.0448 26.1739C31.0329 26.1303 31.0157 26.0881 31.0025 26.0458C30.9841 26.0049 30.9695 25.9613 30.9497 25.9217L30.8851 25.7883C30.86 25.7394 30.8376 25.6892 30.8165 25.639C30.7294 25.437 30.6634 25.2256 30.6198 25.009C30.5314 24.5759 30.538 24.1268 30.6211 23.7015C30.6423 23.5946 30.666 23.4889 30.695 23.3872C30.7109 23.3344 30.7175 23.2895 30.7294 23.2406L30.7623 23.098C30.7821 23.0029 30.8085 22.9078 30.8244 22.8114L30.8653 22.5208L30.8851 22.3755L30.8917 22.2303C30.8956 22.1339 30.9022 22.0361 30.9049 21.9384C30.8943 21.7456 30.897 21.5501 30.864 21.3599C30.8138 20.9769 30.7096 20.6018 30.5459 20.2558C30.501 20.1713 30.4641 20.0815 30.4139 20.0009L30.3414 19.8768L30.2609 19.7579C30.2345 19.7169 30.2068 19.68 30.1764 19.6417C30.1474 19.6047 30.1196 19.5651 30.088 19.5307C30.0576 19.4951 30.0273 19.4581 29.9943 19.4264C29.9784 19.4105 29.9626 19.3921 29.9468 19.3775C29.9309 19.363 29.9125 19.3445 29.9019 19.3353L29.8966 19.3313C29.8122 19.2587 29.8029 19.1306 29.8755 19.046C29.9455 18.9628 30.0708 18.9523 30.1553 19.0209Z" fill="#390176"/>
<path d="M26.3454 23.0768C26.323 22.678 26.4602 22.2778 26.736 21.9569C26.8746 21.7984 27.0554 21.6663 27.2652 21.5858C27.3681 21.5422 27.4816 21.5211 27.5951 21.5065L27.6822 21.5039L27.7258 21.5026L27.7693 21.5065L27.8564 21.5145L27.9422 21.5329C28.1718 21.5831 28.3764 21.7244 28.5229 21.9001C28.668 22.0771 28.7525 22.2897 28.7894 22.501L28.8026 22.5803C28.8066 22.6067 28.8066 22.6331 28.8092 22.6595C28.8132 22.7123 28.8145 22.7652 28.8119 22.8167C28.8106 22.921 28.7974 23.0227 28.7762 23.1218C28.7274 23.3185 28.6403 23.5034 28.5031 23.658C28.4899 23.6738 28.4661 23.6751 28.4516 23.6606C28.445 23.654 28.441 23.6461 28.4397 23.6382V23.6368C28.4107 23.4334 28.4133 23.2551 28.4081 23.0808C28.4028 22.995 28.4041 22.9104 28.3962 22.8272C28.3949 22.785 28.3869 22.7454 28.3817 22.7044C28.379 22.6846 28.3777 22.6635 28.3737 22.6437L28.3605 22.5855C28.3262 22.431 28.2708 22.2871 28.1863 22.1682C28.0992 22.0546 27.9858 21.9622 27.8498 21.9305C27.7838 21.9093 27.7113 21.9107 27.6413 21.9146C27.5701 21.9265 27.5001 21.9424 27.4328 21.9767C27.2969 22.0401 27.1755 22.1405 27.0633 22.2567C26.9498 22.3729 26.8469 22.5063 26.7426 22.6476C26.6357 22.7889 26.5407 22.9435 26.4153 23.098L26.414 23.0993C26.4021 23.1151 26.3784 23.1165 26.3639 23.1046C26.3507 23.0953 26.3454 23.0861 26.3454 23.0768Z" fill="#390176"/>
<path d="M26.8877 22.0731C26.6898 21.9133 26.5657 21.6848 26.5288 21.4537C26.4905 21.2212 26.5393 20.9941 26.6291 20.7999C26.6449 20.7656 26.6858 20.7511 26.7188 20.7669C26.7478 20.7801 26.7637 20.8118 26.7571 20.8422V20.8435C26.7162 21.0324 26.7241 21.2239 26.7914 21.3837C26.8561 21.5448 26.9762 21.669 27.1147 21.735C27.2163 21.7839 27.2599 21.9054 27.2111 22.0084C27.1622 22.1101 27.0408 22.1537 26.9379 22.1048C26.9234 22.0982 26.9102 22.0889 26.8983 22.0797L26.8877 22.0731Z" fill="#390176"/>
<path d="M27.3957 21.7059C27.3469 21.5078 27.3482 21.2992 27.4116 21.109C27.4432 21.0139 27.4894 20.9254 27.5501 20.8488C27.6095 20.7722 27.6808 20.7088 27.7586 20.6586C27.7903 20.6375 27.8325 20.6467 27.8523 20.6784C27.8695 20.7048 27.8655 20.7392 27.8457 20.7603L27.8444 20.7616C27.7388 20.8792 27.6821 21.0218 27.6755 21.1644C27.6689 21.3058 27.7085 21.4471 27.7758 21.5659C27.8312 21.665 27.7969 21.7905 27.6992 21.8459C27.6016 21.9014 27.4749 21.8671 27.4195 21.7693C27.4102 21.7535 27.4036 21.735 27.3984 21.7178L27.3957 21.7059Z" fill="#390176"/>
<path d="M27.6743 26.3033C27.6888 26.5001 27.6888 26.6824 27.7047 26.8567C27.7192 27.0311 27.7469 27.1948 27.7971 27.3493C27.8485 27.5039 27.9251 27.6478 28.0267 27.7865C28.1283 27.9252 28.255 28.0533 28.3935 28.1867L28.3949 28.188C28.4226 28.2144 28.4226 28.2593 28.3962 28.2871C28.3777 28.3055 28.3526 28.3121 28.3289 28.3055C28.1336 28.254 27.9449 28.1576 27.7839 28.0176C27.6229 27.8776 27.4935 27.6914 27.4183 27.4841C27.3418 27.278 27.3207 27.0562 27.3457 26.8488C27.3721 26.6401 27.4368 26.4433 27.545 26.2703C27.5661 26.2373 27.6097 26.2267 27.6427 26.2479C27.6624 26.2598 27.6743 26.2809 27.6756 26.302L27.6743 26.3033Z" fill="#390176"/>
<path d="M30.5215 27.0578C30.6082 26.8875 30.5538 26.6859 30.4 26.6073C30.2461 26.5288 30.051 26.6031 29.9642 26.7733C29.8775 26.9436 29.9319 27.1452 30.0857 27.2238C30.2396 27.3023 30.4347 27.228 30.5215 27.0578Z" fill="#390176"/>
<path d="M31.1172 16.4191C31.0948 16.4191 31.0711 16.4138 31.0486 16.4046C30.4218 16.1273 30.1354 15.4946 30.175 14.4698C30.1789 14.376 30.2568 14.3047 30.3505 14.3073C30.4442 14.3113 30.5168 14.3892 30.5128 14.483C30.4693 15.6425 30.8757 15.9595 31.1859 16.0969C31.2716 16.1352 31.3099 16.2342 31.2716 16.3201C31.2439 16.3822 31.1819 16.4191 31.1172 16.4191Z" fill="#390176"/>
<path d="M30.6303 18.0885C30.6132 18.0885 30.596 18.0859 30.5789 18.0806L30.5709 18.078C30.5617 18.0753 30.5525 18.0727 30.5432 18.0687C29.7738 17.8257 29.0071 16.8048 29.1087 15.5765C29.1166 15.4841 29.1984 15.4154 29.2908 15.422C29.3832 15.4299 29.4532 15.5118 29.4452 15.6043C29.3515 16.7269 30.084 17.5708 30.6475 17.7465C30.6501 17.7478 30.6528 17.7478 30.6554 17.7491L30.6805 17.757C30.7689 17.7848 30.819 17.8798 30.79 17.9683C30.7689 18.0423 30.7016 18.0885 30.6303 18.0885Z" fill="#390176"/>
<path d="M23.1569 16.4904C23.1094 16.4904 23.0619 16.4746 23.0236 16.4402C22.4126 15.908 22.4983 15.3652 22.6026 15.0905C22.8256 14.5054 23.533 14.0511 24.2192 14.0511C24.2219 14.0511 24.2232 14.0511 24.2258 14.0511C24.5505 14.0207 24.9701 13.9203 25.1417 13.6152C25.2921 13.3485 25.2407 12.943 24.9952 12.4438C24.9583 12.3698 24.9715 12.2813 25.0256 12.2192C25.081 12.1572 25.1668 12.136 25.2446 12.1638C26.1183 12.4768 26.6752 13.1728 26.6633 13.9362C26.6541 14.582 26.2252 15.1208 25.5468 15.3414C25.4399 15.3757 25.3264 15.3176 25.2921 15.2107C25.2578 15.1037 25.3159 14.9901 25.4228 14.9558C25.9401 14.788 26.2529 14.405 26.2595 13.9296C26.2661 13.4779 26.0008 13.0526 25.5561 12.7647C25.6748 13.1781 25.6551 13.5294 25.4941 13.8147C25.3502 14.0696 25.019 14.3879 24.2522 14.4565C24.2456 14.4565 24.2377 14.4579 24.2324 14.4579C24.2285 14.4579 24.2232 14.4579 24.2192 14.4579C23.6993 14.4579 23.1463 14.8052 22.9814 15.2358C22.8639 15.5461 22.9695 15.8578 23.2902 16.1365C23.3746 16.2104 23.3825 16.3385 23.31 16.4218C23.269 16.4667 23.2123 16.4904 23.1569 16.4904Z" fill="#390176"/>
<path d="M23.2056 33.6201C23.1357 33.6201 23.0684 33.6148 23.0024 33.6043C22.8916 33.5871 22.8163 33.4828 22.8335 33.3718C22.8506 33.2609 22.9549 33.1856 23.0658 33.2028C23.4485 33.2635 23.9869 33.0628 24.4053 32.7048C24.7352 32.4222 24.9252 32.0973 24.9252 31.812C24.9252 31.6998 25.0163 31.61 25.1271 31.61C25.2393 31.61 25.3291 31.7011 25.3291 31.812C25.3291 32.2149 25.0875 32.6533 24.6666 33.0126C24.2245 33.3956 23.6715 33.6201 23.2056 33.6201Z" fill="#390176"/>
<path d="M9.09024 35.6923C8.92 35.6923 8.74844 35.6566 8.58612 35.58L7.36276 35.0082C6.78605 34.7387 6.52343 34.0705 6.76362 33.4854C7.43798 31.849 8.54917 30.6789 8.59668 30.6287C8.67454 30.5481 8.80255 30.5455 8.88305 30.6221C8.96355 30.7 8.96619 30.8281 8.88965 30.9087C8.87909 30.9206 7.78374 32.0762 7.13841 33.6386C6.98005 34.0216 7.15425 34.4614 7.53432 34.6384L8.75768 35.2102C9.114 35.3766 9.54026 35.2551 9.75009 34.9276C11.3575 32.4156 13.5469 30.9707 16.0794 30.7462C18.9259 30.4953 21.9969 31.8345 24.2971 34.328C24.404 34.4429 24.5492 34.5089 24.7049 34.5129C24.8619 34.5182 25.0097 34.4574 25.1219 34.3478L25.6089 33.8671C25.8068 33.6716 25.8385 33.3652 25.6828 33.138C24.6204 31.5836 24.0371 29.9485 23.9975 28.4086C23.9949 28.2963 24.0833 28.2038 24.1942 28.2012C24.3063 28.1959 24.3987 28.2871 24.4014 28.398C24.4396 29.86 24.9979 31.4198 26.0167 32.9096C26.2819 33.2992 26.2305 33.8235 25.8926 34.1563L25.4056 34.637C25.2156 34.8246 24.9622 34.925 24.6957 34.9184C24.4278 34.9118 24.181 34.7995 23.9989 34.6027C21.7831 32.2003 18.8349 30.91 16.1137 31.1504C13.7105 31.3617 11.628 32.7445 10.0906 35.1455C9.86754 35.4968 9.48483 35.6923 9.09024 35.6923Z" fill="#390176"/>
<path d="M10.3665 34.5935C10.3071 34.5935 10.2477 34.5671 10.2068 34.5156C9.21704 33.2556 7.43282 32.7128 7.41434 32.7075C7.30745 32.6758 7.24674 32.5622 7.27841 32.4553C7.31009 32.3483 7.42226 32.2875 7.53047 32.3192C7.60834 32.343 9.45459 32.903 10.5262 34.2646C10.5948 34.3531 10.5803 34.4799 10.4919 34.5486C10.4536 34.579 10.41 34.5935 10.3665 34.5935Z" fill="#390176"/>
<path d="M15.8432 25.0434C14.3256 25.0434 12.837 24.2642 12.0848 23.0042C11.128 21.3995 11.5358 19.3524 13.2012 17.3885C13.2514 17.3304 13.3292 17.304 13.4031 17.3225C13.477 17.341 13.5351 17.3991 13.5523 17.4744C13.8241 18.667 14.4958 19.3709 15.4975 19.5122C17.1326 19.742 19.1966 18.4028 20.2999 16.398C20.354 16.3003 20.4767 16.2646 20.5744 16.3187C20.672 16.3729 20.7077 16.4957 20.6535 16.5935C20.0716 17.6513 19.219 18.5679 18.2543 19.1741C17.3028 19.7724 16.3025 20.0352 15.4394 19.9137C14.3903 19.7658 13.6288 19.0751 13.2632 17.9525C11.4341 20.2941 11.9462 21.982 12.4318 22.7968C13.2448 24.1611 15.0184 24.9007 16.6496 24.5547C18.3269 24.1994 19.4355 22.7902 19.6902 20.6863C19.7034 20.5754 19.8037 20.4962 19.9158 20.5094C20.0267 20.5226 20.1059 20.6243 20.0927 20.7352C19.8142 23.0214 18.5909 24.5574 16.7327 24.9509C16.4398 25.013 16.1415 25.0434 15.8432 25.0434Z" fill="#390176"/>
<path d="M15.7863 22.7282C15.5514 22.7282 15.3231 22.7004 15.1079 22.645C13.4306 22.2105 12.714 20.2835 13.1891 17.4902C13.2049 17.3978 13.292 17.337 13.3844 17.3515C13.4768 17.3674 13.5375 17.4546 13.523 17.547C13.0796 20.1488 13.7038 21.9318 15.1937 22.3174C15.3864 22.3676 15.591 22.3914 15.8008 22.3914C17.2538 22.3914 19.0235 21.2186 19.7599 19.1213C19.7902 19.0328 19.8866 18.9866 19.975 19.0183C20.0634 19.0487 20.1096 19.1451 20.0779 19.2336C19.2887 21.4775 17.3712 22.7282 15.7863 22.7282Z" fill="#390176"/>
<path d="M13.6102 24.4279C13.5852 24.4279 13.5588 24.4226 13.5337 24.4134C11.9963 23.79 11.0065 22.8431 10.5934 21.6016C9.83723 19.33 11.2757 16.9078 11.3377 16.8061C11.372 16.748 11.4341 16.7123 11.5014 16.7084C11.5687 16.7057 11.6333 16.7361 11.6729 16.7889L12.8237 18.3302C12.891 18.42 12.8725 18.5468 12.7828 18.6141C12.6931 18.6815 12.5664 18.663 12.4991 18.5732L11.5383 17.2868C11.1978 17.9657 10.4205 19.8001 10.9788 21.4748C11.3536 22.5987 12.2642 23.4598 13.6868 24.0357C13.791 24.0779 13.8399 24.1955 13.799 24.2998C13.766 24.3791 13.6894 24.4279 13.6102 24.4279Z" fill="#390176"/>
<path d="M8.25614 31.5519C8.19411 31.5519 8.13341 31.5241 8.09382 31.47C7.02354 30.0238 6.75564 27.9476 7.41153 26.1818C8.07666 24.3909 9.54548 23.1561 11.5501 22.7044C11.6596 22.6806 11.7678 22.748 11.7916 22.8576C11.8167 22.9672 11.7481 23.0755 11.6385 23.0993C9.77247 23.5206 8.40526 24.6643 7.79029 26.3218C7.18059 27.9635 7.42737 29.8891 8.41846 31.2283C8.48445 31.3181 8.46597 31.4449 8.37623 31.5123C8.3406 31.5387 8.29837 31.5519 8.25614 31.5519Z" fill="#390176"/>
<path d="M6.99723 33.6545C6.95368 33.6545 6.90881 33.6399 6.87186 33.6109L5.88473 32.8264C5.57856 32.582 5.48486 32.1541 5.66302 31.8068C6.34134 30.4874 7.2031 29.3806 7.23874 29.3344C7.30736 29.2459 7.43537 29.23 7.52247 29.3C7.61089 29.3687 7.62673 29.4968 7.55678 29.584C7.54754 29.5946 6.68314 30.7079 6.02198 31.993C5.93224 32.1686 5.97975 32.3852 6.13547 32.5094L7.1226 33.2939C7.2097 33.3639 7.22422 33.4907 7.15559 33.5792C7.116 33.6294 7.05794 33.6545 6.99723 33.6545Z" fill="#390176"/>
<path d="M7.56327 32.5609C7.47221 32.5609 7.38907 32.4988 7.36664 32.405C7.20432 31.7249 6.18155 31.3934 6.17099 31.3907C6.0641 31.3564 6.00471 31.2428 6.03903 31.1372C6.07202 31.0302 6.18551 30.9708 6.29241 31.0051C6.34387 31.0209 7.5448 31.4079 7.75991 32.3126C7.7863 32.4209 7.719 32.5305 7.60946 32.5569C7.59494 32.5582 7.57911 32.5609 7.56327 32.5609Z" fill="#390176"/>
<path d="M2.95098 27.7218C2.37296 27.7218 1.92954 27.5778 1.62337 27.4286C0.597966 26.9241 -0.0236108 25.8239 0.0014634 24.5534C0.0304967 23.0121 0.97144 21.6809 2.51812 20.9928C2.58807 20.9624 2.66989 20.9729 2.72796 21.0205C2.78734 21.0694 2.81374 21.146 2.7979 21.2212C2.60918 22.0797 2.71476 22.7057 3.11331 23.0808C3.61215 23.5523 4.59797 23.6236 5.81868 23.2789C6.46138 23.0848 7.10275 23.1455 7.62139 23.4506C8.111 23.7385 8.46336 24.2285 8.58741 24.7951C8.61116 24.9047 8.54254 25.013 8.433 25.0368C8.32347 25.0606 8.21525 24.9919 8.1915 24.8823C8.0912 24.4253 7.80879 24.0317 7.41684 23.8006C6.99058 23.5497 6.47721 23.5034 5.93218 23.6685C4.54782 24.0595 3.44983 23.9551 2.83485 23.3753C2.39671 22.9619 2.22779 22.3438 2.33073 21.5369C1.14036 22.1933 0.429045 23.3 0.40529 24.5613C0.384175 25.6721 0.918652 26.6309 1.80021 27.0641C2.50625 27.4101 4.04897 27.7033 6.44686 25.7764C6.51153 25.7064 6.7781 25.4462 7.14762 25.437C7.41024 25.4304 7.65702 25.5479 7.88137 25.7856C7.95791 25.8675 7.95395 25.9956 7.87213 26.0722C7.79031 26.1488 7.6623 26.1449 7.58576 26.063C7.44719 25.9164 7.3073 25.8411 7.16741 25.8411C7.16477 25.8411 7.16214 25.8411 7.1595 25.8411C6.92459 25.8451 6.74115 26.0537 6.73983 26.0551C6.73192 26.0643 6.72268 26.0735 6.71344 26.0815C5.1298 27.3573 3.87081 27.7218 2.95098 27.7218Z" fill="#390176"/>
<path d="M3.64373 26.6784C2.75954 26.6784 1.95188 26.236 1.46096 25.6034C0.995103 25.0038 0.806387 24.2562 0.929118 23.4995C1.06901 22.6371 1.61008 21.7905 2.49032 21.0496C2.55762 20.9928 2.65792 20.9981 2.71995 21.0614C2.78197 21.1248 2.78329 21.2252 2.72391 21.2913C1.81068 22.3108 1.59952 23.5629 2.21186 24.3355C2.72787 24.9879 3.9565 25.3128 5.85951 24.2721C5.87138 24.2655 7.20692 23.5444 8.18481 25.2613C8.231 25.3419 8.20329 25.4449 8.12147 25.4911C8.04096 25.5373 7.93803 25.5096 7.89184 25.4277C7.08286 24.008 6.06538 24.5428 6.02315 24.5666C3.93671 25.7077 2.55103 25.3036 1.94924 24.5428C1.52166 24.0027 1.42664 23.275 1.6378 22.5327C0.977947 23.6659 1.20625 24.7211 1.72885 25.3934C2.42433 26.2875 3.84037 26.7497 5.10068 25.8477C5.19438 25.7658 6.04558 25.0407 6.85983 25.1385C7.21087 25.1807 7.50121 25.367 7.72292 25.6905C7.7757 25.7671 7.75591 25.8728 7.67937 25.9256C7.60282 25.9784 7.49725 25.9586 7.44446 25.882C7.27818 25.639 7.07363 25.5056 6.81892 25.4753C6.12476 25.3921 5.32635 26.1 5.31711 26.1066C5.31315 26.1105 5.30787 26.1145 5.30259 26.1184C4.75756 26.5107 4.18613 26.6784 3.64373 26.6784Z" fill="#390176"/>
<path d="M15.4935 31.1649C15.4803 31.1649 15.4671 31.1623 15.4539 31.1583C15.3826 31.1359 15.343 31.0606 15.3655 30.9893C16.5268 27.2635 15.1345 24.8889 15.12 24.8651C15.0817 24.8017 15.1015 24.7185 15.1662 24.6802C15.2295 24.6419 15.3127 24.6617 15.351 24.7264C15.4117 24.8268 16.8198 27.2305 15.6228 31.0711C15.6043 31.1279 15.5502 31.1649 15.4935 31.1649Z" fill="#390176"/>
<path d="M15.2375 29.3159C14.9709 29.3159 14.7254 29.131 14.6819 28.8854C14.6476 28.6899 14.7347 28.4786 14.9273 28.291C15.1622 28.0612 15.5159 27.9001 15.9805 27.8116C16.2536 27.7588 16.4951 27.7694 16.6997 27.8407C16.9636 27.9331 17.1669 28.1405 17.2315 28.3809C17.3081 28.6688 17.1682 28.9818 16.9135 29.0927C16.6271 29.2182 16.3051 29.0623 16.1335 28.8444C16.0808 28.7771 16.0385 28.7044 16.0042 28.6291C15.9752 28.7242 15.9422 28.8127 15.8986 28.8854C15.7587 29.1231 15.537 29.2816 15.3087 29.3106C15.285 29.3146 15.2612 29.3159 15.2375 29.3159ZM15.8472 28.118C15.5291 28.1999 15.2797 28.3254 15.1161 28.4852C15.0422 28.5578 14.9221 28.6991 14.9471 28.8405C14.9709 28.9778 15.1398 29.061 15.2744 29.0452C15.4209 29.0267 15.5674 28.9171 15.6664 28.7507C15.7403 28.6252 15.7878 28.402 15.8261 28.2224C15.8327 28.1841 15.8406 28.1497 15.8472 28.118ZM16.1137 28.0626C16.1164 28.0678 16.1177 28.0744 16.119 28.081C16.1652 28.2844 16.218 28.5142 16.3473 28.678C16.4516 28.8101 16.6469 28.9144 16.8066 28.8444C16.9372 28.7876 17.0125 28.6067 16.9715 28.4495C16.9306 28.295 16.7921 28.159 16.6113 28.0943C16.4714 28.0467 16.3038 28.0361 16.1137 28.0626Z" fill="#390176"/>
<path d="M16.7434 30.0793C16.7064 30.0793 16.6708 30.0648 16.6444 30.0357C16.1983 29.5523 15.9093 28.925 15.8302 28.2725C15.8209 28.1986 15.8737 28.1312 15.9476 28.122C16.0215 28.1141 16.0888 28.1656 16.0981 28.2395C16.1706 28.8365 16.4346 29.4097 16.8424 29.8521C16.8925 29.9076 16.8899 29.9921 16.8344 30.0436C16.8081 30.0674 16.7751 30.0793 16.7434 30.0793Z" fill="#390176"/>
<path d="M21.5416 34.6146C21.2803 34.6146 21.0441 34.4521 20.9477 34.2012C19.892 31.4753 17.1232 31.1345 17.0942 31.1319C16.9834 31.12 16.9029 31.0196 16.9147 30.9087C16.9266 30.7977 17.0269 30.7172 17.1378 30.7291C17.1694 30.733 17.9111 30.8175 18.7993 31.2692C19.6201 31.6866 20.7247 32.5081 21.3238 34.0559C21.3608 34.1523 21.4518 34.2157 21.5508 34.2104C21.9428 34.192 22.4469 33.9978 22.6171 33.1856C22.6396 33.076 22.7478 33.006 22.8573 33.0284C22.9669 33.0509 23.0368 33.1592 23.0144 33.2688C22.7781 34.3901 22.0088 34.5935 21.5706 34.6146C21.5614 34.6146 21.5521 34.6146 21.5416 34.6146Z" fill="#390176"/>
<path d="M20.8672 33.7443C20.7801 33.7443 20.6996 33.6875 20.6732 33.599C20.6415 33.492 20.7022 33.3784 20.8091 33.3467C20.8184 33.3441 21.5706 33.1103 21.8451 32.553C21.8939 32.4526 22.0153 32.4116 22.1156 32.4605C22.2159 32.5094 22.2568 32.6309 22.208 32.7313C21.8543 33.4484 20.9635 33.7231 20.9252 33.7337C20.9055 33.7416 20.8857 33.7443 20.8672 33.7443Z" fill="#390176"/>
<path d="M12.6086 11.0742C12.3249 13.0315 15.2942 11.5232 13.5549 10.6053Z" fill="#FFB612"/>
<path d="M14.5866 4.14837C15.8483 6.70131 14.8479 10.0361 13.0901 10.9065C11.4999 11.6936 8.07657 10.5499 6.81362 7.99692C5.55331 5.44531 6.55892 3.09972 8.70474 2.03655C10.8519 0.973374 13.325 1.59543 14.5866 4.14837Z" fill="#FFB612"/>
<g opacity="0.3">
<path opacity="0.3" d="M13.0915 10.9064C11.7982 11.547 9.2908 10.9104 7.72168 9.27537C8.88169 9.72177 10.0575 9.78648 10.8164 9.41008C12.5729 8.53973 13.5745 5.20361 12.3116 2.65199C12.1268 2.2769 11.9144 1.94408 11.6821 1.65221C12.8447 1.93352 13.8979 2.75236 14.5867 4.14836C15.8497 6.69997 14.8494 10.0361 13.0915 10.9064Z" fill="#390176"/>
</g>
<g opacity="0.55">
<path opacity="0.55" d="M7.43133 8.3192C7.91962 9.30709 8.73255 10.0824 9.63654 10.6186C8.49369 10.0969 7.41286 9.2054 6.81503 7.99695C5.55208 5.44533 6.55901 3.09974 8.70616 2.03656C10.0984 1.34715 11.6306 1.36696 12.8777 2.16467C11.7626 1.7011 10.493 1.77902 9.32114 2.36014C7.17531 3.42199 6.1697 5.76758 7.43133 8.3192Z" fill="white"/>
</g>
<path d="M11.884 11.3529C11.2255 11.3529 10.4838 11.197 9.75137 10.8919C8.36437 10.3121 7.22679 9.2899 6.63293 8.08805C6.00739 6.8228 5.88862 5.54435 6.28981 4.39269C6.66592 3.31235 7.49205 2.41162 8.61511 1.8556C9.73817 1.29958 10.9536 1.18996 12.041 1.54523C13.1997 1.92427 14.1433 2.7933 14.7688 4.05987C15.3733 5.28153 15.5184 6.79375 15.1687 8.20823C14.8335 9.56196 14.0905 10.6383 13.1813 11.0887C12.8236 11.2657 12.3776 11.3529 11.884 11.3529ZM10.7491 1.73409C10.1143 1.73409 9.45312 1.89126 8.79459 2.21747C6.57882 3.31499 5.85695 5.60114 6.99716 7.90711C7.5488 9.02311 8.60983 9.97403 9.90841 10.5168C11.0829 11.0081 12.268 11.0874 13.0018 10.7242C13.8055 10.3267 14.4693 9.34801 14.7754 8.10918C15.1027 6.78582 14.9681 5.37398 14.4059 4.23817C13.6049 2.61765 12.2522 1.73409 10.7491 1.73409Z" fill="#390176"/>
<path d="M16.9596 10.6714C15.1424 11.4466 17.9745 13.2005 17.8518 11.2366Z" fill="#11C3F2"/>
<path d="M17.2646 12.1691C16.8806 12.1691 16.4477 11.8719 16.3395 11.5113C16.2788 11.3079 16.2775 10.9249 16.9452 10.6397L16.9716 10.7017C16.5124 10.8972 16.3105 11.1785 16.4042 11.4915C16.5124 11.8547 17.0007 12.1585 17.3728 12.0911C17.6909 12.0343 17.8492 11.7319 17.8175 11.238L17.8848 11.234C17.9297 11.9525 17.5906 12.1215 17.3834 12.1585C17.3451 12.1651 17.3055 12.1691 17.2646 12.1691Z" fill="#390176"/>
<path d="M23.8997 8.75899C22.3781 11.1653 19.0102 12.0436 17.354 10.995C17.2181 10.9091 17.0861 10.8008 16.9634 10.6753C15.7268 9.41406 15.1884 6.3051 16.5727 4.118C17.3738 2.85011 18.4533 2.15145 19.5909 1.95995C20.6136 1.78694 21.6852 2.02599 22.642 2.63219C24.6664 3.91593 25.4226 6.35397 23.8997 8.75899Z" fill="#11C3F2"/>
<path d="M19.0736 11.4665C18.4032 11.4665 17.7988 11.3172 17.3356 11.024C17.197 10.9355 17.0637 10.8272 16.9397 10.6991C16.3128 10.0586 15.8681 8.95578 15.752 7.74732C15.6226 6.4068 15.9037 5.11118 16.5438 4.09951C17.3132 2.88313 18.365 2.13165 19.5857 1.92694C20.6071 1.75392 21.6985 1.99561 22.6606 2.60446C23.6807 3.25161 24.3815 4.19724 24.6335 5.26702C24.9014 6.40944 24.6586 7.62318 23.9288 8.77748C23.2214 9.89612 22.0403 10.781 20.6876 11.205C20.1334 11.3793 19.5844 11.4665 19.0736 11.4665ZM20.2402 1.94014C20.0238 1.94014 19.8087 1.95731 19.5976 1.99297C18.3966 2.19504 17.3607 2.93596 16.6018 4.13517C15.9697 5.13363 15.6926 6.4134 15.8206 7.7394C15.9354 8.93332 16.3722 10.0216 16.9885 10.6503C17.1086 10.7744 17.2379 10.8801 17.3725 10.9659C18.1723 11.4717 19.4036 11.5365 20.6678 11.1402C22.0047 10.7203 23.1726 9.84594 23.8721 8.7405C25.2788 6.51774 24.7655 4.01763 22.6263 2.66125C21.8767 2.18844 21.0492 1.94014 20.2402 1.94014Z" fill="#390176"/>
<g opacity="0.3">
<path opacity="0.3" d="M24.0135 8.57275C23.9766 8.63482 23.9396 8.69822 23.9 8.76029C22.3784 11.1666 19.0106 12.0449 17.3543 10.9963C17.2184 10.9104 17.0864 10.8021 16.9637 10.6766C16.9413 10.6542 16.9202 10.6317 16.8977 10.608C16.8964 10.6066 16.8964 10.6066 16.8964 10.6053C16.874 10.5816 16.8515 10.5565 16.8304 10.53C16.8278 10.5261 16.8238 10.5221 16.8212 10.5195C16.8027 10.497 16.7842 10.4746 16.7671 10.4521C16.746 10.4257 16.7248 10.398 16.7037 10.3702C16.6628 10.3148 16.6232 10.2567 16.5836 10.1972C16.5784 10.1893 16.5744 10.1827 16.5691 10.1761C16.5533 10.151 16.5388 10.1272 16.5229 10.1021C16.5031 10.0704 16.4847 10.0387 16.4662 10.007C16.449 9.97667 16.4319 9.94629 16.416 9.91591C16.3976 9.8829 16.3804 9.84988 16.3632 9.81554C16.3461 9.7812 16.3289 9.74818 16.3131 9.71252C16.2973 9.67818 16.2801 9.64253 16.2643 9.60819C16.2629 9.60422 16.2603 9.60158 16.259 9.59762C16.1983 9.46159 16.1429 9.31895 16.0914 9.17103C16.0874 9.16046 16.0848 9.15122 16.0808 9.14065C16.0703 9.10896 16.0597 9.07726 16.0492 9.04556C16.0452 9.03103 16.0399 9.01783 16.036 9.0033C16.028 8.97821 16.0201 8.95311 16.0135 8.92802C15.9792 8.81444 15.9489 8.69689 15.9211 8.57803C15.9159 8.55294 15.9106 8.52916 15.9053 8.50407C15.8644 8.31389 15.8314 8.11974 15.8063 7.92163C15.8011 7.87805 15.7958 7.83447 15.7918 7.78956C15.7403 7.29165 15.7443 6.77261 15.8156 6.25753C15.8208 6.21659 15.8274 6.17565 15.834 6.13339C15.8644 5.94585 15.9027 5.7583 15.9502 5.57208C15.9594 5.54039 15.9673 5.50869 15.9753 5.47699C15.9924 5.4136 16.0122 5.3502 16.032 5.28813C16.0426 5.25643 16.0518 5.22474 16.0637 5.19436C16.0742 5.16266 16.0848 5.13229 16.0967 5.10059C16.1191 5.03852 16.1429 4.97644 16.1666 4.91569C16.2775 4.63966 16.4134 4.37288 16.5744 4.11666C16.614 4.05458 16.6536 3.99383 16.6958 3.9344C16.709 3.91327 16.7235 3.89214 16.738 3.87232C16.7882 3.79969 16.8397 3.72969 16.8924 3.66233C16.9175 3.62931 16.9439 3.5963 16.9703 3.5646C16.9941 3.5329 17.0191 3.50385 17.0455 3.47347C17.0508 3.46687 17.0548 3.46158 17.06 3.4563C17.0864 3.42592 17.1128 3.39555 17.1392 3.36649C17.1669 3.33479 17.1947 3.30442 17.2224 3.27536C17.225 3.27272 17.2263 3.2714 17.229 3.26876C17.2527 3.24366 17.2765 3.21857 17.3015 3.19348C17.3108 3.18423 17.32 3.17499 17.3293 3.16706C17.3517 3.14329 17.3755 3.12084 17.3992 3.09839C17.4018 3.09574 17.4032 3.09442 17.4058 3.09178C17.4335 3.06537 17.4626 3.03763 17.4916 3.01122C17.4942 3.00858 17.4955 3.00726 17.4982 3.00594C17.5246 2.98216 17.551 2.95839 17.5774 2.93594C17.6341 2.88575 17.6935 2.83688 17.7516 2.79066C17.7846 2.76425 17.8175 2.73915 17.8519 2.71406C17.8862 2.68896 17.9192 2.66519 17.9535 2.64142C17.9878 2.61765 18.0221 2.59387 18.0564 2.57142C18.5421 2.25181 19.0633 2.04974 19.5965 1.95993C20.4028 2.72991 20.9043 3.86836 20.9043 5.31587C20.9043 6.30508 20.6179 7.25732 20.1626 8.0788C19.743 8.83557 20.3461 9.76535 21.2065 9.67026C22.1396 9.5646 23.1465 9.19084 24.0135 8.57275Z" fill="#390176"/>
</g>
<g opacity="0.3">
<path opacity="0.3" d="M15.8139 6.25755C15.7783 6.51509 15.7598 6.77395 15.7559 7.03017C15.7598 6.77263 15.7783 6.51509 15.8139 6.25755Z" fill="#792937"/>
<path opacity="0.3" d="M15.7902 7.03015L15.7229 7.02883C15.7269 6.76733 15.7453 6.50583 15.781 6.25226L15.8483 6.2615C15.814 6.51112 15.7942 6.76733 15.7915 7.02487C15.7902 7.02619 15.7902 7.02883 15.7902 7.03015Z" fill="#390176"/>
</g>
<g opacity="0.3">
<path opacity="0.3" d="M15.7559 7.02884C15.7519 7.28506 15.7638 7.53863 15.7902 7.78825C15.7651 7.53996 15.7532 7.28638 15.7559 7.02884Z" fill="#792937"/>
<path opacity="0.3" d="M15.7574 7.79221C15.731 7.53863 15.7204 7.28242 15.723 7.02884L15.7904 7.03016C15.7864 7.27977 15.7983 7.53203 15.8233 7.78165C15.8233 7.78297 15.8233 7.78429 15.8233 7.78429L15.7574 7.79221Z" fill="#390176"/>
</g>
<g opacity="0.3">
<path opacity="0.3" d="M15.8049 7.92033C15.83 8.11844 15.863 8.31391 15.9039 8.50277C15.863 8.31391 15.83 8.11976 15.8049 7.92033Z" fill="#792937"/>
<path opacity="0.3" d="M15.8723 8.51069C15.83 8.32183 15.797 8.12504 15.772 7.92429L15.8393 7.91637C15.8644 8.11315 15.8973 8.30862 15.9383 8.49616L15.8723 8.51069Z" fill="#390176"/>
</g>
<g opacity="0.3">
<path opacity="0.3" d="M15.9484 5.57341C15.9009 5.75831 15.8613 5.94585 15.8323 6.13471C15.8613 5.94585 15.8996 5.75831 15.9484 5.57341Z" fill="#792937"/>
<path opacity="0.3" d="M15.8654 6.13867L15.7981 6.12811C15.8284 5.93528 15.868 5.7451 15.9156 5.56416L15.9802 5.58133C15.934 5.76491 15.8944 5.95245 15.8654 6.13867Z" fill="#390176"/>
</g>
<g opacity="0.3">
<path opacity="0.3" d="M15.9209 8.57674C15.9486 8.6956 15.979 8.81314 16.0133 8.92673C15.979 8.81314 15.9486 8.6956 15.9209 8.57674Z" fill="#792937"/>
<path opacity="0.3" d="M15.9803 8.93729C15.9486 8.83031 15.917 8.71541 15.8879 8.58465L15.9539 8.5688C15.9856 8.69956 16.0146 8.81314 16.0463 8.91748L15.9803 8.93729Z" fill="#390176"/>
</g>
<g opacity="0.3">
<path opacity="0.3" d="M16.0918 9.16991C16.1433 9.31783 16.1987 9.46046 16.2594 9.59649C16.1987 9.46046 16.1419 9.31783 16.0918 9.16991Z" fill="#792937"/>
<path opacity="0.3" d="M16.2285 9.61083C16.1678 9.4748 16.1097 9.32952 16.0596 9.1816L16.1229 9.15915C16.1744 9.30707 16.2298 9.44971 16.2905 9.5831L16.2285 9.61083Z" fill="#390176"/>
</g>
<g opacity="0.3">
<path opacity="0.3" d="M16.5833 10.1971C16.6228 10.2565 16.6624 10.3146 16.7033 10.3701C16.6624 10.3146 16.6215 10.2565 16.5833 10.1971Z" fill="#792937"/>
<path opacity="0.3" d="M16.6771 10.3901C16.6771 10.3901 16.6758 10.3901 16.6771 10.3901C16.6309 10.3267 16.5913 10.2699 16.5557 10.2157L16.6124 10.1787C16.656 10.2448 16.6942 10.3002 16.7312 10.3491L16.6771 10.3901Z" fill="#390176"/>
</g>
<g opacity="0.55">
<path opacity="0.55" d="M23.9 8.75899C23.6928 9.08652 23.4513 9.385 23.1861 9.65443C23.2573 9.55802 23.3246 9.45896 23.3893 9.35595C24.9109 6.94961 24.156 4.51157 22.1329 3.22915C20.4147 2.14089 18.3335 2.2373 16.8132 3.76536C18.3507 1.67864 20.7222 1.41581 22.6437 2.63219C24.6668 3.91593 25.4229 6.35396 23.9 8.75899Z" fill="white"/>
</g>
<path d="M19.0816 11.6342C18.3822 11.6342 17.7421 11.4797 17.2459 11.1667C16.458 10.6674 15.8391 9.50519 15.6306 8.13297C15.4036 6.64585 15.6847 5.14287 16.4013 4.00838C17.1562 2.81445 18.1855 2.04976 19.3772 1.79354C20.495 1.55317 21.6933 1.7909 22.7517 2.46182C23.8101 3.13275 24.5372 4.11404 24.7985 5.2274C25.077 6.41472 24.8262 7.67336 24.0714 8.86729C22.9219 10.6833 20.8196 11.6342 19.0816 11.6342ZM20.2416 2.10919C19.979 2.10919 19.7177 2.13693 19.4617 2.19108C18.3782 2.42352 17.4386 3.12746 16.7431 4.2263C15.2386 6.6049 16.1149 9.9714 17.4623 10.8246C19.0024 11.7993 22.2608 10.9725 23.7283 8.65201C25.1034 6.47811 24.623 4.12856 22.5339 2.80521C21.8107 2.34692 21.0189 2.10919 20.2416 2.10919Z" fill="#390176"/>
<path d="M17.2657 12.3381C16.8078 12.3381 16.3076 11.9934 16.1783 11.5602C16.1163 11.3529 16.0622 10.8338 16.8804 10.4852C16.9833 10.4416 17.1021 10.4891 17.1457 10.5921C17.1892 10.6951 17.1417 10.814 17.0388 10.8576C16.7775 10.9699 16.4818 11.1614 16.5663 11.444C16.6494 11.724 17.0559 11.9776 17.3436 11.9261C17.6287 11.8759 17.6669 11.5298 17.6498 11.2499C17.6432 11.1376 17.7276 11.0425 17.8398 11.0346C17.9507 11.028 18.047 11.1125 18.0549 11.2248C18.109 12.1057 17.626 12.2879 17.4149 12.3262C17.366 12.3328 17.3159 12.3381 17.2657 12.3381Z" fill="#390176"/>
<path d="M13.188 12.2325C13.1102 12.2325 13.0349 12.2232 12.961 12.2047C12.7525 12.1493 12.2814 11.9274 12.4094 11.0465C12.4252 10.9355 12.5282 10.8589 12.639 10.8748C12.7499 10.8906 12.8264 10.9936 12.8106 11.1046C12.7697 11.3859 12.7802 11.7385 13.0653 11.8138C13.3477 11.8878 13.7753 11.6725 13.8809 11.4004C13.9864 11.131 13.7119 10.917 13.4625 10.7863C13.3635 10.7335 13.3253 10.6119 13.3781 10.5129C13.4308 10.4138 13.5523 10.3755 13.6512 10.4284C14.4325 10.8404 14.3361 11.3489 14.2583 11.5483C14.1026 11.9419 13.6248 12.2325 13.188 12.2325Z" fill="#390176"/>
<path d="M14.5708 19.5333C14.5668 19.5333 14.5629 19.5333 14.5589 19.5333C14.4956 19.5281 14.4454 19.4792 14.4362 19.4158L13.4754 11.9445C13.4662 11.8706 13.5177 11.8032 13.5916 11.7927C13.6655 11.7834 13.7328 11.8349 13.7433 11.9089L14.6249 18.7647L16.7285 11.9895C16.7509 11.9181 16.8261 11.8785 16.8974 11.901C16.9687 11.9234 17.0083 11.9987 16.9858 12.07L14.6988 19.4383C14.6816 19.495 14.6289 19.5333 14.5708 19.5333Z" fill="#390176"/>
<path d="M14.571 19.5334C14.5644 19.5334 14.5578 19.5334 14.5512 19.532C14.4773 19.5215 14.4259 19.4528 14.4364 19.3788L15.6215 11.2129C15.6321 11.1389 15.7007 11.0874 15.7746 11.098C15.8485 11.1085 15.9 11.1772 15.8894 11.2512L14.7043 19.4171C14.6951 19.4845 14.637 19.5334 14.571 19.5334Z" fill="#390176"/>
<g opacity="0.3">
<path opacity="0.3" d="M31.1396 27.5765C30.1049 29.4678 26.7503 29.6223 24.1993 28.4059C24.2178 29.1112 24.3537 29.8231 24.586 30.5204C20.9753 28.6159 20.9106 26.446 21.1759 25.3498C21.2643 24.9853 21.6919 24.8242 21.9941 25.0461C27.418 29.0386 29.8938 27.8737 30.7292 23.8416L30.8189 23.9684C30.741 24.6036 30.8519 25.1966 31.1304 25.7394C31.4273 26.3179 31.451 27.0073 31.1396 27.5765Z" fill="#390176"/>
</g>
<path d="M25.3434 19.063C25.2788 18.9257 25.2075 18.787 25.1296 18.6457C25.226 18.7791 25.2972 18.9191 25.3434 19.063Z" fill="#792937"/>
<path d="M25.3133 19.0777C25.25 18.943 25.1787 18.803 25.1008 18.663L25.1576 18.6274C25.2552 18.7621 25.3291 18.9047 25.3767 19.0539L25.3133 19.0777Z" fill="#390176"/>
<g opacity="0.3">
<path opacity="0.3" d="M22.1883 23.8257C21.6103 23.7227 21.2434 23.1587 21.0204 22.6054C20.9518 22.4337 21.1352 22.2659 21.2949 22.3584C21.8663 22.6859 22.7439 22.7678 23.4368 22.5908C23.7825 22.5023 24.0425 22.9091 23.8089 23.1799C23.3365 23.7266 22.7202 23.9208 22.1883 23.8257Z" fill="#390176"/>
</g>
<g opacity="0.3">
<path opacity="0.3" d="M30.3399 19.5162C30.5748 21.4709 28.227 20.7366 27.525 19.1794C26.5748 19.5109 25.2696 18.8809 25.2696 18.8809L24.9951 18.1836C24.9951 18.1836 26.6091 18.2179 27.3283 17.7451C27.3283 17.7451 27.8681 19.8054 29.8819 19.2758L30.3399 19.5162Z" fill="#390176"/>
</g>
<g opacity="0.3">
<path opacity="0.3" d="M24.4556 33.0931L22.9102 33.3018C19.1781 30.2457 13.861 29.6593 10.3665 34.3914C10.2134 34.5974 10.0656 34.814 9.9204 35.0399C9.91644 35.0465 9.91116 35.0531 9.90588 35.0597L8.39087 35.2644C11.5938 26.5081 19.4315 26.5094 24.4556 33.0931Z" fill="#390176"/>
</g>
<g opacity="0.3">
<path opacity="0.3" d="M12.5149 23.6434C14.0075 26.6005 19.3377 27.1248 20.1797 23.2604L19.9171 21.1393C18.823 24.84 15.8115 25.8926 12.5149 23.6434Z" fill="#390176"/>
</g>
<path d="M15.3878 10.0361C14.266 11.6646 17.597 11.6302 16.4435 10.0361Z" fill="#FF1033"/>
<path d="M15.9196 11.2789C15.6939 11.2789 15.4682 11.2115 15.3138 11.0768C15.1541 10.9382 14.9483 10.6146 15.36 10.0163L15.4154 10.0546C15.1317 10.4667 15.1119 10.8114 15.3574 11.0253C15.6424 11.2749 16.2178 11.2683 16.4963 11.0148C16.7351 10.7968 16.7061 10.4561 16.4158 10.0546L16.4699 10.015C16.8922 10.5987 16.6955 10.9223 16.5411 11.0636C16.3867 11.2076 16.1531 11.2789 15.9196 11.2789Z" fill="#390176"/>
<path d="M20.2312 4.70571C20.2312 7.55317 17.8557 10.0982 15.8946 10.0982C14.121 10.0982 11.5581 7.55317 11.5581 4.70571C11.5581 1.85825 13.4994 0.202072 15.8946 0.202072C18.2899 0.202072 20.2312 1.85825 20.2312 4.70571Z" fill="#FF1033"/>
<path d="M15.8947 10.1325C15.0105 10.1325 13.9151 9.50386 13.0362 8.49219C12.0755 7.38807 11.5251 6.00792 11.5251 4.7057C11.5251 3.34008 11.9672 2.18314 12.8053 1.36165C13.5891 0.591674 14.6871 0.167725 15.8947 0.167725C17.1022 0.167725 18.2002 0.591674 18.9841 1.36165C19.8221 2.18314 20.2642 3.34008 20.2642 4.7057C20.2642 6.02906 19.7389 7.4092 18.8231 8.49219C17.9547 9.5197 16.8607 10.1325 15.8947 10.1325ZM15.8947 0.236402C13.3622 0.236402 11.5925 2.07484 11.5925 4.7057C11.5925 5.99075 12.1375 7.35505 13.0863 8.44728C13.9534 9.44442 15.0289 10.0638 15.8947 10.0638C16.8409 10.0638 17.9164 9.45895 18.7716 8.44728C19.6769 7.37618 20.1969 6.01189 20.1969 4.70438C20.1969 2.07484 18.4271 0.236402 15.8947 0.236402Z" fill="#390176"/>
<g opacity="0.3">
<path opacity="0.3" d="M20.2313 4.70702C20.2313 7.55448 17.8558 10.0995 15.8948 10.0995C14.1211 10.0995 11.5596 7.55448 11.5596 4.70702C11.5596 4.35042 11.5899 4.01232 11.6467 3.69403C12.3171 5.87321 14.2966 7.57825 15.7483 7.57825C17.4916 7.57825 19.5635 5.56416 20.0004 3.11555C20.1495 3.59365 20.2313 4.12458 20.2313 4.70702Z" fill="#390176"/>
</g>
<g opacity="0.55">
<path opacity="0.55" d="M20.0266 3.20009C19.3219 1.67334 17.8412 0.826763 16.1269 0.826763C13.7316 0.826763 11.7904 2.48162 11.7904 5.3304C11.7904 5.84812 11.8748 6.35659 12.0253 6.8413C11.7336 6.17698 11.5581 5.4519 11.5581 4.70702C11.5581 1.85956 13.4994 0.203386 15.8933 0.203386C17.8293 0.202065 19.4684 1.28373 20.0266 3.20009Z" fill="white"/>
</g>
<path d="M15.8946 10.3016C14.9629 10.3016 13.8188 9.65047 12.9082 8.60314C11.921 7.46733 11.3562 6.04756 11.3562 4.70571C11.3562 3.29386 11.8168 2.09598 12.6865 1.24147C13.502 0.441119 14.6422 0 15.8946 0C17.147 0 18.2859 0.441119 19.1028 1.24147C19.9738 2.09598 20.4331 3.29386 20.4331 4.70571C20.4331 7.71958 17.9375 10.3016 15.8946 10.3016ZM15.8946 0.40546C13.4228 0.40546 11.7613 2.13428 11.7613 4.70571C11.7613 7.52016 14.3004 9.89612 15.8946 9.89612C17.7171 9.89612 20.0279 7.4528 20.0279 4.70571C20.0279 2.13428 18.3664 0.40546 15.8946 0.40546Z" fill="#390176"/>
<path d="M15.9196 11.4479C15.6543 11.4479 15.3891 11.3674 15.203 11.2049C15.0407 11.0636 14.7173 10.6542 15.2215 9.9212C15.2848 9.82875 15.4115 9.8063 15.5026 9.86969C15.595 9.93309 15.6174 10.0599 15.554 10.151C15.393 10.3861 15.2465 10.7057 15.4683 10.8999C15.6886 11.0927 16.1677 11.0874 16.3828 10.8919C16.5966 10.6965 16.4448 10.3835 16.2799 10.1563C16.2139 10.0652 16.235 9.93837 16.3247 9.87365C16.4158 9.80762 16.5425 9.82875 16.6072 9.91856C17.1245 10.6344 16.813 11.0465 16.6547 11.1917C16.4686 11.3621 16.1941 11.4479 15.9196 11.4479Z" fill="#390176"/>
<g opacity="0.25">
<path opacity="0.25" d="M18.1275 2.68104C18.1275 3.19876 17.1377 3.24234 16.0134 3.24234C14.889 3.24234 14.0549 3.20008 14.0549 2.68104C14.0549 2.162 14.9655 1.74333 16.0912 1.74333C17.2169 1.74333 18.1275 2.16332 18.1275 2.68104Z" fill="white"/>
</g>
<g opacity="0.25">
<path opacity="0.25" d="M22.7794 7.19922C22.3069 7.41317 21.9744 6.77923 21.6405 6.03963C21.3066 5.30003 21.0981 4.73345 21.5692 4.52081C22.0404 4.30818 22.6949 4.73477 23.0288 5.47437C23.3627 6.21396 23.2505 6.98658 22.7794 7.19922Z" fill="white"/>
</g>
<g opacity="0.25">
<path opacity="0.25" d="M9.39921 4.88838C9.53572 4.35791 9.35172 3.85192 8.98822 3.75824C8.62472 3.66455 8.21939 4.01864 8.08287 4.54912C7.94636 5.07959 8.13037 5.58558 8.49386 5.67926C8.85736 5.77295 9.2627 5.41886 9.39921 4.88838Z" fill="white"/>
</g>
<g opacity="0.25">
<path opacity="0.25" d="M8.46489 7.27184C8.70249 7.27184 8.89511 7.01403 8.89511 6.69601C8.89511 6.37799 8.70249 6.12018 8.46489 6.12018C8.22728 6.12018 8.03467 6.37799 8.03467 6.69601C8.03467 7.01403 8.22728 7.27184 8.46489 7.27184Z" fill="white"/>
</g>
</g>
<defs>
<clipPath id="clip0_631_5316">
<rect width="32" height="35.6923" fill="white"/>
</clipPath>
</defs>
</svg>
