<svg width="24" height="24" viewBox="0 0 24 24" fill="none" xmlns="http://www.w3.org/2000/svg">
<g clip-path="url(#clip0_631_6731)">
<path d="M21.8569 21.4282C22.3963 21.4282 22.8638 21.2501 23.2612 20.8984L16.4616 14.0985C16.2985 14.2153 16.1403 14.3289 15.991 14.4369C15.4821 14.8119 15.0691 15.1044 14.752 15.314C14.4349 15.5241 14.013 15.7383 13.4864 15.957C12.9594 16.1759 12.4685 16.285 12.0131 16.285H11.9997H11.9864C11.5309 16.285 11.04 16.1759 10.5131 15.957C9.98612 15.7383 9.56424 15.5241 9.24747 15.314C8.93038 15.1044 8.51761 14.8119 8.0085 14.4369C7.86663 14.3329 7.70928 14.2188 7.53917 14.0967L0.738281 20.8984C1.13563 21.2501 1.60339 21.4282 2.14283 21.4282H21.8569Z" fill="white"/>
<path d="M1.35282 9.81669C0.844016 9.47747 0.392814 9.08897 0 8.65137V18.9968L5.99313 13.0037C4.79416 12.1666 3.24935 11.1055 1.35282 9.81669Z" fill="white"/>
<path d="M22.6608 9.81669C20.8365 11.0514 19.2861 12.1143 18.0093 13.006L24 18.997V8.65137C23.6159 9.08017 23.1696 9.46841 22.6608 9.81669Z" fill="white"/>
<path d="M21.857 2.57129H2.14297C1.4552 2.57129 0.92644 2.80353 0.556023 3.26755C0.1853 3.73178 0.000244141 4.31235 0.000244141 5.00861C0.000244141 5.57101 0.245824 6.18038 0.736765 6.8369C1.22771 7.49316 1.75011 8.00864 2.30371 8.38358C2.6072 8.59801 3.52241 9.23427 5.04935 10.2921C5.87363 10.8633 6.59046 11.3612 7.20645 11.7908C7.73151 12.1567 8.18433 12.4735 8.55819 12.7364C8.60111 12.7665 8.6686 12.8148 8.75819 12.8789C8.8547 12.9482 8.97684 13.0362 9.12752 13.145C9.41767 13.3548 9.65872 13.5245 9.8507 13.654C10.0424 13.7837 10.2747 13.9285 10.5472 14.0893C10.8195 14.2498 11.0763 14.3706 11.3174 14.4509C11.5585 14.5311 11.7817 14.5714 11.987 14.5714H12.0003H12.0136C12.2189 14.5714 12.4421 14.5311 12.6833 14.4509C12.9243 14.3706 13.1809 14.2501 13.4534 14.0893C13.7256 13.9285 13.9576 13.7834 14.15 13.654C14.3419 13.5245 14.583 13.3549 14.8732 13.145C15.0236 13.0362 15.1457 12.9482 15.2422 12.8791C15.3318 12.8148 15.3993 12.7668 15.4425 12.7364C15.7337 12.5338 16.1876 12.2183 16.7978 11.7946C17.9081 11.0231 19.5433 9.88761 21.7103 8.38358C22.3621 7.92837 22.9066 7.37904 23.3442 6.73638C23.781 6.09372 24 5.41959 24 4.71423C24 4.1249 23.7877 3.62062 23.3639 3.20062C22.9397 2.78114 22.4373 2.57129 21.857 2.57129Z" fill="white"/>
</g>
<defs>
<clipPath id="clip0_631_6731">
<rect width="24" height="24" fill="white"/>
</clipPath>
</defs>
</svg>
