<svg width="20" height="24" viewBox="0 0 20 24" fill="none" xmlns="http://www.w3.org/2000/svg">
<path d="M10.3262 0C3.7484 0 0.250244 4.21519 0.250244 8.8114C0.250244 10.943 1.4413 13.6011 3.34788 14.4441C3.6374 14.5747 3.7949 14.5192 3.85941 14.2506C3.91641 14.0466 4.16692 13.0641 4.28843 12.6006C4.32593 12.4521 4.30643 12.3231 4.18642 12.1835C3.55339 11.4515 3.05087 10.118 3.05087 8.8669C3.05087 5.66125 5.59949 2.54861 9.93618 2.54861C13.6863 2.54861 16.31 4.98472 16.31 8.46938C16.31 12.4071 14.2264 15.1312 11.5188 15.1312C10.0202 15.1312 8.90413 13.9551 9.25815 12.5001C9.68567 10.7675 10.5242 8.9044 10.5242 7.65484C10.5242 6.53429 9.89118 5.60725 8.59812 5.60725C7.07255 5.60725 5.835 7.11782 5.835 9.14591C5.835 10.4345 6.29102 11.3045 6.29102 11.3045C6.29102 11.3045 4.78195 17.4008 4.50144 18.5393C4.02741 20.4669 4.56594 23.5886 4.61244 23.8571C4.64094 24.0056 4.80745 24.0521 4.90045 23.9306C5.04896 23.7356 6.87304 21.1329 7.38457 19.2519C7.57057 18.5663 8.33411 15.7867 8.33411 15.7867C8.83663 16.6943 10.2872 17.4548 11.8323 17.4548C16.4285 17.4548 19.7496 13.4151 19.7496 8.40188C19.7331 3.59566 15.6199 0 10.3262 0Z" fill="white"/>
</svg>
