<svg width="263" height="278" viewBox="0 0 263 278" fill="none" xmlns="http://www.w3.org/2000/svg">
<path d="M216.431 152.909C216.431 163.352 168.331 171.809 109.001 171.809C49.6707 171.809 1.57056 163.352 1.57056 152.909C1.57056 142.476 49.6707 134.01 109.001 134.01C168.331 134.01 216.431 142.466 216.431 152.909Z" fill="white"/>
<path d="M109.001 172.055C80.288 172.055 53.293 170.088 32.9928 166.519C12.5747 162.93 1.3252 158.091 1.3252 152.909C1.3252 147.727 12.5747 142.899 32.9928 139.3C53.3028 135.73 80.288 133.764 109.001 133.764C137.714 133.764 164.699 135.73 185.009 139.3C205.427 142.889 216.677 147.727 216.677 152.909C216.677 158.091 205.427 162.93 185.009 166.519C164.709 170.088 137.714 172.055 109.001 172.055ZM109.001 134.255C80.3175 134.255 53.3617 136.222 33.0811 139.792C13.2128 143.282 1.81601 148.071 1.81601 152.909C1.81601 157.757 13.2128 162.536 33.0811 166.037C53.3617 169.606 80.3175 171.573 109.001 171.573C137.684 171.573 164.65 169.606 184.921 166.037C204.789 162.546 216.186 157.757 216.186 152.909C216.186 148.061 204.789 143.282 184.921 139.792C164.65 136.222 137.684 134.255 109.001 134.255Z" fill="#390075"/>
<path d="M216.431 152.909C216.431 154.414 215.43 155.869 213.555 157.275C211.857 158.534 209.442 159.753 206.379 160.904C189.259 167.344 152.095 171.809 109.001 171.809C65.907 171.809 28.7422 167.344 11.6225 160.904C5.17316 158.475 1.57056 155.761 1.57056 152.909C1.57056 142.466 49.6707 134.009 109.001 134.009C139.235 134.009 166.544 136.202 186.069 139.742C204.858 143.144 216.431 147.786 216.431 152.909Z" fill="white"/>
<path d="M109.001 172.055C67.4188 172.055 29.1644 167.767 11.544 161.13C4.76092 158.573 1.3252 155.81 1.3252 152.899C1.3252 147.717 12.5747 142.889 32.9928 139.29C53.293 135.72 80.288 133.754 109.001 133.754C138.313 133.754 165.7 135.789 186.118 139.487C205.83 143.056 216.686 147.825 216.686 152.899C216.686 154.423 215.715 155.938 213.81 157.383V157.501H213.643C211.955 158.74 209.54 159.96 206.477 161.12C188.837 167.767 150.583 172.055 109.001 172.055ZM109.001 134.255C80.3175 134.255 53.3519 136.222 33.0811 139.791C13.2128 143.282 1.81601 148.071 1.81601 152.909C1.81601 155.554 5.24192 158.239 11.7109 160.678C29.292 167.295 67.4777 171.573 109.001 171.573C150.524 171.573 188.72 167.295 206.291 160.678C209.295 159.547 211.66 158.357 213.31 157.147L213.408 157.069C215.253 155.692 216.186 154.296 216.186 152.899C216.186 148.16 205.191 143.449 186.02 139.968C165.641 136.291 138.283 134.255 109.001 134.255Z" fill="#390075"/>
<path d="M109.001 146.301C58.8294 146.301 16.6976 152.349 4.87866 160.53C6.54744 161.68 8.81502 162.792 11.6225 163.854C28.7422 170.295 65.907 174.759 109.001 174.759C152.095 174.759 189.259 170.295 206.379 163.854C209.196 162.792 211.454 161.68 213.123 160.53C208.421 157.285 198.938 154.364 186.069 152.034C166.544 148.494 139.225 146.301 109.001 146.301Z" fill="#390075"/>
<path d="M109.001 175.005C67.4187 175.005 29.1644 170.717 11.544 164.08C8.69726 163.008 6.41005 161.877 4.74127 160.727L4.44678 160.52L4.74127 160.314C16.8841 151.906 59.7522 146.036 109.001 146.036C138.313 146.036 165.69 148.071 186.118 151.769C199.243 154.148 208.637 157.098 213.27 160.304L213.565 160.51L213.27 160.717C211.601 161.877 209.314 163.008 206.468 164.07C188.837 170.717 150.583 175.005 109.001 175.005ZM5.32043 160.53C6.9205 161.592 9.07028 162.634 11.7109 163.628C29.292 170.245 67.4776 174.523 109.001 174.523C150.524 174.523 188.72 170.245 206.291 163.628C208.931 162.634 211.071 161.592 212.681 160.53C208.009 157.442 198.801 154.591 186.02 152.28C165.631 148.582 138.273 146.557 108.991 146.557C60.243 146.547 17.7774 152.29 5.32043 160.53Z" fill="white"/>
<g opacity="0.3">
<path opacity="0.3" d="M1.57056 152.909C1.57056 154.414 2.57183 155.869 4.44675 157.275C7.48982 158.79 10.1599 160.078 11.6225 160.904C28.7423 167.345 65.907 171.809 109.001 171.809C152.095 171.809 189.259 167.345 206.379 160.904C189.259 154.463 152.095 149.998 109.001 149.998C83.3998 149.998 59.8994 151.572 41.4446 154.207C38.8924 154.571 32.1191 153.184 30.4601 149.31C28.811 145.475 30.1165 142.151 31.9326 139.732C13.144 143.145 1.57056 147.786 1.57056 152.909Z" fill="#390075"/>
</g>
<path d="M109.001 173.382C80.2193 173.382 53.1458 171.406 32.767 167.826C11.0238 164.001 0 158.976 0 152.909C0 146.842 11.0238 141.817 32.767 137.992C53.1458 134.403 80.2193 132.436 109.001 132.436C137.782 132.436 164.856 134.413 185.235 137.992C206.978 141.817 218.002 146.832 218.002 152.909C218.002 158.986 206.978 164.001 185.235 167.826C164.856 171.406 137.782 173.382 109.001 173.382ZM109.001 135.583C80.396 135.583 53.509 137.54 33.3069 141.099C11.0434 145.013 3.14124 149.91 3.14124 152.909C3.14124 155.908 11.0434 160.805 33.3069 164.729C53.509 168.289 80.396 170.246 109.001 170.246C137.606 170.246 164.493 168.289 184.695 164.729C206.958 160.815 214.861 155.918 214.861 152.909C214.861 149.91 206.958 145.013 184.695 141.099C164.493 137.54 137.606 135.583 109.001 135.583Z" fill="#390075"/>
<path d="M28.2415 77.9197C28.1826 77.8607 28.104 77.841 28.055 77.8902C27.0831 78.6375 18.857 85.4619 24.4033 99.9071C31.3729 118.099 43.182 117.529 52.5664 130.351C61.1852 142.132 55.0991 160.727 52.0658 168.19C57.5924 168.82 61.303 168.121 61.303 168.121C61.303 168.121 81.1517 141.237 67.1535 117.568C57.6808 101.539 41.896 112.671 33.8663 99.504C30.3029 93.6531 29.5961 87.5466 29.9004 82.6102C30.0084 80.6927 29.3213 79.0407 28.2415 77.9197Z" fill="#39D5FF"/>
<path d="M56.6011 168.692C55.2857 168.692 53.7445 168.623 52.0365 168.426C51.9579 168.417 51.8892 168.367 51.8499 168.308C51.8107 168.239 51.8009 168.161 51.8303 168.082C54.8341 160.668 60.9105 142.171 52.3604 130.499C48.5811 125.336 44.3699 122.327 40.3059 119.427C34.151 115.031 28.3397 110.891 24.1678 99.9957C18.5528 85.3637 26.9164 78.4213 27.898 77.6838C28.0551 77.5658 28.2809 77.5854 28.4281 77.7428C29.6551 79.0211 30.2638 80.7518 30.1558 82.6201C29.7729 88.8348 31.0981 94.4595 34.0823 99.3664C37.8322 105.512 43.2999 106.269 49.0817 107.076C55.5998 107.98 62.3338 108.915 67.3696 117.43C74.6435 129.742 72.6606 142.919 69.7157 151.798C66.5254 161.405 61.5583 168.2 61.5092 168.269C61.47 168.318 61.4111 168.357 61.3522 168.367C61.3129 168.367 59.5165 168.692 56.6011 168.692ZM52.4193 167.964C57.1704 168.466 60.5374 167.974 61.146 167.876C62.324 166.214 80.288 140.293 66.9279 117.686C62.0197 109.377 55.4035 108.462 49.013 107.577C43.1036 106.761 37.5279 105.984 33.6504 99.6319C30.6073 94.6464 29.2625 88.9135 29.6453 82.5906C29.7435 80.8993 29.2036 79.3259 28.114 78.1558C26.8477 79.1588 19.2989 85.9045 24.6292 99.8089C28.752 110.557 34.5044 114.667 40.5906 119.014C44.6938 121.944 48.9345 124.973 52.7629 130.204C61.3424 141.925 55.4918 160.274 52.4193 167.964Z" fill="#102770"/>
<g opacity="0.6">
<path opacity="0.6" d="M68.1254 117.558C58.6526 101.53 42.8679 112.661 34.8381 99.4942C31.2747 93.6433 30.568 87.5368 30.8723 82.6004C30.9901 80.6829 30.2931 79.0407 29.2133 77.9099C29.1544 77.8509 29.0759 77.8312 29.0268 77.8804C28.693 78.1361 27.4954 79.1194 26.2979 80.8894C27.3678 82.0104 28.0452 83.6526 27.9372 85.5505C27.6329 90.4868 28.3397 96.5934 31.903 102.444C39.9328 115.611 55.7175 104.48 65.1903 120.508C76.4791 139.605 65.7498 160.786 61.1754 168.269C61.892 168.19 62.2846 168.121 62.2846 168.121C62.2846 168.121 82.1235 141.227 68.1254 117.558Z" fill="white"/>
</g>
<g opacity="0.3">
<path opacity="0.3" d="M28.1436 107.41C35.1426 118.256 44.6939 119.604 52.5568 130.342C61.1756 142.122 55.0895 160.717 52.0562 168.181C56.4539 168.682 59.7032 168.338 60.8419 168.181L60.7731 167.433C60.7731 167.433 70.8153 136.871 59.3399 126.733C49.7101 118.217 42.1711 122.416 28.1436 107.41Z" fill="#390075"/>
</g>
<path d="M56.6208 170.019C55.2563 170.019 53.6563 169.951 51.8795 169.744L49.8181 169.508L50.5936 167.581C53.5188 160.373 59.4381 142.407 51.2807 131.266C47.629 126.271 43.5061 123.33 39.5207 120.489C33.4836 116.182 27.2306 111.717 22.9212 100.448C16.9823 84.9408 26.0428 77.4379 27.0932 76.6316C27.7803 76.1104 28.762 76.1891 29.3706 76.8184C30.8332 78.3426 31.5891 80.4863 31.4615 82.689C31.0983 88.6283 32.3548 93.9974 35.2015 98.6682C38.6274 104.283 43.5552 104.971 49.2585 105.758C55.7668 106.663 63.1389 107.685 68.4986 116.752C74.4571 126.831 75.3112 139.093 70.9625 152.211C67.7133 162.015 62.7658 168.771 62.5597 169.046L62.1965 169.547L61.5879 169.665C61.4701 169.675 59.6148 170.019 56.6208 170.019ZM54.2845 166.794C57.2 166.971 59.389 166.774 60.4001 166.646C62.9916 162.841 78.0499 139.074 65.7991 118.355C61.2149 110.596 55.1974 109.76 48.8364 108.875C42.8877 108.049 36.7328 107.194 32.5314 100.31C29.3509 95.0889 27.9374 89.0905 28.3399 82.5021C28.3889 81.6565 28.2417 80.8501 27.9079 80.152C25.7483 82.453 21.7433 88.5497 25.876 99.3369C29.8516 109.721 35.4469 113.713 41.3662 117.942C45.5578 120.931 49.8868 124.019 53.833 129.427C62.2161 140.883 57.5141 158.15 54.2845 166.794Z" fill="#390075"/>
<path d="M18.5923 79.0407C9.18819 89.1199 13.2522 111.953 26.5141 129.752C34.2199 140.096 35.555 153.961 35.5059 162.644C41.5527 166.204 47.4328 167.649 52.0464 168.18C55.0699 160.717 61.1658 142.132 52.5471 130.342C43.1626 117.519 31.3535 118.089 24.3839 99.8973C19.142 86.2191 26.2294 79.375 27.8295 78.0475C27.9767 77.9197 27.9473 77.6247 27.7706 77.4772C26.6122 76.5234 25.1496 76.1104 23.7557 76.484C22.0182 76.9462 20.2709 77.8017 18.5923 79.0407Z" fill="#FD6CCB"/>
<path d="M52.0562 168.436C52.0464 168.436 52.0366 168.436 52.0267 168.436C46.1173 167.758 40.5121 165.889 35.3782 162.861C35.2997 162.811 35.2506 162.733 35.2506 162.644C35.2997 153.253 33.7879 139.949 26.3079 129.899C19.7996 121.167 15.3528 111.088 13.792 101.539C12.2018 91.8044 13.8411 83.7509 18.3959 78.8637C18.4057 78.8538 18.4155 78.844 18.4351 78.8342C20.1236 77.5853 21.8905 76.7102 23.6869 76.2382C25.1103 75.8547 26.6613 76.2382 27.9276 77.2903C28.0846 77.4182 28.173 77.6247 28.173 77.8312C28.173 78.0082 28.1043 78.1557 27.9865 78.254C26.514 79.4733 19.4266 86.2486 24.6195 99.8088C28.7423 110.557 34.4947 114.667 40.5809 119.013C44.6841 121.944 48.9248 124.972 52.7532 130.204C61.4505 142.092 55.325 160.796 52.282 168.289C52.2525 168.377 52.1642 168.436 52.0562 168.436ZM35.7708 162.497C40.7477 165.407 46.1762 167.227 51.8991 167.905C54.9324 160.383 60.832 142.083 52.3605 130.499C48.5812 125.336 44.37 122.327 40.306 119.426C34.1511 115.031 28.3399 110.891 24.1679 99.9956C18.8474 86.1109 26.1606 79.1193 27.6822 77.8607C27.692 77.841 27.6822 77.7328 27.6233 77.6837C26.4846 76.7397 25.1103 76.3955 23.844 76.7397C22.1163 77.2018 20.4082 78.0377 18.7787 79.2472C9.72803 88.9822 13.2914 111.57 26.7398 129.614C34.2493 139.703 35.8003 153.037 35.7708 162.497Z" fill="#102770"/>
<g opacity="0.6">
<path opacity="0.6" d="M53.0474 130.351C43.663 117.529 31.8539 118.099 24.8843 99.9071C19.6424 86.2289 26.7298 79.3848 28.3298 78.0573C28.4771 77.9295 28.4476 77.6345 28.2709 77.487C27.1126 76.5331 25.65 76.1201 24.2561 76.4938C23.9223 76.5823 23.5885 76.6905 23.2548 76.8085C23.6376 76.9855 24.0008 77.2116 24.3346 77.4968C24.5113 77.6443 24.5505 77.9491 24.3935 78.0671C22.8032 79.3848 15.706 86.2387 20.9479 99.917C27.9176 118.109 39.7266 117.538 49.1111 130.361C57.5139 141.847 51.9382 159.793 48.846 167.61C50.1418 167.876 51.3787 168.062 52.537 168.2C55.5702 160.717 61.6662 142.132 53.0474 130.351Z" fill="white"/>
</g>
<g opacity="0.3">
<path opacity="0.3" d="M14.0669 88.3823C11.7011 99.9071 16.4719 116.27 26.5239 129.751C34.2297 140.096 35.5647 153.961 35.5156 162.644C41.5429 166.194 47.4033 167.64 52.017 168.18C53.0084 165.506 53.3912 148.425 44.9099 139.231C35.4862 128.994 15.6866 116.555 14.0669 88.3823Z" fill="#390075"/>
</g>
<path d="M53.0671 169.882L51.8793 169.744C45.7834 169.046 40.0113 167.118 34.7203 164.001L33.9448 163.539V162.634C33.9939 153.45 32.5313 140.44 25.2573 130.686C18.6215 121.786 14.0961 111.501 12.4961 101.746C10.8371 91.5979 12.5942 83.151 17.4337 77.959L17.5319 77.8508L17.6497 77.7623C19.4755 76.4152 21.3897 75.4712 23.3431 74.95C25.1886 74.4583 27.1617 74.9303 28.752 76.2578C29.2035 76.6315 29.4784 77.2117 29.4784 77.8115C29.4784 78.3818 29.233 78.903 28.8109 79.257C27.4562 80.378 20.9578 86.6124 25.8365 99.327C29.8121 109.711 35.4075 113.703 41.3267 117.932C45.5183 120.921 49.8473 124.009 53.7935 129.417C62.8835 141.837 56.601 161.081 53.4794 168.77L53.0671 169.882ZM37.0861 161.73C41.4347 164.168 46.1171 165.752 51.0449 166.46C54.0684 158.652 59.0453 141.876 51.2903 131.276C47.6386 126.28 43.5158 123.34 39.5303 120.498C33.4933 116.191 27.2402 111.727 22.9309 100.458C18.2288 88.1857 22.9407 80.8992 25.5911 78.0278C25.1199 77.8803 24.6291 77.8705 24.1775 77.9885C22.6462 78.3917 21.1246 79.139 19.6522 80.2109C11.112 89.5526 14.744 111.294 27.79 128.798C35.3191 138.936 37.037 152.132 37.0861 161.73ZM26.8378 76.838C26.828 76.838 26.828 76.838 26.8378 76.838C26.828 76.838 26.828 76.838 26.8378 76.838Z" fill="#390075"/>
<path d="M18.5922 79.0405C9.52184 85.7174 2.56204 103.467 11.4753 129.84C17.5222 147.737 26.6907 157.442 35.5156 162.644C35.5646 153.961 34.2296 140.096 26.5238 129.751C13.2521 111.953 9.18808 89.1198 18.5922 79.0405Z" fill="#FEF26B"/>
<g opacity="0.6">
<path opacity="0.6" d="M26.514 129.751C13.2521 111.953 9.17831 89.1198 18.5922 79.0405C15.824 81.076 13.2619 84.1441 11.279 88.1659C8.55988 99.7202 13.311 116.486 23.5691 130.243C30.5976 139.673 32.3253 152.034 32.5413 160.727C33.5327 161.425 34.5242 162.064 35.5058 162.654C35.5647 153.961 34.2297 140.096 26.514 129.751Z" fill="white"/>
</g>
<g opacity="0.3">
<path opacity="0.3" d="M9.10948 93.7417C6.46888 102.7 6.4198 114.884 11.4654 129.84C17.5123 147.737 26.6808 157.442 35.5057 162.644C33.5326 144.846 21.4585 138.769 15.7453 126.762C11.004 116.762 9.61994 101.235 9.10948 93.7417Z" fill="#390075"/>
</g>
<path d="M37.0665 165.388L34.7106 164.001C23.6377 157.472 15.3135 146.154 9.98317 130.351C5.8603 118.138 4.74124 106.515 6.74378 96.7408C8.45182 88.4316 12.3293 81.6957 17.6596 77.7722L19.7406 80.1126C11.0826 89.3953 14.6852 111.235 27.7802 128.808C35.5646 139.26 37.145 152.978 37.0861 162.654L37.0665 165.388ZM12.2213 89.8378C8.15733 98.9435 7.30331 112.573 12.9673 129.339C17.6596 143.223 24.6979 153.44 33.9155 159.763C33.6504 150.874 31.8049 139.467 25.2672 130.696C18.6314 121.796 14.106 111.511 12.506 101.756C11.7992 97.4292 11.7109 93.4171 12.2213 89.8378Z" fill="#390075"/>
<path d="M247.421 154.728C226.787 146.94 210.433 166.568 210.433 166.568L190.526 223.189C190.526 223.189 184.538 244.665 221.113 234.576C262.509 223.149 273.376 164.522 247.421 154.728ZM219.592 222.068C195.62 228.42 198.369 213.906 198.369 213.906L207.321 180.836C207.321 180.836 223.303 164.808 236.79 169.901C253.743 176.293 245.939 215.086 219.592 222.068Z" fill="white"/>
<path d="M204.475 237.536C199.144 237.536 195.228 236.287 192.744 233.799C188.543 229.571 190.261 223.189 190.28 223.12L210.208 166.44L210.237 166.411C210.404 166.214 226.935 146.744 247.5 154.502C256.973 158.072 262.244 168.485 261.616 182.35C260.664 203.128 246.469 227.82 221.163 234.812C214.595 236.631 209.03 237.536 204.475 237.536ZM210.649 166.696L190.751 223.277C190.742 223.326 189.102 229.443 193.098 233.465C197.554 237.939 206.948 238.234 221.035 234.35C246.116 227.427 260.192 202.942 261.125 182.341C261.743 168.702 256.59 158.465 247.323 154.974C227.504 147.481 211.425 165.791 210.649 166.696ZM209.069 223.936C205.26 223.936 202.394 223.051 200.489 221.271C197.328 218.321 198.094 214.044 198.124 213.867L207.096 180.718L207.145 180.669C207.302 180.512 223.391 164.591 236.869 169.675C243.024 171.996 246.43 178.82 245.969 187.926C245.615 194.937 242.965 202.46 238.695 208.566C233.816 215.558 227.229 220.307 219.651 222.313C215.567 223.395 212.033 223.936 209.069 223.936ZM207.537 180.964L198.605 213.975C198.605 213.994 197.859 218.144 200.833 220.917C204.092 223.956 210.384 224.26 219.533 221.841C235.652 217.574 244.791 201.535 245.488 187.906C245.939 179.027 242.66 172.379 236.712 170.137C223.872 165.29 208.499 180.03 207.537 180.964Z" fill="#390075"/>
<g opacity="0.3">
<path opacity="0.3" d="M223.999 227.928C187.424 238.027 193.412 216.541 193.412 216.541L211.336 165.565C210.747 166.194 210.433 166.568 210.433 166.568L190.526 223.188C190.526 223.188 184.538 244.665 221.113 234.576C239.735 229.433 252.182 214.742 257.876 199.244C251.338 212.146 239.922 223.533 223.999 227.928ZM239.676 163.254C226.189 158.16 210.207 174.189 210.207 174.189L208.774 179.479C213.015 175.732 225.737 165.732 236.78 169.901C245.792 173.304 247.814 185.841 243.779 197.897C251.21 184.199 250.366 167.286 239.676 163.254Z" fill="#390075"/>
</g>
<path d="M204.514 238.843C198.781 238.843 194.541 237.476 191.812 234.743C187.07 229.973 188.926 223.061 189.004 222.775L189.034 222.677L209.039 165.781L209.226 165.565C209.403 165.358 213.565 160.402 220.387 156.38C229.536 150.982 239.078 149.91 247.971 153.263C258.003 157.049 263.609 167.944 262.941 182.419C261.969 203.679 247.431 228.941 221.516 236.1C214.88 237.929 209.197 238.843 204.514 238.843ZM192.028 223.651C191.91 224.142 190.752 229.236 194.06 232.53C196.877 235.343 203.788 237.722 220.691 233.051C245.164 226.296 258.897 202.391 259.81 182.262C260.408 169.223 255.569 159.478 246.862 156.194C228.643 149.32 213.594 165.358 211.808 167.364L208.077 177.984C212.829 173.825 225.717 164.031 237.33 168.416C244.054 170.953 247.775 178.269 247.284 187.985C246.558 202.273 236.947 219.088 219.985 223.592C210.188 226.188 203.326 225.725 199.586 222.235C195.895 218.783 196.779 213.817 196.818 213.611L196.848 213.493L201.039 198.005L192.028 223.651ZM199.9 214.24C199.832 214.673 199.439 217.819 201.746 219.953C203.748 221.802 208.401 223.405 219.18 220.553C234.523 216.492 243.495 200.66 244.143 187.837C244.565 179.558 241.6 173.412 236.221 171.376C224.795 167.059 210.885 179.607 208.716 181.672L199.9 214.24Z" fill="#390075"/>
<path d="M209.098 225.243C204.926 225.243 201.746 224.24 199.596 222.234C195.905 218.783 196.789 213.817 196.828 213.611L196.857 213.493L205.918 180.02L206.212 179.725C206.89 179.036 223.077 163.047 237.34 168.426C244.064 170.963 247.785 178.279 247.294 187.995C246.567 202.283 236.957 219.098 219.995 223.601C215.823 224.693 212.191 225.243 209.098 225.243ZM199.901 214.25C199.832 214.682 199.439 217.829 201.746 219.963C203.749 221.812 208.401 223.414 219.18 220.563C234.523 216.502 243.495 200.67 244.143 187.847C244.565 179.567 241.6 173.422 236.221 171.386C224.795 167.069 210.885 179.617 208.716 181.682L199.901 214.25Z" fill="#390075"/>
<path d="M209.098 225.243C204.926 225.243 201.746 224.24 199.596 222.234C195.905 218.783 196.789 213.817 196.828 213.611L196.857 213.493L205.918 180.02L206.212 179.725C206.89 179.036 223.077 163.047 237.34 168.426C244.064 170.963 247.785 178.279 247.294 187.995C246.567 202.283 236.957 219.098 219.995 223.601C215.823 224.693 212.191 225.243 209.098 225.243ZM199.901 214.25C199.832 214.682 199.439 217.829 201.746 219.963C203.749 221.812 208.401 223.414 219.18 220.563C234.523 216.502 243.495 200.67 244.143 187.847C244.565 179.567 241.6 173.422 236.221 171.386C224.795 167.069 210.885 179.617 208.716 181.682L199.901 214.25Z" fill="#390075"/>
<path d="M155.108 52.1463C155.108 52.1463 154.441 53.7786 153.067 55.8928C153.881 54.0048 154.304 52.4904 154.441 51.9299C154.863 52.0774 155.108 52.1463 155.108 52.1463Z" fill="#B5E5FB"/>
<path d="M153.273 56.0207L152.841 55.7847C153.656 53.9065 154.068 52.4217 154.205 51.8612L154.274 51.5957L154.529 51.6842C154.932 51.8317 155.167 51.8907 155.177 51.8907L155.442 51.9595L155.334 52.2152C155.305 52.3037 154.647 53.9164 153.273 56.0207ZM154.618 52.2447C154.549 52.4905 154.461 52.815 154.333 53.2182C154.539 52.815 154.686 52.5004 154.775 52.2939C154.726 52.284 154.676 52.2644 154.618 52.2447Z" fill="#390075"/>
<path d="M141.837 159.468C143.977 166.833 163.158 179.135 180.68 159.517L169.342 142.506L137.832 142.083L141.837 159.468Z" fill="#FEF26B"/>
<g opacity="0.3">
<path opacity="0.3" d="M177.421 162.035C160.556 178.24 142.907 166.666 140.865 159.616L136.85 142.23L148.414 142.388L150.858 153.008C152.497 158.662 164.169 167.217 177.421 162.035Z" fill="#390075"/>
</g>
<path d="M160.026 171.652C158.004 171.652 156.247 171.396 154.843 171.071C147.01 169.292 141.522 163.982 140.335 159.901L140.315 159.812L135.858 140.47L170.206 140.932L182.682 159.645L181.868 160.55C173.858 169.508 165.857 171.652 160.026 171.652ZM143.358 159.065C144.31 162.261 149.228 166.568 155.53 168.003C161.214 169.301 169.774 168.8 178.687 159.35L168.498 144.059L139.814 143.666L143.358 159.065Z" fill="#390075"/>
<path d="M151.702 147.825C152.046 156.754 176.322 171.927 191.635 149.654L173.445 126.949L140.227 121.757L151.702 147.825Z" fill="#FD6CCB"/>
<path d="M171.875 161.454C169.195 161.454 166.937 160.982 165.425 160.54C158.053 158.396 151.683 152.614 151.457 147.894L140.001 121.865C139.962 121.777 139.972 121.678 140.031 121.609C140.089 121.531 140.178 121.501 140.276 121.511L173.495 126.703C173.553 126.713 173.612 126.742 173.652 126.792L191.841 149.497C191.91 149.585 191.92 149.703 191.851 149.802C185.343 159.252 177.627 161.454 171.875 161.454ZM140.649 122.081L151.938 147.727C151.948 147.756 151.957 147.786 151.957 147.815C152.114 151.857 157.621 157.728 165.563 160.038C175.369 162.89 184.754 159.104 191.321 149.654L173.308 127.175L140.649 122.081Z" fill="#102770"/>
<g opacity="0.3">
<path opacity="0.3" d="M191.635 149.654C176.322 171.937 152.046 156.764 151.702 147.825L140.227 121.757L147.589 122.908L155.423 140.716C155.727 148.74 175.379 161.818 190.467 148.199L191.635 149.654Z" fill="#390075"/>
</g>
<path d="M171.904 162.772C169.057 162.772 166.662 162.271 165.052 161.799C157.189 159.517 150.603 153.47 150.151 148.209L137.625 119.761L174.28 125.494L193.588 149.586L192.921 150.549C186.108 160.461 177.99 162.772 171.904 162.772ZM142.818 123.753L153.253 147.462L153.263 147.757C153.4 151.267 158.632 156.646 165.916 158.77C171.227 160.314 181.259 161.12 189.652 149.704L172.582 128.405L142.818 123.753Z" fill="#390075"/>
<path d="M206.428 134.255C201.825 152.84 166.711 157.836 160.076 138.739L156.296 135.189L158.26 121.01L124.54 64.8511L151.594 60.78C151.594 60.78 161.361 64.7331 167.291 81.7743C170.795 91.8536 170.098 110.508 172.631 123.458C174.633 116.929 178.079 109.986 183.861 107.744C196.671 102.769 211.18 115.119 206.428 134.255Z" fill="#39D5FF"/>
<path d="M180.317 151.1C172.248 151.1 163.03 147.924 159.86 138.877L156.129 135.366C156.07 135.307 156.041 135.229 156.051 135.15L157.994 121.059L124.324 64.9789C124.285 64.9101 124.275 64.8117 124.315 64.7429C124.354 64.6642 124.423 64.6151 124.511 64.5954L151.565 60.5244C151.614 60.5145 151.653 60.5244 151.702 60.544C151.8 60.5834 161.646 64.7429 167.546 81.6957C169.558 87.4679 170.177 95.8361 170.834 104.696C171.286 110.783 171.757 117.066 172.709 122.416C175.35 114.352 179.07 109.337 183.792 107.508C189.613 105.247 195.974 106.437 200.784 110.694C206.831 116.034 209.04 124.864 206.693 134.324C204.004 145.17 191.871 150.618 181.73 151.08C181.259 151.09 180.788 151.1 180.317 151.1ZM156.571 135.091L160.252 138.552C160.282 138.582 160.301 138.611 160.321 138.651C163.57 148.002 173.495 150.923 181.691 150.559C191.959 150.087 203.67 144.315 206.183 134.186C208.48 124.913 206.33 116.27 200.431 111.058C195.758 106.938 189.603 105.778 183.959 107.971C178.039 110.262 174.663 117.696 172.876 123.527C172.847 123.635 172.739 123.704 172.621 123.704C172.503 123.694 172.405 123.615 172.385 123.497C171.296 117.912 170.795 111.206 170.314 104.726C169.656 95.9049 169.038 87.5662 167.055 81.853C161.489 65.8344 152.399 61.4094 151.565 61.0357L124.962 65.0477L158.485 120.882C158.515 120.931 158.525 120.99 158.515 121.049L156.571 135.091Z" fill="#102770"/>
<g opacity="0.4">
<path opacity="0.4" d="M179.875 117.224C180.759 115.287 183.812 110.921 190.879 111.363C197.28 111.766 203.336 119.554 199.272 121.157C196.455 122.259 194.649 116.417 190.192 116.349C186.963 116.29 183.34 120.872 181.338 120.37C179.296 119.859 179.443 118.187 179.875 117.224Z" fill="white"/>
</g>
<g opacity="0.3">
<path opacity="0.3" d="M206.703 133.036C206.625 133.439 206.526 133.842 206.428 134.255C201.824 152.84 166.711 157.836 160.075 138.739L163.109 131.59C168.979 148.464 197.054 146.527 206.703 133.036Z" fill="#390075"/>
</g>
<path d="M180.444 151.867C171.502 151.867 161.322 148.425 157.72 138.671L154.647 135.78L156.64 121.344L121.998 63.6515L151.8 59.1675L152.203 59.3248C152.625 59.5018 162.706 63.7498 168.792 81.2631C170.854 87.2025 171.482 95.6592 172.15 104.608C172.434 108.433 172.719 112.297 173.121 115.946C174.702 112.307 177.696 108.462 183.311 106.279C189.603 103.841 196.455 105.119 201.648 109.701C208.068 115.365 210.433 124.697 207.96 134.639C205.201 145.76 192.587 151.346 182.035 151.828C181.505 151.847 180.974 151.867 180.444 151.867ZM157.975 134.6L160.419 136.901L160.547 137.264C163.668 146.262 173.622 149.064 181.887 148.681C191.311 148.248 202.541 143.43 204.907 133.872C207.086 125.081 205.083 116.929 199.567 112.052C195.267 108.256 189.613 107.194 184.44 109.2C173.985 113.261 174.456 123.989 174.496 124.737C175.536 129.358 177.068 133.006 179.473 134.806C181.033 135.976 182.938 136.291 185.294 135.78C186.138 135.593 186.982 136.134 187.159 136.989C187.345 137.835 186.805 138.68 185.951 138.857C182.702 139.565 179.885 139.044 177.588 137.323C174.525 135.032 172.66 130.735 171.453 125.425C171.404 125.297 171.374 125.159 171.364 125.012C170.059 119.053 169.519 111.884 168.999 104.834C168.38 96.4852 167.742 87.8417 165.808 82.2956C160.851 68.047 153.096 63.3172 151.359 62.4125L127.102 66.0607L159.889 120.675L157.975 134.6Z" fill="#390075"/>
<path d="M183.654 211.025H31.0686C31.0686 211.025 37.5867 178.702 56.2476 148.042C60.5471 140.981 65.4848 134.009 71.1292 127.539H143.594C149.032 133.754 153.803 140.44 157.975 147.226C177.018 178.132 183.654 211.025 183.654 211.025Z" fill="white"/>
<path d="M183.959 211.27H30.7644L30.8233 210.975C30.892 210.651 37.5671 178.26 56.0317 147.914C60.6356 140.342 65.6518 133.439 70.9428 127.382L71.0115 127.293H143.702L143.77 127.382C148.865 133.213 153.714 139.841 158.181 147.098C177.028 177.689 183.831 210.651 183.9 210.975L183.959 211.27ZM31.373 210.779H183.36C182.643 207.426 175.624 176.323 157.769 147.353C153.341 140.155 148.531 133.567 143.486 127.785H71.2373C65.9953 133.803 61.0184 140.657 56.4538 148.17C38.9709 176.893 32.0798 207.455 31.373 210.779Z" fill="#390075"/>
<path d="M31.0688 212.598C30.9609 212.598 30.8627 212.588 30.7547 212.569C29.9007 212.392 29.351 211.566 29.5277 210.71C29.6258 210.218 39.825 160.983 69.9515 126.497L70.4226 125.956H144.31L144.782 126.497C174.898 160.983 185.107 210.218 185.205 210.71C185.382 211.566 184.823 212.392 183.978 212.569C183.134 212.736 182.3 212.185 182.123 211.339C182.025 210.858 172.081 162.93 142.887 129.113H71.846C42.6325 162.949 32.7082 210.858 32.61 211.339C32.4529 212.087 31.7952 212.598 31.0688 212.598Z" fill="#390075"/>
<path d="M216.43 152.909C216.43 177.748 202.364 276.426 109 276.426C108.637 276.426 108.274 276.426 107.91 276.426C107.547 276.426 107.184 276.417 106.831 276.407C105.908 276.397 104.985 276.367 104.072 276.328C103.748 276.318 103.424 276.308 103.1 276.289C101.412 276.21 99.7531 276.102 98.1138 275.954C97.7898 275.925 97.4659 275.895 97.1517 275.866C96.7002 275.817 96.2486 275.777 95.7971 275.728C95.4143 275.689 95.0314 275.65 94.6486 275.6C92.6657 275.364 90.7318 275.079 88.8275 274.755L88.1011 274.627C86.5501 274.342 85.0285 274.037 83.5266 273.693C83.2321 273.624 82.9377 273.555 82.653 273.486C82.2603 273.398 81.8677 273.299 81.475 273.201C81.1805 273.122 80.8762 273.054 80.5817 272.975C80.2382 272.886 79.8946 272.798 79.5608 272.7C79.2958 272.631 79.0406 272.562 78.7755 272.483C78.6577 272.454 78.5301 272.414 78.4123 272.385C78.1178 272.306 77.8331 272.218 77.5485 272.129C75.7423 271.598 73.9753 271.018 72.2574 270.399C72.0415 270.32 71.8353 270.241 71.6194 270.163C70.0684 269.592 68.5469 268.983 67.0548 268.343C66.8192 268.245 66.5836 268.147 66.3578 268.039C64.1884 267.085 62.0877 266.052 60.0557 264.961C59.771 264.813 59.4962 264.656 59.2115 264.508C58.4655 264.095 57.7194 263.673 56.993 263.24C56.8065 263.132 56.62 263.024 56.4433 262.906C56.0016 262.65 55.5696 262.375 55.1377 262.109C54.8727 261.942 54.6076 261.775 54.3426 261.608C53.5376 261.096 52.7425 260.575 51.967 260.034C51.7413 259.877 51.5155 259.72 51.2799 259.562C50.848 259.267 50.4259 258.962 50.0038 258.658C49.7583 258.481 49.5129 258.304 49.2773 258.127C49.1792 258.058 49.0908 257.989 49.0025 257.92C48.8454 257.802 48.6785 257.684 48.5215 257.556C47.8932 257.084 47.265 256.592 46.6564 256.101C46.3324 255.845 46.0085 255.589 45.6944 255.324C45.5569 255.226 45.4293 255.108 45.3017 254.999C44.9974 254.754 44.7029 254.498 44.3986 254.242C43.417 253.416 42.4648 252.571 41.5322 251.705C41.2672 251.469 41.012 251.223 40.7567 250.978C40.4132 250.663 40.0696 250.329 39.7358 249.994C39.4806 249.748 39.2254 249.493 38.9702 249.237C38.8327 249.099 38.6855 248.962 38.5481 248.814C38.2536 248.519 37.9689 248.224 37.6842 247.929C37.5861 247.831 37.4977 247.742 37.4094 247.644C37.0952 247.31 36.7811 246.985 36.467 246.651C35.9958 246.159 35.5443 245.648 35.0927 245.146C34.7197 244.724 34.3467 244.301 33.9835 243.888C33.8853 243.78 33.7969 243.681 33.7184 243.573C33.4239 243.229 33.1294 242.885 32.8349 242.541C32.5208 242.167 32.2067 241.783 31.8926 241.4C31.7159 241.184 31.5392 240.967 31.3723 240.751C31.176 240.505 30.9796 240.259 30.7931 240.023C30.6361 239.817 30.4692 239.61 30.3121 239.394C30.0078 239.01 29.7133 238.617 29.4188 238.224C29.1538 237.87 28.8888 237.516 28.6335 237.162C27.8973 236.159 27.1807 235.146 26.4838 234.123C26.1598 233.651 25.8359 233.169 25.5217 232.688C25.2469 232.275 24.972 231.862 24.707 231.439C24.599 231.281 24.5008 231.124 24.4027 230.967C24.1867 230.623 23.9708 230.278 23.7548 229.944C23.3818 229.334 23.0088 228.734 22.6456 228.125C22.3903 227.702 22.1449 227.279 21.8995 226.856C21.3203 225.873 20.7608 224.88 20.2307 223.887C19.9559 223.375 19.681 222.864 19.4062 222.353C19.1509 221.871 18.9055 221.389 18.6601 220.917C18.6503 220.897 18.6405 220.878 18.6307 220.868C18.3853 220.376 18.1398 219.884 17.8846 219.403C17.8846 219.403 17.8846 219.403 17.8846 219.393C17.6392 218.891 17.3938 218.39 17.1484 217.888C16.4416 216.413 15.7545 214.938 15.1066 213.463C15.0968 213.424 15.0771 213.385 15.0575 213.355C14.8415 212.854 14.6256 212.342 14.4096 211.841C4.14171 187.68 1.56982 163.529 1.56982 152.909C1.56982 158.219 14.0464 163.028 34.1209 166.46C37.9296 167.109 42.0132 167.718 46.3324 168.259C56.0801 169.498 67.045 170.442 78.854 171.052C79.2074 171.071 79.5608 171.091 79.924 171.111C81.0333 171.17 82.1524 171.219 83.2812 171.268C83.6935 171.288 84.096 171.307 84.4985 171.317C92.3712 171.642 100.568 171.809 109 171.809C124.706 171.809 139.617 171.219 153.056 170.147C153.164 170.137 153.272 170.127 153.38 170.127C166.946 169.046 179.001 167.472 188.846 165.555C189.965 165.339 191.065 165.112 192.125 164.886C192.42 164.827 192.724 164.758 193.018 164.69C207.664 161.454 216.43 157.354 216.43 152.909Z" fill="white"/>
<path d="M109.001 276.672C108.638 276.672 108.274 276.672 107.911 276.672C107.548 276.672 107.185 276.662 106.822 276.653C105.987 276.643 105.084 276.613 104.063 276.574H103.995C103.69 276.564 103.396 276.554 103.091 276.535C101.374 276.456 99.695 276.338 98.0949 276.2L96.7402 276.072C96.4163 276.043 96.0924 276.004 95.7782 275.974C95.3954 275.935 95.0126 275.895 94.6297 275.846C92.7548 275.63 90.7915 275.345 88.7988 275.001L88.0626 274.873C86.492 274.588 84.9508 274.273 83.4783 273.939C83.1839 273.87 82.8894 273.801 82.5949 273.732C82.2022 273.644 81.8096 273.545 81.4169 273.447L81.3286 273.427C81.0635 273.358 80.7887 273.29 80.5236 273.221C80.18 273.132 79.8365 273.044 79.5027 272.945C79.2377 272.877 78.9825 272.808 78.7174 272.729C78.5996 272.7 78.472 272.66 78.3542 272.631C78.0597 272.552 77.775 272.464 77.4904 272.375C75.7136 271.854 73.927 271.274 72.1895 270.644C71.9736 270.566 71.7674 270.487 71.5515 270.408C70.0496 269.858 68.5182 269.248 66.977 268.579C66.7414 268.481 66.5059 268.383 66.2801 268.275C64.1499 267.34 62.0296 266.298 59.9583 265.187C59.6737 265.039 59.3988 264.882 59.1141 264.725C58.3681 264.312 57.6221 263.889 56.8858 263.446C56.6993 263.338 56.5128 263.23 56.3263 263.112C55.8846 262.856 55.4526 262.581 55.0207 262.316L54.8048 262.178C54.6084 262.06 54.4219 261.932 54.2256 261.814C53.3716 261.273 52.5961 260.752 51.8402 260.241C51.6243 260.093 51.3985 259.946 51.1825 259.788C50.731 259.474 50.2991 259.169 49.8769 258.864C49.6315 258.687 49.3861 258.51 49.1407 258.323L49.0426 258.254C48.9837 258.205 48.9149 258.166 48.856 258.117L48.375 257.753C47.6977 257.241 47.0793 256.769 46.5001 256.297C46.1762 256.052 45.8522 255.786 45.5381 255.521C45.4105 255.422 45.2731 255.304 45.1356 255.186C44.8412 254.94 44.5368 254.695 44.2424 254.429C43.2804 253.623 42.3184 252.767 41.376 251.892C41.1109 251.656 40.8557 251.41 40.5907 251.155C40.2471 250.84 39.9035 250.506 39.5698 250.171C39.3145 249.925 39.0593 249.67 38.8041 249.414C38.6667 249.276 38.5194 249.139 38.382 248.991C38.0973 248.706 37.8028 248.401 37.5182 248.106C37.4298 248.018 37.3316 247.919 37.2433 247.821C36.9095 247.467 36.6052 247.152 36.3009 246.818C35.8297 246.326 35.3782 245.815 34.9266 245.314C34.5438 244.891 34.1806 244.468 33.8174 244.045C33.7192 243.937 33.6309 243.829 33.5425 243.721C33.248 243.386 32.9535 243.042 32.6689 242.688C32.3547 242.314 32.0406 241.931 31.7167 241.538C31.54 241.321 31.3633 241.105 31.1964 240.879C31.0099 240.653 30.8332 240.417 30.6467 240.19L30.5878 240.112C30.4406 239.915 30.2835 239.718 30.1363 239.522C29.8319 239.138 29.5375 238.745 29.243 238.352C28.9779 238.007 28.7129 237.644 28.4577 237.29C27.6625 236.208 26.9656 235.215 26.3079 234.241C25.9839 233.759 25.66 233.287 25.3459 232.805C25.071 232.392 24.7962 231.979 24.5311 231.557C24.4231 231.399 24.325 231.232 24.2268 231.075C24.0108 230.74 23.7949 230.396 23.5789 230.052C23.2059 229.442 22.8329 228.843 22.4697 228.223C22.293 227.928 22.1163 227.633 21.9494 227.338L21.7236 226.955C21.1543 225.991 20.5947 224.988 20.045 223.975C19.7702 223.464 19.4953 222.952 19.2205 222.441C18.9652 221.959 18.7198 221.477 18.4744 221.005L18.6609 220.838L18.445 220.946L17.6793 219.422C17.4437 218.94 17.1983 218.459 16.9725 217.967C16.2657 216.512 15.5786 215.017 14.9307 213.542C14.9111 213.493 14.9111 213.483 14.9013 213.463C14.7148 213.05 14.5577 212.667 14.3908 212.293L14.2239 211.91C1.71789 182.498 1.3645 155.82 1.3645 152.88H1.85532C1.85532 157.826 13.6448 162.674 34.2002 166.194C38.0777 166.853 42.1809 167.463 46.402 167.994C56.287 169.242 67.2225 170.186 78.9039 170.786L79.9739 170.845C81.0832 170.904 82.2022 170.953 83.3213 171.003C83.7336 171.022 84.136 171.042 84.5385 171.052C92.4603 171.376 100.696 171.543 109.03 171.543C124.363 171.543 139.186 170.983 153.067 169.882L153.39 169.862C166.927 168.78 178.844 167.236 188.827 165.289C189.829 165.093 190.859 164.886 192.096 164.621L192.99 164.424C207.969 161.12 216.215 157.029 216.215 152.88H216.706C216.706 166.597 212.76 197.022 197.967 224.073C189.426 239.699 178.442 252.049 165.337 260.801C149.552 271.343 130.607 276.672 109.001 276.672ZM18.8671 220.799C19.1125 221.281 19.3579 221.753 19.6131 222.235C19.8782 222.746 20.153 223.257 20.4279 223.759C20.9678 224.762 21.5371 225.765 22.0967 226.719L22.3224 227.102C22.4991 227.397 22.666 227.692 22.8427 227.987C23.2059 228.597 23.5789 229.197 23.9519 229.806C24.1679 230.15 24.374 230.485 24.5998 230.829C24.698 230.986 24.7962 231.144 24.9041 231.301C25.1692 231.724 25.444 232.137 25.7189 232.55C26.033 233.032 26.357 233.504 26.6809 233.986C27.3386 234.949 28.0356 235.933 28.8209 237.014C29.0761 237.368 29.3411 237.722 29.6062 238.066C29.9007 238.46 30.1952 238.853 30.4995 239.237C30.6467 239.433 30.8038 239.63 30.951 239.817L30.9805 239.856C31.1964 240.122 31.3731 240.358 31.5596 240.584C31.7363 240.81 31.9032 241.016 32.0799 241.233C32.394 241.616 32.7081 242 33.0223 242.373C33.3069 242.718 33.6014 243.062 33.8959 243.406C33.9843 243.514 34.0726 243.612 34.161 243.721C34.5242 244.143 34.8972 244.566 35.2702 244.979C35.7218 245.481 36.1733 245.982 36.6445 246.474C36.9488 246.798 37.2531 247.123 37.5574 247.438C37.6752 247.556 37.7636 247.654 37.8519 247.742C38.1366 248.037 38.4213 248.332 38.7157 248.627C38.8532 248.775 38.9906 248.913 39.1379 249.04C39.3931 249.296 39.6483 249.552 39.9035 249.798C40.2471 250.132 40.5809 250.456 40.9244 250.771C41.1895 251.027 41.4349 251.263 41.6999 251.499C42.6423 252.374 43.6043 253.22 44.5565 254.026C44.8608 254.291 45.1553 254.537 45.4498 254.783C45.5774 254.901 45.7148 255.009 45.8424 255.108C46.1664 255.373 46.4805 255.639 46.8044 255.884C47.3836 256.356 47.9922 256.828 48.6695 257.34L49.1505 257.704C49.2094 257.753 49.2683 257.792 49.3272 257.831L49.4254 257.91C49.661 258.087 49.9064 258.264 50.1518 258.441C50.5739 258.746 50.996 259.051 51.4181 259.346C51.6635 259.513 51.8795 259.661 52.0954 259.808C52.8415 260.329 53.617 260.841 54.4612 261.381C54.6477 261.499 54.844 261.627 55.0305 261.745L55.2465 261.883C55.6784 262.158 56.1103 262.424 56.5521 262.679C56.7386 262.797 56.9251 262.906 57.1018 263.004C57.838 263.437 58.5742 263.859 59.3203 264.272C59.5951 264.43 59.8798 264.577 60.1547 264.725C62.2063 265.836 64.3266 266.868 66.4371 267.793C66.6727 267.891 66.8985 267.999 67.1341 268.098C68.6655 268.756 70.1968 269.366 71.6889 269.917C71.9049 269.995 72.111 270.074 72.327 270.143C74.0645 270.772 75.8314 271.352 77.6082 271.874C77.8928 271.962 78.1775 272.041 78.472 272.119C78.5898 272.159 78.7076 272.188 78.8352 272.218C79.1002 272.296 79.3555 272.365 79.6205 272.434C79.9543 272.532 80.2978 272.621 80.6414 272.709C80.9065 272.778 81.1813 272.847 81.4464 272.916L81.5347 272.936C81.9175 273.034 82.3102 273.132 82.7029 273.221C82.9973 273.29 83.282 273.358 83.5765 273.427C85.0391 273.762 86.5705 274.076 88.1411 274.361L88.8675 274.489C90.8504 274.833 92.8039 275.109 94.669 275.335C95.0518 275.384 95.4249 275.423 95.8077 275.463C96.1316 275.502 96.4458 275.532 96.7697 275.561L98.1243 275.689C99.7146 275.827 101.383 275.945 103.101 276.023C103.396 276.033 103.7 276.053 103.995 276.063H104.063C105.074 276.102 105.977 276.122 106.812 276.141C107.175 276.151 107.538 276.151 107.892 276.161C108.255 276.161 108.618 276.161 108.981 276.161C148.728 276.161 178.511 258.559 197.495 223.847C211.582 198.094 215.793 169.272 216.146 154.827C213.653 159.458 202.541 162.821 193.049 164.916L192.155 165.112C190.918 165.378 189.878 165.594 188.877 165.781C178.884 167.738 166.937 169.272 153.381 170.363L153.057 170.383C139.157 171.484 124.324 172.045 108.981 172.045C100.647 172.045 92.4014 171.878 84.4698 171.553C84.0575 171.534 83.655 171.524 83.2428 171.504C82.1237 171.455 81.0046 171.406 79.8856 171.347L78.8156 171.288C67.1145 170.688 56.1692 169.744 46.2743 168.495C42.0435 167.964 37.9304 167.354 34.053 166.696C15.5295 163.529 4.29959 159.37 1.81605 154.827C2.03201 162.005 3.583 185.802 14.6068 211.733L14.7736 212.116C14.9307 212.49 15.0976 212.873 15.2645 213.247C15.2939 213.306 15.3135 213.345 15.3234 213.385C15.9614 214.83 16.6486 216.315 17.3455 217.77C17.5811 218.272 17.8364 218.773 18.0818 219.275L18.8278 220.75L18.6315 220.917L18.8671 220.799Z" fill="#390075"/>
<path d="M95.1992 230.603C95.7784 231.213 96.4263 231.724 97.1429 232.157C103.386 235.795 113.006 230.888 118.631 221.202C122.822 214.004 123.627 206.177 121.213 201.142C118.768 201.762 112.476 204.082 111.239 211.742C110.444 216.699 108.029 231.527 95.1992 230.603Z" fill="#390075"/>
<path d="M92.7156 226.06C93.2457 225.48 94.0703 225.155 94.9145 225.273C99.1748 225.794 103.828 224.536 106.036 210.906C107.313 203.01 112.653 198.792 117.207 196.894C110.964 193.61 101.58 198.507 96.0434 208.035C92.3917 214.329 91.3119 221.094 92.7156 226.06Z" fill="#390075"/>
<g opacity="0.3">
<path opacity="0.3" d="M216.431 152.909C216.431 177.748 202.364 276.426 109.001 276.426C108.638 276.426 108.275 276.426 107.911 276.426C107.548 276.426 107.185 276.417 106.832 276.407C105.909 276.397 104.986 276.367 104.073 276.328C103.749 276.318 103.425 276.308 103.101 276.289C101.413 276.21 99.7539 276.102 98.1146 275.954C97.7907 275.925 97.4667 275.895 97.1526 275.866C96.7011 275.817 96.2495 275.777 95.798 275.728C95.4151 275.689 95.0323 275.65 94.6494 275.6C92.6665 275.364 90.7327 275.079 88.8283 274.755L88.1019 274.627C86.5509 274.342 85.0294 274.037 83.5275 273.693C83.233 273.624 82.9385 273.555 82.6538 273.486C82.2612 273.398 81.8685 273.299 81.4759 273.201C81.1814 273.122 80.8771 273.054 80.5826 272.975C80.239 272.886 79.8954 272.798 79.5617 272.7C79.2966 272.631 79.0414 272.562 78.7764 272.483C78.6586 272.454 78.531 272.414 78.4132 272.385C78.1187 272.306 77.834 272.218 77.5493 272.129C75.7431 271.598 73.9762 271.018 72.2583 270.399C72.0423 270.32 71.8362 270.241 71.6202 270.163C70.0693 269.592 68.5477 268.983 67.0556 268.343C66.82 268.245 66.5844 268.147 66.3587 268.039C64.1893 267.085 62.0886 266.052 60.0566 264.961C59.7719 264.813 59.497 264.656 59.2124 264.508C58.4663 264.095 57.7203 263.673 56.9939 263.24C56.8073 263.132 56.6208 263.024 56.4441 262.906C56.0024 262.65 55.5705 262.375 55.1386 262.109C54.8735 261.942 54.6085 261.775 54.3434 261.607C53.5385 261.096 52.7434 260.575 51.9679 260.034C51.7421 259.877 51.5163 259.72 51.2807 259.562C50.8488 259.267 50.4267 258.962 50.0046 258.657C49.7592 258.48 49.5138 258.303 49.2782 258.126C49.18 258.058 49.0917 257.989 49.0033 257.92C48.8463 257.802 48.6794 257.684 48.5223 257.556C47.8941 257.084 47.2658 256.592 46.6572 256.101C46.3333 255.845 46.0093 255.589 45.6952 255.324C45.5578 255.226 45.4302 255.108 45.3026 254.999C44.9983 254.754 44.7038 254.498 44.3995 254.242C43.4178 253.416 42.4656 252.571 41.5331 251.705C41.268 251.469 41.0128 251.223 40.7576 250.978C40.414 250.663 40.0704 250.329 39.7367 249.994C39.4815 249.748 39.2262 249.493 38.971 249.237C38.8336 249.099 38.6863 248.962 38.5489 248.814C38.2544 248.519 37.9697 248.224 37.6851 247.929C37.5869 247.831 37.4986 247.742 37.4102 247.644C37.0961 247.31 36.782 246.985 36.4678 246.651C35.9967 246.159 35.5451 245.648 35.0936 245.146C34.7205 244.724 34.3475 244.301 33.9843 243.888C33.8861 243.78 33.7978 243.681 33.7193 243.573C33.4248 243.229 33.1303 242.885 32.8358 242.541C32.5217 242.167 32.2075 241.783 31.8934 241.4C31.7167 241.184 31.54 240.967 31.3732 240.751C31.1768 240.505 30.9805 240.259 30.794 240.023C30.6369 239.817 30.47 239.61 30.313 239.394C30.0087 239.01 29.7142 238.617 29.4197 238.224C29.1547 237.87 28.8896 237.516 28.6344 237.162C27.8982 236.159 27.1816 235.146 26.4846 234.123C26.1607 233.651 25.8367 233.169 25.5226 232.688C25.2477 232.274 24.9729 231.862 24.7078 231.439C24.5999 231.281 24.5017 231.124 24.4035 230.967C24.1876 230.622 23.9716 230.278 23.7557 229.944C23.3826 229.334 23.0096 228.734 22.6464 228.125C22.3912 227.702 22.1458 227.279 21.9004 226.856C21.3212 225.873 20.7617 224.88 20.2316 223.887C19.9567 223.375 19.6819 222.864 19.407 222.353C19.1518 221.871 18.9064 221.389 18.661 220.917C18.6511 220.897 18.6413 220.878 18.6315 220.868C18.3861 220.376 18.1407 219.884 17.8855 219.403C17.8855 219.403 17.8855 219.403 17.8855 219.393C17.6401 218.891 17.3946 218.39 17.1492 217.888C16.4425 216.413 15.7553 214.938 15.1074 213.463C15.0976 213.424 15.078 213.385 15.0584 213.355C14.8424 212.854 14.6264 212.342 14.4105 211.841C11.4165 204.8 9.08019 197.749 7.26416 191.043C7.48994 191.535 7.72553 192.026 7.96112 192.518C8.19671 193.02 8.45194 193.521 8.69735 194.023C8.69735 194.023 8.69735 194.023 8.69735 194.032C8.94276 194.524 9.18817 195.016 9.44339 195.498C9.45321 195.517 9.46303 195.537 9.47284 195.547C9.71825 196.029 9.96366 196.51 10.2189 196.982C10.4839 197.494 10.7588 198.005 11.0435 198.516C11.5834 199.51 12.1429 200.503 12.7122 201.486C12.9577 201.909 13.2031 202.332 13.4583 202.755C13.8215 203.364 14.1945 203.974 14.5675 204.574C14.7835 204.918 14.9995 205.262 15.2154 205.597C15.3136 205.754 15.4117 205.911 15.5197 206.069C15.7848 206.482 16.0596 206.904 16.3345 207.317C16.6486 207.799 16.9725 208.281 17.2965 208.753C17.9934 209.776 18.71 210.789 19.4463 211.792C19.7015 212.146 19.9665 212.5 20.2316 212.854C20.5261 213.247 20.8206 213.64 21.1249 214.024C21.2819 214.24 21.4488 214.447 21.6059 214.653C21.8022 214.899 21.9887 215.145 22.185 215.381C22.3617 215.597 22.5286 215.813 22.7053 216.03C23.0194 216.413 23.3335 216.797 23.6477 217.17C23.9323 217.515 24.2268 217.859 24.5311 218.203C24.6097 218.311 24.7078 218.409 24.7962 218.518C25.1594 218.94 25.5324 219.363 25.9054 219.776C26.357 220.278 26.8085 220.779 27.2797 221.281C27.5938 221.615 27.908 221.949 28.2221 222.274C28.3104 222.372 28.3988 222.461 28.497 222.559C28.7816 222.854 29.0663 223.149 29.3608 223.444C29.4982 223.582 29.6357 223.729 29.7829 223.867C30.0381 224.123 30.2934 224.378 30.5486 224.624C30.8823 224.958 31.2259 225.283 31.5695 225.607C31.8247 225.863 32.0799 226.099 32.345 226.335C33.2775 227.2 34.2297 228.046 35.2113 228.872C35.5058 229.128 35.8101 229.383 36.1145 229.629C36.2421 229.747 36.3795 229.855 36.5071 229.954C36.8212 230.219 37.1452 230.475 37.4691 230.731C38.0777 231.222 38.706 231.714 39.3342 232.186C39.4913 232.304 39.6582 232.422 39.8152 232.55C39.9036 232.619 40.0017 232.688 40.0901 232.756C40.3257 232.933 40.5711 233.11 40.8165 233.287C41.2386 233.592 41.6607 233.897 42.0926 234.192C42.3184 234.349 42.5442 234.507 42.7798 234.664C43.5553 235.205 44.3504 235.726 45.1553 236.237C45.4204 236.405 45.6854 236.572 45.9505 236.739C46.3824 237.014 46.8143 237.28 47.256 237.535C47.4425 237.653 47.6291 237.762 47.8057 237.87C48.5322 238.302 49.2782 238.725 50.0242 239.138C50.2991 239.296 50.5838 239.443 50.8685 239.591C52.9004 240.682 55.0011 241.715 57.1706 242.668C57.4062 242.767 57.6417 242.875 57.8675 242.973C59.3596 243.612 60.8713 244.222 62.4321 244.792C62.6481 244.871 62.8542 244.95 63.0702 245.028C64.7881 245.648 66.555 246.228 68.3612 246.759C68.6459 246.848 68.9306 246.926 69.2251 247.015C69.3428 247.054 69.4705 247.084 69.5883 247.113C69.8533 247.192 70.1085 247.261 70.3736 247.329C70.7073 247.428 71.0509 247.516 71.3945 247.605C71.689 247.683 71.9933 247.762 72.2878 247.831C72.6804 247.929 73.0731 248.028 73.4657 248.116C73.7602 248.185 74.0449 248.254 74.3394 248.323C75.8413 248.667 77.3628 248.972 78.9138 249.257C79.1592 249.296 79.4046 249.345 79.6402 249.385C81.5446 249.709 83.4784 249.994 85.4613 250.23C85.8442 250.279 86.227 250.319 86.6098 250.358C87.0614 250.407 87.5129 250.456 87.9645 250.496C88.2786 250.525 88.6026 250.555 88.9265 250.584C90.556 250.732 92.2248 250.84 93.9132 250.919C94.2371 250.938 94.5611 250.948 94.885 250.958C95.7979 250.997 96.7109 251.017 97.6434 251.037C98.0066 251.046 98.3698 251.046 98.7232 251.056C99.0864 251.056 99.4496 251.056 99.8128 251.056C147.059 251.056 173.995 225.784 189.083 197.612C181.387 201.712 169.156 200.837 167.84 189.086C166.378 176.067 165.317 169.724 161.607 170.088C156.345 170.599 152.752 170.639 152.752 170.639C152.752 170.639 152.851 170.462 153.067 170.157C153.175 170.147 153.283 170.137 153.391 170.137C166.957 169.056 179.011 167.482 188.857 165.565C189.976 165.348 191.076 165.122 192.136 164.896C196.003 168.357 197.476 173.618 197.397 178.948C199.469 173.245 201.137 167.62 202.463 162.251C211.346 159.478 216.431 156.292 216.431 152.909Z" fill="#390075"/>
</g>
<path d="M109.001 278C87.13 278 67.939 272.591 51.958 261.932C38.6667 253.062 27.5447 240.554 18.8965 224.742C3.97563 197.454 0 166.755 0 152.909H3.14124C3.14124 155.908 11.0434 160.805 33.3069 164.729C53.509 168.289 80.396 170.245 109.001 170.245C137.606 170.245 164.493 168.289 184.695 164.729C206.958 160.815 214.861 155.918 214.861 152.909H218.002C218.002 166.755 214.026 197.454 199.105 224.742C190.457 240.554 179.335 253.062 166.044 261.932C150.063 272.591 130.872 278 109.001 278ZM3.31793 158.357C4.21122 173.5 8.76601 199.657 21.6549 223.218C40.3845 257.477 69.7747 274.843 109.001 274.843C148.227 274.843 177.617 257.477 196.347 223.218C209.236 199.647 213.791 173.49 214.684 158.357C209.933 162.035 200.077 165.211 185.235 167.817C164.856 171.406 137.782 173.372 109.001 173.372C80.2193 173.372 53.1458 171.396 32.767 167.817C17.9149 165.211 8.06905 162.044 3.31793 158.357Z" fill="#390075"/>
<g opacity="0.3">
<path opacity="0.3" d="M78.8548 171.052C79.2082 171.071 79.5616 171.091 79.9248 171.111C79.1591 171.573 78.4524 172.025 77.8732 172.448C74.8498 174.641 73.1024 178.427 71.6398 191.446C70.3048 203.325 57.8184 204.092 50.142 199.834C43.3 196.048 38.0777 177.384 46.3332 168.259C56.0809 169.498 67.0457 170.452 78.8548 171.052Z" fill="#390075"/>
</g>
<g opacity="0.3">
<g opacity="0.3">
<path opacity="0.3" d="M87.5717 167.01C87.5521 167.03 87.503 167.05 87.4441 167.079C87.503 167.04 87.5423 167.02 87.5717 167.01Z" fill="#6B184E"/>
</g>
<g opacity="0.3">
<path opacity="0.3" d="M87.5423 167.295L87.3362 166.853L87.4343 166.804C87.4343 166.804 87.4343 166.804 87.4442 166.804L87.5914 167.03L87.6895 167.227L87.5914 167.03L87.719 167.207C87.6797 167.227 87.6208 167.266 87.5423 167.295Z" fill="#390075"/>
</g>
</g>
<path d="M70.5403 162.625C67.8211 160.963 56.3556 155.486 42.4851 162.349C28.6146 169.223 34.3081 192.784 42.0925 197.091C49.7689 201.339 62.2553 200.582 63.5903 188.703C65.0529 175.683 66.1131 169.341 69.8237 169.705C75.0853 170.216 78.6879 170.255 78.6879 170.255C78.6879 170.255 76.3417 166.155 70.5403 162.625Z" fill="#FEC2E6"/>
<g opacity="0.6">
<path opacity="0.6" d="M78.6781 170.245C78.6781 170.245 78.4523 170.245 78.0302 170.236C76.7148 168.81 74.7614 167.03 72.0422 165.378C69.3231 163.716 57.8576 158.239 43.9871 165.103C33.7486 170.177 34.1707 184.347 38.2249 193.147C32.8946 184.907 31.0884 167.994 42.4852 162.349C56.3557 155.486 67.8212 160.963 70.5403 162.625C76.3418 166.155 78.6781 170.245 78.6781 170.245Z" fill="white"/>
</g>
<g opacity="0.3">
<path opacity="0.3" d="M78.6782 170.245C78.6782 170.245 75.0756 170.206 69.8141 169.695C66.1035 169.341 65.0433 175.683 63.5807 188.693C62.2456 200.572 49.7592 201.339 42.0828 197.081C39.2557 195.517 36.7035 191.417 35.2703 186.5C36.6053 189.017 38.2643 190.974 40.0116 191.938C47.6978 196.186 60.1842 195.429 61.5094 183.54C62.972 170.521 64.0518 165.083 67.7428 164.542C72.4154 163.854 77.1371 168.161 77.1371 168.161C78.207 169.41 78.6782 170.245 78.6782 170.245Z" fill="#390075"/>
</g>
<path d="M51.1825 201.014C47.8646 201.014 44.3798 200.149 41.3269 198.467C36.2518 195.655 32.286 186.245 32.4823 177.483C32.659 169.705 35.9671 163.824 41.7882 160.943C57.3374 153.244 69.971 160.432 71.3551 161.278C77.4315 164.975 79.9346 169.282 80.0426 169.459L81.4071 171.848L78.6585 171.819C78.5113 171.819 74.9283 171.77 69.6667 171.268C67.1439 171.032 66.0347 180.925 65.1414 188.88C64.4444 195.045 61.0872 198.005 58.3975 199.402C56.3066 200.473 53.7937 201.014 51.1825 201.014ZM56.4244 160.55C52.5372 160.55 48.0315 161.356 43.1822 163.756C36.8113 166.912 35.7119 173.756 35.6236 177.552C35.4371 185.792 39.2753 193.738 42.8484 195.714C47.3541 198.202 53.1556 198.566 56.9643 196.599C59.8994 195.085 61.5977 192.361 62.0296 188.526C62.8149 181.564 63.4431 176.922 64.3561 173.756C64.7782 172.271 66.0837 167.768 69.971 168.141C72.0815 168.348 73.927 168.476 75.37 168.554C74.143 167.227 72.2877 165.545 69.7256 163.982C68.9109 163.47 63.7965 160.55 56.4244 160.55Z" fill="#390075"/>
<g opacity="0.4">
<path opacity="0.4" d="M38.4409 182.272C37.4789 180.059 36.7819 173.894 42.4361 170.413C46.7946 167.728 48.1689 170.462 46.0093 172.133C45.4007 172.605 42.7797 174.847 43.1429 179.941C43.4963 185.035 39.6777 185.104 38.4409 182.272Z" fill="white"/>
</g>
<path d="M151.535 162.625C154.254 160.963 165.72 155.486 179.59 162.349C193.461 169.223 187.767 192.784 179.983 197.091C172.307 201.339 159.82 200.582 158.485 188.703C157.023 175.683 155.962 169.341 152.252 169.705C146.99 170.216 143.388 170.255 143.388 170.255C143.388 170.255 145.734 166.155 151.535 162.625Z" fill="#FEC2E6"/>
<g opacity="0.6">
<path opacity="0.6" d="M143.397 170.245C143.397 170.245 143.623 170.245 144.045 170.236C145.361 168.81 147.314 167.03 150.033 165.378C152.752 163.716 164.218 158.239 178.088 165.103C188.327 170.177 187.905 184.347 183.851 193.147C189.181 184.907 190.987 167.994 179.59 162.349C165.72 155.486 154.254 160.963 151.535 162.625C145.734 166.155 143.397 170.245 143.397 170.245Z" fill="white"/>
</g>
<g opacity="0.3">
<path opacity="0.3" d="M143.397 170.245C143.397 170.245 147 170.206 152.262 169.695C155.972 169.341 157.032 175.683 158.495 188.693C159.83 200.572 172.316 201.339 179.993 197.081C182.82 195.517 185.372 191.417 186.805 186.5C185.47 189.017 183.811 190.974 182.064 191.938C174.378 196.186 161.892 195.429 160.566 183.54C159.104 170.521 158.024 165.083 154.333 164.542C149.66 163.854 144.939 168.161 144.939 168.161C143.869 169.41 143.397 170.245 143.397 170.245Z" fill="#390075"/>
</g>
<path d="M170.893 201.014C168.282 201.014 165.769 200.483 163.668 199.392C160.969 197.995 157.612 195.035 156.924 188.87C156.031 180.915 154.922 170.993 152.399 171.258C147.137 171.77 143.555 171.809 143.407 171.809L140.659 171.838L142.023 169.449C142.131 169.272 144.634 164.965 150.711 161.268C152.095 160.422 164.728 153.224 180.278 160.933C186.099 163.814 189.407 169.695 189.583 177.473C189.78 186.235 185.814 195.645 180.739 198.457C177.696 200.149 174.211 201.014 170.893 201.014ZM152.556 168.102C156.1 168.102 157.317 172.32 157.72 173.736C158.632 176.903 159.261 181.554 160.046 188.506C160.478 192.351 162.186 195.065 165.111 196.579C168.92 198.546 174.721 198.182 179.227 195.694C182.791 193.718 186.639 185.782 186.452 177.532C186.364 173.736 185.274 166.892 178.893 163.736C164.846 156.783 153.587 163.185 152.35 163.942C149.788 165.506 147.942 167.187 146.706 168.515C148.149 168.436 149.994 168.308 152.105 168.102C152.262 168.112 152.409 168.102 152.556 168.102Z" fill="#390075"/>
<g opacity="0.4">
<path opacity="0.4" d="M183.635 182.272C184.597 180.059 185.294 173.894 179.639 170.413C175.281 167.728 173.907 170.462 176.066 172.133C176.675 172.605 179.296 174.847 178.933 179.941C178.579 185.035 182.398 185.104 183.635 182.272Z" fill="white"/>
</g>
<path d="M102.738 39.9233C106.017 17.6999 117.904 1.05191 121.477 1.58291C125.051 2.11391 131.618 21.4955 128.339 43.719" fill="#FDD800"/>
<g opacity="0.5">
<path opacity="0.5" d="M119.367 10.5313C117.227 11.0819 110.208 22.2625 112.201 27.1497C112.535 27.956 113.624 27.2677 114.832 26.127C117.649 23.4622 119.455 19.9123 120.123 16.0871C120.624 13.1469 120.82 10.1576 119.367 10.5313Z" fill="white"/>
</g>
<g opacity="0.3">
<path opacity="0.3" d="M128.339 43.7191L102.738 39.9234C103.317 36.0196 104.161 32.2927 105.172 28.8019L112.162 29.8344C118.523 30.7784 124.295 25.8715 124.314 19.4208C124.324 12.9308 123.608 7.02089 122.538 2.18286C126.17 5.69338 131.323 23.5312 128.339 43.7191Z" fill="#390075"/>
</g>
<path d="M128.339 45.2924C128.26 45.2924 128.182 45.2826 128.103 45.2727C127.249 45.1449 126.651 44.3484 126.778 43.483C130.037 21.4366 123.558 4.43462 121.242 3.14644C118.65 3.70695 107.538 18.0932 104.289 40.1495C104.161 41.005 103.366 41.6049 102.502 41.477C101.648 41.3492 101.049 40.5527 101.177 39.6874C103.15 26.3238 107.941 16.2544 110.62 11.4458C112.201 8.62365 117.649 -0.570581 121.703 0.0292562C125.747 0.629094 128.319 11.0132 129.006 14.1795C130.184 19.5584 131.853 30.5915 129.88 43.9452C129.772 44.7319 129.105 45.2924 128.339 45.2924Z" fill="#390075"/>
<path d="M105.653 34.7804C105.094 34.7804 104.534 34.7705 103.965 34.7509C103.101 34.7214 102.424 33.9937 102.453 33.1185C102.483 32.2532 103.209 31.5845 104.083 31.6042C119.396 32.1745 127.829 24.1898 127.917 24.1111C128.545 23.5113 129.537 23.5211 130.135 24.1505C130.734 24.77 130.724 25.7631 130.106 26.3728C129.733 26.717 121.291 34.7804 105.653 34.7804Z" fill="#390075"/>
<path d="M108.186 21.7512C107.322 21.7512 106.615 21.053 106.615 20.1778C106.615 19.3125 107.312 18.6045 108.176 18.6045C108.314 18.6045 119.76 18.4668 125.914 11.7408C126.503 11.1016 127.495 11.0623 128.133 11.6425C128.771 12.2325 128.82 13.2256 128.231 13.8648C121.134 21.6234 108.716 21.7414 108.186 21.7512Z" fill="#390075"/>
<g opacity="0.3">
<g opacity="0.3">
<path opacity="0.3" d="M157.975 147.225C157.671 147.756 157.356 148.278 157.032 148.799C143.977 169.852 110.248 169.193 98.1146 167.197C89.0247 165.997 68.6754 160.609 56.238 148.032C60.5376 140.971 65.4752 133.999 71.1196 127.529H143.584C149.022 133.754 153.803 140.44 157.975 147.225Z" fill="#6B184E"/>
</g>
<g opacity="0.3">
<path opacity="0.3" d="M110.817 168.387C105.86 168.387 101.442 167.993 98.0753 167.443C88.2589 166.155 68.3612 160.648 56.0613 148.209L55.9238 148.071L56.022 147.904C60.6259 140.332 65.642 133.429 70.933 127.372L71.0018 127.283H143.692L143.761 127.372C148.855 133.203 153.705 139.831 158.171 147.088L158.25 147.215L158.181 147.343C157.877 147.884 157.553 148.415 157.239 148.927C151.535 158.121 141.454 164.168 127.279 166.882C121.635 167.974 115.941 168.387 110.817 168.387ZM56.5521 148.002C68.7636 160.245 88.4258 165.683 98.1538 166.961C110.11 168.928 143.928 169.478 156.826 148.671C157.121 148.199 157.405 147.717 157.69 147.225C153.283 140.076 148.502 133.537 143.486 127.785H71.2374C66.0347 133.754 61.097 140.558 56.5521 148.002Z" fill="#390075"/>
</g>
</g>
<path d="M162.363 130.224C162.205 130.656 162.048 131.089 161.882 131.522C161.577 132.318 161.253 133.115 160.9 133.911C159.83 136.399 158.544 138.877 157.022 141.316C143.967 162.369 110.238 161.71 98.1046 159.714C85.9127 158.111 53.4303 148.956 47.0301 125.022C46.3037 122.327 45.803 119.662 45.4889 117.047C45.43 116.535 45.3711 116.034 45.322 115.523C45.2435 114.706 45.1846 113.89 45.1453 113.084C43.5551 81.44 68.5377 57.122 68.5377 57.122C68.5377 57.122 53.2046 44.4173 62.8148 32.5975C70.3243 23.364 89.7803 30.1982 92.6271 46.1381L136.202 52.5987C143.525 38.1632 164.139 37.2684 168.655 48.2818C174.437 62.3829 156.06 70.1021 156.06 70.1021C156.06 70.1021 172.866 100.477 162.363 130.224Z" fill="white"/>
<path d="M156.066 61.254C160.051 59.5668 162.132 55.474 160.713 52.1125C159.295 48.7509 154.915 47.3935 150.93 49.0806C146.945 50.7678 144.864 54.8606 146.283 58.2222C147.701 61.5837 152.081 62.9411 156.066 61.254Z" fill="#F883A0"/>
<path d="M81.165 48.5758C83.4938 45.7693 82.6846 41.2486 79.3576 38.4784C76.0307 35.7082 71.4459 35.7377 69.1172 38.5441C66.7884 41.3506 67.5976 45.8714 70.9246 48.6416C74.2515 51.4117 78.8363 51.3823 81.165 48.5758Z" fill="#F883A0"/>
<path d="M160.91 133.921C159.84 136.409 158.554 138.887 157.032 141.325C143.977 162.379 110.248 161.72 98.1145 159.724C85.9226 158.121 53.4402 148.966 47.04 125.031C46.3135 122.337 45.8129 119.672 45.4988 117.057C60.3411 111.206 81.9371 109.259 105.29 112.72C128.427 116.142 148.374 124.146 160.91 133.921Z" fill="#FFEBF6"/>
<path d="M110.827 162.241C105.801 162.241 101.305 161.848 97.8887 161.287C90.9093 160.363 79.8462 157.482 69.6863 152.152C56.7385 145.357 48.3848 136.124 45.5282 125.444C41.3465 109.819 43.8202 92.8468 52.6844 76.3758C57.8968 66.6703 63.8063 59.8655 66.28 57.2302C60.6749 51.9398 53.8132 41.1821 61.5878 31.6142C65.0137 27.4055 70.8348 25.8715 77.1664 27.5136C83.8022 29.2345 92.2443 35.0755 94.1683 45.8726C94.3254 46.7281 93.756 47.5443 92.902 47.7016C92.048 47.859 91.2332 47.2886 91.0761 46.4331C89.5153 37.7011 82.5752 32.1747 76.3811 30.5718C71.2667 29.2443 66.653 30.385 64.0223 33.6202C55.5213 44.0829 68.9795 55.47 69.5489 55.9518L70.8937 57.0729L69.647 58.2922C69.5685 58.3709 61.8234 65.9819 55.3937 77.9688C49.5137 88.9331 43.5453 105.935 48.5517 124.648C54.6967 147.609 86.5606 156.646 98.3108 158.19L98.3599 158.2C110.061 160.127 143.172 160.717 155.687 140.519C165.887 124.058 165.092 106.063 162.628 93.8498C159.938 80.5157 154.725 70.9773 154.676 70.8789L153.832 69.3449L155.442 68.6664C156.129 68.3714 172.307 61.3701 167.192 48.8915C165.612 45.0368 161.518 42.6079 156.247 42.3916C149.866 42.1359 141.611 45.4104 137.596 53.3165C137.203 54.0933 136.261 54.3982 135.485 54.0048C134.71 53.6115 134.406 52.6675 134.798 51.8907C139.765 42.1163 149.523 38.9696 156.375 39.2449C162.912 39.5104 168.046 42.6669 170.098 47.6918C174.78 59.1084 165.101 67.4176 158.2 70.8494C159.81 74.0945 163.501 82.3152 165.69 93.1221C169.411 111.461 166.878 128.424 158.357 142.171C152.536 151.562 141.866 157.983 127.514 160.737C121.792 161.818 116.029 162.241 110.827 162.241Z" fill="#390075"/>
<path d="M111.894 125.086C112.935 124.064 113.319 122.763 112.75 122.181C112.181 121.599 110.875 121.956 109.833 122.979C108.791 124.001 108.408 125.302 108.977 125.884C109.546 126.466 110.852 126.109 111.894 125.086Z" fill="#390075"/>
<path d="M101.083 124.718C101.795 124.326 101.804 122.97 101.103 121.69C100.401 120.409 99.2541 119.689 98.5412 120.081C97.8284 120.473 97.8194 121.829 98.5211 123.109C99.2229 124.39 100.37 125.11 101.083 124.718Z" fill="#390075"/>
<path d="M156.145 122.444C156.764 118.254 152.127 114.096 145.788 113.157C139.449 112.218 133.809 114.853 133.19 119.043C132.571 123.234 137.209 127.392 143.547 128.331C149.886 129.27 155.527 126.635 156.145 122.444Z" fill="#FDC1E5"/>
<path d="M76.6502 110.661C77.2688 106.471 72.6316 102.313 66.2927 101.373C59.9538 100.434 54.3136 103.07 53.6949 107.26C53.0762 111.451 57.7134 115.609 64.0523 116.548C70.3913 117.487 76.0315 114.851 76.6502 110.661Z" fill="#FDC1E5"/>
<path d="M68.5575 58.7149C68.1453 58.7149 67.7231 58.5477 67.4188 58.2232C66.82 57.5939 66.8495 56.6007 67.4777 56.0009C67.6446 55.8436 71.6301 52.0675 74.467 50.0517C75.1738 49.5502 76.1554 49.7173 76.656 50.4253C77.1567 51.1334 76.9898 52.1167 76.283 52.6182C73.6228 54.4964 69.6766 58.2429 69.6373 58.2822C69.333 58.5674 68.9502 58.7149 68.5575 58.7149Z" fill="#390075"/>
<path d="M99.9797 34.4069C90.5167 32.2239 80.8967 37.4257 77.7652 46.6298C76.4989 50.3566 76.1063 54.8013 77.883 59.6689C82.1728 71.4591 95.5918 73.6716 110.051 72.5309C110.051 72.5309 99.2533 44.9778 104.957 36.0491C104.966 36.0491 103.013 35.105 99.9797 34.4069Z" fill="#FEF26B"/>
<g opacity="0.6">
<path opacity="0.6" d="M101.54 40.2183C101.54 40.2183 99.5869 39.2743 96.5537 38.5762C89.9865 37.0618 83.3409 39.1072 78.845 43.5814C82.7519 35.99 91.4295 31.9386 99.9796 33.9053C103.003 34.6035 104.956 35.5475 104.956 35.5475C99.2532 44.486 97.2506 46.9247 101.54 40.2183Z" fill="white"/>
</g>
<g opacity="0.3">
<path opacity="0.3" d="M110.051 72.5309C95.5918 73.6716 82.1728 71.4591 77.883 59.6688C76.1063 54.8013 76.4989 50.3664 77.7652 46.6396C78.5113 44.4565 79.6205 42.4997 81.0046 40.8083C80.2095 44.1124 80.1801 47.8786 81.6623 51.9496C85.314 61.9797 95.5819 65.0772 107.47 65.0772C108.854 69.4825 110.051 72.5309 110.051 72.5309Z" fill="#390075"/>
</g>
<path d="M103.631 74.3698C88.7988 74.3698 79.8659 69.7088 76.4106 60.2097C74.7222 55.5782 74.6829 50.8385 76.283 46.1283C79.6598 36.1966 90.0062 30.4932 100.333 32.8729C103.494 33.6006 105.555 34.5839 105.644 34.6331L107.244 35.4001L106.292 36.8948C101.963 43.6601 108.598 64.4971 111.524 71.9508L112.299 73.9273L110.189 74.0945C107.882 74.2813 105.693 74.3698 103.631 74.3698ZM95.6212 35.4788C88.3276 35.4788 81.6721 40.0218 79.2475 47.1412C77.883 51.1532 77.9125 55.1947 79.3457 59.1281C82.5949 68.0568 91.9302 71.9803 107.823 71.1051C105.447 64.6249 99.2238 45.9317 102.787 36.8751C101.992 36.5899 100.902 36.2458 99.6165 35.9508C98.2912 35.6263 96.9464 35.4788 95.6212 35.4788Z" fill="#390075"/>
<path d="M104.299 31.9977C100.608 33.0991 97.6925 35.9606 96.544 39.6481C94.6396 45.735 92.9904 56.0404 98.9882 65.3329C108.265 79.6897 131.903 73.0915 131.903 73.0915C131.903 73.0915 124.206 45.5285 126.386 38.9008C126.376 38.9008 119.249 27.5235 104.299 31.9977Z" fill="#FD6CCB"/>
<path d="M119.868 74.822C112.525 74.822 103.651 73.0225 98.7624 65.4705C92.5683 55.8829 94.5512 45.1252 96.2887 39.5693C97.4667 35.8031 100.431 32.8826 104.22 31.7518C119.19 27.2677 126.513 38.645 126.592 38.763C126.631 38.8318 126.641 38.9105 126.621 38.9793C124.491 45.4595 132.069 72.7472 132.138 73.0225C132.158 73.0914 132.148 73.1602 132.118 73.2192C132.089 73.2782 132.03 73.3175 131.961 73.3372C131.853 73.3667 126.474 74.822 119.868 74.822ZM104.368 32.2434C100.736 33.3251 97.8986 36.1276 96.7795 39.7267C94.6887 46.4134 93.4223 56.2566 99.1944 65.1951C107.754 78.4506 129.046 73.5437 131.579 72.9045C130.774 69.9742 124.118 45.489 126.101 38.94C125.355 37.8583 118.228 28.0938 104.368 32.2434Z" fill="#102770"/>
<g opacity="0.6">
<path opacity="0.6" d="M124.265 42.3227C124.265 42.3227 117.138 30.9454 102.188 35.4196C99.9402 36.0981 97.9769 37.4158 96.5339 39.176L96.5437 39.1662C97.6923 35.4786 100.608 32.6171 104.308 31.5158C119.259 27.0416 126.386 38.4188 126.386 38.4188C124.196 45.0367 122.547 47.5442 124.265 42.3227Z" fill="white"/>
</g>
<g opacity="0.3">
<path opacity="0.3" d="M131.893 73.0913C131.893 73.0913 108.255 79.6895 98.9782 65.3327C92.9804 56.05 94.6296 45.7348 96.534 39.6479C97.1131 37.7992 98.134 36.157 99.4789 34.8394C97.9377 41.0246 97.2604 50.032 102.571 58.2428C109.109 68.3712 122.812 68.0664 130.312 67.0044C131.205 70.6329 131.893 73.0913 131.893 73.0913Z" fill="#390075"/>
</g>
<path d="M119.75 76.2085C112.123 76.2085 102.885 74.2812 97.6631 66.1883C91.1744 56.1484 93.2359 44.958 95.0323 39.1759C96.3378 34.9967 99.6263 31.7517 103.838 30.4832C119.75 25.7238 127.623 37.9369 127.701 38.0549L128.094 38.6843L127.858 39.3824C126.189 44.4466 131.294 65.1164 133.395 72.6587L133.817 74.173L132.305 74.5958C131.844 74.7335 126.415 76.2085 119.75 76.2085ZM104.75 33.5021C101.541 34.4657 99.0373 36.9339 98.0361 40.1199C96.0335 46.5313 94.8065 55.9615 100.304 64.4773C107.528 75.6677 124.727 73.0323 129.949 71.931C128.3 65.8146 123.274 46.2166 124.678 39.2153C123.117 37.1404 116.687 29.9325 104.75 33.5021Z" fill="#390075"/>
<path d="M129.321 35.8129C125.718 35.1049 122.135 37.0913 120.8 40.5133C119.22 44.5745 117.757 50.7695 119.308 57.8692C121.635 68.4598 128.85 72.8062 134.887 74.4484C149.631 78.4505 156.365 61.9501 156.365 61.9501C156.365 61.9501 146.764 59.4229 144.556 48.321C143.869 44.899 141.866 41.8703 138.96 39.9331C136.447 38.2615 133.149 36.5701 129.321 35.8129Z" fill="#39D5FF"/>
<path d="M139.353 75.3236C137.93 75.3236 136.418 75.127 134.818 74.6943C128.957 73.1013 121.468 68.9024 119.063 57.9185C117.482 50.7106 119.004 44.4271 120.564 40.4151C121.939 36.875 125.649 34.8297 129.37 35.5574C132.658 36.1965 135.937 37.6027 139.108 39.7169C142.082 41.7032 144.104 44.7418 144.811 48.2621C146.971 59.069 156.345 61.665 156.443 61.6945C156.512 61.7142 156.571 61.7634 156.61 61.8224C156.64 61.8912 156.649 61.96 156.62 62.0289C156.532 62.196 151.025 75.3236 139.353 75.3236ZM127.858 35.931C124.884 35.931 122.145 37.7502 121.036 40.6117C119.504 44.5549 118.002 50.7401 119.553 57.8202C121.909 68.5484 129.223 72.6489 134.945 74.2125C148.296 77.841 155.069 64.1726 156.011 62.1174C154.392 61.5864 146.303 58.4299 144.3 48.3801C143.623 44.9876 141.68 42.0671 138.813 40.1594C135.701 38.0846 132.491 36.7079 129.262 36.0785C128.791 35.9704 128.319 35.931 127.858 35.931Z" fill="#102770"/>
<g opacity="0.6">
<path opacity="0.6" d="M154.716 60.8389C152.075 60.2981 145.056 58.0856 141.778 49.619C140.511 46.3641 138.018 43.7288 134.828 42.3226C132.069 41.1033 128.526 40.0019 124.619 39.9233C123.078 39.8938 121.625 40.3264 120.398 41.1131C120.525 40.7394 120.663 40.3756 120.8 40.0216C122.135 36.5996 125.718 34.6132 129.321 35.3212C133.149 36.0686 136.457 37.7698 138.96 39.4414C141.866 41.3786 143.869 44.3975 144.556 47.8293C146.185 56.05 151.869 59.5606 154.716 60.8389Z" fill="white"/>
</g>
<g opacity="0.3">
<path opacity="0.3" d="M156.355 61.9502C156.355 61.9502 149.621 78.4604 134.877 74.4484C128.84 72.8062 121.625 68.4697 119.298 57.8693C117.747 50.7794 119.21 44.5745 120.79 40.5134C121.036 39.8742 121.36 39.2842 121.752 38.7532C121.085 42.1752 120.888 46.2266 121.85 50.6319C124.177 61.2225 131.392 65.5688 137.429 67.211C145.557 69.4235 151.25 65.3918 154.716 61.3405C155.717 61.783 156.355 61.9502 156.355 61.9502Z" fill="#390075"/>
</g>
<path d="M139.382 76.6511C137.841 76.6511 136.212 76.4446 134.464 75.9726C129.38 74.5959 120.447 70.4462 117.767 58.2134C116.118 50.6909 117.708 44.132 119.328 39.9528C120.938 35.813 125.257 33.4234 129.615 34.2789C133.08 34.9575 136.516 36.4226 139.824 38.6351C143.093 40.8182 145.312 44.1517 146.087 48.0162C148.09 58.0364 156.669 60.4063 156.757 60.426L158.495 60.8783L157.818 62.5401C157.749 62.6975 151.889 76.6511 139.382 76.6511ZM127.858 37.2486C125.424 37.2486 123.176 38.7335 122.263 41.0837C120.8 44.8597 119.357 50.7696 120.839 57.5251C123.048 67.6043 129.919 71.4689 135.289 72.9242C146.136 75.8742 152.232 66.5817 154.195 62.8253C151.084 61.4683 144.811 57.6824 143.005 48.6259C142.396 45.5775 140.649 42.952 138.087 41.241C135.122 39.2645 132.069 37.9566 129.016 37.3568C128.624 37.288 128.241 37.2486 127.858 37.2486Z" fill="#390075"/>
<path d="M130.322 134.226C130.332 134.353 130.332 134.481 130.332 134.609C130.292 137.756 127.22 140.45 123.264 140.706C122.056 140.784 120.908 140.627 119.877 140.283C117.374 139.467 115.568 137.539 115.421 135.209C115.205 131.905 118.601 132.495 122.714 132.22C126.817 131.954 130.106 130.922 130.322 134.226Z" fill="#390075"/>
<path d="M130.332 134.609C130.293 137.756 127.22 140.45 123.264 140.706C122.057 140.785 120.908 140.627 119.877 140.283C119.917 137.136 122.989 134.442 126.945 134.186C128.143 134.108 129.301 134.265 130.332 134.609Z" fill="#FF4F90"/>
<path d="M122.636 141.906C120.633 141.906 118.719 141.335 117.197 140.263C115.421 139.015 114.36 137.245 114.233 135.288C114.154 134.147 114.429 133.223 115.038 132.554C116.206 131.266 118.238 131.207 120.604 131.138C121.252 131.118 121.929 131.099 122.626 131.05C123.323 131 123.99 130.932 124.638 130.873C126.984 130.637 129.016 130.43 130.341 131.551C131.038 132.141 131.431 133.016 131.5 134.157C131.627 136.124 130.813 138.012 129.213 139.477C127.681 140.883 125.6 141.738 123.342 141.886C123.107 141.896 122.871 141.906 122.636 141.906ZM127.328 133.036C126.601 133.036 125.728 133.124 124.874 133.213C124.206 133.282 123.509 133.351 122.783 133.4C122.047 133.449 121.36 133.469 120.682 133.488C119.013 133.537 117.286 133.596 116.795 134.137C116.628 134.324 116.559 134.658 116.589 135.13C116.667 136.369 117.364 137.5 118.552 138.326C119.818 139.211 121.458 139.634 123.185 139.516C124.913 139.398 126.484 138.769 127.622 137.726C128.683 136.753 129.232 135.534 129.144 134.295C129.114 133.813 128.997 133.498 128.81 133.331C128.545 133.115 128.005 133.036 127.328 133.036Z" fill="#390075"/>
<path d="M77.5001 81.9415L79.6597 84.2425C80.1898 84.8129 80.1603 85.7077 79.591 86.2387C79.0216 86.7697 78.1283 86.7402 77.5983 86.1699C77.4608 86.0224 77.3627 85.8552 77.3038 85.6782L76.2436 82.6987C76.1062 82.3054 76.3123 81.8727 76.6952 81.735C76.9896 81.6367 77.294 81.7252 77.5001 81.9415Z" fill="#390075"/>
<path d="M73.8778 84.8129L76.4988 86.6517C77.1369 87.0942 77.2841 87.9694 76.8424 88.6086C76.4006 89.2477 75.527 89.3952 74.8889 88.9527C74.7515 88.8544 74.6239 88.7266 74.5355 88.5889L72.7391 85.9339C72.4839 85.5602 72.5821 85.0587 72.9551 84.803C73.2397 84.6162 73.6128 84.626 73.8778 84.8129Z" fill="#390075"/>
<path d="M70.8838 89.5033L73.6324 90.0835C74.3981 90.2507 74.8791 90.998 74.722 91.765C74.5551 92.532 73.8091 93.0139 73.0434 92.8565C72.8372 92.8074 72.6409 92.7189 72.474 92.6009L70.2457 90.8899C69.9022 90.6243 69.8433 90.1425 70.0985 89.7983C70.285 89.5525 70.5991 89.4443 70.8838 89.5033Z" fill="#390075"/>
<path d="M94.4726 95.6983C94.1879 94.3708 93.756 93.1417 93.1179 92.0501C92.4995 90.9488 91.6945 89.995 90.7816 89.2083C88.9459 87.6251 86.6096 86.7499 84.2341 86.7499C81.8585 86.7499 79.5026 87.6448 77.6571 89.2771C75.8214 90.9095 74.5748 93.2597 74.1821 95.9245V95.9343C74.133 96.2392 73.8582 96.4457 73.5539 96.4064C73.3085 96.367 73.1219 96.1802 73.0827 95.9442C72.6115 92.9942 73.6128 89.7393 75.7135 87.3793C77.7847 84.9799 80.9652 83.5147 84.1948 83.4656C85.8047 83.4361 87.4342 83.7409 88.9165 84.3703C90.4086 84.9898 91.7436 85.9436 92.8332 87.1138C95.0026 89.4443 96.0726 92.7385 95.572 95.6983C95.5229 96.0032 95.2284 96.2097 94.9241 96.1605C94.6885 96.1212 94.5216 95.9442 94.4726 95.7278V95.6983Z" fill="#390075"/>
<path d="M144.88 93.1811L143.024 95.7378C142.563 96.3671 141.689 96.5048 141.061 96.0524C140.433 95.5903 140.295 94.7151 140.747 94.0858C140.865 93.9284 141.012 93.7908 141.169 93.7023L143.888 92.0994C144.242 91.8929 144.703 92.0109 144.919 92.3649C145.076 92.6206 145.046 92.9451 144.88 93.1811Z" fill="#390075"/>
<path d="M147.334 97.2716L144.86 99.317C144.261 99.8086 143.378 99.73 142.887 99.1301C142.396 98.5303 142.475 97.6453 143.073 97.1536C143.211 97.0455 143.358 96.957 143.515 96.9078L146.548 95.8851C146.97 95.7376 147.432 95.9736 147.579 96.3965C147.697 96.7111 147.579 97.0651 147.334 97.2716Z" fill="#390075"/>
<path d="M148.325 102.729L145.704 103.742C144.978 104.017 144.163 103.654 143.878 102.926C143.604 102.198 143.967 101.382 144.693 101.097C144.889 101.018 145.105 100.989 145.312 101.008L148.109 101.225C148.541 101.254 148.855 101.638 148.826 102.061C148.796 102.365 148.59 102.621 148.325 102.729Z" fill="#390075"/>
<path d="M122.675 100.163C123.028 97.1734 124.982 94.3217 127.721 92.6992C129.095 91.883 130.646 91.352 132.256 91.175C133.856 90.9882 135.505 91.1652 137.046 91.647C140.128 92.6009 142.769 94.9117 144.084 97.8027C145.429 100.664 145.469 104.067 144.192 106.761C144.065 107.036 143.731 107.154 143.446 107.026C143.221 106.918 143.103 106.682 143.132 106.446V106.436C143.515 103.772 142.975 101.166 141.679 99.0712C140.374 96.9866 138.371 95.4526 136.084 94.7839C133.797 94.1152 131.323 94.2922 129.105 95.2952C128.005 95.7967 126.965 96.4851 126.062 97.3602C125.149 98.2354 124.383 99.2876 123.735 100.477L123.725 100.487C123.578 100.763 123.234 100.861 122.969 100.713C122.753 100.605 122.645 100.379 122.675 100.163Z" fill="#390075"/>
</svg>
