<svg width="809" height="688" viewBox="0 0 809 688" fill="none" xmlns="http://www.w3.org/2000/svg">
<g filter="url(#filter0_d_631_6091)">
<path d="M75.82 210.063H222.812C227.689 210.063 230.279 204.06 226.901 200.449C223.98 197.346 219.433 195.998 214.023 197.346C212.448 185.086 202.974 175.65 191.493 175.65C186.54 175.65 181.943 177.405 178.209 180.406C175.161 163.365 161.622 150.521 145.392 150.521C129.135 150.521 115.597 163.391 112.549 180.457C107.647 176.795 101.754 174.684 95.4037 174.684C81.7129 174.684 70.105 181.5 66.0917 197.091C64.4153 203.628 69.2159 210.063 75.82 210.063Z" fill="white"/>
</g>
<g filter="url(#filter1_d_631_6091)">
<path d="M646.819 77.5749H455.25C448.874 77.5749 445.521 69.7411 449.916 65.0611C453.7 60.9916 459.644 59.2621 466.705 61.0171C468.737 45.0443 481.107 32.7595 496.068 32.7595C502.52 32.7595 508.514 35.0486 513.391 38.9655C517.353 16.7358 535.007 0 556.165 0C577.349 0 595.002 16.7867 598.965 39.0163C605.34 34.2601 613.036 31.4878 621.292 31.4878C639.123 31.4878 654.261 40.3898 659.494 60.6864C661.703 69.207 655.43 77.5749 646.819 77.5749Z" fill="white"/>
</g>
<g opacity="0.3">
<path opacity="0.3" d="M404.5 688C627.899 688 809 681.407 809 673.273C809 665.14 627.899 658.547 404.5 658.547C181.101 658.547 0 665.14 0 673.273C0 681.407 181.101 688 404.5 688Z" fill="#390075"/>
</g>
<path d="M56.6174 664.727C54.0265 665.719 51.4357 666.177 48.8703 666.508C46.2794 666.813 43.6886 666.889 41.1232 666.839C38.5323 666.788 35.9415 666.635 33.3761 666.304C30.7852 665.974 28.1944 665.541 25.629 664.727C25.0448 664.549 24.7146 663.939 24.8924 663.354C24.994 662.998 25.2988 662.718 25.629 662.616C28.2198 661.828 30.8106 661.37 33.3761 661.039C35.9669 660.709 38.5577 660.556 41.1232 660.505C43.714 660.454 46.3048 660.531 48.8703 660.836C51.4611 661.167 54.0519 661.624 56.6174 662.616C57.2016 662.845 57.5064 663.481 57.2778 664.092C57.1508 664.371 56.8968 664.6 56.6174 664.727Z" fill="#390075"/>
<path d="M725.535 664.727C712.047 666.38 698.534 666.762 685.046 666.965C678.29 667.067 671.559 667.093 664.802 667.067L644.558 666.94C631.071 666.838 617.558 666.813 604.07 666.838H563.582H401.63H239.652H158.676H138.432L118.188 667.042C111.431 667.093 104.7 667.042 97.9436 666.736C91.1871 666.406 84.4561 665.923 77.6996 664.727C77.1154 664.625 76.7344 664.066 76.836 663.481C76.9122 663.023 77.2678 662.692 77.6996 662.616C84.4561 661.421 91.1871 660.912 97.9436 660.607C104.7 660.302 111.431 660.251 118.188 660.302L138.432 660.505H158.676H239.652H401.604H563.557H604.045C617.532 660.531 631.045 660.505 644.533 660.403L664.777 660.276C671.534 660.251 678.265 660.276 685.021 660.378C698.509 660.581 712.022 660.963 725.509 662.616C726.093 662.692 726.5 663.227 726.449 663.812C726.398 664.295 726.017 664.651 725.535 664.727Z" fill="#390075"/>
<path d="M775.878 664.727C773.567 665.719 771.255 666.177 768.944 666.508C766.633 666.813 764.321 666.889 762.01 666.839C759.698 666.788 757.387 666.635 755.075 666.304C752.764 665.974 750.452 665.541 748.141 664.727C747.557 664.524 747.252 663.888 747.455 663.303C747.582 662.972 747.836 662.718 748.141 662.616C750.452 661.828 752.764 661.37 755.075 661.039C757.387 660.709 759.698 660.556 762.01 660.505C764.321 660.454 766.633 660.531 768.944 660.836C771.255 661.167 773.567 661.624 775.878 662.616C776.463 662.871 776.742 663.532 776.488 664.117C776.386 664.397 776.158 664.6 775.878 664.727Z" fill="#390075"/>
<path d="M534.321 308.29C534.321 308.29 513.01 322.762 502.316 355.242C502.316 355.242 467.721 348.451 442.905 324.365C436.758 318.438 431.246 311.444 426.979 303.203C423.245 296.031 422.483 287.79 424.642 280.338C425.989 275.658 428.503 271.283 432.161 267.671C438.079 261.847 446.639 258.49 458.552 264.416C458.552 264.416 463.022 269.223 471.607 275.963C481.717 283.848 497.516 294.352 518.471 302.72C523.475 304.729 528.758 306.586 534.321 308.29Z" fill="white"/>
<path d="M471.608 275.988C462.108 286.289 448.62 303.712 442.905 324.365C436.758 318.438 431.246 311.444 426.979 303.203C420.883 291.478 422.737 276.929 432.161 267.697C438.079 261.872 446.639 258.515 458.552 264.441C458.552 264.441 463.022 269.248 471.608 275.988Z" fill="#FDC1E5"/>
<g opacity="0.6">
<path opacity="0.6" d="M430.789 309.562C424.693 297.837 426.573 283.288 435.971 274.055C441.889 268.231 450.449 264.874 462.387 270.8C462.387 270.8 464.953 273.572 469.956 277.845C470.541 277.209 471.099 276.573 471.633 275.988C463.022 269.248 458.577 264.441 458.577 264.441C446.664 258.515 438.079 261.872 432.161 267.697C422.763 276.929 420.883 291.478 426.979 303.203C428.274 305.721 429.722 308.087 431.246 310.376C431.094 310.096 430.941 309.842 430.789 309.562Z" fill="white"/>
</g>
<g opacity="0.3">
<path opacity="0.3" d="M534.321 308.29C534.321 308.29 513.01 322.762 502.316 355.242C502.316 355.242 467.721 348.451 442.905 324.364C436.758 318.438 431.246 311.444 426.979 303.203C423.245 296.03 422.483 287.79 424.642 280.337C430.002 299.998 451.49 315.691 467.67 325.026C477.196 330.519 489.362 328.434 496.398 319.99C504.272 310.553 512.299 305.467 518.471 302.72C523.475 304.729 528.758 306.586 534.321 308.29Z" fill="#390075"/>
</g>
<path d="M502.342 358.421C502.139 358.421 501.936 358.396 501.732 358.37C499.472 357.938 446.207 347.052 424.185 304.678C417.378 291.58 419.765 275.454 429.976 265.433C435.768 259.761 445.648 254.471 460 261.593C460.355 261.771 460.66 262 460.914 262.279C461.168 262.559 487.864 290.893 535.261 305.263C536.429 305.619 537.293 306.611 537.471 307.832C537.648 309.053 537.115 310.249 536.124 310.935C535.921 311.062 515.55 325.28 505.365 356.259C504.907 357.556 503.688 358.421 502.342 358.421ZM446.715 264.492C442.194 264.492 438.104 266.298 434.396 269.96C426.166 278.049 424.261 291.122 429.799 301.728C447.731 336.192 489.312 348.731 500.259 351.503C508.235 329.172 520.859 315.641 527.742 309.536C484.816 295.141 460.254 270.774 456.672 267.061C453.116 265.331 449.814 264.492 446.715 264.492Z" fill="#390075"/>
<path d="M738.234 311.113C738.184 322.33 731.91 333.19 721.445 338.862C715.146 342.296 708.084 345.221 701.099 347.688C680.449 354.937 660.205 358.116 660.205 358.116C660.027 387.544 636.074 410.053 605.924 422.923C571.913 437.421 530.053 439.684 505.491 425.746C491.572 417.862 483.19 404.788 484.943 385.814C485.705 377.675 486.898 370.096 488.448 363.101C488.473 363.076 488.473 363.076 488.473 363.076C493.172 341.889 501.046 325.662 509.454 313.479C526.396 288.96 545.522 280.668 545.522 280.668C560.356 285.933 574.479 289.621 587.712 292.114C619.183 298.091 645.727 297.303 665.666 294.505C673.057 293.487 679.585 292.139 685.072 290.817C698.762 287.485 706.255 283.924 706.255 283.924C723.045 282.576 731.402 289.647 735.466 298.371C737.371 302.466 738.285 306.815 738.234 311.113Z" fill="white"/>
<path d="M605.949 422.897C552.685 445.635 480.116 438.285 484.968 385.788C492.588 303.61 545.522 280.643 545.522 280.643C560.356 285.907 574.478 289.595 587.712 292.088C605.416 315.081 616.465 354.733 605.949 422.897Z" fill="#FDC1E5"/>
<path d="M721.445 338.862C715.146 342.296 708.084 345.221 701.099 347.688C704.935 319.328 693.225 300.278 685.072 290.817C698.763 287.485 706.256 283.924 706.256 283.924C723.045 282.576 731.402 289.647 735.466 298.371C742.4 313.301 735.898 331.003 721.445 338.862Z" fill="#FDC1E5"/>
<g opacity="0.3">
<g opacity="0.3">
<path opacity="0.3" d="M665.691 294.479C653.626 312.334 635.363 325.687 613.722 331.054C613.163 331.206 612.604 331.333 612.02 331.461C577.323 339.549 539.934 330.977 509.428 313.453C526.37 288.934 545.497 280.643 545.497 280.643C560.331 285.908 574.453 289.595 587.687 292.088C619.183 298.091 645.726 297.277 665.691 294.479Z" fill="#0B2177"/>
</g>
</g>
<g opacity="0.3">
<path opacity="0.3" d="M738.234 311.113C738.184 322.33 731.91 333.19 721.445 338.862C715.146 342.296 708.084 345.221 701.099 347.688C680.449 354.937 660.205 358.116 660.205 358.116C660.027 387.544 636.074 410.053 605.924 422.923C571.913 437.421 530.054 439.684 505.491 425.746C491.572 417.862 483.19 404.788 484.943 385.814C485.705 377.675 486.898 370.096 488.448 363.101C488.473 363.076 488.473 363.076 488.473 363.076C488.473 363.076 557.384 389.629 627.108 369.918C631.782 368.595 632.696 362.389 628.556 359.846C628.48 359.795 628.378 359.744 628.302 359.693C625.102 357.684 625.965 352.826 629.648 352.063C651.848 347.459 715.933 332.758 738.234 311.113Z" fill="#390075"/>
</g>
<g opacity="0.6">
<path opacity="0.6" d="M493.858 388.332C501.021 311.062 548.24 286.136 553.853 283.44C551.11 282.55 548.316 281.635 545.522 280.643C545.522 280.643 492.588 303.61 484.968 385.788C482.529 412.164 499.649 427.144 524.033 432.638C504.526 425.72 491.724 411.375 493.858 388.332Z" fill="white"/>
</g>
<path d="M547.732 438.234C529.241 438.234 512.426 434.368 500.589 426.483C486.67 417.2 480.168 403.033 481.793 385.534C485.806 342.219 502.444 315.284 515.703 300.303C530.181 283.949 543.668 277.972 544.227 277.718C544.964 277.412 545.802 277.362 546.538 277.641C639.986 310.681 704.224 281.329 704.859 281.024C705.214 280.871 705.57 280.77 705.951 280.719C725.687 279.117 734.45 288.68 738.311 296.997C745.855 313.249 739.098 332.859 722.918 341.634C701.353 353.334 672.143 359.209 663.278 360.786C662.008 384.542 645.981 405.754 617.837 420.71C596.145 432.282 570.643 438.234 547.732 438.234ZM545.726 284.076C538.334 287.891 494.874 313.351 488.143 386.093C486.721 401.354 492.106 413.156 504.145 421.167C528.86 437.649 577.527 434.978 614.916 415.114C630.588 406.797 656.877 388.306 657.081 358.09C657.081 356.539 658.224 355.216 659.773 354.962C660.129 354.911 695.791 349.188 719.972 336.064C733.205 328.892 738.768 312.893 732.621 299.693C728.303 290.409 719.718 286.162 707.094 287.027C703.944 288.425 688.12 295.013 662.288 298.141C636.405 301.295 595.282 301.372 545.726 284.076Z" fill="#390075"/>
<path d="M660.637 361.244C658.859 361.27 657.284 361.168 655.633 361.015C654.007 360.888 652.382 360.685 650.781 360.456C647.581 360.023 644.38 359.439 641.231 358.599C644.406 357.912 647.581 357.353 650.68 356.793L655.328 355.903C656.852 355.598 658.452 355.267 659.798 354.937L660.637 361.244Z" fill="#390075"/>
<path d="M668.79 195.997C673.362 186.485 683.065 180.279 693.606 180.279C701.201 180.279 709.913 183.534 714.384 196.404C723.376 222.169 713.571 253.352 738.336 279.04C738.336 279.04 682.202 293.818 666.555 232.801C666.555 232.826 660.967 212.25 668.79 195.997Z" fill="#FF0660"/>
<g opacity="0.6">
<path opacity="0.6" d="M687.256 181.576C694.851 181.576 703.563 184.832 708.034 197.701C717 223.415 707.272 254.522 731.834 280.185C735.872 279.727 738.336 279.066 738.336 279.066C713.571 253.377 723.375 222.195 714.384 196.43C709.888 183.534 701.176 180.304 693.606 180.304C690.711 180.304 687.891 180.787 685.224 181.652C685.885 181.601 686.57 181.576 687.256 181.576Z" fill="white"/>
</g>
<g opacity="0.3">
<path opacity="0.3" d="M689.415 230.283C689.415 230.283 683.827 209.706 691.651 193.454C693.987 188.621 697.645 184.628 702.039 181.881C699.245 180.711 696.35 180.279 693.581 180.279C683.04 180.253 673.337 186.485 668.765 195.997C660.941 212.25 666.53 232.826 666.53 232.826C682.176 293.843 738.311 279.066 738.311 279.066C737.778 278.506 737.27 277.947 736.762 277.387C719.616 274.818 698.178 264.416 689.415 230.283Z" fill="#390075"/>
</g>
<path d="M723.756 283.848C714.841 283.848 703.258 282.22 692.26 275.759C678.214 267.493 668.536 253.326 663.482 233.64C663.253 232.801 657.69 211.767 665.945 194.649C671.076 184.018 681.897 177.15 693.581 177.15C693.606 177.15 693.606 177.15 693.632 177.15C701.582 177.15 712.148 180.33 717.406 195.412C720.734 204.925 721.597 215.2 722.41 225.145C723.883 242.822 725.433 261.109 740.622 276.879C741.41 277.692 741.689 278.862 741.384 279.956C741.079 281.05 740.216 281.889 739.124 282.169C738.641 282.271 732.469 283.848 723.756 283.848ZM693.555 183.484C684.31 183.484 675.724 188.952 671.66 197.396C664.472 212.352 669.578 231.809 669.628 232.012C674.251 250.045 682.964 262.915 695.486 270.291C709.227 278.379 724.391 277.947 732.215 276.955C719.032 260.702 717.533 242.924 716.085 225.679C715.247 215.683 714.46 206.247 711.412 197.498C708.186 188.214 702.192 183.509 693.632 183.509C693.581 183.484 693.555 183.484 693.555 183.484Z" fill="#390075"/>
<path d="M668.054 131.851C671.508 119.058 687.104 114.327 696.781 123.382C701.303 127.604 705.544 134.649 708.415 146.171C717.94 184.322 745.982 183.788 745.982 183.788C745.982 183.788 702.293 215.53 678.366 178.473C665.158 158.074 665.285 142.101 668.054 131.851Z" fill="#FD6CCB"/>
<g opacity="0.6">
<path opacity="0.6" d="M691.701 128.469C696.223 132.691 700.464 139.737 703.335 151.259C710.955 181.805 730.437 187.553 737.905 188.622C742.883 186.027 745.956 183.789 745.956 183.789C745.956 183.789 717.914 184.323 708.389 146.172C705.519 134.65 701.277 127.605 696.756 123.382C688.526 115.701 676.029 117.965 670.365 126.689C676.69 122.518 685.427 122.594 691.701 128.469Z" fill="white"/>
</g>
<g opacity="0.3">
<path opacity="0.3" d="M743.289 183.56C728.405 189.206 706.764 191.928 692.285 169.545C679.103 149.172 679.23 133.2 682.024 122.95C682.43 121.424 683.014 120.05 683.751 118.753C676.74 119.287 670.162 124.069 668.054 131.852C665.285 142.102 665.158 158.075 678.315 178.447C702.268 215.505 745.931 183.763 745.931 183.763C745.931 183.763 744.966 183.789 743.289 183.56Z" fill="#390075"/>
</g>
<path d="M709.71 199.609C707.17 199.609 704.579 199.406 702.014 198.922C691.269 196.913 682.405 190.605 675.674 180.177C661.703 158.558 662.161 141.517 665.005 131.012C666.961 123.814 672.346 118.321 679.433 116.311C686.367 114.327 693.657 116.108 698.94 121.068C704.528 126.307 708.745 134.497 711.488 145.408C720.251 180.482 744.89 180.635 745.906 180.609H745.931C747.303 180.609 748.522 181.5 748.954 182.797C749.385 184.119 748.928 185.544 747.811 186.358C746.972 186.943 729.319 199.609 709.71 199.609ZM685.021 121.881C683.725 121.881 682.43 122.06 681.16 122.416C676.232 123.814 672.473 127.655 671.102 132.666C668.587 141.898 668.282 157.057 680.982 176.718C686.723 185.62 694.19 190.961 703.131 192.64C715.959 195.031 729.319 189.537 737.142 185.366C727.287 182.314 711.894 173.335 705.29 146.909C702.877 137.218 699.271 130.071 694.571 125.671C691.93 123.204 688.526 121.881 685.021 121.881Z" fill="#390075"/>
<path d="M682.278 152.682C683.497 166.366 683.776 179.567 683.421 191.953C683.319 196.226 683.116 200.397 682.836 204.467C681.744 221.355 679.585 236.438 677.223 248.799C670.721 283.186 645.092 311.19 611.182 319.634C610.623 319.786 610.065 319.914 609.48 320.041C559.442 331.69 503.815 308.722 471.226 274.106C459.441 261.593 454.157 249.842 452.887 239.287C449.077 208.129 479.812 187.299 479.812 187.299C484.282 172.242 489.388 159.931 494.569 149.961C512.07 116.184 530.689 108.554 530.689 108.554C530.689 108.554 530.993 108.071 531.527 107.155C536.277 99.2448 560.178 60.7371 572.878 64.3997C587.026 68.4946 584.309 110.461 584.309 110.461C610.979 112.649 637.649 133.073 637.649 133.073C637.649 133.073 660.51 92.4538 678.747 99.0159C696.959 105.553 682.278 152.682 682.278 152.682Z" fill="white"/>
<path d="M650.781 135.463C653.753 130.504 659.494 122.161 667.85 115.039C671.101 112.267 676.156 114.302 676.435 118.6C676.842 125.111 676.08 134.726 670.873 145.739C669.73 148.18 666.936 149.35 664.421 148.435C661.5 147.392 657.309 145.561 652.458 142.509C650.045 140.982 649.333 137.854 650.781 135.463Z" fill="#F883A0"/>
<path d="M548.57 105.171C550.552 99.7536 554.565 90.4192 561.397 81.8224C564.064 78.4651 569.424 79.5079 570.491 83.6537C572.116 89.9614 573.234 99.5502 570.237 111.352C569.576 113.971 567.062 115.65 564.42 115.243C561.347 114.785 556.876 113.793 551.542 111.733C548.926 110.741 547.631 107.816 548.57 105.171Z" fill="#F883A0"/>
<path d="M609.48 320.041C559.442 331.69 503.815 308.723 471.227 274.106C459.441 261.593 454.158 249.842 452.888 239.287C476.713 233.513 568.535 218.736 609.48 320.041Z" fill="#FDC1E5"/>
<g opacity="0.3">
<path opacity="0.3" d="M682.278 152.683C682.278 152.683 696.984 105.553 678.747 98.9906C677.35 98.4819 675.902 98.2784 674.454 98.3039C682.354 111.988 679.255 123.967 675.394 131.547C671.813 138.516 670.187 146.324 670.543 154.132C671.127 166.977 670.898 179.261 670.212 190.732C656.039 187.222 641.027 176.667 624.339 158.761C618.726 152.733 613.163 148.639 607.855 145.866C601.809 142.738 595.561 141.898 589.795 142.814C588.855 141.212 587.89 139.711 586.874 138.338C581.083 130.478 572.878 126.663 564.674 126.282C564.674 126.282 564.674 126.256 564.674 126.231C565.589 118.244 562.287 108.478 541.865 106.85C537.928 106.545 534.524 106.672 531.527 107.13C530.993 108.02 530.689 108.528 530.689 108.528C530.689 108.528 512.045 116.159 494.569 149.936C503.155 154.844 508.971 155.353 520.579 154.285C524.415 153.929 527.945 156.625 528.428 160.465C530.739 179.007 545.116 196.404 545.116 196.404C574.961 235.166 611.284 229.723 630.715 223.314C640.265 224.001 648.749 222.729 656.191 220.338C661.5 218.608 666.758 223.085 665.843 228.604C665.412 231.198 664.954 233.691 664.523 236.082C658.02 270.469 632.391 298.472 598.482 306.917C597.923 307.069 597.364 307.196 596.78 307.324C551.415 317.879 501.453 299.998 468.229 270.774C469.169 271.893 470.16 272.987 471.226 274.106C503.815 308.722 559.442 331.69 609.48 320.041C610.039 319.914 610.623 319.786 611.182 319.634C645.091 311.19 670.72 283.212 677.223 248.799C679.56 236.438 681.719 221.355 682.811 204.467C682.862 203.704 682.887 202.915 682.938 202.152C682.989 201.16 683.065 200.194 683.116 199.202C683.166 198.134 683.217 197.04 683.243 195.946C683.293 194.776 683.344 193.632 683.37 192.436C683.37 192.284 683.395 192.131 683.395 191.979C683.776 179.567 683.497 166.392 682.278 152.683Z" fill="#390075"/>
</g>
<path d="M582.201 326.297C566.325 326.297 549.917 323.423 533.584 317.726C508.921 309.104 485.959 294.403 468.915 276.293C454.361 260.829 447.884 244.831 449.662 228.782C452.303 204.823 472.37 188.824 477.069 185.365C495.128 125.493 522.688 108.986 528.453 106.112C534.372 96.0652 558.502 56.9726 573.768 61.3727C587.992 65.4931 588.119 96.1415 587.636 107.638C608.947 110.41 629.293 123.331 636.684 128.469C642.856 118.295 662.135 89.7066 679.814 96.0398C699.677 103.161 687.739 145.713 685.504 153.064C688.933 192.029 684.589 226.951 680.347 249.435C673.565 285.297 646.717 314.089 611.944 322.762C602.368 325.102 592.411 326.297 582.201 326.297ZM481.564 189.944C481.336 190.096 458.552 205.865 455.961 229.494C454.412 243.61 460.33 257.879 473.538 271.919C502.444 302.643 557.588 329.705 610.42 316.556C642.806 308.493 667.8 281.66 674.124 248.214C678.315 226.01 682.583 191.47 679.128 152.987C679.103 152.58 679.128 152.148 679.255 151.767C682.837 140.296 690.203 106.519 677.68 102.017C664.802 97.3878 646.413 124.018 640.418 134.649C639.961 135.438 639.199 136.023 638.284 136.201C637.395 136.379 636.456 136.175 635.719 135.616C635.465 135.412 609.455 115.726 584.055 113.64C582.327 113.488 581.032 111.987 581.134 110.258C582.201 93.8779 580.041 69.7915 571.99 67.4515C563.963 65.1116 544.227 91.5633 533.432 110.13C533.076 110.741 532.543 111.199 531.883 111.478C531.603 111.606 501.656 124.832 482.835 188.189C482.631 188.926 482.174 189.537 481.564 189.944Z" fill="#390075"/>
<path d="M499.395 190.91C502.697 190.859 505.923 192.106 508.717 193.911C511.511 195.768 513.874 198.286 515.83 201.084C517.658 203.958 519.157 207.086 519.97 210.368C520.224 211.181 520.376 211.995 520.529 212.835C520.681 213.649 520.808 214.488 520.935 215.327C521.113 216.98 521.113 218.659 521.164 220.312V220.516C521.189 222.245 519.843 223.67 518.116 223.695C517.023 223.721 516.033 223.136 515.449 222.296L514.077 220.719C513.594 220.16 513.086 219.626 512.578 219.066C511.562 217.972 510.47 216.93 509.352 215.938C508.235 214.92 506.99 214.081 505.72 213.165C504.425 212.25 503.028 211.512 501.453 210.622C503.129 210.062 504.983 209.935 506.787 210.189C508.59 210.418 510.343 210.978 511.969 211.766C513.62 212.529 515.169 213.471 516.592 214.564C517.303 215.124 517.989 215.709 518.624 216.345C519.284 216.98 519.843 217.591 520.503 218.456L514.788 220.44C514.61 219.015 514.509 217.565 514.356 216.141C514.229 215.454 514.102 214.742 514.001 214.056C513.899 213.343 513.798 212.657 513.594 211.97C513.417 211.283 513.264 210.596 513.112 209.91C512.934 209.223 512.68 208.587 512.451 207.926C512.248 207.265 512.045 206.578 511.715 205.967C511.435 205.332 511.181 204.67 510.851 204.06C509.632 201.542 507.93 199.304 505.999 197.142C504.12 194.954 501.961 192.92 499.395 190.91Z" fill="#390075"/>
<path d="M615.932 242.618C612.528 241.473 609.353 240.71 606.178 240.253C603.029 239.795 599.93 239.591 596.882 239.998C596.12 240.075 595.358 240.253 594.596 240.354C593.834 240.456 593.097 240.66 592.361 240.863C591.624 241.066 590.862 241.194 590.125 241.473C589.389 241.753 588.677 242.033 587.941 242.262C587.204 242.491 586.493 242.821 585.782 243.152C585.071 243.483 584.359 243.788 583.648 244.119C582.251 244.856 580.88 245.619 579.457 246.331L577.806 239.871C579 239.947 579.889 240.1 580.905 240.303C581.87 240.507 582.835 240.787 583.775 241.117C585.655 241.779 587.458 242.618 589.16 243.686C590.862 244.729 592.437 246.001 593.758 247.501C595.078 249.002 596.069 250.782 596.602 252.69C594.824 251.774 593.3 250.935 591.675 250.299C590.049 249.689 588.525 249.053 586.925 248.646C585.325 248.213 583.699 247.857 582.073 247.578C581.261 247.425 580.448 247.323 579.635 247.196L577.349 246.891C575.444 246.891 573.92 245.365 573.92 243.457C573.92 242.236 574.555 241.168 575.495 240.558L575.698 240.431C577.247 239.464 578.771 238.447 580.397 237.607C581.235 237.226 582.073 236.819 582.937 236.463C583.775 236.081 584.639 235.725 585.528 235.471C589.033 234.225 592.818 233.716 596.577 233.64C600.336 233.716 604.095 234.377 607.499 235.827C610.877 237.302 613.951 239.54 615.932 242.618Z" fill="#390075"/>
<path d="M538.893 268.536C538.487 270.012 537.852 271.97 536.937 274.081C534.55 279.524 530.231 285.984 522.84 287.536C512.223 289.774 502.469 281.304 502.342 271.029C502.316 269.732 502.469 268.384 502.774 267.061C503.663 263.221 505.745 258.795 509.708 253.886C510.648 252.716 512.375 252.513 513.543 253.454C516.693 255.972 523.881 260.804 537.115 265.179C538.512 265.662 539.274 267.112 538.893 268.536Z" fill="#390075"/>
<path d="M536.937 274.081C534.549 279.524 530.231 285.984 522.84 287.536C513.34 289.545 504.526 282.983 502.697 274.208C502.494 273.165 502.367 272.123 502.367 271.054C509.048 268.18 519.97 265.688 532.39 271.589C533.864 272.275 535.388 273.115 536.937 274.081Z" fill="#F23D98"/>
<path d="M519.411 291.071C514.077 291.071 508.895 288.909 505.009 284.916C500.132 279.931 498.151 272.987 499.675 266.324C500.767 261.618 503.307 256.76 507.244 251.877C509.276 249.333 513.01 248.926 515.525 250.961C518.471 253.327 525.304 257.905 538.106 262.152C541.103 263.144 542.779 266.324 541.941 269.376C540.417 274.92 535.54 288.095 523.475 290.639C522.129 290.944 520.757 291.071 519.411 291.071ZM511.892 256.201C508.717 260.219 506.685 264.085 505.847 267.773C504.806 272.301 506.177 277.057 509.53 280.491C512.883 283.924 517.607 285.399 522.18 284.433C530.587 282.678 534.397 272.708 535.718 268.079C522.688 263.704 515.296 258.871 511.892 256.201Z" fill="#390075"/>
<path d="M604.908 135.947C604.908 135.947 625.94 152.708 643.085 127.147C660.23 101.585 671.254 98.7109 671.254 98.7109C671.254 98.7109 638.183 70.1226 598.99 101.738C598.99 101.738 582.81 113.463 604.908 135.947Z" fill="#00BDFF"/>
<g opacity="0.6">
<path opacity="0.6" d="M600.26 108.096C629.623 84.4167 655.557 94.5142 666.707 101.076C669.654 99.1432 671.254 98.7109 671.254 98.7109C671.254 98.7109 638.183 70.1226 598.99 101.738C598.99 101.738 590.024 108.223 594.57 120.839C594.316 112.42 600.26 108.096 600.26 108.096Z" fill="white"/>
</g>
<g opacity="0.3">
<path opacity="0.3" d="M644.533 112.929C621.52 133.327 605.391 111.835 605.391 111.835C602.978 107.664 601.378 103.95 600.387 100.669C599.93 101.025 599.447 101.381 598.99 101.763C598.99 101.763 582.785 113.488 604.908 135.972C604.908 135.972 625.94 152.733 643.085 127.172C660.23 101.61 671.254 98.7362 671.254 98.7362C671.254 98.7362 670.06 97.7188 667.876 96.269C662.262 99.0923 654.49 104.103 644.533 112.929Z" fill="#390075"/>
</g>
<path d="M620.656 144.518C610.7 144.518 603.283 138.694 602.927 138.439C602.825 138.363 602.724 138.287 602.648 138.185C593.681 129.079 589.49 120.381 590.176 112.318C590.837 104.281 596.247 99.8808 597.06 99.2449C637.827 66.4092 672.981 96.0148 673.337 96.32C674.226 97.083 674.632 98.3039 674.353 99.4484C674.099 100.593 673.21 101.509 672.067 101.814C672.016 101.839 661.678 105.171 645.727 128.952C639.757 137.854 632.62 142.992 624.517 144.238C623.196 144.416 621.901 144.518 620.656 144.518ZM607.017 133.556C608.058 134.319 615.195 139.279 623.603 137.931C629.851 136.939 635.516 132.717 640.443 125.391C651.416 109.037 660.027 101.585 665.183 98.253C655.658 92.1742 630.334 80.5507 600.971 104.23C600.92 104.256 600.895 104.306 600.844 104.332C600.717 104.434 596.907 107.359 596.475 112.954C596.044 118.906 599.676 126.027 607.017 133.556Z" fill="#390075"/>
<path d="M565.792 121.627C565.792 121.627 585.071 159.524 616.364 136.379C619.387 134.141 621.317 130.682 621.52 126.892C622.282 113.437 622.13 77.9815 603.638 43.3653C600.235 37.0067 591.116 36.8796 587.535 43.1619C580.423 55.701 570.745 79.5839 565.792 121.627Z" fill="#FDD800"/>
<g opacity="0.3">
<path opacity="0.3" d="M601.098 42.0937C600.209 40.4405 598.965 39.2197 597.491 38.4058C609.43 68.1386 609.455 96.1927 608.82 107.816C608.617 111.58 606.686 115.04 603.664 117.303C586.214 130.224 572.498 124.12 563.785 116.21C563.608 117.583 563.43 118.956 563.277 120.355C563.277 120.355 582.556 158.253 613.849 135.107C616.872 132.869 618.802 129.41 619.005 125.62C619.742 112.191 619.564 76.7354 601.098 42.0937Z" fill="#390075"/>
</g>
<g opacity="0.6">
<path opacity="0.6" d="M573.412 121.627C578.365 79.5842 588.043 55.7013 595.155 43.1622C596.171 41.3563 597.669 40.11 599.346 39.347C595.256 37.5157 590.049 38.762 587.535 43.1622C580.423 55.7013 570.745 79.5842 565.792 121.627C565.792 121.627 578.619 146.807 600.311 143.577C583.267 140.983 573.412 121.627 573.412 121.627Z" fill="white"/>
</g>
<path d="M596.501 147.062C594.316 147.062 592.132 146.807 589.973 146.298C572.929 142.305 563.379 123.865 562.973 123.077C562.693 122.517 562.566 121.881 562.642 121.271C567.646 78.8211 577.451 54.5058 584.791 41.6106C587.052 37.6428 591.116 35.252 595.713 35.3537C600.285 35.4046 604.299 37.8463 606.458 41.8903C625.33 77.2187 625.508 113.336 624.695 127.223C624.441 131.852 622.13 136.099 618.345 138.897C611.004 144.315 603.689 147.062 596.501 147.062ZM569.069 120.991C570.999 124.349 579.102 137.218 591.446 140.118C598.787 141.847 606.585 139.711 614.56 133.785C616.821 132.106 618.193 129.588 618.345 126.867C619.107 113.514 618.955 78.7956 600.844 44.8916C599.803 42.9332 597.847 41.7632 595.612 41.7377C595.586 41.7377 595.561 41.7377 595.536 41.7377C593.351 41.7377 591.395 42.8569 590.303 44.7644C583.318 57.0492 573.971 80.22 569.069 120.991Z" fill="#390075"/>
<path d="M619.158 100.517C582.683 84.7727 576.511 62.8228 576.257 61.8818L582.378 60.2285C582.429 60.432 588.271 80.2454 621.647 94.6667L619.158 100.517Z" fill="#390075"/>
<path d="M619.945 135.515C577.628 120.178 568.103 93.3443 567.722 92.2252L573.742 90.165C573.818 90.4194 582.886 115.32 622.104 129.538L619.945 135.515Z" fill="#390075"/>
<path d="M556.343 131.089C560.89 127.299 563.963 121.958 564.649 116.083C565.538 108.096 562.261 98.3294 541.839 96.7016C506.33 93.853 514.077 127.35 473.868 121.424C473.868 121.424 508.54 170.97 556.343 131.089Z" fill="#FF0660"/>
<g opacity="0.3">
<path opacity="0.3" d="M557.08 100.72C557.207 102.043 557.156 103.365 557.029 104.637C556.368 110.512 553.27 115.854 548.723 119.643C517.328 145.815 491.598 133.454 477.627 121.856C476.408 121.754 475.164 121.602 473.868 121.398C473.868 121.398 508.54 170.945 556.343 131.063C560.89 127.274 563.963 121.932 564.649 116.057C565.233 110.767 563.988 104.688 557.08 100.72Z" fill="#390075"/>
</g>
<g opacity="0.6">
<path opacity="0.6" d="M476.561 124.298C516.185 133.302 511.029 99.2959 546.234 104.866C556.089 106.443 561.753 109.597 564.776 113.361C564.598 106.011 560.001 98.1514 541.839 96.7016C506.33 93.853 514.077 127.35 473.868 121.424C473.868 121.424 475.24 123.382 477.78 126.18C476.992 125.01 476.561 124.298 476.561 124.298Z" fill="white"/>
</g>
<path d="M518.979 149.808C516.845 149.808 514.712 149.656 512.578 149.376C487.457 146.019 471.912 124.17 471.277 123.255C470.54 122.212 470.515 120.839 471.175 119.77C471.836 118.702 473.08 118.117 474.35 118.295C493.832 121.169 500.945 114.251 508.463 106.926C515.626 99.9569 523.729 92.0722 542.119 93.5474C552.533 94.3868 559.924 97.388 564.09 102.449C567.189 106.214 568.433 110.919 567.824 116.464C567.087 123.051 563.734 129.105 558.4 133.556C545.421 144.34 532.187 149.808 518.979 149.808ZM481.31 125.29C487.355 131.597 498.684 141.135 513.467 143.094C526.955 144.874 540.696 140.016 554.311 128.672C558.375 125.29 560.915 120.686 561.474 115.752C561.905 111.987 561.118 108.884 559.162 106.494C556.114 102.806 550.221 100.567 541.585 99.8806C526.091 98.6343 519.969 104.586 512.883 111.479C505.974 118.193 498.227 125.722 481.31 125.29Z" fill="#390075"/>
<path d="M534.602 141.748C537.574 115.347 571.077 106.801 586.85 128.166C590.381 132.973 593.556 139.129 595.944 147.013C607.374 184.86 623.3 203.656 646.439 205.945C646.439 205.945 591.93 242.087 547.251 184.046C547.226 184.046 532.164 163.495 534.602 141.748Z" fill="#00BDFF"/>
<path d="M607.27 217.718C590.049 217.718 567.341 211.207 546.716 184.45C546.564 184.221 531.527 163.416 533.965 141.695C535.362 129.359 543.592 119.694 555.479 116.515C567.621 113.259 579.813 117.583 587.357 127.808C591.243 133.073 594.316 139.457 596.552 146.833C607.905 184.475 623.781 203.068 646.489 205.332L648.267 205.51L646.768 206.502C646.641 206.603 632.798 215.658 613.646 217.413C611.614 217.591 609.48 217.718 607.27 217.718ZM535.235 141.822C532.848 163.06 547.58 183.458 547.732 183.662C570.618 213.394 596.12 217.718 613.468 216.141C628.632 214.742 640.418 208.714 644.507 206.374C622.206 203.246 606.534 184.399 595.332 147.214C593.148 139.991 590.125 133.708 586.341 128.571C579.127 118.778 567.417 114.633 555.809 117.736C544.455 120.788 536.556 130.02 535.235 141.822Z" fill="#0F227A"/>
<g opacity="0.3">
<path opacity="0.3" d="M562.464 181.5C562.464 181.5 547.402 160.949 549.84 139.202C551.085 128.062 557.79 120.127 566.274 116.235C551.669 114.76 536.556 124.4 534.6 141.746C532.162 163.492 547.224 184.043 547.224 184.043C575.037 220.186 606.661 219.804 626.574 214.386C607.702 215.556 583.953 209.427 562.464 181.5Z" fill="#390075"/>
</g>
<path d="M607.245 220.261C589.414 220.261 565.944 213.572 544.71 186.001C544.024 185.06 528.885 164.128 531.451 141.415C532.949 128.011 541.916 117.532 554.819 114.073C567.976 110.537 581.235 115.243 589.389 126.307C593.427 131.801 596.653 138.464 598.965 146.12C609.988 182.644 625.178 200.677 646.717 202.813C648.063 202.941 649.156 203.907 649.486 205.204C649.816 206.501 649.283 207.875 648.165 208.612C647.581 208.994 633.636 218.125 613.875 219.956C611.766 220.134 609.557 220.261 607.245 220.261ZM537.75 142.102C535.489 162.296 549.637 181.957 549.79 182.161C567.57 205.255 588.957 215.836 613.29 213.598C623.095 212.682 631.401 209.808 636.989 207.315C617.354 201.338 603.206 182.161 592.894 147.951C590.786 141.008 587.89 134.98 584.283 130.071C576.409 119.389 564.75 117.964 556.47 120.203C546.132 122.975 538.969 131.368 537.75 142.102Z" fill="#390075"/>
<path d="M566.96 171.021C557.969 146.019 584.258 123.509 607.829 135.718C613.113 138.465 618.701 142.585 624.314 148.587C651.264 177.481 673.845 187.273 695.613 179.109C695.613 179.109 662.694 235.649 596.958 203.373C596.958 203.373 574.352 191.622 566.96 171.021Z" fill="#FD6CCB"/>
<g opacity="0.3">
<path opacity="0.3" d="M605.848 189.385C605.848 189.385 583.267 177.608 575.85 157.032C573.641 150.877 573.564 144.9 575.063 139.533C566.757 146.757 562.49 158.584 566.96 171.021C574.352 191.597 596.958 203.374 596.958 203.374C662.694 235.675 695.613 179.109 695.613 179.109C694.292 179.618 692.946 180.025 691.625 180.406C676.436 194.395 647.835 210.012 605.848 189.385Z" fill="#390075"/>
</g>
<g opacity="0.6">
<path opacity="0.6" d="M695.613 179.134C673.845 187.298 651.264 177.506 624.314 148.613C618.701 142.585 613.138 138.49 607.829 135.743C592.64 127.884 576.358 134.42 569.068 146.756C574.453 141.669 581.743 138.591 589.516 138.719C589.49 138.769 589.465 138.82 589.439 138.871C588.22 142.025 593.021 146.832 600.184 149.604C605.061 151.487 609.734 151.944 612.63 151.054C613.798 150.698 615.094 150.902 615.983 151.741C617.05 152.758 618.142 153.827 619.209 154.997C646.158 183.89 668.739 193.682 690.507 185.518C690.507 185.518 689.847 186.662 688.526 188.519C693.251 183.178 695.613 179.134 695.613 179.134Z" fill="white"/>
</g>
<path d="M635.846 216.472C624.162 216.472 610.7 213.674 595.561 206.222C594.52 205.688 571.71 193.606 563.988 172.089C559.416 159.397 562.845 146.018 572.879 137.218C583.115 128.24 597.085 126.587 609.303 132.894C615.348 136.023 621.19 140.576 626.626 146.425C652.635 174.327 674.2 183.763 694.495 176.133C695.765 175.65 697.162 176.031 698.026 177.048C698.889 178.066 699.016 179.541 698.33 180.711C697.975 181.321 689.491 195.666 672.575 206.044C663.634 211.563 651.315 216.472 635.846 216.472ZM569.957 169.952C576.841 189.079 598.228 200.448 598.431 200.575C624.492 213.369 648.267 213.47 669.069 200.804C677.528 195.641 683.802 189.308 687.764 184.526C667.52 187.833 646.362 176.896 622.003 150.775C617.05 145.459 611.792 141.364 606.382 138.566C594.621 132.462 583.521 136.353 577.07 142.025C569.018 149.071 566.274 159.778 569.957 169.952Z" fill="#390075"/>
<path d="M177.218 518.149C201.459 518.149 221.11 498.471 221.11 474.198C221.11 449.925 201.459 430.248 177.218 430.248C152.977 430.248 133.326 449.925 133.326 474.198C133.326 498.471 152.977 518.149 177.218 518.149Z" fill="#FFAA00"/>
<g opacity="0.3">
<path opacity="0.3" d="M214.709 451.358C214.709 451.765 214.734 452.172 214.734 452.579C214.734 476.844 195.074 496.53 170.842 496.53C154.967 496.53 141.048 488.086 133.352 475.419C133.987 499.124 153.367 518.149 177.192 518.149C201.424 518.149 221.084 498.463 221.084 474.199C221.084 465.831 218.773 458.022 214.709 451.358Z" fill="#390075"/>
</g>
<g opacity="0.6">
<path opacity="0.6" d="M135.866 481.828C135.866 457.564 155.526 437.878 179.758 437.878C197.716 437.878 213.134 448.687 219.941 464.152C215.395 444.72 197.996 430.248 177.218 430.248C152.986 430.248 133.326 449.934 133.326 474.198C133.326 480.48 134.647 486.457 137.035 491.875C136.273 488.645 135.866 485.287 135.866 481.828Z" fill="white"/>
</g>
<path d="M177.218 521.303C151.259 521.303 130.151 500.167 130.151 474.173C130.151 448.179 151.259 427.043 177.218 427.043C203.177 427.043 224.285 448.179 224.285 474.173C224.285 500.167 203.152 521.303 177.218 521.303ZM177.218 433.427C154.764 433.427 136.501 451.715 136.501 474.199C136.501 496.683 154.764 514.97 177.218 514.97C199.672 514.97 217.935 496.683 217.935 474.199C217.909 451.715 199.647 433.427 177.218 433.427Z" fill="#390075"/>
<path d="M683.726 372.639C683.726 372.639 665.717 410.893 665.717 483.508H469.601C469.601 483.508 468.839 434.699 455.276 383.83C453.625 377.65 451.796 371.418 449.738 365.238C449.713 365.238 567.596 449.553 683.726 372.639Z" fill="#636177"/>
<g opacity="0.3">
<path opacity="0.3" d="M683.726 372.639C683.726 372.639 665.717 410.893 665.717 483.508H633.636C633.89 475.242 634.475 467.179 635.16 459.905C636.583 444.975 624.34 432.41 609.405 433.249C521.139 438.311 476.332 407.383 455.276 383.83C453.625 377.65 451.796 371.418 449.738 365.238C449.713 365.238 567.596 449.553 683.726 372.639Z" fill="#390075"/>
</g>
<path d="M665.691 486.712H469.576C467.848 486.712 466.426 485.314 466.401 483.584C466.401 482.974 465.207 421.931 446.69 366.281C446.258 364.984 446.715 363.534 447.808 362.72C448.925 361.906 450.424 361.881 451.541 362.695C451.821 362.898 481.209 383.652 524.161 394.793C563.607 405.017 623.019 409.061 681.947 370.02C683.141 369.231 684.691 369.333 685.783 370.274C686.85 371.215 687.18 372.741 686.57 374.038C686.342 374.547 668.866 412.749 668.866 483.559C668.866 485.288 667.469 486.712 665.691 486.712ZM472.674 480.354H662.542C662.897 429.155 672.016 395.607 677.248 380.499C619.031 415.293 561.296 411.02 522.357 400.897C490.836 392.682 466.909 379.761 455.402 372.767C469.474 419.566 472.192 467.789 472.674 480.354Z" fill="#390075"/>
<path d="M474.072 588.425H229.162C229.162 588.425 161.927 567.797 161.673 479.947C161.673 479.769 161.673 479.616 161.673 479.438C161.673 412.495 196.954 381.414 214.023 370.299C219.103 366.993 225.021 365.238 231.041 365.238H452.049C487.966 441.287 474.072 588.425 474.072 588.425Z" fill="#FF1F5A"/>
<g opacity="0.3">
<path opacity="0.3" d="M474.072 588.425H229.162C229.162 588.425 161.927 567.797 161.673 479.947C189.664 494.648 242.243 508.789 329.315 486.509C429.723 460.795 440.873 400.032 438.257 365.238H452.049C487.966 441.287 474.072 588.425 474.072 588.425Z" fill="#390075"/>
</g>
<g opacity="0.6">
<path opacity="0.6" d="M452.049 365.238H231.016C224.971 365.238 219.052 366.993 213.998 370.299C196.929 381.414 161.648 412.495 161.648 479.438C161.648 479.616 161.648 479.794 161.648 479.947C161.699 501.286 165.737 518.658 171.782 532.723C167.922 520.667 165.509 506.577 165.458 490.121C165.458 489.943 165.458 489.79 165.458 489.612C165.458 455.657 174.551 430.935 185.702 413.36L185.727 413.385C188.877 416.107 197.869 410.842 205.793 401.66C212.372 394.03 216.157 386.094 215.471 382.05C216.258 381.49 217.046 380.956 217.782 380.473C222.862 377.167 228.755 375.412 234.801 375.412H455.809C456.901 377.726 457.942 380.091 458.933 382.508C456.901 376.454 454.59 370.681 452.049 365.238Z" fill="white"/>
</g>
<path d="M474.071 591.629H229.136C228.832 591.629 228.501 591.578 228.197 591.502C227.485 591.273 210.391 585.907 193.169 569.374C177.32 554.164 158.447 526.187 158.447 479.464C158.447 413.639 191.417 381.643 211.077 368.443C217.249 364.297 224.412 362.109 231.829 362.109H451.999C453.218 362.109 454.335 362.822 454.869 363.941C490.759 439.888 477.78 582.753 477.196 588.781C477.094 590.383 475.723 591.629 474.071 591.629ZM229.67 585.271H471.176C472.827 564.542 481.412 437.446 450.017 368.443H231.88C225.733 368.443 219.764 370.248 214.658 373.707C196.04 386.221 164.848 416.564 164.848 479.464C164.848 515.046 175.796 543.685 197.386 564.567C212.067 578.759 226.977 584.33 229.67 585.271Z" fill="#390075"/>
<path d="M419.384 443.652H215.674C213.947 443.652 212.55 442.278 212.499 440.549C211.483 400.947 219.84 364.881 219.941 364.525L226.114 365.975C226.037 366.306 218.29 399.777 218.798 437.268H416.235C416.26 419.057 414.711 378.667 406.938 366.992L412.222 363.457C423.245 380.04 422.585 438.005 422.56 440.472C422.534 442.253 421.112 443.652 419.384 443.652Z" fill="#390075"/>
<g opacity="0.5">
<g opacity="0.5">
<path opacity="0.5" d="M239.855 400.693C252.454 398.048 265.052 396.726 277.651 395.734C290.249 394.818 302.848 394.386 315.447 394.411C328.045 394.437 340.644 394.869 353.242 395.785C365.841 396.777 378.439 398.074 391.038 400.668C378.439 403.262 365.841 404.585 353.242 405.551C340.644 406.467 328.045 406.899 315.447 406.925C302.848 406.95 290.249 406.518 277.651 405.602C265.052 404.661 252.454 403.338 239.855 400.693Z" fill="white"/>
</g>
</g>
<path d="M454.894 470.536H190.833C189.08 470.536 187.657 469.111 187.657 467.357C187.657 465.602 189.08 464.177 190.833 464.177H454.894C456.647 464.177 458.069 465.602 458.069 467.357C458.069 469.111 456.647 470.536 454.894 470.536Z" fill="#390075"/>
<path d="M680.627 567.314H648.241V590.892H680.627V567.314Z" fill="#636177"/>
<g opacity="0.6">
<path opacity="0.6" d="M680.627 567.314H648.241V572.401H680.627V567.314Z" fill="white"/>
</g>
<g opacity="0.3">
<path opacity="0.3" d="M680.627 579.446H648.241V590.891H680.627V579.446Z" fill="#390075"/>
</g>
<path d="M680.627 594.071H648.241C646.489 594.071 645.066 592.646 645.066 590.891V567.314C645.066 565.559 646.489 564.134 648.241 564.134H680.627C682.379 564.134 683.802 565.559 683.802 567.314V590.891C683.802 592.646 682.379 594.071 680.627 594.071ZM651.416 587.712H677.452V570.493H651.416V587.712Z" fill="#390075"/>
<path d="M679.001 602.388V556.402C690.051 556.402 699.017 565.381 699.017 576.419V582.345C699.017 593.409 690.051 602.388 679.001 602.388Z" fill="#FFAA00"/>
<g opacity="0.6">
<path opacity="0.6" d="M679.001 556.402V562.939C688.857 564.185 696.477 572.579 696.477 582.778V588.704C696.477 590.103 696.324 591.476 696.045 592.799C697.899 589.747 699.017 586.186 699.017 582.345V576.419C699.017 565.355 690.051 556.402 679.001 556.402Z" fill="white"/>
</g>
<g opacity="0.3">
<path opacity="0.3" d="M696.477 566.678V568.382C696.477 578.581 688.857 586.974 679.001 588.221V602.388C690.051 602.388 699.017 593.409 699.017 582.371V576.445C699.017 572.884 698.077 569.552 696.477 566.678Z" fill="#390075"/>
</g>
<path d="M679.001 605.567C677.249 605.567 675.826 604.143 675.826 602.388V556.402C675.826 554.647 677.249 553.223 679.001 553.223C691.778 553.223 702.166 563.626 702.166 576.419V582.346C702.192 595.165 691.778 605.567 679.001 605.567ZM682.176 559.887V598.903C689.949 597.403 695.842 590.561 695.842 582.346V576.419C695.842 568.229 689.949 561.362 682.176 559.887Z" fill="#390075"/>
<path d="M655.328 507.492V610.349C655.328 615.843 650.883 620.319 645.397 620.319H238.941V507.492H655.328Z" fill="#636177"/>
<g opacity="0.3">
<path opacity="0.3" d="M629.928 507.492H238.941V517.869H585.528C610.725 517.869 624.035 547.882 607.017 566.475C591.065 583.922 568.129 594.885 542.652 594.885H238.941V620.319H645.397C650.883 620.319 655.328 615.868 655.328 610.374V517.869V507.492H629.928Z" fill="#390075"/>
</g>
<path d="M646.006 623.499H238.941C237.188 623.499 235.766 622.074 235.766 620.319V507.492C235.766 505.737 237.188 504.313 238.941 504.313H655.328C657.081 504.313 658.503 505.737 658.503 507.492V610.985C658.503 617.903 652.89 623.499 646.006 623.499ZM242.116 617.14H646.006C649.384 617.14 652.153 614.368 652.153 610.985V510.672H242.116V617.14Z" fill="#390075"/>
<path d="M421.772 585.932C421.772 585.474 421.747 585.016 421.722 584.558C421.696 583.694 421.62 582.829 421.544 581.964C421.518 581.557 421.493 581.15 421.442 580.743C421.315 579.599 421.188 578.48 421.01 577.36C420.934 576.852 420.858 576.318 420.782 575.809C420.756 575.733 420.756 575.656 420.756 575.606C420.655 575.021 420.553 574.436 420.452 573.876C420.325 573.291 420.198 572.706 420.071 572.121C419.944 571.536 419.816 570.951 419.664 570.391C419.385 569.221 419.08 568.077 418.724 566.958C418.572 566.475 418.445 565.991 418.292 565.508C418.242 565.33 418.165 565.152 418.115 564.974C417.937 564.516 417.81 564.033 417.632 563.55C417.353 562.736 417.022 561.871 416.718 561.082C416.387 560.269 416.057 559.455 415.727 558.641C415.016 557.038 414.279 555.436 413.466 553.884C413.187 553.376 412.908 552.842 412.654 552.333C412.247 551.621 411.841 550.883 411.409 550.171C410.799 549.154 410.164 548.136 409.529 547.144C409.021 546.381 408.539 545.669 408.005 544.932C406.481 542.744 404.805 540.659 403.052 538.649C402.519 538.064 401.985 537.479 401.452 536.894C387.761 522.295 368.33 513.189 346.765 513.189C305.286 513.189 271.656 546.865 271.656 588.399C271.656 595.241 272.596 601.854 274.298 608.136V608.111C274.501 608.874 274.73 609.611 274.933 610.349C275.136 610.959 275.339 611.595 275.517 612.18C275.593 612.384 275.644 612.562 275.695 612.74C276.152 614.139 276.686 615.512 277.244 616.86C277.752 618.106 278.286 619.327 278.87 620.548C279.429 621.743 280.038 622.939 280.673 624.109C281.105 624.872 281.537 625.66 281.969 626.423C282.274 626.958 282.629 627.492 282.959 628.051C284.941 631.281 287.176 634.333 289.614 637.182C290.021 637.665 290.453 638.149 290.859 638.606C293.805 641.888 297.006 644.889 300.46 647.61C301.832 648.678 303.254 649.747 304.727 650.713C305.464 651.222 306.201 651.705 306.963 652.163C308.665 653.231 310.417 654.249 312.221 655.164C312.678 655.393 313.135 655.622 313.567 655.851C314.024 656.08 314.481 656.309 314.938 656.512C315.853 656.945 316.793 657.352 317.732 657.733C318.672 658.115 319.612 658.522 320.577 658.852C321.06 659.03 321.543 659.208 322.025 659.386C322.457 659.539 322.914 659.692 323.346 659.844C323.422 659.87 323.498 659.87 323.575 659.921C324.032 660.073 324.489 660.2 324.946 660.353C326.775 660.912 328.655 661.421 330.56 661.828C331.195 661.955 331.83 662.108 332.49 662.235C332.998 662.311 333.532 662.439 334.04 662.515C335.589 662.769 337.164 662.998 338.739 663.151C339.247 663.202 339.805 663.252 340.313 663.303C340.847 663.329 341.38 663.38 341.914 663.405C342.422 663.456 342.955 663.456 343.463 663.507H343.59C344.098 663.532 344.606 663.532 345.114 663.558C345.393 663.558 345.673 663.583 345.927 663.583C346.206 663.583 346.46 663.583 346.74 663.583C348.035 663.583 349.331 663.558 350.601 663.481C351.871 663.43 353.141 663.329 354.411 663.202C355.046 663.125 355.681 663.049 356.316 662.973C357.56 662.82 358.805 662.617 360.024 662.413C361.269 662.184 362.488 661.955 363.682 661.65C363.707 661.65 363.707 661.65 363.707 661.65C364.926 661.37 366.12 661.065 367.314 660.734C369.524 660.124 371.708 659.386 373.816 658.547C373.969 658.496 374.121 658.42 374.274 658.369C375.264 657.962 376.255 657.581 377.22 657.123C377.728 656.894 378.211 656.665 378.668 656.461C380.116 655.775 381.538 655.063 382.935 654.274C383.85 653.765 384.764 653.231 385.678 652.697C387.228 651.756 388.752 650.764 390.225 649.696C393.654 647.254 396.88 644.533 399.852 641.531C413.441 627.924 421.849 609.128 421.849 588.348C421.823 587.585 421.823 586.771 421.772 585.932ZM346.714 527.941C356.493 527.941 365.714 530.256 373.893 534.376L355.985 560.93C353.064 559.938 349.94 559.404 346.689 559.404C343.336 559.404 340.136 559.963 337.138 561.032L319.257 534.503C327.512 530.307 336.834 527.941 346.714 527.941ZM306.683 543.126L324.616 569.679C321.898 572.859 319.892 576.648 318.774 580.794H286.769C288.649 565.864 295.964 552.638 306.683 543.126ZM306.836 633.876C304.016 631.383 301.4 628.636 299.089 625.635C292.561 617.267 288.192 607.119 286.769 596.029H318.749C319.892 600.251 321.974 604.092 324.743 607.297L309.858 629.348L306.836 633.876ZM346.714 648.933C336.91 648.933 327.639 646.593 319.46 642.422L326.623 631.79L337.367 615.868C340.313 616.885 343.463 617.42 346.74 617.42C349.915 617.42 352.963 616.911 355.833 615.944L361.523 624.389L373.766 642.523C365.587 646.644 356.443 648.933 346.714 648.933ZM386.364 634.079L374.477 616.428L368.482 607.551C371.327 604.27 373.486 600.379 374.655 596.055H406.659C404.754 611.188 397.286 624.567 386.364 634.079ZM374.68 580.794C373.537 576.547 371.454 572.681 368.635 569.476L386.517 542.922C393.959 549.459 399.776 557.776 403.306 567.187C404.932 571.511 406.05 576.063 406.659 580.794H374.68Z" fill="#FF1F5A"/>
<g opacity="0.3">
<path opacity="0.3" d="M421.823 588.424C421.823 609.204 413.415 628 399.826 641.608C396.854 644.584 393.628 647.305 390.199 649.772C388.726 650.815 387.228 651.832 385.653 652.773C384.764 653.308 383.849 653.867 382.91 654.35C381.513 655.113 380.09 655.851 378.642 656.538C378.16 656.767 377.677 656.995 377.195 657.199C376.204 657.631 375.239 658.038 374.248 658.445C374.096 658.496 373.943 658.572 373.791 658.623C371.683 659.437 369.498 660.175 367.288 660.811C366.095 661.141 364.901 661.472 363.682 661.726C363.682 661.726 363.682 661.726 363.656 661.726C362.462 662.006 361.243 662.26 359.999 662.489C358.779 662.718 357.535 662.896 356.29 663.049C355.655 663.125 355.02 663.201 354.385 663.278C353.115 663.405 351.845 663.481 350.575 663.558C349.305 663.608 348.01 663.659 346.714 663.659H345.901C345.647 663.659 345.368 663.634 345.089 663.634C344.581 663.634 344.072 663.608 343.564 663.583H343.437C342.929 663.558 342.396 663.532 341.888 663.481C341.355 663.456 340.821 663.405 340.288 663.38C339.78 663.329 339.221 663.278 338.713 663.227C337.138 663.074 335.563 662.82 334.014 662.591C333.506 662.489 332.998 662.388 332.465 662.311C331.804 662.184 331.169 662.057 330.534 661.904C328.629 661.472 326.749 660.989 324.921 660.429C324.463 660.277 324.006 660.149 323.549 659.997C323.473 659.946 323.397 659.946 323.32 659.92C322.863 659.768 322.431 659.615 322 659.463C321.517 659.285 321.034 659.107 320.552 658.928C319.587 658.572 318.647 658.191 317.707 657.809C316.767 657.428 315.827 657.021 314.913 656.589C314.456 656.36 313.999 656.131 313.541 655.927C313.084 655.698 312.652 655.469 312.195 655.241C310.417 654.299 308.664 653.282 306.937 652.239C306.175 651.756 305.439 651.273 304.702 650.789C303.229 649.798 301.806 648.755 300.435 647.687C296.98 644.965 293.754 641.964 290.833 638.683C290.427 638.2 289.995 637.742 289.589 637.258C287.15 634.41 284.941 631.358 282.934 628.128C282.604 627.593 282.274 627.059 281.943 626.5C281.512 625.737 281.08 624.948 280.648 624.185C280.013 623.015 279.403 621.82 278.845 620.624C278.286 619.404 277.727 618.183 277.219 616.936C276.685 615.588 276.152 614.215 275.669 612.816C275.39 612.028 275.136 611.239 274.907 610.4C274.679 609.662 274.476 608.925 274.272 608.162V608.187C281.232 615.588 289.64 621.565 299.114 625.686C301.451 628.687 304.042 631.434 306.861 633.926L309.884 629.425C315.269 630.849 320.857 631.663 326.622 631.841L319.46 642.472C327.638 646.644 336.91 648.984 346.714 648.984C356.442 648.984 365.587 646.695 373.74 642.6L361.497 624.465C366.12 622.227 370.463 619.556 374.477 616.479L386.364 634.13C397.286 624.618 404.754 611.239 406.659 596.106H392.892C395.838 591.349 398.251 586.237 400.08 580.845H406.659C406.049 576.114 404.932 571.561 403.306 567.238C403.789 563.779 404.043 560.269 404.043 556.682C404.043 549.866 403.103 543.253 401.401 536.971C401.96 537.53 402.468 538.141 403.001 538.726C404.754 540.735 406.405 542.821 407.954 545.008C408.488 545.72 408.97 546.458 409.478 547.221C410.113 548.213 410.748 549.23 411.358 550.247C411.79 550.96 412.196 551.697 412.603 552.409C412.882 552.918 413.136 553.452 413.415 553.961C414.203 555.512 414.965 557.115 415.676 558.717C416.032 559.531 416.362 560.345 416.667 561.159C416.971 561.973 417.302 562.812 417.581 563.626C417.759 564.109 417.886 564.567 418.064 565.05C418.114 565.228 418.165 565.406 418.241 565.584C418.394 566.068 418.546 566.551 418.673 567.034C419.029 568.153 419.308 569.298 419.613 570.468C419.765 571.027 419.892 571.612 420.019 572.197C420.146 572.782 420.273 573.367 420.4 573.952C420.502 574.512 420.604 575.097 420.705 575.682C420.705 575.733 420.731 575.809 420.731 575.885C420.807 576.394 420.883 576.928 420.959 577.437C421.137 578.556 421.264 579.675 421.391 580.82C421.442 581.227 421.467 581.633 421.493 582.04C421.569 582.905 421.645 583.77 421.67 584.635C421.696 585.093 421.721 585.55 421.721 586.008C421.823 586.771 421.823 587.585 421.823 588.424Z" fill="#390075"/>
</g>
<g opacity="0.6">
<path opacity="0.6" d="M279.734 623.27C279.2 621.922 278.667 620.548 278.184 619.149C278.134 618.971 278.083 618.768 278.007 618.59C277.803 617.98 277.6 617.369 277.422 616.759C277.194 616.021 276.991 615.283 276.787 614.52V614.546C275.086 608.238 274.146 601.625 274.146 594.809C274.146 553.274 307.776 519.599 349.254 519.599C370.819 519.599 390.276 528.705 403.941 543.304C404.5 543.864 405.008 544.474 405.541 545.059C407.294 547.068 408.97 549.154 410.494 551.341C411.028 552.053 411.51 552.791 412.018 553.554C412.653 554.546 413.288 555.563 413.898 556.581C414.076 556.911 414.279 557.242 414.457 557.573C414.431 557.522 414.406 557.471 414.406 557.42C413.695 555.818 412.958 554.215 412.145 552.664C411.866 552.155 411.587 551.621 411.333 551.112C410.926 550.4 410.52 549.663 410.088 548.95C409.478 547.933 408.843 546.916 408.208 545.924C407.7 545.161 407.218 544.449 406.684 543.711C405.16 541.524 403.484 539.438 401.731 537.429C401.198 536.844 400.665 536.259 400.131 535.674C386.44 521.074 367.009 511.969 345.444 511.969C303.966 511.969 270.336 545.644 270.336 587.178C270.336 594.02 271.275 600.633 272.977 606.915V606.89C273.181 607.653 273.409 608.391 273.612 609.128C273.816 609.739 274.019 610.375 274.197 610.96C274.273 611.163 274.324 611.341 274.374 611.519C274.832 612.918 275.365 614.291 275.924 615.64C276.432 616.886 276.965 618.107 277.549 619.328C278.108 620.523 278.718 621.718 279.353 622.888C279.683 623.473 280.013 624.058 280.343 624.643C280.14 624.185 279.912 623.728 279.734 623.27Z" fill="white"/>
</g>
<path d="M346.714 666.839C303.559 666.839 268.431 631.663 268.431 588.424C268.431 545.211 303.559 510.036 346.714 510.036C389.87 510.036 424.998 545.211 424.998 588.424C424.998 631.663 389.87 666.839 346.714 666.839ZM346.714 516.42C307.039 516.42 274.781 548.721 274.781 588.45C274.781 628.178 307.039 660.505 346.714 660.505C386.39 660.505 418.648 628.178 418.648 588.45C418.648 548.721 386.39 516.42 346.714 516.42ZM346.714 652.112C336.605 652.112 326.953 649.823 318.012 645.27C317.199 644.863 316.615 644.126 316.386 643.235C316.158 642.345 316.31 641.404 316.818 640.667L334.7 614.113C335.513 612.918 337.011 612.409 338.358 612.892C343.641 614.724 349.585 614.724 354.766 612.969C356.113 612.511 357.611 613.019 358.424 614.189L376.357 640.768C376.865 641.531 377.017 642.472 376.788 643.363C376.56 644.253 375.95 644.99 375.137 645.397C366.298 649.874 356.722 652.112 346.714 652.112ZM324.159 641.15C331.271 644.227 338.84 645.779 346.714 645.779C354.487 645.779 361.98 644.253 369.016 641.277L354.487 619.709C349.381 620.98 343.819 620.98 338.688 619.632L324.159 641.15ZM386.364 637.258C386.237 637.258 386.085 637.258 385.958 637.233C385.069 637.106 384.256 636.623 383.748 635.859L365.892 609.331C365.079 608.136 365.18 606.534 366.146 605.465C368.737 602.515 370.642 598.98 371.632 595.241C372.013 593.867 373.258 592.901 374.706 592.901H406.659C407.574 592.901 408.437 593.282 409.047 593.969C409.656 594.656 409.936 595.571 409.809 596.462C407.853 611.951 400.284 626.169 388.473 636.47C387.888 636.979 387.126 637.258 386.364 637.258ZM372.445 607.729L386.923 629.221C395.178 621.057 400.766 610.629 402.925 599.234H376.992C375.925 602.261 374.375 605.135 372.445 607.729ZM306.836 637.055C306.074 637.055 305.312 636.775 304.728 636.266C293.044 625.991 285.55 611.849 283.62 596.462C283.518 595.546 283.798 594.656 284.382 593.969C284.992 593.282 285.855 592.901 286.77 592.901H318.749C320.171 592.901 321.441 593.867 321.822 595.241C322.838 598.954 324.616 602.337 327.156 605.262C328.096 606.356 328.172 607.933 327.385 609.128L309.503 635.681C308.995 636.445 308.182 636.928 307.268 637.055C307.115 637.055 306.963 637.055 306.836 637.055ZM290.478 599.234C292.637 610.501 298.124 620.879 306.277 629.018L320.781 607.5C318.926 604.957 317.453 602.21 316.412 599.259H290.478V599.234ZM406.659 583.973H374.68C373.232 583.973 371.988 583.007 371.607 581.633C370.591 577.895 368.787 574.486 366.247 571.561C365.307 570.468 365.206 568.891 366.019 567.695L383.9 541.167C384.409 540.404 385.221 539.921 386.136 539.794C387.05 539.692 387.939 539.946 388.625 540.557C400.335 550.858 407.878 564.999 409.809 580.413C409.91 581.328 409.631 582.218 409.047 582.905C408.463 583.592 407.574 583.973 406.659 583.973ZM376.992 577.615H402.925C400.766 566.322 395.254 555.945 387.076 547.78L372.572 569.298C374.452 571.841 375.95 574.664 376.992 577.615ZM318.774 583.973H286.77C285.855 583.973 284.992 583.592 284.382 582.905C283.772 582.218 283.493 581.303 283.62 580.413C285.55 565.126 292.993 551.036 304.575 540.76C305.261 540.15 306.176 539.87 307.09 539.997C308.004 540.125 308.817 540.608 309.325 541.371L327.258 567.924C328.045 569.12 327.969 570.671 327.055 571.765C324.591 574.664 322.838 577.971 321.873 581.633C321.466 583.032 320.196 583.973 318.774 583.973ZM290.478 577.615H316.412C317.428 574.741 318.876 572.019 320.654 569.527L306.125 547.984C298.073 556.123 292.612 566.449 290.478 577.615ZM337.164 564.211C336.123 564.211 335.132 563.702 334.522 562.812L316.64 536.284C316.132 535.521 315.98 534.605 316.209 533.715C316.437 532.825 317.021 532.087 317.834 531.68C326.826 527.077 336.529 524.762 346.714 524.762C356.773 524.762 366.4 527.051 375.315 531.553C376.128 531.96 376.738 532.698 376.966 533.588C377.195 534.478 377.042 535.419 376.534 536.157L358.627 562.71C357.814 563.906 356.316 564.389 354.97 563.931C349.585 562.1 343.539 562.125 338.205 564.007C337.875 564.16 337.52 564.211 337.164 564.211ZM323.981 535.801L338.485 557.293C343.717 555.894 349.407 555.868 354.665 557.216L369.168 535.674C362.082 532.647 354.538 531.095 346.714 531.095C338.764 531.121 331.144 532.698 323.981 535.801Z" fill="#390075"/>
<path d="M360.174 590.634C361.378 583.202 356.338 576.2 348.916 574.993C341.494 573.787 334.501 578.834 333.296 586.266C332.091 593.698 337.132 600.701 344.554 601.907C351.976 603.113 358.969 598.066 360.174 590.634Z" fill="#FFAA00"/>
<g opacity="0.6">
<path opacity="0.6" d="M335.64 593.537C335.64 586.008 341.736 579.904 349.254 579.904C353.547 579.904 357.382 581.913 359.872 585.016C358.348 579.141 353.039 574.817 346.714 574.817C339.196 574.817 333.1 580.921 333.1 588.45C333.1 591.68 334.217 594.63 336.097 596.97C335.817 595.851 335.64 594.707 335.64 593.537Z" fill="white"/>
</g>
<g opacity="0.3">
<path opacity="0.3" d="M356.494 578.963C356.494 579.167 356.519 579.345 356.519 579.523C356.519 587.051 350.423 593.156 342.904 593.156C339.069 593.156 335.614 591.553 333.125 589.01C333.43 596.259 339.374 602.058 346.714 602.058C354.233 602.058 360.329 595.954 360.329 588.425C360.329 584.762 358.856 581.431 356.494 578.963Z" fill="#390075"/>
</g>
<path d="M346.714 605.237C337.469 605.237 329.925 597.708 329.925 588.424C329.925 579.166 337.443 571.612 346.714 571.612C355.986 571.612 363.504 579.141 363.504 588.424C363.504 597.708 355.96 605.237 346.714 605.237ZM346.714 577.996C340.974 577.996 336.275 582.676 336.275 588.45C336.275 594.223 340.949 598.903 346.714 598.903C352.455 598.903 357.154 594.223 357.154 588.45C357.154 582.676 352.455 577.996 346.714 577.996Z" fill="#390075"/>
<path d="M637.548 585.932C637.548 585.474 637.523 585.016 637.497 584.558C637.472 583.694 637.396 582.829 637.319 581.964C637.294 581.557 637.269 581.15 637.218 580.743C637.091 579.599 636.964 578.48 636.786 577.36C636.71 576.852 636.634 576.318 636.557 575.809C636.532 575.733 636.532 575.656 636.532 575.606C636.43 575.021 636.329 574.436 636.227 573.876C636.1 573.291 635.999 572.706 635.846 572.121C635.719 571.536 635.592 570.951 635.44 570.391C635.16 569.221 634.856 568.077 634.5 566.958C634.348 566.475 634.221 565.991 634.068 565.508C634.017 565.33 633.941 565.152 633.89 564.974C633.713 564.516 633.586 564.033 633.408 563.55C633.128 562.736 632.798 561.871 632.493 561.082C632.163 560.269 631.833 559.455 631.503 558.641C630.792 557.038 630.055 555.436 629.242 553.884C628.963 553.376 628.683 552.842 628.429 552.333C628.023 551.621 627.617 550.883 627.185 550.171C626.575 549.154 625.94 548.136 625.305 547.144C624.822 546.381 624.314 545.669 623.806 544.932C622.282 542.744 620.606 540.659 618.853 538.649C618.32 538.064 617.787 537.479 617.253 536.894C603.562 522.295 584.131 513.189 562.566 513.189C521.088 513.189 487.458 546.865 487.458 588.399C487.458 595.241 488.397 601.854 490.099 608.136L490.074 608.111C490.277 608.874 490.506 609.611 490.734 610.349C490.937 610.959 491.141 611.595 491.318 612.18C491.395 612.384 491.445 612.562 491.496 612.74C491.953 614.139 492.487 615.512 493.046 616.86C493.554 618.106 494.087 619.327 494.671 620.548C495.23 621.743 495.865 622.939 496.475 624.109C496.906 624.872 497.338 625.66 497.77 626.423C498.075 626.958 498.405 627.492 498.761 628.051C500.742 631.281 502.977 634.333 505.416 637.182C505.822 637.665 506.254 638.149 506.66 638.606C509.581 641.888 512.807 644.889 516.261 647.61C517.633 648.678 519.056 649.747 520.529 650.713C521.265 651.222 522.002 651.705 522.764 652.163C524.466 653.231 526.218 654.249 528.022 655.164C528.479 655.393 528.936 655.622 529.368 655.851C529.825 656.08 530.282 656.309 530.74 656.512C531.654 656.945 532.594 657.352 533.534 657.733C534.474 658.14 535.413 658.522 536.379 658.852C536.861 659.03 537.344 659.208 537.826 659.386C538.258 659.539 538.715 659.692 539.147 659.844C539.223 659.87 539.3 659.87 539.376 659.921C539.833 660.073 540.29 660.2 540.747 660.353C542.576 660.912 544.456 661.421 546.361 661.828C546.996 661.955 547.631 662.108 548.291 662.235C548.799 662.311 549.333 662.439 549.841 662.515C551.39 662.769 552.965 662.998 554.54 663.151C555.048 663.202 555.607 663.252 556.115 663.303C556.648 663.329 557.181 663.38 557.715 663.405C558.223 663.456 558.756 663.456 559.264 663.507H559.391C559.899 663.532 560.407 663.532 560.915 663.558C561.195 663.558 561.474 663.583 561.728 663.583C562.007 663.583 562.261 663.583 562.541 663.583C563.836 663.583 565.132 663.558 566.402 663.481C567.672 663.43 568.942 663.329 570.212 663.202C570.847 663.125 571.482 663.049 572.117 662.973C573.361 662.82 574.606 662.617 575.825 662.413C577.07 662.184 578.289 661.955 579.483 661.65C579.508 661.65 579.508 661.65 579.508 661.65C580.728 661.37 581.921 661.065 583.115 660.734C585.325 660.124 587.509 659.386 589.618 658.547C589.77 658.496 589.922 658.42 590.075 658.369C590.1 658.369 590.1 658.369 590.1 658.369C591.091 657.962 592.081 657.581 593.047 657.123C593.529 656.894 594.037 656.665 594.494 656.461C595.942 655.775 597.365 655.063 598.762 654.274C599.676 653.765 600.591 653.231 601.505 652.697C603.054 651.756 604.578 650.764 606.052 649.696C609.481 647.254 612.707 644.533 615.678 641.531C629.268 627.924 637.675 609.128 637.675 588.348C637.599 587.585 637.573 586.771 637.548 585.932ZM562.49 527.941C572.269 527.941 581.49 530.256 589.668 534.376L571.787 560.93C568.866 559.938 565.741 559.404 562.49 559.404C559.137 559.404 555.937 559.963 552.94 561.032L535.058 534.503C543.287 530.307 552.609 527.941 562.49 527.941ZM522.459 543.126L540.392 569.679C537.674 572.859 535.667 576.648 534.55 580.794H502.545C504.425 565.864 511.74 552.638 522.459 543.126ZM522.612 633.876C519.792 631.383 517.176 628.636 514.864 625.635C508.337 617.267 503.968 607.119 502.571 596.029H534.55C535.693 600.251 537.776 604.092 540.544 607.297L525.66 629.348L522.612 633.876ZM562.49 648.933C552.686 648.933 543.414 646.593 535.236 642.422L542.398 631.79L553.117 615.868C556.064 616.885 559.213 617.42 562.49 617.42C565.665 617.42 568.713 616.911 571.583 615.944L577.273 624.389L589.491 642.523C581.363 646.644 572.193 648.933 562.49 648.933ZM602.14 634.079L590.253 616.428L584.258 607.551C587.103 604.27 589.262 600.379 590.43 596.055H622.409C620.53 611.188 613.062 624.567 602.14 634.079ZM590.43 580.794C589.287 576.547 587.205 572.681 584.385 569.476L602.267 542.922C609.709 549.459 615.526 557.776 619.057 567.187C620.682 571.511 621.8 576.063 622.409 580.794H590.43Z" fill="#FF1F5A"/>
<g opacity="0.3">
<path opacity="0.3" d="M637.599 588.424C637.599 609.204 629.191 628 615.602 641.608C612.63 644.584 609.404 647.305 605.975 649.772C604.502 650.815 603.003 651.832 601.429 652.773C600.54 653.308 599.625 653.867 598.685 654.35C597.288 655.113 595.866 655.851 594.418 656.538C593.935 656.767 593.453 656.995 592.97 657.199C591.98 657.631 591.014 658.038 590.024 658.445C590.024 658.445 590.024 658.445 589.998 658.445C589.846 658.496 589.694 658.572 589.541 658.623C587.433 659.437 585.249 660.175 583.039 660.811C581.845 661.141 580.651 661.472 579.432 661.726C579.432 661.726 579.432 661.726 579.407 661.726C578.213 662.006 576.993 662.26 575.749 662.489C574.53 662.718 573.285 662.896 572.04 663.049C571.405 663.125 570.77 663.201 570.135 663.278C568.865 663.405 567.595 663.481 566.325 663.558C565.055 663.608 563.76 663.659 562.464 663.659H561.652C561.398 663.659 561.118 663.634 560.839 663.634C560.331 663.634 559.823 663.608 559.315 663.583H559.188C558.68 663.558 558.146 663.532 557.638 663.481C557.105 663.456 556.572 663.405 556.038 663.38C555.53 663.329 554.971 663.278 554.463 663.227C552.889 663.074 551.314 662.82 549.764 662.591C549.256 662.489 548.723 662.388 548.215 662.311C547.554 662.184 546.919 662.057 546.284 661.904C544.379 661.472 542.5 660.989 540.671 660.429C540.214 660.277 539.757 660.149 539.299 659.997C539.223 659.946 539.147 659.946 539.071 659.92C538.614 659.768 538.182 659.615 537.75 659.463C537.267 659.285 536.785 659.107 536.302 658.928C535.337 658.572 534.397 658.191 533.457 657.809C532.517 657.402 531.578 657.021 530.663 656.589C530.206 656.36 529.749 656.131 529.292 655.927C528.834 655.698 528.403 655.469 527.945 655.241C526.142 654.299 524.415 653.282 522.688 652.239C521.951 651.756 521.189 651.273 520.452 650.789C518.979 649.798 517.582 648.755 516.185 647.687C512.731 644.965 509.505 641.964 506.584 638.683C506.177 638.2 505.746 637.742 505.339 637.258C502.901 634.41 500.691 631.358 498.684 628.128C498.354 627.593 498.024 627.059 497.694 626.5C497.262 625.737 496.805 624.948 496.398 624.185C495.789 623.015 495.154 621.82 494.595 620.624C494.036 619.404 493.477 618.183 492.969 616.936C492.436 615.588 491.902 614.215 491.42 612.816C491.14 612.028 490.886 611.239 490.658 610.4C490.429 609.662 490.226 608.925 489.997 608.162L490.023 608.187C496.982 615.588 505.39 621.565 514.839 625.686C517.176 628.687 519.766 631.434 522.586 633.926L525.609 629.425C530.993 630.849 536.582 631.663 542.347 631.841L535.185 642.472C543.363 646.644 552.635 648.984 562.439 648.984C572.142 648.984 581.312 646.695 589.465 642.6L577.247 624.465C581.845 622.227 586.214 619.556 590.227 616.479L602.114 634.13C613.011 624.618 620.504 611.239 622.409 596.106H608.642C611.589 591.349 614.002 586.237 615.831 580.845H622.409C621.8 576.114 620.682 571.561 619.056 567.238C619.539 563.779 619.793 560.269 619.793 556.682C619.793 549.866 618.853 543.253 617.151 536.971C617.71 537.53 618.218 538.141 618.752 538.726C620.504 540.735 622.155 542.821 623.705 545.008C624.238 545.72 624.721 546.458 625.203 547.221C625.864 548.213 626.499 549.23 627.083 550.247C627.515 550.96 627.896 551.697 628.328 552.409C628.607 552.918 628.861 553.452 629.14 553.961C629.928 555.512 630.69 557.115 631.401 558.717C631.757 559.531 632.087 560.345 632.392 561.159C632.696 561.973 633.027 562.812 633.306 563.626C633.484 564.109 633.611 564.567 633.789 565.05C633.839 565.228 633.89 565.406 633.966 565.584C634.119 566.068 634.271 566.551 634.398 567.034C634.754 568.153 635.059 569.298 635.338 570.468C635.49 571.027 635.617 571.612 635.744 572.197C635.871 572.782 635.998 573.367 636.125 573.952C636.227 574.512 636.329 575.097 636.43 575.682C636.43 575.733 636.456 575.809 636.456 575.885C636.532 576.394 636.608 576.928 636.684 577.437C636.837 578.556 636.989 579.675 637.116 580.82C637.167 581.227 637.192 581.633 637.218 582.04C637.294 582.905 637.37 583.77 637.395 584.635C637.421 585.093 637.446 585.55 637.446 586.008C637.573 586.771 637.599 587.585 637.599 588.424Z" fill="#390075"/>
</g>
<g opacity="0.6">
<path opacity="0.6" d="M495.509 623.27C494.976 621.922 494.442 620.548 493.96 619.149C493.909 618.971 493.858 618.768 493.782 618.59C493.579 617.98 493.401 617.369 493.198 616.759C492.969 616.021 492.766 615.283 492.537 614.52L492.563 614.546C490.861 608.238 489.921 601.625 489.921 594.809C489.921 553.274 523.551 519.599 565.03 519.599C586.595 519.599 606.051 528.705 619.717 543.304C620.276 543.864 620.784 544.474 621.317 545.059C623.07 547.068 624.746 549.154 626.27 551.341C626.803 552.053 627.286 552.791 627.769 553.554C628.429 554.546 629.064 555.563 629.648 556.581C629.826 556.911 630.029 557.242 630.207 557.573C630.182 557.522 630.156 557.471 630.156 557.42C629.445 555.818 628.708 554.215 627.896 552.664C627.616 552.155 627.337 551.621 627.083 551.112C626.676 550.4 626.27 549.663 625.838 548.95C625.229 547.933 624.594 546.916 623.959 545.924C623.476 545.161 622.968 544.449 622.46 543.711C620.936 541.524 619.26 539.438 617.507 537.429C616.974 536.844 616.44 536.259 615.907 535.674C602.216 521.074 582.785 511.969 561.22 511.969C519.741 511.969 486.111 545.644 486.111 587.178C486.111 594.02 487.051 600.633 488.753 606.915L488.727 606.89C488.931 607.653 489.159 608.391 489.388 609.128C489.591 609.739 489.794 610.375 489.972 610.96C490.048 611.163 490.099 611.341 490.15 611.519C490.607 612.918 491.14 614.291 491.699 615.64C492.207 616.886 492.741 618.107 493.325 619.328C493.884 620.523 494.519 621.718 495.128 622.888C495.458 623.473 495.789 624.058 496.119 624.643C495.916 624.185 495.687 623.728 495.509 623.27Z" fill="white"/>
</g>
<path d="M562.49 666.839C519.335 666.839 484.206 631.663 484.206 588.424C484.206 545.211 519.335 510.036 562.49 510.036C605.645 510.036 640.774 545.211 640.774 588.424C640.774 631.663 605.645 666.839 562.49 666.839ZM562.49 516.42C522.815 516.42 490.556 548.721 490.556 588.45C490.556 628.178 522.815 660.505 562.49 660.505C602.165 660.505 634.424 628.178 634.424 588.45C634.424 548.721 602.14 516.42 562.49 516.42ZM562.49 652.112C552.381 652.112 542.729 649.823 533.788 645.27C532.975 644.863 532.391 644.126 532.162 643.235C531.934 642.345 532.086 641.404 532.594 640.667L550.476 614.113C551.289 612.918 552.787 612.409 554.133 612.892C559.417 614.724 565.36 614.724 570.542 612.969C571.888 612.511 573.387 613.019 574.2 614.189L592.107 640.768C592.615 641.531 592.767 642.472 592.539 643.363C592.31 644.253 591.7 644.99 590.888 645.397C582.048 649.874 572.498 652.112 562.49 652.112ZM539.935 641.15C547.047 644.227 554.616 645.779 562.49 645.779C570.263 645.779 577.756 644.253 584.792 641.277L570.263 619.709C565.157 620.98 559.594 620.98 554.464 619.632L539.935 641.15ZM602.14 637.258C602.013 637.258 601.861 637.258 601.734 637.233C600.845 637.106 600.032 636.623 599.524 635.859L581.667 609.331C580.854 608.136 580.956 606.534 581.921 605.465C584.512 602.515 586.417 598.98 587.408 595.241C587.789 593.867 589.033 592.901 590.481 592.901H622.46C623.375 592.901 624.238 593.282 624.848 593.969C625.457 594.656 625.737 595.571 625.61 596.462C623.654 611.951 616.085 626.169 604.274 636.47C603.639 636.979 602.902 637.258 602.14 637.258ZM588.221 607.729L602.699 629.221C610.954 621.057 616.542 610.629 618.701 599.234H592.767C591.7 602.261 590.151 605.135 588.221 607.729ZM522.612 637.055C521.85 637.055 521.088 636.775 520.503 636.266C508.819 625.991 501.326 611.849 499.396 596.462C499.294 595.546 499.573 594.656 500.158 593.969C500.767 593.282 501.631 592.901 502.545 592.901H534.524C535.947 592.901 537.217 593.867 537.598 595.241C538.614 598.954 540.392 602.337 542.932 605.262C543.872 606.356 543.948 607.933 543.16 609.128L525.253 635.681C524.745 636.445 523.932 636.928 523.018 637.055C522.866 637.055 522.739 637.055 522.612 637.055ZM506.254 599.234C508.413 610.501 513.899 620.879 522.053 629.018L536.556 607.5C534.702 604.957 533.229 602.21 532.187 599.259H506.254V599.234ZM622.435 583.973H590.456C589.008 583.973 587.763 583.007 587.382 581.633C586.366 577.895 584.563 574.486 582.023 571.561C581.083 570.468 580.981 568.891 581.794 567.695L599.676 541.167C600.184 540.404 600.997 539.921 601.911 539.794C602.826 539.692 603.715 539.946 604.401 540.557C616.11 550.858 623.654 564.999 625.584 580.413C625.686 581.328 625.407 582.218 624.822 582.905C624.238 583.592 623.349 583.973 622.435 583.973ZM592.767 577.615H618.701C616.542 566.322 611.03 555.945 602.851 547.78L588.348 569.298C590.227 571.841 591.726 574.664 592.767 577.615ZM534.524 583.973H502.545C501.631 583.973 500.767 583.592 500.158 582.905C499.548 582.218 499.269 581.303 499.396 580.413C501.326 565.126 508.768 551.036 520.351 540.76C521.037 540.15 521.951 539.87 522.866 539.997C523.78 540.125 524.593 540.608 525.101 541.371L543.033 567.924C543.821 569.12 543.745 570.671 542.83 571.765C540.366 574.664 538.614 577.971 537.649 581.633C537.217 583.032 535.972 583.973 534.524 583.973ZM506.254 577.615H532.187C533.203 574.741 534.651 572.019 536.429 569.527L521.9 547.984C513.848 556.123 508.387 566.449 506.254 577.615ZM552.94 564.211C551.898 564.211 550.908 563.702 550.298 562.812L532.416 536.284C531.908 535.521 531.756 534.605 531.984 533.715C532.213 532.825 532.797 532.087 533.61 531.68C542.602 527.077 552.305 524.762 562.49 524.762C572.549 524.762 582.175 527.051 591.091 531.553C591.904 531.96 592.513 532.698 592.742 533.588C592.97 534.478 592.818 535.419 592.31 536.157L574.403 562.71C573.59 563.906 572.117 564.389 570.745 563.931C565.36 562.1 559.315 562.125 553.981 564.007C553.651 564.16 553.295 564.211 552.94 564.211ZM539.757 535.801L554.26 557.293C559.493 555.894 565.182 555.868 570.44 557.216L584.944 535.674C577.857 532.647 570.313 531.095 562.49 531.095C554.54 531.121 546.894 532.698 539.757 535.801Z" fill="#390075"/>
<path d="M575.949 590.626C577.154 583.194 572.114 576.192 564.692 574.985C557.269 573.779 550.276 578.826 549.071 586.258C547.867 593.69 552.907 600.693 560.329 601.899C567.752 603.105 574.745 598.058 575.949 590.626Z" fill="#FFAA00"/>
<g opacity="0.3">
<path opacity="0.3" d="M572.244 578.963C572.244 579.167 572.269 579.345 572.269 579.523C572.269 587.051 566.173 593.156 558.655 593.156C554.819 593.156 551.365 591.553 548.875 589.01C549.18 596.259 555.124 602.058 562.465 602.058C569.983 602.058 576.079 595.954 576.079 588.425C576.105 584.762 574.631 581.431 572.244 578.963Z" fill="#390075"/>
</g>
<path d="M562.49 605.237C553.244 605.237 545.7 597.708 545.7 588.424C545.7 579.166 553.219 571.612 562.49 571.612C571.736 571.612 579.279 579.141 579.279 588.424C579.279 597.708 571.736 605.237 562.49 605.237ZM562.49 577.996C556.749 577.996 552.05 582.676 552.05 588.45C552.05 594.223 556.724 598.903 562.49 598.903C568.256 598.903 572.929 594.223 572.929 588.45C572.929 582.676 568.23 577.996 562.49 577.996Z" fill="#390075"/>
<path d="M665.691 507.721H187.657C185.168 507.721 183.136 505.686 183.136 503.193V488.06C183.136 485.567 185.168 483.533 187.657 483.533H665.691C668.181 483.533 670.213 485.567 670.213 488.06V503.193C670.238 505.686 668.206 507.721 665.691 507.721Z" fill="#FFAA00"/>
<g opacity="0.3">
<path opacity="0.3" d="M665.691 483.533H637.192V494.291C637.192 496.784 635.16 498.819 632.671 498.819H183.162V503.193C183.162 505.686 185.194 507.721 187.683 507.721H665.717C668.206 507.721 670.238 505.686 670.238 503.193V488.06C670.238 485.542 668.206 483.533 665.691 483.533Z" fill="#390075"/>
</g>
<g opacity="0.7">
<path opacity="0.7" d="M665.691 483.533H187.657C185.168 483.533 183.136 485.568 183.136 488.06V495.691C183.136 493.198 185.168 491.163 187.657 491.163H665.691C668.181 491.163 670.213 493.198 670.213 495.691V488.06C670.238 485.542 668.206 483.533 665.691 483.533Z" fill="white"/>
</g>
<path d="M665.691 510.9H187.657C183.416 510.9 179.961 507.441 179.961 503.194V488.06C179.961 483.813 183.416 480.354 187.657 480.354H665.691C669.933 480.354 673.388 483.813 673.388 488.06V503.194C673.413 507.441 669.959 510.9 665.691 510.9ZM187.683 486.712C186.946 486.712 186.337 487.323 186.337 488.06V503.194C186.337 503.931 186.946 504.542 187.683 504.542H665.717C666.453 504.542 667.063 503.931 667.063 503.194V488.06C667.063 487.323 666.453 486.712 665.717 486.712H187.683Z" fill="#390075"/>
<path d="M195.405 556.275C195.405 556.275 135.46 589.391 111.584 638.708C108.561 644.94 113.031 652.188 119.966 652.188H228.755C234.394 652.188 238.966 647.61 238.966 641.964V556.25H195.405V556.275Z" fill="#FF1F5A"/>
<g opacity="0.3">
<path opacity="0.3" d="M222.43 556.275V574.614C222.43 609.026 194.566 636.928 160.2 636.928H112.447C112.142 637.538 111.838 638.149 111.533 638.759C108.536 644.965 113.031 652.188 119.94 652.188H228.73C234.369 652.188 238.941 647.61 238.941 641.964V556.25H222.43V556.275Z" fill="#390075"/>
</g>
<g opacity="0.6">
<path opacity="0.6" d="M195.404 556.275C195.404 556.275 135.46 589.391 111.583 638.708C109.78 642.447 110.669 646.567 113.184 649.263C113.184 647.89 113.463 646.466 114.123 645.067C121.972 628.865 133.682 614.444 145.899 602.337C147.068 601.167 148.693 600.684 150.344 600.709C153.697 600.811 159.641 597.835 165.407 592.926C170.995 588.17 174.805 582.931 175.44 579.573C175.745 577.996 176.507 576.547 177.827 575.631C189.562 567.263 197.944 562.634 197.944 562.634H238.941V556.275H195.404Z" fill="white"/>
</g>
<path d="M180.241 581.176C169.75 590.688 153.215 608.365 144.731 631.434C144.045 633.265 145.417 635.249 147.373 635.249H165.381C166.626 635.249 167.718 634.435 168.074 633.24C170.157 626.195 177.396 602.108 184.711 584.33C185.879 581.557 182.476 579.166 180.241 581.176Z" fill="#390075"/>
<path d="M210.95 578.429C203.431 585.779 191.798 601.828 190.833 631.358C190.756 633.469 192.484 635.249 194.592 635.249H213.54C215.623 635.249 217.3 633.57 217.3 631.485V581.15C217.3 577.818 213.312 576.089 210.95 578.429Z" fill="#390075"/>
<path d="M228.73 655.393H119.94C115.622 655.393 111.66 653.205 109.348 649.543C107.037 645.855 106.783 641.277 108.688 637.36C132.742 587.686 191.366 554.902 193.83 553.528C194.287 553.274 194.82 553.121 195.354 553.121H238.89C240.643 553.121 242.065 554.545 242.065 556.3V642.014C242.116 649.39 236.121 655.393 228.73 655.393ZM196.243 559.454C189.512 563.32 136.222 595.113 114.428 640.107C113.489 642.065 113.59 644.329 114.733 646.135C115.876 647.966 117.781 649.009 119.94 649.009H228.73C232.616 649.009 235.766 645.855 235.766 641.963V559.429H196.243V559.454Z" fill="#390075"/>
<path d="M272.159 528.045L269.931 549.55L619.305 585.846L621.533 564.341L272.159 528.045Z" fill="#D6D9E5"/>
<g opacity="0.3">
<path opacity="0.3" d="M595.104 561.667C594.444 568.026 588.754 572.655 582.378 571.994L270.971 539.616L269.929 549.586L619.285 585.906L621.52 564.414L595.104 561.667Z" fill="#390075"/>
</g>
<g opacity="0.7">
<path opacity="0.7" d="M272.164 534.453L620.885 570.697L621.546 564.415L272.164 528.094L269.955 549.586L270.59 549.663L272.164 534.453Z" fill="white"/>
</g>
<path d="M619.31 589.085C619.209 589.085 619.082 589.085 618.98 589.06L269.624 552.74C267.872 552.562 266.602 550.985 266.805 549.255L269.04 527.763C269.116 526.924 269.548 526.161 270.208 525.627C270.869 525.093 271.707 524.838 272.545 524.94L621.901 561.26C622.739 561.337 623.501 561.769 624.035 562.43C624.568 563.092 624.822 563.931 624.72 564.77L622.485 586.262C622.307 587.865 620.91 589.085 619.31 589.085ZM273.434 546.763L616.491 582.422L618.066 567.237L275.009 531.578L273.434 546.763Z" fill="#390075"/>
<path d="M620.428 595.19C631.482 595.19 640.443 586.217 640.443 575.148C640.443 564.079 631.482 555.105 620.428 555.105C609.374 555.105 600.413 564.079 600.413 575.148C600.413 586.217 609.374 595.19 620.428 595.19Z" fill="#D6D9E5"/>
<g opacity="0.3">
<g opacity="0.3">
<path opacity="0.3" d="M635.313 561.82C635.313 562.023 635.338 562.227 635.338 562.43C635.338 573.494 626.372 582.473 615.323 582.473C609.404 582.473 604.096 579.878 600.438 575.783C600.768 586.542 609.582 595.19 620.403 595.19C631.452 595.19 640.418 586.211 640.418 575.147C640.418 570.035 638.488 565.355 635.313 561.82Z" fill="#0B2177"/>
</g>
</g>
<path d="M620.428 598.369C607.652 598.369 597.263 587.966 597.263 575.173C597.263 562.379 607.652 551.977 620.428 551.977C633.204 551.977 643.593 562.379 643.593 575.173C643.593 587.966 633.204 598.369 620.428 598.369ZM620.428 558.31C611.157 558.31 603.613 565.864 603.613 575.147C603.613 584.431 611.157 591.985 620.428 591.985C629.699 591.985 637.243 584.431 637.243 575.147C637.243 565.864 629.699 558.31 620.428 558.31Z" fill="#390075"/>
<path d="M620.428 582.982C624.749 582.982 628.251 579.474 628.251 575.148C628.251 570.821 624.749 567.314 620.428 567.314C616.107 567.314 612.605 570.821 612.605 575.148C612.605 579.474 616.107 582.982 620.428 582.982Z" fill="#FFAA00"/>
<g opacity="0.3">
<g opacity="0.3">
<path opacity="0.3" d="M624.238 568.306C624.365 568.865 624.441 569.45 624.441 570.061C624.441 574.385 620.936 577.894 616.618 577.894C615.247 577.894 613.926 577.538 612.808 576.903C613.596 580.387 616.72 582.981 620.428 582.981C624.746 582.981 628.251 579.471 628.251 575.148C628.251 572.223 626.626 569.654 624.238 568.306Z" fill="#0B2177"/>
</g>
</g>
<path d="M620.428 584.889C615.069 584.889 610.7 580.514 610.7 575.148C610.7 569.781 615.069 565.406 620.428 565.406C625.788 565.406 630.156 569.781 630.156 575.148C630.156 580.54 625.788 584.889 620.428 584.889ZM620.428 569.221C617.177 569.221 614.51 571.892 614.51 575.148C614.51 578.403 617.177 581.074 620.428 581.074C623.679 581.074 626.346 578.403 626.346 575.148C626.346 571.892 623.679 569.221 620.428 569.221Z" fill="#390075"/>
<path d="M265.738 565.559H197.437C190.299 565.559 184.508 559.76 184.508 552.613V515.555C184.508 508.407 190.299 502.608 197.437 502.608H265.738C272.875 502.608 278.667 508.407 278.667 515.555V552.613C278.667 559.76 272.901 565.559 265.738 565.559Z" fill="#D6D9E5"/>
<g opacity="0.3">
<path opacity="0.3" d="M265.763 502.608H262.182C262.182 528.246 241.43 549.026 215.826 549.026H184.508V552.613C184.508 559.76 190.299 565.559 197.437 565.559H265.738C272.875 565.559 278.667 559.76 278.667 552.613V515.555C278.667 508.407 272.901 502.608 265.763 502.608Z" fill="#390075"/>
</g>
<g opacity="0.7">
<path opacity="0.7" d="M265.738 502.608H197.437C190.299 502.608 184.508 508.407 184.508 515.555V523.185C184.508 516.038 190.299 510.239 197.437 510.239H265.738C272.875 510.239 278.667 516.038 278.667 523.185V515.555C278.667 508.407 272.901 502.608 265.738 502.608Z" fill="white"/>
</g>
<path d="M265.738 568.738H197.437C188.546 568.738 181.333 561.514 181.333 552.612V515.555C181.333 506.653 188.546 499.429 197.437 499.429H265.738C274.628 499.429 281.842 506.653 281.842 515.555V552.612C281.842 561.489 274.628 568.738 265.738 568.738ZM197.437 505.788C192.052 505.788 187.683 510.162 187.683 515.555V552.612C187.683 558.004 192.052 562.379 197.437 562.379H265.738C271.123 562.379 275.492 558.004 275.492 552.612V515.555C275.492 510.162 271.123 505.788 265.738 505.788H197.437Z" fill="#390075"/>
<path d="M267.668 513.215C267.313 516.623 267.059 519.98 266.881 523.312C266.729 526.644 266.602 529.976 266.678 533.308C266.703 536.64 266.856 539.946 267.135 543.253C267.364 546.585 267.821 549.866 268.151 553.274L267.262 553.528C265.941 550.349 264.925 547.017 264.392 543.609C264.036 541.905 263.909 540.201 263.731 538.471C263.63 537.606 263.655 536.742 263.604 535.877C263.553 535.012 263.553 534.147 263.553 533.283C263.579 531.553 263.68 529.823 263.833 528.119C264.061 526.415 264.239 524.686 264.595 523.007C265.204 519.675 266.144 516.318 267.668 513.215Z" fill="#390075"/>
<path d="M348.746 218.507C348.746 239.77 345.901 241.805 345.901 241.805V247.934L332.033 272.275V343.008L345.901 351.605V370.197C332.439 379.201 302.416 379.379 302.416 379.379C302.416 379.379 272.418 379.176 258.956 370.197V351.605L272.825 343.008V272.275L258.956 247.934V241.805L258.931 241.779C258.753 241.652 256.086 239.083 256.086 218.481C256.086 218.481 265.738 213.979 302.416 213.979C339.094 214.005 348.746 218.507 348.746 218.507Z" fill="#636177"/>
<path d="M345.902 351.58V370.172C332.439 379.176 302.416 379.354 302.416 379.354C302.416 379.354 272.418 379.151 258.956 370.172V351.58L272.825 342.983C272.825 342.983 275.873 349.723 302.416 349.723C328.96 349.723 332.033 342.983 332.033 342.983L345.902 351.58Z" fill="#D6D9E5"/>
<path d="M348.746 218.507C348.746 239.77 345.901 241.805 345.901 241.805C345.901 241.805 328.07 236.769 302.416 236.769C276.787 236.769 258.956 241.805 258.956 241.805L258.931 241.779C258.753 241.652 256.086 239.083 256.086 218.481C256.086 218.481 265.738 213.979 302.416 213.979C339.094 214.005 348.746 218.507 348.746 218.507Z" fill="#FFAA00"/>
<g opacity="0.3">
<path opacity="0.3" d="M331.372 215.251C332.896 215.683 333.506 215.963 333.506 215.963C333.506 237.226 330.661 239.261 330.661 239.261V245.391L316.793 269.731V348.883L330.661 349.036C330.661 361.753 321.542 372.715 309.02 374.826C297.666 376.734 287.176 376.81 287.176 376.81C287.176 376.81 281.308 376.759 273.612 375.945C287.227 379.252 302.416 379.353 302.416 379.353C302.416 379.353 332.439 379.15 345.901 370.172V351.579L332.033 342.982V272.249L345.901 247.909V241.779C345.901 241.779 348.746 239.744 348.746 218.481C348.746 218.507 344.606 216.574 331.372 215.251Z" fill="#390075"/>
</g>
<g opacity="0.7">
<path opacity="0.7" d="M266.576 367.832V353.843C266.576 352.419 267.313 351.096 268.507 350.359L278.514 344.178C279.708 343.44 280.445 342.118 280.445 340.694V273.343C280.445 272.631 280.267 271.944 279.911 271.309L267.11 248.875C266.754 248.265 266.576 247.553 266.576 246.841V241.805L266.551 241.779C266.398 241.652 263.985 239.363 263.731 221.534C263.706 219.651 264.951 217.998 266.779 217.515C271.656 216.269 283.112 214.208 306.226 214.005C304.982 214.005 303.712 213.979 302.416 213.979C276.736 213.979 264.316 216.192 259.159 217.489C257.33 217.947 256.086 219.626 256.111 221.508C256.365 239.338 258.778 241.627 258.931 241.754L258.956 241.779V246.815C258.956 247.527 259.134 248.214 259.489 248.85L272.291 271.283C272.647 271.894 272.825 272.606 272.825 273.318V340.668C272.825 342.092 272.088 343.415 270.894 344.153L260.886 350.333C259.693 351.071 258.956 352.393 258.956 353.818V367.807C258.956 369.282 259.743 370.681 261.039 371.393C275.289 379.15 302.416 379.328 302.416 379.328C302.416 379.328 303.839 379.328 306.226 379.201C298.25 378.845 279.632 377.344 268.659 371.367C267.338 370.706 266.576 369.333 266.576 367.832Z" fill="white"/>
</g>
<path d="M302.441 382.533C301.146 382.533 271.275 382.228 257.178 372.792C256.289 372.207 255.756 371.215 255.756 370.147V351.554C255.756 350.46 256.315 349.418 257.254 348.858L269.624 341.202V273.114L256.162 249.537C255.883 249.053 255.756 248.519 255.756 247.96V242.771C253.851 239.21 252.911 231.071 252.911 218.532C252.911 217.286 253.622 216.167 254.74 215.658C255.172 215.455 265.459 210.876 302.416 210.876C339.373 210.876 349.661 215.48 350.092 215.658C351.21 216.192 351.921 217.311 351.921 218.532C351.921 231.071 350.956 239.185 349.076 242.771V247.96C349.076 248.519 348.924 249.053 348.67 249.537L335.208 273.114V341.202L347.578 348.858C348.518 349.443 349.076 350.46 349.076 351.554V370.147C349.076 371.215 348.543 372.207 347.654 372.792C333.557 382.228 303.711 382.533 302.441 382.533ZM262.131 368.392C275.289 375.895 302.162 376.174 302.441 376.174C302.67 376.174 329.569 375.895 342.726 368.392V353.334L330.356 345.679C329.417 345.094 328.858 344.076 328.858 342.983V272.275C328.858 271.716 329.01 271.181 329.264 270.698L342.726 247.12V241.83C342.726 241.042 343.006 240.304 343.539 239.719C343.844 239.159 345.419 235.395 345.571 220.821C341.355 219.677 329.239 217.21 302.416 217.21C275.644 217.21 263.528 219.651 259.261 220.821C259.413 235.37 261.014 239.134 261.293 239.719C261.801 240.304 262.106 241.042 262.106 241.83V247.12L275.568 270.698C275.847 271.181 275.974 271.716 275.974 272.275V342.983C275.974 344.076 275.416 345.119 274.476 345.679L262.106 353.334V368.392H262.131ZM344.047 239.21C344.047 239.236 344.047 239.236 344.047 239.21C344.047 239.236 344.047 239.236 344.047 239.21Z" fill="#390075"/>
<path d="M258.956 244.984C257.559 244.984 256.289 244.068 255.908 242.669C255.426 240.991 256.416 239.236 258.093 238.753C258.829 238.549 276.635 233.589 302.442 233.589C328.223 233.589 346.029 238.549 346.791 238.753C348.467 239.236 349.458 240.991 348.975 242.669C348.492 244.348 346.74 245.34 345.063 244.857C344.885 244.806 327.308 239.923 302.442 239.923C277.524 239.923 259.998 244.806 259.82 244.857C259.515 244.959 259.236 244.984 258.956 244.984Z" fill="#390075"/>
<path d="M332.033 275.429C331.906 275.429 331.779 275.429 331.652 275.404C331.525 275.378 318.571 273.852 302.441 273.852C286.312 273.852 273.358 275.378 273.231 275.404C271.478 275.607 269.904 274.361 269.7 272.631C269.497 270.876 270.742 269.299 272.469 269.096C273.002 269.02 285.906 267.519 302.441 267.519C318.977 267.519 331.88 269.045 332.414 269.096C334.166 269.299 335.386 270.876 335.182 272.631C334.979 274.259 333.608 275.429 332.033 275.429Z" fill="#390075"/>
<path d="M302.416 352.902C275.898 352.902 270.844 346.315 269.929 344.305L275.72 341.686C275.72 341.686 275.695 341.584 275.568 341.406C275.593 341.457 279.581 346.569 302.416 346.569C325.277 346.569 329.239 341.457 329.264 341.406C329.137 341.584 329.112 341.686 329.112 341.686L334.903 344.305C333.989 346.315 328.934 352.902 302.416 352.902Z" fill="#390075"/>
<path d="M334.268 355.242C329.416 357.811 324.184 359.591 318.85 360.863C313.516 362.16 307.979 362.847 302.441 362.872C296.879 362.847 291.367 362.134 286.033 360.863C280.699 359.591 275.466 357.811 270.615 355.242C275.974 356.31 281.283 357.226 286.566 357.938C291.875 358.65 297.183 359.031 302.441 359.057C307.725 359.006 313.033 358.65 318.317 357.938C323.6 357.226 328.908 356.31 334.268 355.242Z" fill="#390075"/>
<path d="M564.649 421.066C498.659 421.066 465.918 391.105 452.227 373.097C447.351 366.688 449.789 357.353 457.155 354.072L462.819 351.605C468.001 349.341 474.072 350.817 477.628 355.242C487.407 367.374 512.35 389.299 564.649 389.299C604.096 389.299 627.947 386.781 639.732 381.389C647.175 377.981 649.054 373.987 653.829 361.881L654.185 360.965C657.411 352.8 666.631 348.807 674.785 352.037C682.938 355.268 686.926 364.5 683.7 372.665L683.344 373.58C677.934 387.264 672.346 401.38 652.94 410.282C636.227 417.938 610.649 421.066 564.649 421.066Z" fill="#FFAA00"/>
<g opacity="0.3">
<path opacity="0.3" d="M681.643 357.276C681.516 357.734 681.363 358.217 681.16 358.675L680.805 359.591C675.394 373.275 669.806 387.391 650.4 396.293C633.687 403.974 608.083 407.102 562.109 407.102C497.795 407.102 465.08 378.641 450.779 360.532C449.027 364.525 449.332 369.332 452.227 373.122C465.918 391.13 498.634 421.091 564.649 421.091C610.649 421.091 636.227 417.963 652.94 410.282C672.346 401.38 677.934 387.238 683.345 373.58L683.7 372.664C685.834 367.323 684.843 361.549 681.643 357.276Z" fill="#390075"/>
</g>
<g opacity="0.7">
<path opacity="0.7" d="M453.371 362.974L459.035 360.507C464.216 358.243 470.287 359.719 473.843 364.144C483.622 376.276 508.565 398.201 560.865 398.201C600.311 398.201 624.162 395.683 635.948 390.291C643.263 386.933 645.194 383.016 649.791 371.418C647.251 376.531 644.762 379.074 639.758 381.389C627.998 386.781 604.121 389.299 564.675 389.299C512.375 389.299 487.432 367.374 477.653 355.242C474.097 350.817 468.026 349.341 462.845 351.605L457.181 354.072C452.482 356.183 449.789 360.736 449.738 365.441C450.754 364.449 451.974 363.61 453.371 362.974Z" fill="white"/>
</g>
<path d="M564.649 424.245C497.237 424.245 463.708 393.419 449.713 375.03C446.817 371.215 445.826 366.357 447.02 361.702C448.214 356.997 451.44 353.156 455.885 351.172L461.574 348.68C468.052 345.857 475.672 347.713 480.117 353.233C490.023 365.517 514.153 386.119 564.674 386.119C603.664 386.119 627.083 383.703 638.437 378.489C644.558 375.691 646.032 373.02 650.908 360.71L651.264 359.795C655.125 350.028 666.225 345.221 676.004 349.087C685.758 352.953 690.558 364.068 686.697 373.86L686.342 374.775C680.957 388.357 674.886 403.771 654.312 413.207C637.116 421.041 611.132 424.245 564.649 424.245ZM467.848 353.716C466.578 353.716 465.308 353.97 464.114 354.504L458.45 356.971C455.834 358.141 453.904 360.43 453.192 363.254C452.481 366.026 453.065 368.9 454.793 371.164C468.077 388.612 500.005 417.887 564.674 417.887C610.166 417.887 635.363 414.835 651.645 407.382C669.882 399.014 675.013 386.094 680.424 372.385L680.779 371.469C683.37 364.958 680.17 357.531 673.642 354.962C667.139 352.368 659.748 355.572 657.157 362.109L656.801 363.025C652.001 375.208 649.689 380.295 641.079 384.237C628.886 389.833 604.604 392.427 564.674 392.427C511.512 392.427 485.781 370.35 475.189 357.175C473.36 354.962 470.617 353.716 467.848 353.716Z" fill="#390075"/>
<defs>
<filter id="filter0_d_631_6091" x="53.7554" y="150.521" width="186.677" height="84.542" filterUnits="userSpaceOnUse" color-interpolation-filters="sRGB">
<feFlood flood-opacity="0" result="BackgroundImageFix"/>
<feColorMatrix in="SourceAlpha" type="matrix" values="0 0 0 0 0 0 0 0 0 0 0 0 0 0 0 0 0 0 127 0" result="hardAlpha"/>
<feOffset dy="13"/>
<feGaussianBlur stdDeviation="6"/>
<feColorMatrix type="matrix" values="0 0 0 0 0.372549 0 0 0 0 0.356863 0 0 0 0 0.756863 0 0 0 0.1 0"/>
<feBlend mode="normal" in2="BackgroundImageFix" result="effect1_dropShadow_631_6091"/>
<feBlend mode="normal" in="SourceGraphic" in2="effect1_dropShadow_631_6091" result="shape"/>
</filter>
<filter id="filter1_d_631_6091" x="435.921" y="0" width="236.019" height="102.575" filterUnits="userSpaceOnUse" color-interpolation-filters="sRGB">
<feFlood flood-opacity="0" result="BackgroundImageFix"/>
<feColorMatrix in="SourceAlpha" type="matrix" values="0 0 0 0 0 0 0 0 0 0 0 0 0 0 0 0 0 0 127 0" result="hardAlpha"/>
<feOffset dy="13"/>
<feGaussianBlur stdDeviation="6"/>
<feColorMatrix type="matrix" values="0 0 0 0 0.372549 0 0 0 0 0.356863 0 0 0 0 0.756863 0 0 0 0.1 0"/>
<feBlend mode="normal" in2="BackgroundImageFix" result="effect1_dropShadow_631_6091"/>
<feBlend mode="normal" in="SourceGraphic" in2="effect1_dropShadow_631_6091" result="shape"/>
</filter>
</defs>
</svg>
