<svg width="540" height="573" viewBox="0 0 540 573" fill="none" xmlns="http://www.w3.org/2000/svg">
<g clip-path="url(#clip0_631_4761)">
<path d="M301.954 374.521C306.235 391.947 349.899 422.555 392.816 378.43L367.96 337.591L294.285 333.515L301.954 374.521Z" fill="#FEF26B"/>
<g opacity="0.3">
<g opacity="0.3">
<g opacity="0.3">
<path opacity="0.3" d="M387.226 383.733C346.2 419.935 306.027 391.177 301.954 374.521L294.264 333.495L321.303 334.992L325.999 360.048C329.262 373.398 355.719 394.525 387.226 383.733Z" fill="#390075"/>
</g>
</g>
</g>
<path d="M345.618 404.776C339.903 404.776 334.998 403.903 331.237 402.884C313.114 397.956 300.81 385.043 298.42 375.395L298.379 375.187L289.837 329.606L370.038 334.035L397.367 378.909L395.414 380.926C376.938 399.952 359.044 404.776 345.618 404.776ZM305.487 373.731C307.419 381.3 318.497 391.884 333.128 395.856C346.325 399.432 366.422 399.1 388.223 377.869L365.84 341.085L298.691 337.362L305.487 373.731Z" fill="#390075"/>
<path d="M326.145 348.3C326.082 369.198 381.385 407.022 419.376 356.472L379.037 301.659L301.85 286.292L326.145 348.3Z" fill="#FD6CCB"/>
<path d="M374.195 382.049C366.962 382.049 360.914 380.551 357.028 379.241C340.028 373.523 325.688 359.425 325.625 348.383L301.351 286.458C301.289 286.271 301.309 286.084 301.434 285.939C301.559 285.793 301.746 285.731 301.933 285.751L379.12 301.118C379.245 301.139 379.37 301.222 379.432 301.326L419.771 356.139C419.917 356.326 419.917 356.576 419.771 356.763C404.558 377.058 387.392 382.049 374.195 382.049ZM302.681 286.958L326.644 348.092C326.664 348.154 326.685 348.217 326.685 348.279C326.644 357.761 338.968 372.067 357.361 378.243C380.076 385.875 402.418 377.931 418.732 356.451L378.746 302.116L302.681 286.958Z" fill="#102770"/>
<g opacity="0.3">
<g opacity="0.3">
<g opacity="0.3">
<path opacity="0.3" d="M419.376 356.451C381.385 407.001 326.082 369.198 326.145 348.279L301.85 286.25L318.954 289.661L335.559 332.039C335.497 350.816 380.18 383.275 416.799 352.937L419.376 356.451Z" fill="#390075"/>
</g>
</g>
</g>
<path d="M374.278 385.188C366.588 385.188 360.166 383.587 356.03 382.194C337.866 376.101 323.069 361.358 322.529 349.028L296.031 281.426L381.115 298.373L423.886 356.493L422.265 358.655C406.283 379.928 388.223 385.188 374.278 385.188ZM307.648 291.116L329.782 347.614V348.3C329.761 356.513 341.483 369.635 358.358 375.311C370.662 379.449 394.063 382.298 414.846 356.41L376.959 304.944L307.648 291.116Z" fill="#390075"/>
<path d="M455.497 321.912C442.903 364.894 360.291 373.128 346.637 327.859L338.157 319.188L344.122 286.251L270.717 151.796L334.396 144.914C334.396 144.914 356.862 155.103 369.061 195.505C376.273 219.398 372.823 262.899 377.499 293.404C382.82 278.349 391.548 262.462 405.307 257.784C435.712 247.407 468.466 277.683 455.497 321.912Z" fill="#39D5FF"/>
<path d="M395.767 358.718C376.231 358.718 353.059 350.691 346.18 328.151L337.783 319.583C337.659 319.459 337.617 319.292 337.638 319.126L343.561 286.375L270.26 152.046C270.177 151.9 270.177 151.713 270.26 151.547C270.343 151.401 270.488 151.297 270.676 151.277L334.354 144.394C334.437 144.394 334.541 144.394 334.624 144.435C334.853 144.539 357.444 155.186 369.581 195.339C373.717 209.022 374.34 228.63 375.026 249.383C375.483 263.751 375.982 278.598 377.728 291.262C384.69 272.527 393.897 261.111 405.14 257.285C418.961 252.585 433.675 255.974 444.503 266.371C458.095 279.409 462.397 300.245 455.996 322.079C448.66 347.135 419.771 358.635 396.038 358.738C395.934 358.718 395.85 358.718 395.767 358.718ZM338.718 319.043L347.011 327.506C347.073 327.568 347.115 327.631 347.136 327.714C353.786 349.818 376.564 357.678 395.747 357.678C395.83 357.678 395.934 357.678 396.017 357.678C420.104 357.574 448.098 345.222 454.978 321.788C461.275 300.328 457.077 279.888 443.776 267.12C433.239 257.014 418.899 253.708 405.473 258.283C391.382 263.086 382.757 280.116 377.998 293.57C377.915 293.799 377.707 293.944 377.458 293.924C377.229 293.903 377.021 293.716 376.98 293.487C374.964 280.324 374.465 264.625 373.966 249.424C373.301 228.734 372.657 209.209 368.563 195.651C357.049 157.494 336.121 146.348 334.313 145.454L271.569 152.233L344.579 286.043C344.642 286.147 344.662 286.271 344.642 286.396L338.718 319.043Z" fill="#102770"/>
<g opacity="0.6">
<g opacity="0.6">
<g opacity="0.6">
<path opacity="0.6" d="M398.718 276.373C401.586 272.298 410.502 263.606 426.588 267.702C441.136 271.424 451.694 291.948 441.635 293.861C434.673 295.171 433.072 280.969 422.847 278.848C415.449 277.309 405.119 286.25 400.714 284.233C396.245 282.175 397.305 278.39 398.718 276.373Z" fill="white"/>
</g>
</g>
</g>
<g opacity="0.3">
<g opacity="0.3">
<g opacity="0.3">
<path opacity="0.3" d="M456.245 319.105C456.017 320.041 455.767 320.977 455.497 321.912C442.903 364.893 360.291 373.128 346.637 327.859L354.43 311.453C366.484 351.461 432.366 349.693 456.245 319.105Z" fill="#390075"/>
</g>
</g>
</g>
<path d="M395.372 360.34C394.894 360.34 394.416 360.34 393.959 360.319C367.731 359.841 347.593 347.281 341.15 327.443L334.25 320.394L340.319 286.874L264.939 148.74L334.998 141.171L335.892 141.587C336.869 142.023 360 152.919 372.532 194.424C376.793 208.502 377.416 228.298 378.102 249.279C378.372 257.804 378.663 266.413 379.183 274.585C383.235 266.08 390.696 257.617 404.413 254.228C421.933 249.903 439.183 254.768 450.592 267.224C463.27 281.052 466.284 301.409 458.906 323.077C450.156 348.82 420.146 360.34 395.372 360.34ZM342.044 318.003L347.551 323.617L347.801 324.47C353.994 345.035 375.774 352.708 394.063 353.041C417.298 353.457 444.607 342.498 452.026 320.727C458.532 301.638 456.058 283.922 445.23 272.111C435.65 261.651 421.018 257.596 406.138 261.256C380.534 267.577 381.573 295.338 381.635 296.523C383.63 307.44 386.852 316.132 392.317 320.581C395.871 323.472 400.298 324.408 405.868 323.451C407.842 323.098 409.713 324.428 410.066 326.404C410.398 328.379 409.089 330.251 407.115 330.604C399.467 331.935 392.941 330.459 387.745 326.217C380.804 320.561 376.876 310.351 374.569 297.833C374.465 297.542 374.423 297.23 374.403 296.897V296.876C371.909 282.84 371.368 266.018 370.828 249.487C370.184 229.92 369.539 209.666 365.57 196.504C355.282 162.401 337.617 150.819 333.689 148.615L276.495 154.791L347.905 285.647L342.044 318.003Z" fill="#390075"/>
<path d="M385.293 276.997C385.272 276.789 385.23 276.602 385.209 276.394C385.459 275.958 385.708 275.542 385.978 275.126C385.729 275.75 385.521 276.373 385.293 276.997Z" fill="#B5E5FB"/>
<path d="M385.085 279.139L384.669 276.29L384.752 276.124C385.043 275.646 385.272 275.23 385.542 274.835L388.265 270.593L386.477 275.292C386.249 275.916 386.02 276.54 385.812 277.143L385.085 279.139Z" fill="#390075"/>
<path d="M534.804 319.542C535.012 319.292 535.428 319.355 535.573 319.646C536.716 322.224 536.883 325.281 535.636 328.254C529.858 342.353 523.582 362.565 524.808 381.882C527.031 416.504 526.2 472.565 481.974 492.278C430.682 515.151 362.91 488.847 362.91 488.847L360.831 478.366C383.568 482.816 454.666 493.026 482.993 453.663C518.033 405.026 495.275 363.75 534.804 319.542Z" fill="#FEF26B"/>
<g opacity="0.6">
<g opacity="0.6">
<g opacity="0.6">
<path opacity="0.6" d="M366.9 482.4C389.636 486.85 460.734 497.06 489.061 457.697C521.15 413.115 504.732 374.75 532.144 334.638C532.955 332.413 533.786 330.292 534.617 328.275C535.843 325.302 535.677 322.245 534.555 319.666C534.43 319.375 534.015 319.313 533.786 319.563C494.257 363.771 517.035 405.026 482.016 453.684C453.689 493.026 382.591 482.837 359.854 478.366L361.933 488.847C361.933 488.847 364.364 489.782 368.646 491.155L366.9 482.4Z" fill="white"/>
</g>
</g>
</g>
<g opacity="0.3">
<g opacity="0.3">
<g opacity="0.3">
<path opacity="0.3" d="M535.553 319.646C536.675 322.224 536.841 325.281 535.615 328.275C529.837 342.374 523.561 362.585 524.808 381.903C527.032 416.504 526.2 472.586 481.975 492.298C430.683 515.172 362.91 488.867 362.91 488.867L360.852 478.366C366.381 479.448 374.777 480.883 384.711 481.839C408.466 487.745 440.928 491.737 469.401 481.028C514.728 463.998 518.885 408.062 518.719 373.377C518.635 355.515 524.995 337.258 531.167 323.784C532.311 322.37 533.495 320.956 534.763 319.542C535.012 319.292 535.428 319.355 535.553 319.646Z" fill="#390075"/>
</g>
</g>
</g>
<path d="M432.969 505.232C395.996 505.232 363.616 492.902 361.663 492.153L359.854 491.446L356.405 473.917L361.538 474.915C382.487 479.011 452.941 489.45 480.187 451.605C496.439 429.022 499.91 407.812 503.277 387.289C506.997 364.561 510.863 341.043 532.186 317.213C533.1 316.194 534.43 315.737 535.781 315.945C537.111 316.152 538.234 317.026 538.774 318.253C540.374 321.892 540.416 325.926 538.878 329.627C533.391 342.998 527.115 362.877 528.32 381.695C529.775 404.257 534.202 472.898 483.429 495.522C467.239 502.716 449.636 505.232 432.969 505.232ZM365.985 486.247C376.938 490.094 435.774 509.058 480.54 489.096C511.694 475.206 525.036 440.209 521.296 382.132C520.069 362.981 525.972 343.081 531.5 329.086C516.682 348.861 513.523 368.158 510.198 388.432C506.706 409.767 503.09 431.809 485.861 455.722C473.079 473.459 450.966 483.648 420.083 485.956C398.781 487.557 378.123 485 365.279 482.775L365.985 486.247ZM537.423 321.892C537.402 321.892 537.402 321.892 537.423 321.892C537.402 321.892 537.402 321.892 537.423 321.892Z" fill="#390075"/>
<path d="M531.625 314.863C533.079 315.861 534.264 317.192 535.116 318.731C535.199 318.897 535.178 319.105 535.054 319.251C495.192 363.563 518.116 404.901 483.034 453.642C454.707 493.006 383.609 482.816 360.873 478.346L357.839 462.917C377.354 464.684 432.636 465.973 457.949 427.421C486.256 384.274 463.644 343.122 531.188 314.801C531.334 314.759 531.5 314.78 531.625 314.863Z" fill="#FD6CCB"/>
<path d="M406.159 483.398C386.831 483.398 369.56 480.591 360.769 478.886C360.561 478.845 360.416 478.678 360.374 478.491L357.34 463.062C357.319 462.896 357.361 462.75 357.465 462.625C357.569 462.501 357.735 462.459 357.88 462.459C379.578 464.434 432.719 464.954 457.513 427.192C467.406 412.137 471.022 397.394 474.534 383.151C480.894 357.304 486.9 332.871 531.001 314.385C531.313 314.26 531.666 314.302 531.936 314.489C533.453 315.528 534.7 316.942 535.573 318.544C535.76 318.897 535.719 319.355 535.428 319.646C514.666 342.706 511.07 364.706 507.246 387.975C503.796 408.956 500.242 430.665 483.45 453.996C466.491 477.514 434.174 483.398 406.159 483.398ZM361.289 477.95C383.09 482.192 454.458 492.486 482.619 453.372C499.286 430.228 502.819 408.644 506.249 387.788C510.093 364.353 513.73 342.228 534.68 318.939C533.89 317.545 532.747 316.277 531.375 315.321C487.773 333.598 482.099 356.68 475.532 383.379C471.999 397.706 468.362 412.533 458.386 427.754C433.55 465.578 380.783 465.474 358.483 463.54L361.289 477.95Z" fill="#102770"/>
<g opacity="0.6">
<g opacity="0.6">
<g opacity="0.6">
<path opacity="0.6" d="M362.868 467.99C382.383 469.758 437.665 471.047 462.979 432.495C490.911 389.95 469.297 349.319 533.495 321.039C534.015 320.457 534.513 319.854 535.054 319.272C535.178 319.126 535.22 318.918 535.116 318.752C534.285 317.213 533.079 315.882 531.625 314.884C531.5 314.801 531.313 314.78 531.167 314.842C463.623 343.164 486.235 384.336 457.929 427.463C432.636 466.015 377.333 464.726 357.818 462.958L360.852 478.387C362.099 478.637 363.512 478.886 365.05 479.177L362.868 467.99Z" fill="white"/>
</g>
</g>
</g>
<g opacity="0.3">
<g opacity="0.3">
<g opacity="0.3">
<path opacity="0.3" d="M531.624 314.863C533.079 315.882 534.264 317.192 535.116 318.731C535.199 318.897 535.178 319.126 535.054 319.271C495.192 363.583 518.116 404.922 483.034 453.663C454.707 493.026 383.609 482.837 360.873 478.387L359.106 469.425C388.618 474.915 444.253 479.947 469.962 447.217C506.353 400.867 486.609 359.3 525.244 317.483C527.156 316.589 529.131 315.716 531.188 314.842C531.333 314.759 531.5 314.78 531.624 314.863Z" fill="#390075"/>
</g>
</g>
</g>
<path d="M406.346 486.455C387.142 486.455 369.83 483.71 360.187 481.818L357.88 481.361L353.495 459.007L358.171 459.423C379.328 461.357 431.119 461.898 455.019 425.508C464.621 410.869 468.175 396.396 471.624 382.381C478.171 355.765 484.364 330.625 529.837 311.557C531.105 311.037 532.518 311.182 533.64 311.952C535.532 313.262 537.111 315.029 538.213 317.026C539.023 318.502 538.795 320.332 537.672 321.579C517.513 343.995 513.98 365.559 510.218 388.391C506.727 409.725 503.11 431.767 485.881 455.68C473.1 473.417 450.987 483.607 420.104 485.915C415.469 486.31 410.855 486.455 406.346 486.455ZM363.845 475.372C387.225 479.697 453.855 488.181 480.166 451.605C496.418 429.022 499.889 407.812 503.256 387.289C506.893 365.081 510.675 342.124 530.731 318.835C490.142 336.406 484.697 358.53 478.4 384.086C474.804 398.663 471.105 413.739 460.838 429.376C436.501 466.431 386.768 468.385 362.141 466.805L363.845 475.372Z" fill="#390075"/>
<path d="M530.627 314.239C530.959 314.426 530.938 314.925 530.585 315.071C463.748 343.392 486.151 384.44 457.928 427.442C432.636 465.994 377.333 464.705 357.818 462.937L355.968 453.559C355.968 453.559 427.232 449.005 440.325 392.799C451.091 346.532 457.825 324.927 523.27 313.054C525.971 312.597 528.507 313.096 530.627 314.239Z" fill="#39D5FF"/>
<path d="M373.737 464.164C367.503 464.164 362.037 463.832 357.776 463.436C357.548 463.416 357.361 463.249 357.319 463.021L355.469 453.643C355.449 453.497 355.469 453.351 355.573 453.227C355.656 453.102 355.802 453.039 355.947 453.039C356.134 453.019 373.925 451.813 393.086 443.765C410.71 436.363 433.135 421.495 439.848 392.674C450.779 345.617 458.365 324.304 523.187 312.534C525.868 312.056 528.528 312.472 530.876 313.761C531.209 313.948 531.396 314.281 531.375 314.655C531.354 315.029 531.126 315.341 530.793 315.487C487.71 333.744 482.057 356.701 475.511 383.317C471.978 397.644 468.341 412.47 458.365 427.692C438.164 458.508 399.467 464.164 373.737 464.164ZM358.254 462.48C380.18 464.435 432.865 464.726 457.513 427.172C467.406 412.117 471.022 397.374 474.534 383.13C480.873 357.408 486.838 333.099 530.315 314.655C528.195 313.511 525.805 313.137 523.374 313.595C491.68 319.355 473.225 327.36 461.69 340.398C450.8 352.708 446.353 369.198 440.845 392.945C434.049 422.181 411.334 437.257 393.46 444.743C376.086 452.021 359.834 453.746 356.592 454.038L358.254 462.48Z" fill="#102770"/>
<g opacity="0.6">
<g opacity="0.6">
<g opacity="0.6">
<path opacity="0.6" d="M362.016 458.612C362.016 458.612 433.28 454.058 446.373 397.852C456.806 352.937 463.478 331.269 523.665 319.188C526.45 317.795 529.422 316.422 532.581 315.071C532.934 314.925 532.955 314.426 532.622 314.239C530.502 313.075 527.967 312.576 525.265 313.075C459.841 324.948 453.086 346.553 442.321 392.82C429.248 449.026 357.963 453.58 357.963 453.58L359.813 462.958C360.769 463.041 361.787 463.124 362.889 463.208L362.016 458.612Z" fill="white"/>
</g>
</g>
</g>
<g opacity="0.3">
<g opacity="0.3">
<g opacity="0.3">
<path opacity="0.3" d="M530.627 314.26C530.959 314.447 530.939 314.946 530.585 315.092C463.748 343.392 486.152 384.44 457.928 427.463C432.636 466.015 377.333 464.726 357.818 462.958L356.093 454.183C381.074 455.618 418.94 452.332 440.616 423.969C471.832 383.088 452.421 340.523 521.087 317.067C521.462 316.943 521.503 316.443 521.191 316.236C519.674 315.258 517.887 314.614 515.933 314.489C518.282 314.011 520.734 313.532 523.27 313.075C525.971 312.597 528.507 313.096 530.627 314.26Z" fill="#390075"/>
</g>
</g>
</g>
<path d="M373.696 467.179C367.378 467.179 361.829 466.846 357.506 466.451L354.887 466.223L351.77 450.336L355.76 450.087C356.446 450.045 424.593 445.013 436.917 392.05C442.57 367.701 447.142 350.774 458.677 337.736C470.856 323.971 489.996 315.57 522.646 309.644C526.013 309.041 529.359 309.561 532.31 311.182C533.661 311.931 534.451 313.324 534.368 314.863C534.285 316.402 533.37 317.712 531.957 318.315C490.267 335.99 484.78 358.281 478.42 384.086C474.825 398.663 471.126 413.739 460.859 429.376C439.91 461.315 400.09 467.179 373.696 467.179ZM360.769 459.673C383.318 461.378 432.054 460.504 454.998 425.529C464.6 410.89 468.154 396.417 471.604 382.402C477.444 358.676 482.993 336.114 516.349 318.003C460.838 329.544 454.105 349.111 443.755 393.631C438.143 417.752 421.143 436.383 394.603 447.529C380.097 453.621 366.63 455.888 360.166 456.699L360.769 459.673Z" fill="#390075"/>
<path d="M365.32 466.805V511.117H81.6349V466.805C81.5726 420.455 101.212 374.916 113.994 350.192C120.145 338.277 124.697 331.207 124.697 331.207H322.238C322.238 331.207 328.369 340.71 335.975 356.201C348.611 381.861 365.383 423.99 365.32 466.805Z" fill="white"/>
<path d="M365.84 511.637H81.1154V466.805C81.053 419.831 101.399 373.44 113.537 349.943C119.626 338.152 124.24 330.999 124.281 330.916L124.427 330.687H322.549L322.695 330.916C322.757 331.02 328.93 340.606 336.474 355.973C349.9 383.296 365.902 424.697 365.84 466.805V511.637ZM82.1545 510.597H364.78V466.805C364.842 424.905 348.902 383.65 335.518 356.43C328.66 342.477 322.944 333.287 321.947 331.727H124.988C124.157 333.058 119.896 339.878 114.451 350.421C102.355 373.814 82.0922 420.039 82.1545 466.805V510.597Z" fill="#390075"/>
<path d="M368.957 514.735H78.0187V466.784C77.9355 397.873 119.875 331.997 121.663 329.232L122.743 327.568H324.254L325.334 329.232C327.122 331.997 369.061 397.873 368.978 466.805L368.957 514.735ZM85.2719 507.478H361.683V466.784C361.767 405.941 326.747 345.534 320.222 334.825H126.734C120.229 345.514 85.2095 405.941 85.2719 466.784V507.478Z" fill="#390075"/>
<path d="M79.2448 420.704L79.1617 420.892C79.1617 420.892 79.1617 420.892 79.1409 420.892C79.1824 420.829 79.224 420.767 79.2448 420.704Z" fill="#FCCACA"/>
<path d="M79.4942 421.412H78.933L78.4966 420.954L78.8083 420.434L79.1616 420.621V420.372V420.621L79.3279 420.705L79.5357 420.517L79.3279 420.705L79.7228 420.912L79.4942 421.412Z" fill="#390075"/>
<path d="M126.651 477.493C126.651 477.493 79.2865 423.262 51.292 469.508V522.138H400.859L396.557 469.488C368.583 423.242 321.198 477.472 321.198 477.472" fill="white"/>
<g opacity="0.7">
<g opacity="0.7">
<g opacity="0.7">
<path opacity="0.7" d="M125.653 479.219C66.5882 439.295 68.1677 494.108 68.1677 494.108C63.7409 484.085 56.5709 475.83 51.77 471.006C54.5757 465.038 68.5625 454.537 68.5625 454.537C69.8511 453.247 70.8902 451.667 71.8047 449.775C72.0748 449.213 92.9823 454.038 93.2525 453.435L125.653 479.219Z" fill="white"/>
</g>
</g>
</g>
<g opacity="0.7">
<g opacity="0.7">
<g opacity="0.7">
<path opacity="0.7" d="M321.677 479.219C380.741 439.295 379.162 494.108 379.162 494.108C383.588 484.085 390.758 475.83 395.559 471.006C392.754 465.038 378.767 454.537 378.767 454.537C377.478 453.247 376.439 451.667 375.525 449.775C375.255 449.213 354.347 454.038 354.077 453.435L321.677 479.219Z" fill="white"/>
</g>
</g>
</g>
<path d="M125.757 478.283C119.938 473.542 113.973 469.009 107.801 465.058C101.649 461.107 95.1646 457.718 88.4517 455.951C85.1057 455.098 81.7181 454.62 78.4344 454.786C75.1507 454.973 71.9502 455.784 68.999 457.198C67.4819 457.843 66.131 458.82 64.7178 459.714C63.4292 460.796 62.0576 461.794 60.8937 463.083C60.3118 463.707 59.6467 464.247 59.1272 464.975L57.4853 467.013C56.9034 467.658 56.467 468.448 55.9474 469.176L54.451 471.4L54.9914 469.487L54.9498 482.65V495.813V522.138L51.3128 518.499H400.88L397.264 522.429L392.962 469.779L393.481 471.359L392.006 469.134C391.507 468.406 391.07 467.616 390.488 466.951C389.387 465.578 388.348 464.164 387.08 462.979C385.937 461.669 384.565 460.65 383.277 459.548C381.884 458.633 380.513 457.614 378.996 456.969C376.024 455.514 372.802 454.641 369.477 454.495C366.152 454.329 362.743 454.869 359.418 455.847C352.768 457.843 346.408 461.336 340.319 465.329C337.284 467.346 334.25 469.446 331.237 471.608L322.134 478.221L322.092 478.242C321.552 478.637 320.783 478.512 320.367 477.971C320.076 477.556 320.055 477.036 320.305 476.62C322.321 473.189 324.752 470.153 327.413 467.283C330.073 464.434 332.962 461.752 336.079 459.361C342.293 454.537 349.422 450.586 357.423 448.506C361.413 447.487 365.591 446.884 369.851 447.155C374.091 447.425 378.351 448.527 382.175 450.419C384.129 451.293 385.854 452.54 387.62 453.726C389.221 455.056 390.904 456.346 392.276 457.884C393.793 459.319 394.998 460.962 396.266 462.542C396.931 463.332 397.43 464.185 398.012 465.017L399.674 467.533L400.111 468.198L400.194 469.113L404.496 521.763L404.808 525.694H400.88H51.3128H47.6758V522.138V495.813V482.65L47.6343 469.487V468.406L48.1746 467.595L49.8373 465.058C50.3984 464.227 50.8972 463.353 51.5622 462.563C52.83 460.962 54.0354 459.319 55.5318 457.864C56.9034 456.304 58.566 454.994 60.1663 453.642C61.9121 452.436 63.637 451.189 65.6114 450.274C69.4562 448.34 73.7375 447.196 78.0188 446.968C82.3208 446.718 86.5189 447.383 90.4884 448.506C98.4275 450.814 105.431 454.89 111.583 459.735C114.659 462.168 117.548 464.809 120.229 467.616L122.203 469.758C122.847 470.486 123.471 471.234 124.094 471.983C125.341 473.48 126.484 475.019 127.586 476.682C127.96 477.244 127.814 477.992 127.253 478.366C126.796 478.678 126.214 478.616 125.819 478.304L125.757 478.283Z" fill="#390075"/>
<path d="M444.233 503.278C444.129 522.325 436.834 536.382 427.752 546.509C414.534 561.251 395.414 569.361 375.629 569.361H72.2411C52.4559 569.361 33.3357 561.272 20.1178 546.509C11.0357 536.382 3.72013 522.325 3.637 503.278C3.36682 452.457 46.6574 459.985 58.4829 481.111C63.8448 490.677 70.6408 507.062 70.6408 507.062H377.271C377.271 507.062 379.432 501.843 382.3 495.563C382.3 495.542 382.321 495.542 382.321 495.522C384.524 490.697 387.101 485.27 389.429 481.111C401.212 460.005 444.503 452.478 444.233 503.278Z" fill="white"/>
<path d="M444.233 503.278C444.129 522.325 436.834 536.382 427.752 546.508C414.534 561.251 395.414 569.361 375.629 569.361H336.869C362.806 558.777 381.656 497.58 382.279 495.584C382.279 495.563 382.3 495.563 382.3 495.542C384.503 490.718 387.08 485.291 389.408 481.132C401.212 460.005 444.503 452.478 444.233 503.278Z" fill="#FEC2E6"/>
<path d="M3.63696 503.278C3.74087 522.325 11.0356 536.382 20.1177 546.508C33.3356 561.251 52.4558 569.361 72.241 569.361H111.001C85.064 558.777 66.214 497.58 65.5905 495.584C65.5905 495.563 65.5698 495.563 65.5698 495.542C63.3668 490.718 60.7897 485.291 58.462 481.132C46.6366 460.005 3.346 452.478 3.63696 503.278Z" fill="#FEC2E6"/>
<g opacity="0.7">
<g opacity="0.7">
<g opacity="0.7">
<path opacity="0.7" d="M5.94386 497.996C5.94386 497.996 13.3841 479.801 27.3917 477.493C41.3993 475.185 56.1759 487.141 65.4451 500.138C65.4451 500.138 53.4742 466.909 37.6792 464.954C21.8635 462.979 2.43156 479.801 5.94386 497.996Z" fill="white"/>
</g>
</g>
</g>
<g opacity="0.7">
<g opacity="0.7">
<g opacity="0.7">
<path opacity="0.7" d="M442.3 497.996C442.3 497.996 434.86 479.801 420.852 477.493C406.845 475.185 392.068 487.141 382.799 500.138C382.799 500.138 394.77 466.909 410.565 464.954C426.401 462.979 445.812 479.801 442.3 497.996Z" fill="white"/>
</g>
</g>
</g>
<path d="M376.127 506.605C377.229 502.758 378.559 499.015 379.91 495.272C381.302 491.529 382.778 487.828 384.42 484.168C384.815 483.253 385.251 482.338 385.708 481.423C386.166 480.508 386.581 479.614 387.163 478.637C388.223 476.682 389.553 474.915 390.987 473.251C393.938 470.007 397.43 467.304 401.295 465.287C405.182 463.291 409.401 461.898 413.807 461.336C418.213 460.837 422.868 461.17 427.232 462.729C431.576 464.31 435.504 467.075 438.497 470.506C441.51 473.937 443.589 477.971 444.96 482.068C446.353 486.164 447.101 490.365 447.537 494.523C447.683 496.603 447.87 498.682 447.87 500.741C447.87 501.781 447.932 502.8 447.891 503.839L447.787 506.958C447.309 515.255 445.417 523.552 442.009 531.204C435.192 546.529 422.598 558.923 407.51 565.951C400.007 569.528 391.86 571.69 383.63 572.626C379.515 573.063 375.275 573.083 371.41 573.063H359.564H312.158H217.388V565.805H272.276V573.063H167.011H114.368H88.0568H74.9013C73.7998 573.063 72.7399 573.083 71.576 573.042C70.433 573 69.2691 573 68.1261 572.938L64.6761 572.667L61.247 572.231C52.1441 570.879 43.249 567.885 35.2269 563.331C27.2047 558.777 20.0762 552.601 14.3609 545.344C8.64565 538.087 4.38517 529.561 2.11985 520.558C0.997575 516.066 0.332525 511.45 0.0831313 506.854L0 503.361L0.0623485 499.93C0.0623485 498.786 0.166263 497.643 0.249394 496.478C0.353308 495.334 0.394874 494.17 0.581919 493.026C1.14306 488.431 2.22376 483.794 4.13578 479.344C6.00623 474.894 8.93661 470.694 12.823 467.429C13.0724 467.221 13.301 467.013 13.5504 466.805L14.3401 466.264C14.8597 465.911 15.3793 465.537 15.9196 465.183C17.0419 464.58 18.1226 463.894 19.328 463.457C21.6557 462.397 24.1496 461.835 26.6228 461.461C29.1167 461.087 31.6107 461.149 34.0838 461.336C36.5362 461.607 38.947 462.106 41.2747 462.854C43.5816 463.624 45.8469 464.559 47.9667 465.765C49.0475 466.327 50.045 467.013 51.0842 467.678C51.583 468.032 52.061 468.406 52.539 468.78C53.0378 469.134 53.5158 469.529 53.9522 469.945C55.8434 471.484 57.4853 473.355 59.0024 475.31C60.4988 477.264 61.725 479.573 62.6602 481.527C63.6578 483.565 64.5514 485.603 65.4035 487.661C66.2556 489.72 67.0662 491.779 67.8143 493.879C69.3107 498.059 70.6824 502.259 71.7423 506.605C71.9086 507.27 71.4929 507.915 70.8486 508.081C70.3291 508.206 69.7887 507.977 69.5185 507.541C64.884 500.034 60.8105 492.236 56.5085 484.834C55.9681 483.939 55.407 482.941 54.8874 482.213C54.3886 481.402 53.7859 480.654 53.204 479.905C51.9571 478.45 50.6062 477.057 49.0682 475.871C46.0547 473.418 42.5424 471.525 38.8847 470.257C37.035 469.633 35.1437 469.217 33.2525 468.947C31.3613 468.76 29.4493 468.656 27.5788 468.905C25.7291 469.134 23.9002 469.55 22.2168 470.278C21.344 470.569 20.575 471.089 19.7437 471.484C19.3488 471.733 18.9747 472.004 18.6006 472.253L18.0187 472.627C17.8317 472.773 17.6654 472.919 17.4784 473.064C14.6103 475.414 12.3658 478.595 10.8278 482.234C9.26914 485.852 8.29235 489.845 7.81434 493.962C7.62729 494.981 7.60651 496.021 7.5026 497.06C7.41947 498.1 7.31555 499.14 7.33634 500.179L7.27399 503.319L7.35712 506.438C7.56495 510.597 8.16765 514.715 9.16522 518.728C11.1812 526.754 14.9428 534.282 20.0762 540.811C25.2303 547.32 31.5899 552.851 38.8223 556.968C46.0547 561.064 54.0769 563.788 62.3069 564.995L65.4035 565.39L68.521 565.618L71.6384 565.701C72.6775 565.743 73.8206 565.701 74.9013 565.722H88.0568H114.368H166.99H272.255V572.979H217.388V565.722H312.199H359.605H371.451C375.483 565.743 379.162 565.722 382.903 565.327C390.343 564.495 397.7 562.541 404.475 559.297C411.271 556.136 417.464 551.749 422.764 546.488C428.043 541.185 432.407 534.968 435.421 528.168C438.476 521.369 440.076 513.987 440.45 506.501L440.513 503.694C440.533 502.758 440.471 501.801 440.471 500.866C440.471 498.973 440.263 497.123 440.097 495.251C439.64 491.571 438.933 487.932 437.728 484.563C436.522 481.195 434.86 478.075 432.657 475.58C430.454 473.064 427.71 471.172 424.614 470.049C421.496 468.988 418.109 468.593 414.659 468.947C411.23 469.342 407.801 470.298 404.6 471.837C401.441 473.418 398.469 475.435 395.954 477.93C394.77 479.219 393.564 480.508 392.629 481.964C392.13 482.629 391.652 483.523 391.153 484.334L389.699 486.851C385.854 493.629 382.196 500.637 378.33 507.541C377.998 508.123 377.271 508.331 376.668 508.019C376.211 507.728 375.982 507.145 376.127 506.605Z" fill="#390075"/>
<g opacity="0.3">
<g opacity="0.3">
<g opacity="0.3">
<path opacity="0.3" d="M442.716 518.437C440.928 531.474 434.797 541.476 427.461 549.004C414.804 562.021 396.536 569.174 377.582 569.174H68.7288C49.7749 569.174 31.5068 562.021 18.85 549.004C11.5137 541.455 5.40356 531.454 3.59546 518.437C5.54904 517.501 6.65053 516.981 6.65053 516.981C6.65053 516.981 16.1067 544.762 39.4043 546.82C64.3228 549.045 77.1459 525.548 77.1459 525.548C77.1459 525.548 88.7219 553.1 114.68 553.1C123.014 553.1 224.434 552.102 224.434 552.102C259.848 550.21 325.875 553.1 331.631 553.1C361.018 553.1 371.888 523.094 371.888 523.094C371.888 523.094 381.157 543.909 399.986 543.909C434.465 543.909 439.66 517.002 439.66 517.002C439.66 517.002 440.783 517.501 442.716 518.437Z" fill="#390075"/>
</g>
</g>
</g>
<path d="M222.127 91.4106C231.957 39.8206 261.385 2.07944 269.699 3.65978C278.012 5.24013 291.479 51.1741 281.649 102.764" fill="#FDD800"/>
<g opacity="0.35">
<g opacity="0.35">
<g opacity="0.35">
<path opacity="0.35" d="M262.986 20.6484C257.915 21.7297 240.416 47.1608 244.593 58.7847C245.279 60.7185 247.897 59.2006 250.849 56.6429C257.686 50.6958 262.279 42.5653 264.212 33.7071C265.688 26.8866 266.415 19.9207 262.986 20.6484Z" fill="white"/>
</g>
</g>
</g>
<g opacity="0.3">
<g opacity="0.3">
<g opacity="0.3">
<g opacity="0.3">
<path opacity="0.3" d="M281.649 102.785L222.127 91.4314C223.852 82.3652 226.18 73.7356 228.902 65.6884L245.134 68.7867C259.931 71.6147 273.918 60.7186 274.562 45.6637C275.227 30.5049 274.105 16.6145 272.089 5.21936C280.298 13.7241 290.586 55.9152 281.649 102.785Z" fill="#6B184E"/>
</g>
</g>
</g>
<g opacity="0.3">
<g opacity="0.3">
<g opacity="0.3">
<path opacity="0.3" d="M282.064 103.388L221.524 91.8265L221.628 91.3066C223.27 82.6771 225.556 74.006 228.424 65.4804L228.57 65.0438L245.258 68.2253C252.2 69.5561 259.39 67.7886 264.939 63.401C270.426 59.0551 273.772 52.5674 274.063 45.5806C274.666 31.7318 273.814 17.7998 271.611 5.26098L271.32 3.57666L272.504 4.80351C280.547 13.1835 291.23 55.3746 282.189 102.847L282.064 103.388ZM222.73 91.0155L281.233 102.182C289.609 57.6411 280.631 18.0077 272.962 7.07005C274.936 19.1722 275.684 32.4596 275.102 45.6637C274.791 52.9417 271.32 59.7205 265.584 64.2536C259.785 68.8283 252.304 70.6789 245.05 69.2858L229.255 66.2706C226.533 74.4219 224.33 82.7395 222.73 91.0155Z" fill="#390075"/>
</g>
</g>
</g>
</g>
<path d="M281.649 106.403C281.42 106.403 281.192 106.382 280.963 106.341C278.989 105.966 277.7 104.074 278.074 102.099C287.863 50.7167 274.312 10.4178 269.013 7.27795C262.923 8.23447 235.49 40.7355 225.681 92.0968C225.307 94.0722 223.415 95.3614 221.441 94.9871C219.467 94.6128 218.178 92.6998 218.552 90.7451C224.475 59.7205 236.654 36.6807 243.388 25.7014C247.357 19.2553 261.032 -1.68428 270.384 0.104007C279.758 1.89229 284.745 26.3877 286.055 33.8527C288.278 46.5371 291.126 72.4464 285.203 103.471C284.87 105.197 283.353 106.403 281.649 106.403Z" fill="#390075"/>
<path d="M233.848 79.7243C231.167 79.7243 228.382 79.6203 225.514 79.3916C223.519 79.2252 222.023 77.4785 222.189 75.4823C222.355 73.4861 224.101 71.9889 226.096 72.1553C261.864 74.9625 282.397 57.142 282.605 56.9548C284.101 55.624 286.387 55.7488 287.717 57.246C289.047 58.7431 288.923 61.0305 287.426 62.3613C286.574 63.1307 267.641 79.7243 233.848 79.7243Z" fill="#390075"/>
<path d="M238.088 49.4482C237.298 49.4482 236.799 49.4274 236.654 49.4274C234.659 49.3442 233.1 47.6599 233.162 45.6637C233.246 43.6675 234.887 42.1079 236.924 42.1703C237.215 42.1911 264.066 42.9813 279.134 27.8432C280.547 26.4292 282.854 26.4084 284.267 27.8432C285.681 29.2572 285.701 31.5653 284.267 32.9793C268.888 48.4293 244.323 49.4482 238.088 49.4482Z" fill="#390075"/>
<g opacity="0.3">
<g opacity="0.3">
<g opacity="0.3">
<g opacity="0.3">
<path opacity="0.3" d="M335.996 356.201C301.684 399.391 226.928 394.691 199.661 389.015C180.977 385.771 142.03 374.001 113.994 350.192C120.146 338.277 124.697 331.207 124.697 331.207H322.238C322.259 331.207 328.389 340.689 335.996 356.201Z" fill="#6B184E"/>
</g>
</g>
</g>
<g opacity="0.3">
<g opacity="0.3">
<g opacity="0.3">
<path opacity="0.3" d="M238.566 393.152C223.166 393.152 209.283 391.531 199.557 389.513C180.873 386.27 141.718 374.396 113.661 350.566L113.35 350.296L113.537 349.922C119.626 338.132 124.24 330.978 124.281 330.895L124.427 330.667H322.549L322.695 330.895C322.757 330.999 328.93 340.585 336.474 355.952L336.619 356.243L336.412 356.493C321.406 375.374 297.465 387.122 265.272 391.406C256.19 392.653 247.129 393.152 238.566 393.152ZM114.659 350.047C142.529 373.544 181.226 385.272 199.744 388.495C232.31 395.273 302.473 397.186 335.393 356.139C328.597 342.353 322.965 333.287 321.968 331.727H124.988C124.157 333.037 120 339.712 114.659 350.047Z" fill="#390075"/>
</g>
</g>
</g>
</g>
<path d="M352.788 308.209C352.393 309.207 351.978 310.205 351.541 311.203C350.752 313.033 349.92 314.863 349.027 316.693C346.263 322.411 343.02 328.067 339.238 333.619C306.651 381.529 227.821 376.704 199.64 370.841C171.271 365.912 96.2036 341.355 83.5469 284.795C82.1129 278.432 81.1984 272.152 80.7204 265.997C80.6165 264.812 80.5542 263.627 80.4918 262.421C80.3879 260.487 80.3463 258.594 80.3256 256.702C79.7021 182.655 140.513 128.299 140.513 128.299C140.513 128.299 105.826 97.0873 129.456 70.4085C147.911 49.5729 192.781 67.435 197.873 104.947L299.169 124.286C317.707 91.2857 366.006 91.2026 375.504 117.382C387.641 150.881 343.914 167.142 343.914 167.142C343.914 167.142 380.263 239.713 352.788 308.209Z" fill="white"/>
<path d="M344.811 146.48C354.293 142.93 359.556 133.573 356.567 125.582C353.578 117.59 343.468 113.989 333.987 117.539C324.505 121.09 319.242 130.446 322.231 138.438C325.22 146.43 335.329 150.031 344.811 146.48Z" fill="#F883A0"/>
<path d="M170.843 109.514C176.563 103.185 175.114 92.5464 167.605 85.7518C160.096 78.9572 149.372 78.5796 143.651 84.9083C137.931 91.2371 139.38 101.876 146.889 108.67C154.397 115.465 165.122 115.842 170.843 109.514Z" fill="#F883A0"/>
<path d="M349.027 316.693C346.263 322.411 343.02 328.067 339.238 333.619C306.65 381.529 227.821 376.705 199.64 370.841C171.271 365.912 96.2037 341.355 83.5469 284.795C82.1129 278.432 81.1985 272.152 80.7205 265.997C116.01 253.77 166.699 251.337 221.004 261.693C274.79 271.986 320.679 292.634 349.027 316.693Z" fill="#FFEBF6"/>
<path d="M238.524 378.118C222.979 378.118 208.971 376.497 198.975 374.417C182.743 371.589 157.139 363.771 133.904 350.338C104.309 333.203 85.6668 310.829 80.0347 285.606C69.6017 238.986 85.9785 197.917 101.545 171.696C114.742 149.447 129.311 134.121 135.296 128.237C132.116 124.889 126.858 118.734 122.889 111.019C114.659 95.0079 115.989 80.1194 126.734 67.9965C135.13 58.5144 148.888 55.4993 163.519 59.9492C178.857 64.6071 198.019 79.0797 201.469 104.469C201.739 106.465 200.346 108.295 198.372 108.566C196.398 108.836 194.548 107.443 194.299 105.467C191.493 84.902 175.781 71.2819 161.441 66.9152C149.595 63.3178 138.663 65.522 132.2 72.8415C111.23 96.4635 141.635 124.411 142.944 125.596L145.937 128.299L142.923 131.002C142.736 131.169 123.866 148.22 107.655 175.585C92.8161 200.642 77.2082 239.797 87.1008 284.005C99.238 338.277 172.913 362.502 200.263 367.264L200.388 367.285C227.572 372.941 304.988 377.536 336.245 331.561C361.725 294.09 361.621 251.94 357.049 223.182C352.061 191.762 340.776 168.951 340.672 168.723L338.864 165.105L342.646 163.691C344.288 163.067 382.84 148.282 372.075 118.588C368.75 109.418 359.397 103.326 347.052 102.307C332.13 101.08 312.49 107.942 302.307 126.033C301.33 127.779 299.106 128.403 297.361 127.426C295.615 126.448 294.991 124.224 295.968 122.477C308.521 100.144 331.631 93.7603 347.634 95.0703C362.868 96.3179 374.548 104.199 378.871 116.114C384.399 131.335 380.159 145.662 366.609 157.515C360.083 163.233 352.934 167.018 348.736 168.951C352.144 176.624 360.042 196.254 364.136 221.789C368.957 251.92 369.061 296.107 342.21 335.615C327.683 356.992 302.12 370.924 268.306 375.956C258.227 377.495 248.085 378.118 238.524 378.118Z" fill="#390075"/>
<path d="M235.248 291.258C237.789 288.967 238.815 285.962 237.539 284.545C236.264 283.129 233.17 283.838 230.629 286.129C228.088 288.42 227.062 291.425 228.337 292.841C229.613 294.258 232.707 293.549 235.248 291.258Z" fill="#390075"/>
<path d="M210.003 289.357C211.71 288.51 211.862 285.338 210.342 282.272C208.823 279.206 206.207 277.407 204.5 278.254C202.793 279.101 202.641 282.273 204.161 285.339C205.68 288.405 208.296 290.204 210.003 289.357Z" fill="#390075"/>
<path d="M332.669 290.233C334.317 281.591 325.05 272.562 311.971 270.066C298.893 267.57 286.954 272.551 285.307 281.192C283.659 289.833 292.926 298.862 306.005 301.359C319.084 303.855 331.022 298.874 332.669 290.233Z" fill="#FDC1E5"/>
<path d="M153.82 256.266C155.449 247.727 146.285 238.803 133.353 236.334C120.42 233.866 108.617 238.787 106.988 247.327C105.36 255.867 114.524 264.791 127.456 267.259C140.388 269.728 152.192 264.806 153.82 256.266Z" fill="#FDC1E5"/>
<path d="M140.513 131.938C139.494 131.938 138.497 131.522 137.769 130.69C136.46 129.172 136.605 126.885 138.123 125.575C138.538 125.222 148.202 116.8 155.061 112.371C156.744 111.29 158.988 111.768 160.069 113.452C161.15 115.137 160.672 117.382 158.988 118.464C152.587 122.602 142.986 130.961 142.882 131.044C142.196 131.626 141.365 131.938 140.513 131.938Z" fill="#390075"/>
<path d="M216.224 78.2479C194.299 72.2384 171.292 83.4464 163.083 104.636C159.758 113.223 158.407 123.558 162.085 135.099C170.98 163.067 202.155 169.534 236.093 168.286C236.093 168.286 213.523 102.847 227.738 82.5523C227.717 82.5731 223.249 80.1818 216.224 78.2479Z" fill="#FEF26B"/>
<g opacity="0.6">
<g opacity="0.6">
<g opacity="0.6">
<path opacity="0.6" d="M219.259 93.1364C219.259 93.1364 214.79 90.7451 207.766 88.8112C192.553 84.6316 176.799 88.7696 165.847 98.7716C175.719 81.4293 196.418 72.7998 216.224 78.2479C223.228 80.1817 227.717 82.573 227.717 82.573C213.481 102.868 208.576 108.399 219.259 93.1364Z" fill="white"/>
</g>
</g>
</g>
<g opacity="0.3">
<g opacity="0.3">
<g opacity="0.3">
<path opacity="0.3" d="M236.072 168.307C202.155 169.554 170.98 163.067 162.085 135.12C158.407 123.579 159.758 113.244 163.083 104.656C165.036 99.6241 167.821 95.1742 171.23 91.3689C169.068 99.0003 168.632 107.796 171.687 117.465C179.252 141.254 202.965 149.488 230.772 150.673C233.557 161.05 236.072 168.307 236.072 168.307Z" fill="#390075"/>
</g>
</g>
</g>
<path d="M228.341 172.071C212.234 172.071 199.12 170.095 188.417 166.04C173.121 160.26 163.083 150.237 158.635 136.201C155.144 125.222 155.497 114.159 159.716 103.326C168.569 80.4729 193.28 68.1836 217.18 74.7545C224.496 76.7716 229.234 79.2668 229.421 79.3708L233.038 81.3047L230.689 84.6525C219.903 100.061 233.391 149.405 239.501 167.122L241.101 171.759L236.217 171.946C233.495 172.029 230.876 172.071 228.341 172.071ZM204.212 80.265C187.773 80.265 172.601 90.1213 166.449 105.966C162.854 115.22 162.542 124.66 165.514 134.018C172.269 155.227 193.779 165.333 231.063 164.813C226.159 149.488 213.356 105.072 222.605 84.2782C220.755 83.5296 218.24 82.6147 215.227 81.7829C211.569 80.7432 207.87 80.265 204.212 80.265Z" fill="#390075"/>
<path d="M226.553 73.0495C217.804 75.2744 210.717 81.679 207.662 90.1629C202.612 104.199 197.748 128.112 210.883 150.403C231.167 184.838 287.114 171.738 287.114 171.738C287.114 171.738 271.798 106.59 277.534 91.3274C277.534 91.3274 261.967 64.0457 226.553 73.0495Z" fill="#FD6CCB"/>
<path d="M263.381 174.649C245.445 174.649 222.044 170.428 210.426 150.694C196.876 127.717 202.57 102.806 207.163 89.9966C210.26 81.3463 217.471 74.817 226.429 72.5504C261.822 63.5674 277.825 90.8076 277.991 91.0779C278.074 91.2234 278.074 91.369 278.032 91.5146C272.4 106.465 287.468 170.969 287.634 171.634C287.676 171.779 287.634 171.904 287.572 172.029C287.489 172.154 287.385 172.237 287.239 172.258C286.99 172.32 276.682 174.649 263.381 174.649ZM226.553 73.0495L226.678 73.5485C218.053 75.7319 211.133 82.0117 208.14 90.3293C202.612 105.758 198.663 128.653 211.32 150.133C230.17 182.114 280.797 172.528 286.47 171.343C284.932 164.751 271.652 106.465 276.952 91.3898C275.414 88.9153 259.681 65.1893 226.678 73.5693L226.553 73.0495Z" fill="#102770"/>
<g opacity="0.6">
<g opacity="0.6">
<g opacity="0.6">
<path opacity="0.6" d="M272.213 100.248C272.213 100.248 256.647 72.987 221.233 81.97C215.913 83.3216 211.195 86.212 207.641 90.1837C207.641 90.1837 207.662 90.1629 207.662 90.1421C210.717 81.6373 217.825 75.2328 226.553 73.0286C261.967 64.0248 277.534 91.3065 277.534 91.3065C271.777 106.59 267.683 112.288 272.213 100.248Z" fill="white"/>
</g>
</g>
</g>
<g opacity="0.3">
<g opacity="0.3">
<g opacity="0.3">
<path opacity="0.3" d="M287.094 171.738C287.094 171.738 231.167 184.838 210.863 150.403C197.728 128.112 202.612 104.199 207.641 90.1629C209.179 85.9001 211.735 82.1572 214.998 79.2252C210.8 93.5315 208.327 114.513 219.945 134.205C234.264 158.513 266.332 159.137 283.977 157.39C285.743 165.936 287.094 171.738 287.094 171.738Z" fill="#390075"/>
</g>
</g>
</g>
<path d="M262.986 177.893C244.385 177.893 220.173 173.339 207.745 152.254C193.55 128.174 199.453 102.244 204.233 88.9361C207.683 79.3085 215.684 72.0514 225.66 69.5353C263.318 59.97 280.506 89.248 280.672 89.5391L281.524 91.0155L280.921 92.6166C276.536 104.282 286.45 153.106 290.627 170.927L291.458 174.462L287.925 175.294C286.928 175.522 276.432 177.893 262.986 177.893ZM227.447 76.5637C219.841 78.4975 213.71 84.0495 211.07 91.3898C205.75 106.195 201.947 128.112 214.001 148.573C229.879 175.522 270.468 170.968 282.729 168.889C279.487 154.5 269.615 108.108 273.585 91.8888C270.135 86.8983 255.774 69.3689 227.447 76.5637Z" fill="#390075"/>
<path d="M284.704 84.4237C276.349 82.4275 267.766 86.6903 264.316 94.5712C260.222 103.908 256.19 118.235 259.141 134.974C263.547 159.948 279.986 170.802 293.952 175.231C328.036 186.023 345.41 148.116 345.41 148.116C345.41 148.116 323.214 141.275 319.099 115.136C317.831 107.068 313.446 99.8113 306.837 95.0079C301.164 90.8283 293.599 86.5447 284.704 84.4237Z" fill="#39D5FF"/>
<path d="M305.819 177.664C302.057 177.664 298.046 177.082 293.786 175.73C280.256 171.447 263.173 160.904 258.601 135.057C255.608 118.089 259.785 103.554 263.817 94.3633C267.371 86.2536 276.204 81.8661 284.808 83.9247C292.435 85.7546 299.958 89.3311 307.149 94.5712C313.883 99.4994 318.33 106.757 319.619 115.053C323.609 140.568 345.348 147.554 345.556 147.617C345.701 147.658 345.826 147.762 345.888 147.908C345.951 148.053 345.951 148.199 345.888 148.345C345.743 148.656 332.109 177.664 305.819 177.664ZM280.568 84.4445C273.855 84.4445 267.599 88.3746 264.794 94.7584C260.824 103.825 256.709 118.152 259.64 134.849C264.108 160.176 280.838 170.49 294.098 174.691C325.168 184.526 342.418 152.857 344.662 148.386C341.108 147.076 322.3 138.987 318.58 115.178C317.333 107.172 313.051 100.144 306.526 95.3822C299.46 90.2253 292.061 86.6903 284.558 84.902C283.249 84.6109 281.898 84.4445 280.568 84.4445Z" fill="#102770"/>
<g opacity="0.6">
<g opacity="0.6">
<g opacity="0.6">
<path opacity="0.6" d="M341.628 146.494C335.497 144.955 319.307 139.112 312.449 119.025C309.81 111.29 304.24 104.906 296.903 101.308C290.585 98.1894 282.397 95.2782 273.273 94.7168C269.678 94.488 266.228 95.3614 263.277 97.0873C263.63 96.2139 263.963 95.3822 264.316 94.5712C267.766 86.6903 276.349 82.4275 284.704 84.4237C293.599 86.5447 301.164 90.8283 306.838 94.9871C313.426 99.8113 317.832 107.048 319.1 115.116C322.134 134.475 335.102 143.229 341.628 146.494Z" fill="white"/>
</g>
</g>
</g>
<path d="M345.41 148.095C345.41 148.095 343.685 151.838 340.277 156.641C342.376 152.316 343.498 148.823 343.872 147.513C344.849 147.929 345.41 148.095 345.41 148.095Z" fill="#B5E5FB"/>
<path d="M340.713 156.953L339.82 156.433C341.898 152.129 343.02 148.677 343.394 147.388L343.561 146.827L344.101 147.034C345.036 147.409 345.577 147.596 345.597 147.596L346.159 147.762L345.909 148.303C345.868 148.365 344.101 152.171 340.713 156.953ZM344.205 148.22C343.997 148.906 343.665 149.904 343.207 151.131C343.914 149.904 344.413 148.948 344.683 148.407C344.558 148.345 344.392 148.282 344.205 148.22Z" fill="#390075"/>
<path d="M344.039 146.993C344.039 146.993 343.976 147.18 343.893 147.534C343.291 147.284 342.522 146.951 341.628 146.515C343.124 146.868 344.039 146.993 344.039 146.993Z" fill="#B5E5FB"/>
<path d="M344.226 148.241L343.685 148.012C343.166 147.783 342.355 147.45 341.399 146.972L337.18 144.872L341.753 145.995C343.207 146.348 344.101 146.473 344.101 146.473L344.704 146.556L344.226 148.241Z" fill="#390075"/>
<g opacity="0.3">
<g opacity="0.3">
<g opacity="0.3">
<path opacity="0.3" d="M345.41 148.095C345.41 148.095 328.057 186.003 293.952 175.211C279.986 170.802 263.526 159.927 259.141 134.953C256.19 118.235 260.242 103.887 264.316 94.5505C264.96 93.0741 265.771 91.7433 266.748 90.5372C264.856 98.4598 264.004 107.921 265.833 118.297C270.239 143.271 286.678 154.125 300.644 158.554C319.453 164.502 333.149 155.664 341.67 146.515C343.935 147.638 345.41 148.095 345.41 148.095Z" fill="#390075"/>
</g>
</g>
</g>
<path d="M305.902 180.783C301.829 180.783 297.485 180.139 292.872 178.683C281.129 174.961 260.658 164.418 255.566 135.598C252.449 117.86 256.793 102.702 260.991 93.1156C265.147 83.6335 275.476 78.4974 285.535 80.8887C293.578 82.8018 301.455 86.5655 308.978 92.0551C316.398 97.4616 321.261 105.467 322.695 114.554C326.394 138.197 346.283 144.581 346.47 144.643L350.419 145.87L348.694 149.634C348.549 149.966 334.063 180.783 305.902 180.783ZM280.568 87.5636C275.061 87.5636 269.927 90.7867 267.641 96.0268C263.838 104.698 259.91 118.401 262.716 134.329C266.914 158.118 282.626 167.808 295.054 171.759C320.222 179.744 335.393 158.492 340.34 149.946C333.232 146.515 318.871 137.053 315.525 115.698C314.403 108.503 310.558 102.203 304.718 97.9398C297.984 93.0324 290.96 89.6638 283.873 87.9795C282.771 87.6884 281.649 87.5636 280.568 87.5636Z" fill="#390075"/>
<g opacity="0.3">
<g opacity="0.3">
<g opacity="0.3">
<path opacity="0.3" d="M352.788 306.13C352.394 307.128 351.978 308.126 351.541 309.124C350.752 310.975 349.92 312.805 349.027 314.635C346.283 320.353 343.021 326.009 339.238 331.561C306.651 379.47 227.821 374.646 199.64 368.782C171.77 363.916 98.7393 340.128 84.2537 285.585C106.096 330.542 169.131 350.754 194.59 355.204C222.771 361.068 301.6 365.892 334.188 317.982C337.97 312.43 341.212 306.774 343.977 301.056C344.87 299.226 345.701 297.396 346.491 295.546C346.928 294.547 347.343 293.549 347.738 292.551C366.297 246.285 355.74 198.146 346.907 171.78C355.012 191.284 375.275 250.09 352.788 306.13Z" fill="#390075"/>
</g>
</g>
</g>
<path d="M251.41 321.704C251.036 331.186 271.445 345.305 286.824 337.923C297.34 332.871 295.947 323.285 291.5 319.999C285.785 315.757 275.684 318.71 268.119 311.37C268.119 311.349 251.638 315.632 251.41 321.704Z" fill="#FF4F90"/>
<g opacity="0.6">
<g opacity="0.6">
<g opacity="0.6">
<path opacity="0.6" d="M293.079 332.787C293.308 329.544 291.874 326.57 289.754 325.011C284.039 320.769 273.959 323.7 266.394 316.381C266.394 316.381 255.878 319.105 251.534 323.285C251.431 322.744 251.389 322.224 251.41 321.704C251.638 315.653 268.14 311.349 268.14 311.349C275.705 318.689 285.785 315.736 291.5 319.978C294.68 322.349 296.321 327.942 293.079 332.787Z" fill="white"/>
</g>
</g>
</g>
<g opacity="0.3">
<g opacity="0.3">
<g opacity="0.3">
<path opacity="0.3" d="M286.824 337.923C271.445 345.305 251.036 331.186 251.41 321.704C251.451 320.706 251.929 319.77 252.698 318.876C257.811 327.339 273.835 335.802 286.471 329.731C290.44 327.838 292.705 325.281 293.765 322.682C296.031 326.986 295.22 333.889 286.824 337.923Z" fill="#390075"/>
</g>
</g>
</g>
<path d="M277.513 343.101C270.634 343.101 263.963 340.502 259.099 337.321C252.22 332.808 248.085 326.778 248.292 321.6C248.604 313.823 262.944 309.498 267.35 308.355L269.054 307.918L270.322 309.145C273.959 312.68 278.303 313.366 282.896 314.094C286.554 314.676 290.336 315.258 293.391 317.525C296.571 319.874 298.358 324.158 297.943 328.4C297.652 331.415 296.01 337.029 288.216 340.772C284.704 342.394 281.088 343.101 277.513 343.101ZM254.527 321.808C254.444 324.158 256.896 328.379 262.529 332.08C268.493 336.011 277.659 338.859 285.473 335.096C289.214 333.307 291.417 330.708 291.687 327.755C291.916 325.343 290.814 323.368 289.629 322.474C287.821 321.122 285.078 320.706 281.898 320.207C277.492 319.521 272.089 318.668 267.329 314.801C260.721 316.776 254.59 320.082 254.527 321.808Z" fill="#390075"/>
<path d="M242.265 325.239C242.265 325.239 268.119 331.789 276.682 308.417L268.909 283.194L234.056 303.052L242.265 325.239Z" fill="#FFEBF6"/>
<path d="M242.39 324.74C246.131 323.389 249.332 323.014 252.511 322.64C254.091 322.453 255.67 322.349 257.229 322.099C258.788 321.85 260.305 321.413 261.697 320.748C263.09 320.103 264.399 319.271 265.563 318.315C266.706 317.338 267.807 316.319 268.847 315.237C269.886 314.135 270.904 312.992 271.964 311.786C273.107 310.621 274.312 309.415 276.183 308.271L276.204 308.251C276.515 308.063 276.91 308.167 277.077 308.459C277.097 308.5 277.139 308.563 277.139 308.625C277.742 310.746 277.555 312.784 276.91 314.655C276.287 316.527 275.165 318.211 273.938 319.771C272.65 321.309 271.112 322.64 269.449 323.763C267.787 324.886 265.979 325.759 264.17 326.529C262.342 327.277 260.513 327.943 258.621 328.442C256.751 328.961 254.839 329.336 252.906 329.398C249.082 329.46 245.196 328.65 242.078 325.78C241.829 325.551 241.829 325.177 242.037 324.948C242.099 324.886 242.182 324.823 242.265 324.803L242.39 324.74Z" fill="#390075"/>
<path d="M412.767 336.821C412.767 419.893 328.992 487.225 225.66 487.225C122.328 487.225 38.552 419.893 38.552 336.821H62.6809C62.6809 409.185 135.649 467.824 225.639 467.824C315.649 467.824 388.597 409.164 388.597 336.821H412.767Z" fill="#62A36D"/>
<path d="M225.66 487.744C122.203 487.744 38.0325 420.039 38.0325 336.821C38.0325 336.53 38.2611 336.302 38.552 336.302H62.6809C62.9719 336.302 63.2005 336.53 63.2005 336.821C63.2005 408.769 136.065 467.304 225.639 467.304C315.213 467.304 388.078 408.769 388.078 336.821C388.078 336.53 388.306 336.302 388.597 336.302H412.726C413.017 336.302 413.245 336.53 413.245 336.821C413.287 420.039 329.117 487.744 225.66 487.744ZM39.0924 337.341C39.4457 419.748 123.013 486.705 225.681 486.705C328.348 486.705 411.915 419.748 412.269 337.341H389.179C388.826 409.621 315.629 468.344 225.701 468.344C135.774 468.344 62.5562 409.621 62.2237 337.341H39.0924Z" fill="#390075"/>
<path d="M412.768 336.821C412.768 419.894 328.992 487.225 225.66 487.225C170.502 487.225 120.915 468.032 86.6645 437.506C66.3181 419.374 51.3752 397.207 43.9142 372.712C40.4227 361.213 38.5522 349.194 38.5522 336.821H62.6811C62.6811 342.332 63.1175 347.759 63.9281 353.103C67.3988 375.561 77.9149 396.251 93.6891 413.697C123.305 446.51 171.375 467.845 225.66 467.845C315.67 467.845 388.639 409.185 388.639 336.842H412.768V336.821Z" fill="#41B751"/>
<g opacity="0.2">
<g opacity="0.2">
<g opacity="0.2">
<path opacity="0.2" d="M401.088 336.821C400.153 414.071 321.988 476.453 225.66 476.453C129.352 476.453 51.1466 414.071 50.2322 336.821H62.7019C62.7019 409.164 135.65 467.824 225.66 467.824C315.67 467.824 388.639 409.164 388.639 336.821H401.088Z" fill="white"/>
</g>
</g>
</g>
<path d="M225.66 490.864C120.499 490.864 34.936 421.765 34.936 336.842C34.936 334.846 36.5571 333.203 38.573 333.203H62.7019C64.697 333.203 66.3389 334.825 66.3389 336.842C66.3389 407.085 137.811 464.206 225.681 464.206C313.551 464.206 385.023 407.064 385.023 336.842C385.023 334.846 386.644 333.203 388.66 333.203H412.789C414.784 333.203 416.426 334.825 416.426 336.842C416.405 421.765 330.842 490.864 225.66 490.864ZM42.2516 340.46C44.6624 419.727 126.027 483.606 225.681 483.606C325.334 483.606 406.678 419.727 409.11 340.46H392.234C389.844 413.032 316.065 471.463 225.702 471.463C135.338 471.463 61.5588 413.032 59.1688 340.46H42.2516Z" fill="#390075"/>
<path d="M388.639 336.821C388.639 409.185 315.67 467.824 225.681 467.824C135.67 467.824 62.7017 409.185 62.7017 336.821H110.627C112.684 350.566 124.531 361.088 138.85 361.088C142.071 361.088 145.168 360.547 148.057 359.57C150.135 373.273 161.981 383.795 176.259 383.795C180 383.795 183.595 383.067 186.879 381.757C191.077 392.279 201.365 399.702 213.377 399.702C225.618 399.702 236.072 391.988 240.104 381.154C245.819 390.116 255.836 396.084 267.267 396.084C285.016 396.084 299.418 381.674 299.418 363.916C299.418 362.855 299.376 361.816 299.273 360.776C303.18 362.772 307.606 363.916 312.283 363.916C327.558 363.916 340.028 351.918 340.797 336.821H388.639Z" fill="#FF0062"/>
<path d="M225.66 468.344C135.504 468.344 62.1614 409.351 62.1614 336.821V336.302H111.043L111.105 336.738C113.142 350.317 125.05 360.568 138.808 360.568C141.926 360.568 144.96 360.069 147.849 359.071L148.431 358.863L148.514 359.487C150.571 373.045 162.48 383.275 176.218 383.275C179.813 383.275 183.325 382.61 186.63 381.279L187.108 381.092L187.295 381.57C191.555 392.279 201.78 399.203 213.294 399.203C224.932 399.203 235.469 391.884 239.543 381.009L239.917 380.031L240.478 380.905C246.339 390.096 256.314 395.585 267.205 395.585C284.641 395.585 298.836 381.383 298.836 363.937C298.836 362.897 298.795 361.857 298.691 360.859L298.608 359.903L299.46 360.339C303.45 362.377 307.731 363.417 312.22 363.417C327.163 363.417 339.446 351.731 340.215 336.821L340.236 336.322H389.117V336.842C389.158 409.351 315.816 468.344 225.66 468.344ZM63.2213 337.341C63.5746 409.039 136.314 467.304 225.681 467.304C315.026 467.304 387.766 409.06 388.119 337.341H341.254C340.215 352.562 327.579 364.436 312.262 364.436C307.918 364.436 303.741 363.5 299.855 361.649C299.896 362.398 299.938 363.147 299.938 363.916C299.938 381.944 285.286 396.604 267.267 396.604C256.377 396.604 246.339 391.26 240.229 382.277C235.76 393.048 225.099 400.222 213.377 400.222C201.593 400.222 191.14 393.256 186.588 382.423C183.284 383.67 179.813 384.315 176.259 384.315C162.231 384.315 150.031 374.022 147.641 360.256C144.815 361.15 141.863 361.608 138.85 361.608C124.738 361.608 112.497 351.211 110.19 337.341H63.2213Z" fill="#000072"/>
<g opacity="0.2">
<g opacity="0.2">
<g opacity="0.2">
<path opacity="0.2" d="M340.776 336.821C340.007 351.897 327.537 363.916 312.262 363.916C307.586 363.916 303.159 362.793 299.252 360.776C299.356 361.816 299.397 362.856 299.397 363.916C299.397 381.674 284.995 396.084 267.246 396.084C255.816 396.084 245.798 390.137 240.083 381.154C236.03 391.988 225.597 399.703 213.356 399.703C201.344 399.703 191.056 392.279 186.858 381.757C183.575 383.067 179.979 383.795 176.238 383.795C161.96 383.795 150.114 373.273 148.036 359.57C145.147 360.568 142.05 361.088 138.829 361.088C124.531 361.088 112.684 350.566 110.606 336.821H90.135C105.41 385.542 160.298 421.62 225.66 421.62C291.001 421.62 345.888 385.563 361.164 336.821H340.776Z" fill="white"/>
</g>
</g>
</g>
<path d="M324.026 392.648C324.922 391.95 324.397 389.775 322.853 387.79C321.309 385.805 319.33 384.763 318.434 385.461C317.537 386.16 318.062 388.335 319.606 390.319C321.15 392.304 323.129 393.347 324.026 392.648Z" fill="#390075"/>
<path d="M333.997 420.281C334.894 419.582 334.369 417.407 332.825 415.423C331.28 413.438 329.302 412.395 328.405 413.094C327.508 413.792 328.033 415.967 329.577 417.952C331.122 419.936 333.1 420.979 333.997 420.281Z" fill="#390075"/>
<path d="M295.012 404.88C296.55 406.856 297.07 409.039 296.176 409.746C295.282 410.453 293.287 409.413 291.749 407.417C290.211 405.442 289.692 403.258 290.585 402.551C291.479 401.844 293.474 402.884 295.012 404.88Z" fill="#390075"/>
<path d="M284.143 438.754C284.787 441.187 284.413 443.391 283.312 443.682C282.21 443.973 280.797 442.247 280.153 439.814C279.508 437.382 279.882 435.177 280.984 434.886C282.085 434.595 283.499 436.321 284.143 438.754Z" fill="#390075"/>
<path d="M257.3 419.869C258.434 419.812 259.252 417.73 259.126 415.218C259.001 412.706 257.978 410.716 256.844 410.773C255.709 410.83 254.891 412.913 255.017 415.424C255.143 417.936 256.165 419.926 257.3 419.869Z" fill="#390075"/>
<path d="M242.639 449.255C242.764 451.771 241.954 453.85 240.811 453.913C239.667 453.975 238.649 451.979 238.524 449.463C238.4 446.947 239.21 444.867 240.353 444.805C241.476 444.763 242.515 446.739 242.639 449.255Z" fill="#390075"/>
<path d="M192.844 444.472C192.054 446.864 190.537 448.506 189.456 448.153C188.376 447.799 188.126 445.574 188.916 443.183C189.706 440.792 191.223 439.149 192.303 439.502C193.405 439.856 193.634 442.081 192.844 444.472Z" fill="#6B184E"/>
<path d="M189.768 448.714C189.602 448.714 189.456 448.693 189.29 448.631C187.897 448.173 187.523 445.741 188.438 442.996C188.833 441.769 189.435 440.688 190.142 439.939C190.932 439.087 191.763 438.754 192.49 438.983C193.218 439.232 193.696 440.001 193.82 441.145C193.924 442.164 193.758 443.391 193.363 444.618C192.532 447.071 191.056 448.714 189.768 448.714ZM192.012 439.96C191.721 439.96 191.306 440.209 190.911 440.646C190.329 441.291 189.789 442.226 189.435 443.328C188.646 445.699 189.02 447.446 189.643 447.633C190.267 447.841 191.597 446.656 192.366 444.285C192.719 443.204 192.864 442.122 192.781 441.249C192.698 440.542 192.47 440.064 192.158 439.96C192.096 439.981 192.054 439.96 192.012 439.96Z" fill="#390075"/>
<path d="M192.844 444.472C192.054 446.864 190.537 448.506 189.456 448.153C188.376 447.799 188.126 445.574 188.916 443.183C189.706 440.792 191.223 439.149 192.303 439.502C193.405 439.856 193.634 442.081 192.844 444.472Z" fill="#390075"/>
<path d="M132.474 416.53C134.11 414.62 134.736 412.472 133.873 411.732C133.01 410.992 130.984 411.941 129.349 413.851C127.714 415.762 127.088 417.91 127.951 418.649C128.814 419.389 130.839 418.44 132.474 416.53Z" fill="#390075"/>
<path d="M140.013 386.252C142.135 384.904 143.362 383.033 142.753 382.073C142.143 381.113 139.929 381.428 137.807 382.776C135.685 384.125 134.459 385.996 135.068 386.956C135.677 387.915 137.891 387.6 140.013 386.252Z" fill="#390075"/>
<path d="M214.854 417.063C215.302 414.588 214.76 412.417 213.641 412.214C212.523 412.012 211.253 413.853 210.805 416.328C210.356 418.803 210.899 420.974 212.017 421.176C213.136 421.379 214.406 419.537 214.854 417.063Z" fill="#390075"/>
<path d="M174.225 404.24C175.397 402.015 175.531 399.781 174.526 399.251C173.521 398.721 171.756 400.096 170.584 402.321C169.413 404.546 169.278 406.779 170.283 407.309C171.288 407.839 173.053 406.465 174.225 404.24Z" fill="#390075"/>
<path d="M225.66 471.463C133.8 471.463 59.0647 411.077 59.0647 336.842V333.203H113.744L114.202 336.302C116.01 348.383 126.609 357.47 138.829 357.47C141.593 357.47 144.295 357.033 146.872 356.139L150.987 354.725L151.631 359.03C153.46 371.09 164.039 380.177 176.259 380.177C179.46 380.177 182.577 379.574 185.528 378.389L188.895 377.037L190.246 380.406C194.049 389.929 203.11 396.064 213.377 396.064C223.727 396.064 233.1 389.555 236.716 379.886L239.273 373.066L243.18 379.2C248.459 387.497 257.478 392.446 267.288 392.446C283.02 392.446 295.823 379.636 295.823 363.895C295.823 362.96 295.781 362.024 295.698 361.109L295.054 354.496L300.956 357.512C304.489 359.321 308.313 360.236 312.303 360.236C325.584 360.236 336.515 349.859 337.18 336.593L337.347 333.141H392.296V336.78C392.255 411.056 317.541 471.463 225.66 471.463ZM66.3802 340.461C68.7911 409.018 139.307 464.206 225.66 464.206C311.992 464.206 382.529 409.018 384.939 340.461H344.039C341.586 355.91 328.244 367.555 312.262 367.555C309.124 367.555 305.965 367.077 302.972 366.183C301.808 384.877 286.242 399.723 267.267 399.723C257.042 399.723 247.503 395.44 240.769 388.016C234.991 397.374 224.621 403.342 213.356 403.342C201.282 403.342 190.474 396.729 184.946 386.249C182.141 387.039 179.231 387.434 176.259 387.434C161.857 387.434 149.221 377.64 145.334 364.082C143.214 364.519 141.032 364.748 138.85 364.748C124.115 364.748 111.23 354.517 107.676 340.481H66.3802V340.461Z" fill="#390075"/>
<g opacity="0.3">
<g opacity="0.3">
<g opacity="0.3">
<path opacity="0.3" d="M101.503 403.196C99.5081 405.088 96.4738 408.769 93.6889 413.697C90.1143 419.977 86.9345 428.294 86.6643 437.506C66.318 419.374 51.3751 397.207 43.9141 372.712C47.7381 363.999 54.7627 356.805 63.9487 353.103C65.3827 352.521 66.8791 352.022 68.3962 351.627C74.1739 350.13 80.3879 350.005 86.7683 352.334C113.038 361.982 114.804 390.699 101.503 403.196Z" fill="#390075"/>
</g>
</g>
</g>
<g opacity="0.3">
<g opacity="0.3">
<g opacity="0.3">
<path opacity="0.3" d="M348.86 403.196C350.855 405.088 353.89 408.769 356.675 413.697C360.249 419.977 363.429 428.294 363.699 437.506C384.046 419.374 398.988 397.207 406.449 372.712C402.625 363.999 395.601 356.805 386.415 353.103C384.981 352.521 383.485 352.022 381.967 351.627C376.19 350.13 369.976 350.005 363.595 352.334C337.326 361.982 335.58 390.699 348.86 403.196Z" fill="#390075"/>
</g>
</g>
</g>
<path d="M34.1254 389.742C29.0959 369.801 40.7759 349.09 60.665 343.912C66.4427 342.415 72.6567 342.29 79.0371 344.619C105.307 354.268 107.052 383.005 93.7721 395.502C88.805 400.181 77.6654 415.818 79.0371 434.158C79.0371 434.158 55.5525 430.02 43.9972 413.385C39.3003 406.606 36.2037 397.894 34.1254 389.742Z" fill="#FEC2E6"/>
<g opacity="0.7">
<g opacity="0.7">
<g opacity="0.7">
<path opacity="0.7" d="M101.462 380.614C99.7158 370.279 92.6912 360.132 79.0577 355.141C72.6982 352.791 66.4633 352.916 60.6857 354.434C45.7013 358.343 35.3722 371.049 33.3563 385.604C30.7585 367.015 42.1682 348.716 60.6857 343.892C66.4633 342.394 72.6774 342.249 79.0577 344.599C97.3466 351.336 103.768 367.326 101.462 380.614Z" fill="white"/>
</g>
</g>
</g>
<path d="M83.0065 438.525L78.4135 437.714C77.3952 437.527 53.2871 433.119 41.0044 415.444C36.6816 409.226 33.1901 400.888 30.5923 390.636C25.0225 368.574 38.0948 346.054 59.7298 340.398C66.8375 338.547 73.7374 338.818 80.2632 341.209C93.3148 345.992 102.251 355.89 104.787 368.345C107.073 379.595 103.81 391.011 96.2244 398.143C92.2757 401.865 81.3023 416.379 82.6117 433.867L83.0065 438.525ZM68.9158 346.449C66.5257 346.449 64.0734 346.782 61.6002 347.426C43.8101 352.064 33.0654 370.653 37.6584 388.869C40.0277 398.268 43.1659 405.816 46.9899 411.306C54.6588 422.327 68.3546 427.483 75.3377 429.5C75.8988 411.389 86.789 397.124 91.3197 392.861C96.9934 387.538 99.5081 378.493 97.7415 369.822C96.5569 363.979 92.3796 353.394 77.8316 348.05C74.9428 346.969 71.9708 346.449 68.9158 346.449Z" fill="#390075"/>
<path d="M413.744 389.742C418.774 369.801 407.094 349.09 387.205 343.912C381.427 342.415 375.213 342.29 368.833 344.619C342.563 354.268 340.817 383.005 354.098 395.502C359.065 400.181 370.204 415.818 368.833 434.158C368.833 434.158 392.317 430.02 403.873 413.385C408.569 406.606 411.687 397.894 413.744 389.742Z" fill="#FEC2E6"/>
<g opacity="0.7">
<g opacity="0.7">
<g opacity="0.7">
<path opacity="0.7" d="M413.745 389.742C413.641 390.158 413.537 390.553 413.433 390.948C413.952 373.835 402.896 357.803 385.729 353.332C379.952 351.835 373.738 351.689 367.357 354.039C355.594 358.364 348.736 366.516 345.972 375.311C345.992 363.292 352.892 350.442 368.833 344.599C375.213 342.249 381.448 342.394 387.205 343.892C407.073 349.09 418.774 369.801 413.745 389.742Z" fill="white"/>
</g>
</g>
</g>
<g opacity="0.3">
<g opacity="0.3">
<g opacity="0.3">
<path opacity="0.3" d="M413.744 389.742C411.687 397.894 408.569 406.606 403.873 413.364C392.317 429.999 368.812 434.137 368.812 434.137C370.184 415.797 359.044 400.16 354.077 395.502C347.364 389.181 344.475 378.701 346.678 368.636C349.193 374.729 353.578 379.782 359.065 382.548C362.868 384.461 370.204 389.805 376.107 397.935C383.027 407.459 397.035 408.062 404.434 398.871C407.51 395.045 410.211 390.595 411.874 385.563C413.1 381.841 413.869 377.786 414.285 373.648C415.241 378.846 415.116 384.315 413.744 389.742Z" fill="#390075"/>
</g>
</g>
</g>
<g opacity="0.3">
<g opacity="0.3">
<g opacity="0.3">
<path opacity="0.3" d="M34.1253 389.742C36.1828 397.894 39.3002 406.606 43.9971 413.364C55.5524 429.999 79.0577 434.137 79.0577 434.137C77.6861 415.797 88.8257 400.16 93.7928 395.502C100.506 389.181 103.394 378.701 101.191 368.636C98.6767 374.729 94.2915 379.782 88.8049 382.548C85.0016 384.461 77.6653 389.805 71.763 397.935C64.8423 407.459 50.8347 408.062 43.436 398.871C40.3601 395.045 37.6584 390.595 35.9957 385.563C34.7696 381.841 34.0006 377.786 33.5849 373.648C32.6289 378.846 32.7536 384.315 34.1253 389.742Z" fill="#390075"/>
</g>
</g>
</g>
<path d="M364.863 438.525L365.216 433.867C366.526 416.379 355.552 401.844 351.604 398.143C344.039 391.011 340.755 379.616 343.041 368.345C345.577 355.89 354.513 345.992 367.565 341.209C374.091 338.818 380.991 338.547 388.098 340.398C409.733 346.054 422.806 368.574 417.236 390.636C414.659 400.888 411.146 409.226 406.824 415.444C394.541 433.119 370.433 437.548 369.415 437.714L364.863 438.525ZM378.954 346.449C375.899 346.449 372.927 346.969 370.08 348.03C355.532 353.374 351.354 363.979 350.17 369.822C348.403 378.493 350.918 387.538 356.592 392.861C361.122 397.124 372.012 411.389 372.574 429.5C379.557 427.483 393.252 422.327 400.921 411.306C404.745 405.816 407.884 398.268 410.253 388.869C414.846 370.674 404.101 352.084 386.311 347.426C383.796 346.761 381.344 346.449 378.954 346.449Z" fill="#390075"/>
<path d="M158.012 187.437L162.75 192.636C163.914 193.925 163.831 195.901 162.543 197.065C161.254 198.229 159.28 198.146 158.116 196.857C157.825 196.524 157.596 196.15 157.471 195.755L155.206 189.101C154.915 188.227 155.372 187.271 156.245 186.98C156.89 186.751 157.575 186.959 158.012 187.437Z" fill="#390075"/>
<path d="M149.865 193.717L155.643 197.897C157.035 198.916 157.347 200.87 156.349 202.263C155.331 203.657 153.377 203.969 151.985 202.97C151.673 202.742 151.403 202.451 151.195 202.159L147.288 196.192C146.747 195.36 146.976 194.237 147.807 193.676C148.452 193.26 149.262 193.301 149.865 193.717Z" fill="#390075"/>
<path d="M143.027 204.073L149.138 205.466C150.842 205.861 151.902 207.545 151.507 209.23C151.112 210.935 149.429 211.995 147.745 211.6C147.288 211.496 146.852 211.288 146.498 210.997L141.573 207.129C140.824 206.526 140.7 205.445 141.282 204.696C141.697 204.156 142.404 203.927 143.027 204.073Z" fill="#390075"/>
<path d="M195.421 218.608C194.299 212.681 191.472 207.607 187.399 204.031C183.346 200.454 178.171 198.417 172.872 198.333C167.572 198.25 162.293 200.163 158.157 203.761C154.001 207.337 151.154 212.536 150.198 218.441V218.462C150.094 219.148 149.449 219.606 148.784 219.481C148.244 219.398 147.828 218.961 147.745 218.42C147.267 215.135 147.62 211.683 148.66 208.398C149.719 205.133 151.486 202.035 153.855 199.415C156.225 196.795 159.155 194.674 162.439 193.218C165.701 191.762 169.297 190.993 172.892 190.972C176.488 190.972 180.104 191.679 183.388 193.135C186.692 194.57 189.643 196.732 192.033 199.373C196.793 204.634 199.079 211.995 197.853 218.587C197.728 219.273 197.084 219.71 196.398 219.585C195.899 219.522 195.525 219.127 195.421 218.608Z" fill="#390075"/>
<path d="M317.998 222.33L313.571 227.778C312.47 229.129 310.495 229.337 309.165 228.235C307.835 227.133 307.607 225.158 308.708 223.827C308.978 223.494 309.332 223.203 309.706 223.016L315.941 219.793C316.751 219.377 317.769 219.689 318.206 220.521C318.497 221.124 318.393 221.831 317.998 222.33Z" fill="#390075"/>
<path d="M322.944 231.729L317.208 235.971C315.816 236.99 313.862 236.698 312.844 235.305C311.826 233.912 312.117 231.957 313.509 230.938C313.821 230.71 314.174 230.543 314.527 230.439L321.406 228.526C322.362 228.256 323.36 228.817 323.63 229.795C323.817 230.523 323.526 231.292 322.944 231.729Z" fill="#390075"/>
<path d="M324.503 243.976L318.559 245.91C316.897 246.451 315.13 245.536 314.59 243.872C314.049 242.209 314.964 240.441 316.626 239.901C317.084 239.755 317.562 239.713 317.998 239.776L324.191 240.587C325.147 240.712 325.812 241.585 325.688 242.541C325.605 243.228 325.127 243.768 324.503 243.976Z" fill="#390075"/>
<path d="M267.724 235.18C268.867 228.589 273.544 222.475 279.862 219.19C283 217.547 286.533 216.549 290.128 216.341C293.724 216.112 297.361 216.694 300.728 217.963C304.094 219.231 307.191 221.186 309.768 223.702C312.324 226.197 314.361 229.212 315.67 232.498C316.98 235.763 317.562 239.298 317.437 242.729C317.291 246.16 316.398 249.528 314.818 252.439C314.486 253.042 313.738 253.271 313.135 252.938C312.636 252.668 312.407 252.128 312.511 251.608V251.587C313.675 245.702 312.802 239.838 310.142 235.056C307.503 230.252 303.221 226.613 298.213 224.846C293.204 223.078 287.655 223.182 282.626 225.137C277.555 227.071 273.169 230.855 270.052 236.012V236.033C269.699 236.615 268.93 236.823 268.348 236.449C267.849 236.199 267.641 235.679 267.724 235.18Z" fill="#390075"/>
</g>
<defs>
<clipPath id="clip0_631_4761">
<rect width="540" height="573" fill="white"/>
</clipPath>
</defs>
</svg>
