<svg width="496" height="679" viewBox="0 0 496 679" fill="none" xmlns="http://www.w3.org/2000/svg">
<g clip-path="url(#clip0_631_6449)">
<path d="M266.584 675.699C387.419 675.699 485.375 610.662 485.375 530.435C485.375 450.208 387.419 385.171 266.584 385.171C145.75 385.171 47.7942 450.208 47.7942 530.435C47.7942 610.662 145.75 675.699 266.584 675.699Z" fill="white"/>
<path d="M266.584 676.235C145.653 676.235 47.2585 610.825 47.2585 530.435C47.2585 450.044 145.653 384.635 266.584 384.635C387.515 384.635 485.91 450.044 485.91 530.435C485.91 610.825 387.515 676.235 266.584 676.235ZM266.584 385.706C146.253 385.706 48.3297 450.623 48.3297 530.435C48.3297 610.247 146.231 675.163 266.584 675.163C386.937 675.163 484.839 610.247 484.839 530.435C484.839 450.623 386.937 385.706 266.584 385.706Z" fill="#000072"/>
<g opacity="0.2">
<path opacity="0.2" d="M266.584 675.699C387.419 675.699 485.374 610.662 485.374 530.435C485.374 450.208 387.419 385.171 266.584 385.171C145.75 385.171 47.7942 450.208 47.7942 530.435C47.7942 610.662 145.75 675.699 266.584 675.699Z" fill="#000072"/>
</g>
<path d="M266.584 679C207.501 679 151.909 663.698 110.07 635.901C67.8031 607.825 44.5166 570.384 44.5166 530.435C44.5166 490.486 67.8031 453.045 110.07 424.969C151.93 397.172 207.522 381.87 266.584 381.87C325.647 381.87 381.26 397.172 423.099 424.969C465.366 453.045 488.652 490.486 488.652 530.435C488.652 570.384 465.366 607.825 423.099 635.901C381.26 663.698 325.668 679 266.584 679ZM266.584 388.471C147.774 388.471 51.0934 452.166 51.0934 530.435C51.0934 608.704 147.753 672.399 266.584 672.399C385.416 672.399 482.075 608.704 482.075 530.435C482.075 452.166 385.416 388.471 266.584 388.471Z" fill="#000072"/>
<path d="M492.701 511.576C492.701 594.56 391.371 661.855 266.37 661.855C145.053 661.855 46.0374 598.482 40.2961 518.884C40.1248 516.463 40.0391 514.019 40.0391 511.576C40.0391 503.153 41.0888 494.881 43.1025 486.823C48.8652 463.741 62.5329 442.437 82.2204 424.178C123.266 386.115 190.448 361.297 266.37 361.297C310.565 361.297 351.804 369.698 386.637 384.25C450.37 410.826 492.701 457.911 492.701 511.576Z" fill="white"/>
<path d="M266.391 662.37C145.139 662.37 45.5875 599.36 39.782 518.905C39.6106 516.441 39.5249 513.976 39.5249 511.554C39.5249 503.217 40.5532 494.838 42.5884 486.672C48.2225 464.126 61.8045 442.373 81.8776 423.77C124.445 384.293 193.404 360.739 266.391 360.739C309.173 360.739 350.84 368.69 386.873 383.736C453.476 411.532 493.258 459.325 493.258 511.554C493.236 594.731 391.479 662.37 266.391 662.37ZM266.391 361.832C193.683 361.832 124.98 385.279 82.606 424.584C62.6829 443.059 49.208 464.619 43.6381 486.951C41.6243 495.031 40.596 503.325 40.596 511.576C40.596 513.955 40.6817 516.419 40.8531 518.841C43.6166 557.247 68.2956 593.102 110.306 619.763C152.53 646.553 207.95 661.319 266.391 661.319C390.9 661.319 492.187 594.152 492.187 511.576C492.187 459.797 452.662 412.368 386.466 384.743C350.54 369.762 309.023 361.832 266.391 361.832Z" fill="#000072"/>
<path d="M266.392 665.133C205.294 665.133 147.817 649.317 104.522 620.577C60.8192 591.558 36.7615 552.852 36.7615 511.575C36.7615 470.297 60.8192 431.592 104.522 402.573C147.795 373.833 205.294 358.017 266.392 358.017C327.489 358.017 384.966 373.833 428.262 402.573C471.964 431.592 496.022 470.297 496.022 511.575C496.022 552.852 471.942 591.558 428.24 620.577C384.966 649.317 327.489 665.133 266.392 665.133ZM266.392 364.596C143.404 364.596 43.3597 430.52 43.3597 511.575C43.3597 592.63 143.404 658.554 266.392 658.554C389.379 658.554 489.423 592.63 489.423 511.575C489.423 430.52 389.358 364.596 266.392 364.596Z" fill="#000072"/>
<path d="M266.391 616.891C353.991 616.891 425.005 569.74 425.005 511.575C425.005 453.411 353.991 406.26 266.391 406.26C178.791 406.26 107.778 453.411 107.778 511.575C107.778 569.74 178.791 616.891 266.391 616.891Z" fill="#FD6CCB"/>
<path d="M266.391 617.298C178.708 617.298 107.371 569.87 107.371 511.575C107.371 453.281 178.708 405.853 266.391 405.853C354.075 405.853 425.412 453.281 425.412 511.575C425.412 569.87 354.075 617.298 266.391 617.298ZM266.391 406.667C179.158 406.667 108.185 453.731 108.185 511.554C108.185 569.398 179.158 616.441 266.391 616.441C353.625 616.441 424.598 569.377 424.598 511.554C424.577 453.731 353.625 406.667 266.391 406.667Z" fill="#000072"/>
<g opacity="0.3">
<path opacity="0.3" d="M425.005 511.575C425.005 569.741 353.989 616.891 266.391 616.891C201.438 616.891 145.61 590.98 121.081 553.86C148.395 585.622 199.895 607.011 258.915 607.011C346.512 607.011 417.529 559.861 417.529 501.695C417.529 486.671 412.794 472.376 404.247 459.453C417.443 474.82 425.005 492.608 425.005 511.575Z" fill="#000072"/>
</g>
<path d="M266.391 620.191C223.375 620.191 182.907 609.047 152.423 588.794C121.51 568.262 104.5 540.851 104.5 511.575C104.5 482.299 121.531 454.888 152.423 434.356C182.907 414.103 223.396 402.959 266.391 402.959C309.387 402.959 349.876 414.103 380.36 434.356C411.273 454.888 428.283 482.299 428.283 511.575C428.283 540.851 411.252 568.262 380.36 588.794C349.876 609.025 309.387 620.191 266.391 620.191ZM266.391 409.56C180.743 409.56 111.077 455.317 111.077 511.575C111.077 567.833 180.743 613.59 266.391 613.59C352.039 613.59 421.706 567.833 421.706 511.575C421.706 455.317 352.018 409.56 266.391 409.56Z" fill="#000072"/>
<path d="M90.3398 341.922C90.3398 341.922 95.9954 366.976 104.607 398.995C87.6191 401.181 9.70472 414.425 3.59925 473.427C-1.30655 520.791 54.0926 564.49 157.05 533.586C177.852 558.747 219.047 575.892 266.477 575.892C324.276 575.892 372.798 550.453 386.466 516.033C411.573 466.869 442.422 341.9 442.422 341.9H90.3398V341.922ZM40.0607 480.114C39.975 445.759 95.6955 434.786 113.905 432.128C122.752 462.197 133.164 493.058 143.297 512.926C98.5661 523.513 40.1464 517.105 40.0607 480.114Z" fill="white"/>
<path d="M266.477 576.449C220.547 576.449 178.58 560.268 156.857 534.207C101.051 550.881 52.8713 547.045 24.6362 523.663C8.97622 510.696 1.11409 492.351 3.08498 473.362C9.14761 414.489 86.7621 400.837 103.922 398.544C95.5025 367.147 89.8684 342.286 89.8041 342.029L89.6541 341.364H443.107L442.936 342.029C442.636 343.272 411.766 467.619 386.937 516.29C372.884 551.695 323.333 576.449 266.477 576.449ZM157.221 532.985L157.457 533.264C178.923 559.239 220.697 575.377 266.477 575.377C322.926 575.377 372.048 550.902 385.973 515.861C409.838 469.097 439.273 352.38 441.758 342.457H91.0038C91.9464 346.615 97.3877 370.04 105.121 398.866L105.271 399.466L104.671 399.551C88.9472 401.587 10.2187 414.704 4.11327 473.512C2.1638 492.415 9.68317 509.946 25.3003 522.87C53.3212 546.059 101.265 549.788 156.879 533.114L157.221 532.985ZM104.007 518.005C83.6986 518.005 63.9255 514.168 51.6074 504.46C43.6167 498.159 39.5464 489.972 39.525 480.135C39.4393 445.222 96.3809 434.164 113.84 431.613H114.247L114.44 431.999C125.173 468.39 135.027 495.544 143.789 512.711L144.111 513.311L143.447 513.461C131.45 516.29 117.611 518.005 104.007 518.005ZM40.5961 480.113C40.6176 489.608 44.5593 497.516 52.2715 503.602C72.4089 519.505 113.005 519.398 142.525 512.561C133.849 495.394 124.102 468.54 113.54 432.728C95.931 435.342 40.5104 446.337 40.5961 480.113Z" fill="#000072"/>
<path d="M90.3398 341.922C90.3398 341.922 95.9954 366.976 104.607 398.995C87.6191 401.181 9.70472 414.425 3.59925 473.427C-1.30655 520.791 54.0926 564.49 157.05 533.586C177.852 558.747 219.047 575.892 266.477 575.892C324.276 575.892 372.798 550.453 386.466 516.033C411.573 466.869 442.422 341.9 442.422 341.9H90.3398V341.922ZM40.0607 480.114C39.975 445.759 95.6955 434.786 113.905 432.128C122.752 462.197 133.164 493.058 143.297 512.926C98.5661 523.513 40.1464 517.105 40.0607 480.114Z" fill="white"/>
<path d="M266.477 576.449C220.547 576.449 178.58 560.268 156.857 534.207C101.051 550.881 52.8713 547.045 24.6362 523.663C8.97622 510.696 1.11409 492.351 3.08498 473.362C9.14761 414.489 86.7621 400.837 103.922 398.544C95.5025 367.147 89.8684 342.286 89.8041 342.029L89.6541 341.364H443.107L442.936 342.029C442.636 343.272 411.766 467.619 386.937 516.29C372.884 551.695 323.333 576.449 266.477 576.449ZM157.221 532.985L157.457 533.264C178.923 559.239 220.697 575.377 266.477 575.377C322.926 575.377 372.048 550.902 385.973 515.861C409.838 469.097 439.273 352.38 441.758 342.457H91.0038C91.9464 346.615 97.3877 370.04 105.121 398.866L105.271 399.466L104.671 399.551C88.9472 401.587 10.2187 414.704 4.11327 473.512C2.1638 492.415 9.68317 509.946 25.3003 522.87C53.3212 546.059 101.265 549.788 156.879 533.114L157.221 532.985ZM104.007 518.005C83.6986 518.005 63.9255 514.168 51.6074 504.46C43.6167 498.159 39.5464 489.972 39.525 480.135C39.4393 445.222 96.3809 434.164 113.84 431.613H114.247L114.44 431.999C125.173 468.39 135.027 495.544 143.789 512.711L144.111 513.311L143.447 513.461C131.45 516.29 117.611 518.005 104.007 518.005ZM40.5961 480.113C40.6176 489.608 44.5593 497.516 52.2715 503.602C72.4089 519.505 113.005 519.398 142.525 512.561C133.849 495.394 124.102 468.54 113.54 432.728C95.931 435.342 40.5104 446.337 40.5961 480.113Z" fill="#000072"/>
<path d="M90.3397 341.922C90.3397 341.922 95.9952 366.975 104.607 398.994C87.619 401.181 9.70456 414.425 3.59909 473.427C0.964093 498.802 15.6387 523.106 45.6305 535.472C45.6305 535.472 45.6305 535.472 45.6519 535.472C46.873 535.986 48.1155 536.458 49.3794 536.908C50.2149 537.229 51.0718 537.508 51.9502 537.808C53.6854 538.387 55.4635 538.944 57.2844 539.437C59.1053 539.951 60.9691 540.401 62.8757 540.83C64.0968 541.087 65.3393 541.344 66.6033 541.58C68.2957 541.901 70.0095 542.18 71.7662 542.437C72.2803 542.501 72.7945 542.587 73.3086 542.651C74.0584 542.759 74.8296 542.844 75.6008 542.93C76.115 542.994 76.6291 543.059 77.1433 543.102C78.1501 543.209 79.1784 543.294 80.2067 543.38C80.8708 543.444 81.5349 543.487 82.199 543.53C82.4347 543.552 82.6489 543.573 82.8846 543.573C83.5915 543.616 84.2984 543.659 85.0054 543.702C85.8195 543.744 86.6335 543.766 87.469 543.809C88.4973 543.852 89.5256 543.873 90.5539 543.873C91.368 543.894 92.1606 543.894 92.9961 543.894C97.1735 543.894 101.501 543.744 105.957 543.423C107.649 543.294 109.384 543.144 111.12 542.973C111.27 542.951 111.398 542.951 111.548 542.93C113.305 542.759 115.083 542.544 116.882 542.309C117.696 542.201 118.532 542.094 119.367 541.966C123.095 541.451 126.908 540.808 130.807 540.058C131.771 539.865 132.735 539.672 133.699 539.48C134.942 539.222 136.206 538.965 137.448 538.687C138.691 538.408 139.933 538.129 141.197 537.829C142.247 537.572 143.318 537.315 144.389 537.058C146.167 536.608 147.967 536.136 149.788 535.643C152.187 535 154.608 534.293 157.05 533.564C177.851 558.725 219.047 575.871 266.477 575.871C324.276 575.871 372.798 550.431 386.466 516.012C411.573 466.847 442.422 341.879 442.422 341.879H90.3397V341.922ZM40.0605 480.114C39.9749 445.759 95.6953 434.786 113.905 432.128C122.774 462.197 133.164 493.058 143.297 512.926C98.5446 523.513 40.1462 517.105 40.0605 480.114Z" fill="white"/>
<path d="M266.477 576.449C220.547 576.449 178.58 560.268 156.857 534.207C154.629 534.871 152.294 535.536 149.916 536.179C148.095 536.672 146.296 537.143 144.496 537.593C143.425 537.85 142.354 538.129 141.304 538.365C140.04 538.665 138.798 538.943 137.534 539.222C136.27 539.5 135.006 539.779 133.763 540.015C132.799 540.208 131.835 540.401 130.871 540.593C126.951 541.344 123.095 541.987 119.41 542.501C118.575 542.63 117.739 542.737 116.904 542.844C115.104 543.08 113.326 543.272 111.57 543.465L111.141 543.508C109.384 543.68 107.671 543.83 105.957 543.958C100.708 544.344 95.5025 544.516 90.511 544.43C89.4827 544.43 88.433 544.387 87.4047 544.365C86.5692 544.344 85.7551 544.301 84.9411 544.258C84.1699 544.215 83.4843 544.173 82.7988 544.13C82.6488 544.13 82.4989 544.108 82.3275 544.108L82.1133 544.087C81.4277 544.044 80.7636 543.98 80.0995 543.937C79.0712 543.851 78.043 543.765 77.0361 543.658C76.5434 543.615 76.0506 543.551 75.5793 543.487C74.7224 543.38 73.9512 543.294 73.2014 543.187C72.6873 543.122 72.1731 543.037 71.659 542.972C69.7095 542.694 68.0171 542.394 66.4747 542.094C65.2107 541.858 63.9682 541.601 62.7471 541.344C60.6906 540.872 58.8482 540.422 57.113 539.951C55.292 539.458 53.4925 538.9 51.7573 538.322C50.879 538.022 50.022 537.743 49.1866 537.422C47.944 536.972 46.7229 536.5 45.5233 536.007L45.4162 535.964C16.5169 524.048 0.278497 500.066 3.06345 473.362C9.16892 414.468 86.762 400.837 103.943 398.523C95.5239 367.125 89.8897 342.264 89.8254 342.007L89.6755 341.343H443.129L442.957 342.007C442.658 343.25 411.787 467.597 386.959 516.268C372.884 551.695 323.333 576.449 266.477 576.449ZM157.221 532.985L157.457 533.264C178.923 559.239 220.697 575.377 266.477 575.377C322.926 575.377 372.048 550.902 385.973 515.861C409.838 469.097 439.273 352.38 441.758 342.457H91.0037C91.9463 346.615 97.3662 370.04 105.121 398.866L105.271 399.466L104.671 399.551C88.9471 401.587 10.2186 414.704 4.11316 473.512C1.4139 499.659 17.3524 523.191 45.7375 534.936L45.8446 534.978C47.0443 535.493 48.2868 535.964 49.5507 536.414C50.3862 536.736 51.2431 537.014 52.1 537.314C53.8139 537.893 55.6134 538.429 57.4129 538.922C59.1267 539.393 60.9476 539.843 62.9828 540.315C64.2039 540.572 65.425 540.829 66.6889 541.065C68.2313 541.365 69.9023 541.644 71.8304 541.922C72.3445 541.987 72.8372 542.072 73.3514 542.137C74.1012 542.244 74.8724 542.329 75.6222 542.415C76.1792 542.479 76.6719 542.544 77.1646 542.587C78.1715 542.694 79.1784 542.78 80.2066 542.865C80.8708 542.93 81.5134 542.972 82.199 543.015L82.4132 543.037C82.5632 543.058 82.7131 543.058 82.8631 543.058C83.57 543.101 84.2555 543.144 84.9196 543.187C85.798 543.23 86.612 543.272 87.4475 543.294C88.4758 543.337 89.4827 543.358 90.5324 543.358C95.5025 543.444 100.665 543.272 105.871 542.908C107.563 542.78 109.277 542.63 111.013 542.458L111.441 542.415C113.198 542.244 114.976 542.029 116.754 541.794C117.568 541.687 118.403 541.579 119.239 541.451C122.902 540.936 126.737 540.293 130.657 539.543C131.621 539.35 132.564 539.158 133.549 538.965C134.792 538.708 136.034 538.45 137.298 538.172C138.541 537.893 139.783 537.615 141.047 537.314C142.097 537.057 143.168 536.8 144.239 536.543C146.017 536.093 147.817 535.621 149.638 535.128C152.123 534.443 154.565 533.757 156.9 533.05L157.221 532.985ZM104.007 518.004C83.6986 518.004 63.9254 514.168 51.6073 504.46C43.6167 498.159 39.5463 489.972 39.5249 480.135C39.4392 445.222 96.3808 434.164 113.84 431.613H114.247L114.44 431.999C125.152 468.39 135.027 495.544 143.789 512.711L144.111 513.311L143.447 513.461C131.45 516.29 117.611 518.004 104.007 518.004ZM40.5961 480.113C40.6175 489.607 44.5593 497.516 52.2714 503.602C72.4088 519.505 113.005 519.398 142.525 512.561C133.849 495.394 124.102 468.54 113.54 432.728C95.9309 435.342 40.5104 446.337 40.5961 480.113Z" fill="#000072"/>
<g opacity="0.3">
<path opacity="0.3" d="M386.659 384.249C351.825 369.697 310.587 361.296 266.391 361.296C190.469 361.296 123.309 386.114 82.2419 424.177C88.6258 446.766 95.4168 467.704 102.101 483.028C83.0559 488.3 61.5475 489.972 43.124 486.822C41.1103 494.88 40.0605 503.152 40.0605 511.575C40.0605 514.018 40.1462 516.462 40.3176 518.883C40.5318 518.905 40.7461 518.926 40.9603 518.948C41.1959 518.969 41.4316 518.991 41.6458 518.991C42.3528 519.055 43.0597 519.098 43.7667 519.141C44.5807 519.183 45.3948 519.226 46.2303 519.269C47.2586 519.312 48.2869 519.333 49.3152 519.355C50.1292 519.376 50.9219 519.376 51.7573 519.376C55.9348 519.376 60.2622 519.205 64.6967 518.819C66.3891 518.669 68.1243 518.498 69.8595 518.283C70.0095 518.262 70.138 518.24 70.288 518.24C72.0447 518.026 73.8227 517.79 75.6008 517.533C76.4149 517.405 77.2504 517.276 78.1073 517.126C81.8348 516.526 85.6481 515.776 89.547 514.897C90.511 514.683 91.475 514.447 92.4391 514.211C93.6816 513.911 94.9455 513.611 96.188 513.268C97.4306 512.947 98.6731 512.604 99.937 512.261C101.008 511.961 102.058 511.661 103.129 511.339C104.907 510.825 106.707 510.268 108.528 509.689C110.927 508.918 113.348 508.125 115.79 507.267C136.591 536.757 174.359 567.426 235.993 573.341C298.675 579.342 367.528 561.468 381.196 521.134C392.486 495.33 386.937 434.614 386.659 384.249Z" fill="#000072"/>
</g>
<path d="M90.3396 341.922C90.3396 341.922 95.9952 366.975 104.607 398.994C103.215 399.166 101.415 399.423 99.2729 399.766C75.3223 403.667 9.19041 419.247 3.59909 473.427C0.964094 498.802 15.6386 523.106 45.6304 535.472C45.6304 535.472 45.6304 535.472 45.6519 535.472C46.873 535.986 48.1155 536.458 49.3794 536.908C50.2149 537.229 51.0718 537.508 51.9501 537.808C53.6854 538.386 55.4635 538.944 57.2844 539.437C59.1053 539.951 60.9691 540.401 62.8757 540.83C64.0968 541.087 65.3393 541.344 66.6033 541.58C68.2957 541.901 70.0095 542.18 71.7662 542.437C72.2803 542.501 72.7944 542.587 73.3086 542.651C74.0584 542.759 74.8296 542.844 75.6008 542.93C76.115 542.994 76.6291 543.059 77.1432 543.101C78.1501 543.209 79.1784 543.294 80.2067 543.38C80.8708 543.444 81.5349 543.487 82.199 543.53C82.4347 543.552 82.6489 543.573 82.8845 543.573C83.5915 543.616 84.2984 543.659 85.0054 543.702C85.8194 543.744 86.6335 543.766 87.469 543.809C88.4973 543.852 89.5256 543.873 90.5539 543.873C91.3679 543.894 92.1606 543.894 92.9961 543.894C97.1735 543.894 101.501 543.744 105.957 543.423C107.649 543.294 109.384 543.144 111.12 542.973C111.27 542.951 111.398 542.951 111.548 542.93C113.305 542.759 115.083 542.544 116.882 542.308C117.696 542.201 118.532 542.094 119.367 541.966C123.095 541.451 126.908 540.808 130.807 540.058C131.771 539.865 132.735 539.672 133.699 539.479C134.942 539.222 136.206 538.965 137.448 538.687C138.691 538.408 139.933 538.129 141.197 537.829C142.247 537.572 143.318 537.315 144.389 537.058C146.167 536.608 147.967 536.136 149.788 535.643C152.187 535 154.608 534.293 157.05 533.564C177.851 558.725 219.047 575.871 266.477 575.871C324.276 575.871 372.798 550.431 386.466 516.012C402.383 484.829 420.614 423.169 431.839 382.213C438.309 358.596 442.422 341.857 442.422 341.857H90.3396V341.922ZM40.0605 480.114C39.9748 445.758 95.6953 434.785 113.905 432.128C122.774 462.197 133.164 493.058 143.297 512.926C98.5445 523.513 40.1462 517.105 40.0605 480.114Z" fill="#00B1FF"/>
<g opacity="0.6">
<path opacity="0.6" d="M8.99753 479.921C14.6103 425.763 80.7422 410.16 104.671 406.26C104.693 406.26 104.714 406.26 104.736 406.26C107.542 405.81 109.342 403.024 108.613 400.28C100.794 370.769 95.7381 348.416 95.7381 348.416H440.772C441.843 344.258 442.4 341.922 442.4 341.922H90.3396C90.3396 341.922 95.9952 366.976 104.607 398.995C103.215 399.166 101.415 399.423 99.2728 399.766C75.3222 403.667 9.21176 419.269 3.59901 473.427C1.92803 489.629 7.30514 505.382 19.2162 517.876C11.097 506.625 7.60505 493.423 8.99753 479.921Z" fill="white"/>
</g>
<g opacity="0.6">
<path opacity="0.6" d="M140.576 521.156C144.668 520.406 146.96 515.991 145.225 512.219C136.227 492.544 127.165 465.283 119.325 438.665C118.318 438.815 117.204 438.986 116.004 439.179C124.38 466.955 133.956 494.645 143.297 512.947C109.642 520.899 68.2529 519.248 49.7651 502.21C63.0472 523.599 104.65 527.778 140.576 521.156Z" fill="white"/>
</g>
<path d="M266.477 579.214C220.568 579.214 178.473 563.226 155.915 537.379C99.937 553.731 51.5217 549.552 22.8581 525.806C6.46972 512.218 -1.7566 493.015 0.321407 473.084C6.31977 415.218 78.2144 399.68 100.473 396.251C95.9095 379.063 92.2463 364.211 89.9112 354.523C88.99 350.666 89.8683 346.658 92.3319 343.529C94.7956 340.4 98.4803 338.621 102.465 338.621H428.904C433.21 338.621 437.195 340.571 439.83 343.979C442.465 347.387 443.365 351.716 442.272 355.895C433.082 391.322 409.559 477.949 389.465 517.426C374.919 553.796 324.361 579.214 266.477 579.214ZM157.029 530.285C157.993 530.285 158.935 530.714 159.578 531.485C180.529 556.839 221.489 572.613 266.477 572.613C321.812 572.613 369.906 548.845 383.402 514.833C383.445 514.747 383.488 514.64 383.531 514.554C403.347 475.72 426.74 389.5 435.888 354.245C436.445 352.059 435.995 349.808 434.603 348.03C433.232 346.251 431.132 345.222 428.883 345.222H102.443C100.494 345.222 98.6945 346.101 97.4948 347.622C96.2952 349.144 95.8667 351.094 96.3166 352.98C98.7802 363.31 102.786 379.513 107.778 398.137C108.035 399.059 107.863 400.044 107.328 400.837C106.792 401.63 105.957 402.145 105.014 402.273C89.6541 404.266 12.7252 417.04 6.85533 473.77C4.99156 491.729 12.1682 508.403 27.057 520.726C54.3495 543.315 101.394 546.873 156.086 530.435C156.407 530.349 156.729 530.285 157.029 530.285ZM103.75 520.876C82.906 520.876 62.79 516.804 49.8936 506.624C41.1959 499.766 36.7829 490.851 36.7614 480.135C36.7186 464.018 47.4728 450.923 68.7455 441.258C85.1768 433.778 103.793 430.306 113.433 428.892C115.04 428.656 116.625 429.663 117.075 431.228C127.744 467.469 137.555 494.451 146.231 511.447C146.681 512.347 146.703 513.418 146.296 514.34C145.867 515.261 145.053 515.926 144.068 516.161C131.557 519.098 117.482 520.876 103.75 520.876ZM43.3596 480.113C43.3811 488.729 46.9586 495.887 53.9853 501.438C72.6659 516.183 109.963 516.547 138.498 510.611C130.357 493.637 121.317 468.519 111.591 435.814C92.332 438.964 43.2739 449.895 43.3596 480.113Z" fill="#000072"/>
<path d="M103.75 520.877C82.9059 520.877 62.7899 516.804 49.8935 506.624C41.1959 499.766 36.7828 490.851 36.7614 480.135C36.7185 464.018 47.4727 450.923 68.7455 441.258C85.1767 433.778 103.793 430.306 113.433 428.892C115.04 428.656 116.625 429.663 117.075 431.228C127.744 467.469 137.555 494.451 146.231 511.447C146.681 512.347 146.703 513.418 146.296 514.34C145.867 515.261 145.053 515.926 144.068 516.162C131.557 519.098 117.482 520.877 103.75 520.877ZM111.569 435.835C92.3319 438.964 43.2739 449.916 43.3381 480.113C43.3596 488.729 46.9371 495.887 53.9638 501.438C72.6444 516.183 109.941 516.547 138.476 510.611C130.336 493.658 121.295 468.54 111.569 435.835Z" fill="#000072"/>
<g opacity="0.3">
<path opacity="0.3" d="M165.191 542.094C187.899 559.454 221.918 570.491 259.986 570.491C317.785 570.491 366.307 545.052 379.975 510.632C394.885 481.399 411.852 425.398 423.163 384.764L340.15 408.746C340.15 408.746 388.587 458.896 356.774 506.796C325.283 554.224 222.861 560.332 162.663 502.467C147.26 487.657 131.9 448.459 123.224 420.726C96.1667 415.282 45.8447 434.228 40.0606 472.569C39.9963 472.998 40.5105 473.298 40.7461 473.662C47.1301 444.365 96.8951 434.635 113.926 432.128C122.795 462.197 133.185 493.058 143.318 512.925C143.275 512.925 143.232 512.947 143.19 512.947C145.696 516.869 146.339 519.891 144.839 522.57C141.626 528.271 115.276 533.028 71.7234 530.435C49.5509 529.128 25.1933 519.098 9.12622 503.667C15.7887 516.89 28.0853 528.228 45.6519 535.45C45.6519 535.45 45.6519 535.45 45.6734 535.45C46.8945 535.964 48.137 536.436 49.4009 536.886C50.2364 537.208 51.0933 537.486 51.9716 537.786C53.7069 538.365 55.485 538.922 57.3059 539.415C59.1268 539.929 60.9906 540.379 62.8972 540.808C64.1183 541.065 65.3608 541.322 66.6248 541.558C68.3172 541.88 70.031 542.158 71.7877 542.415C72.3018 542.48 72.8159 542.565 73.3301 542.63C74.0799 542.737 74.8511 542.823 75.6223 542.93C76.1365 542.994 76.6506 543.058 77.1647 543.101C78.1716 543.208 79.1999 543.294 80.2282 543.38C80.8923 543.444 81.5564 543.487 82.2205 543.53C82.4562 543.551 82.6704 543.573 82.906 543.573C83.613 543.616 84.3199 543.658 85.0269 543.701C85.841 543.744 86.655 543.766 87.4905 543.808C88.5188 543.851 89.5471 543.873 90.5754 543.873C91.3894 543.894 92.1821 543.894 93.0176 543.894C97.195 543.894 101.522 543.744 105.957 543.423C107.649 543.294 109.385 543.144 111.12 542.973C111.27 542.951 111.42 542.951 111.548 542.93C113.305 542.758 115.083 542.544 116.882 542.308C117.697 542.201 118.532 542.094 119.368 541.965C123.095 541.451 126.908 540.808 130.807 540.058C131.771 539.865 132.735 539.672 133.699 539.479C134.942 539.222 136.206 538.965 137.448 538.686C138.691 538.408 139.933 538.129 141.197 537.829C142.247 537.572 143.318 537.315 144.389 537.057C146.167 536.607 147.967 536.136 149.788 535.643C152.187 535 154.608 534.293 157.05 533.564C160.028 537.165 163.413 540.572 167.162 543.808C166.497 543.273 165.833 542.694 165.191 542.094Z" fill="#000072"/>
</g>
<path d="M266.392 439.03C349.851 439.03 417.507 395.544 417.507 341.901C417.507 288.258 349.851 244.772 266.392 244.772C182.933 244.772 115.276 288.258 115.276 341.901C115.276 395.544 182.933 439.03 266.392 439.03Z" fill="white"/>
<path d="M266.392 439.587C182.757 439.587 114.74 395.78 114.74 341.922C114.74 288.064 182.779 244.258 266.392 244.258C350.026 244.258 418.043 288.064 418.043 341.922C418.043 395.759 350.004 439.587 266.392 439.587ZM266.392 245.308C183.357 245.308 115.811 288.643 115.811 341.901C115.811 395.159 183.357 438.494 266.392 438.494C349.426 438.494 416.972 395.159 416.972 341.901C416.972 288.643 349.426 245.308 266.392 245.308Z" fill="#000072"/>
<path d="M442.422 341.901C442.422 387.229 400.969 426.32 341.093 444.387C318.406 451.224 293.084 455.06 266.37 455.06C244.84 455.06 224.21 452.574 205.144 448.031C138.091 432.043 90.3184 390.572 90.3184 341.901C90.3184 279.406 169.133 228.741 266.37 228.741C363.608 228.741 442.422 279.427 442.422 341.901Z" fill="white"/>
<path d="M266.392 455.596C245.29 455.596 224.66 453.217 205.058 448.545C171.618 440.572 142.975 426.427 122.26 407.61C101.03 388.343 89.8042 365.625 89.8042 341.9C89.8042 279.213 169.025 228.205 266.392 228.205C363.758 228.205 442.979 279.213 442.979 341.9C442.979 363.954 433.167 385.343 414.615 403.752C396.577 421.648 371.213 435.879 341.285 444.901C317.742 451.995 292.549 455.596 266.392 455.596ZM266.392 229.298C169.625 229.298 90.8753 279.813 90.8753 341.922C90.8753 365.325 101.972 387.786 122.967 406.839C143.554 425.527 172.025 439.586 205.294 447.516C224.81 452.167 245.376 454.524 266.392 454.524C292.463 454.524 317.549 450.945 340.943 443.873C370.72 434.893 395.913 420.748 413.844 402.981C432.203 384.785 441.908 363.654 441.908 341.9C441.886 279.813 363.158 229.298 266.392 229.298Z" fill="#000072"/>
<path d="M266.391 457.781C245.119 457.781 224.317 455.402 204.544 450.688C170.739 442.629 141.776 428.291 120.803 409.239C99.1015 389.543 87.6404 366.268 87.6404 341.921C87.6404 310.738 106.385 281.527 140.447 259.624C174.124 237.978 218.854 226.062 266.391 226.062C313.928 226.062 358.659 237.978 392.336 259.624C426.398 281.505 445.142 310.738 445.142 341.921C445.142 364.575 435.117 386.499 416.136 405.317C397.841 423.448 372.177 437.871 341.885 447.001C318.17 454.138 292.763 457.781 266.391 457.781ZM266.391 231.462C170.803 231.462 93.0603 281.012 93.0603 341.9C93.0603 387.721 138.369 429.32 205.808 445.394C225.174 450.002 245.547 452.359 266.391 452.359C292.249 452.359 317.12 448.802 340.321 441.815C400.712 423.598 439.723 384.378 439.723 341.921C439.723 281.012 361.958 231.462 266.391 231.462Z" fill="#000072"/>
<g opacity="0.3">
<path opacity="0.3" d="M425.412 345.051C425.412 383.221 387.965 416.14 333.873 431.335C313.393 437.1 290.514 440.315 266.37 440.315C246.918 440.315 228.302 438.215 211.078 434.4C150.516 420.941 107.349 386.007 107.349 345.051C107.349 292.436 178.558 249.787 266.392 249.787C354.225 249.787 425.412 292.436 425.412 345.051Z" fill="#000072"/>
</g>
<path d="M266.392 439.03C349.851 439.03 417.507 395.544 417.507 341.901C417.507 288.258 349.851 244.772 266.392 244.772C182.933 244.772 115.276 288.258 115.276 341.901C115.276 395.544 182.933 439.03 266.392 439.03Z" fill="white"/>
<path d="M266.392 439.587C182.757 439.587 114.74 395.78 114.74 341.922C114.74 288.064 182.779 244.258 266.392 244.258C350.026 244.258 418.043 288.064 418.043 341.922C418.043 395.759 350.004 439.587 266.392 439.587ZM266.392 245.308C183.357 245.308 115.811 288.643 115.811 341.901C115.811 395.159 183.357 438.494 266.392 438.494C349.426 438.494 416.972 395.159 416.972 341.901C416.972 288.643 349.426 245.308 266.392 245.308Z" fill="#000072"/>
<path d="M266.391 439.029C349.85 439.029 417.507 395.543 417.507 341.9C417.507 288.257 349.85 244.771 266.391 244.771C182.932 244.771 115.276 288.257 115.276 341.9C115.276 395.543 182.932 439.029 266.391 439.029Z" fill="#8E4604"/>
<g opacity="0.6">
<path opacity="0.6" d="M242.719 410.053C232.329 412.411 221.489 412.861 210.735 411.789C199.981 410.675 189.248 407.996 179.158 403.41C176.652 402.252 174.145 401.009 171.724 399.616C170.503 398.93 169.325 398.159 168.147 397.43C166.969 396.68 165.812 395.866 164.655 395.073C160.071 391.794 155.85 387.85 152.38 383.285C148.909 378.699 146.146 373.491 144.668 367.919C143.982 365.111 143.489 362.282 143.511 359.432C143.425 356.603 143.832 353.795 144.582 351.138L145.332 351.116C146.381 353.667 147.281 356.067 148.481 358.296C148.781 358.853 149.038 359.41 149.338 359.967L150.259 361.575C150.409 361.832 150.537 362.111 150.709 362.368L151.202 363.139C151.523 363.654 151.866 364.147 152.166 364.661C154.865 368.647 157.95 372.226 161.313 375.505C168.04 382.064 175.902 387.7 184.621 392.179C193.319 396.701 202.723 400.152 212.449 402.874C222.196 405.703 232.286 407.503 242.741 409.282L242.719 410.053Z" fill="#FFB471"/>
</g>
<g opacity="0.6">
<path opacity="0.6" d="M294.755 407.91C304.653 406.217 314.207 404.502 323.44 401.844C332.652 399.251 341.543 395.994 349.769 391.707C358.017 387.464 365.45 382.127 371.813 375.912C375.005 372.804 377.918 369.44 380.468 365.646C380.746 365.153 381.067 364.682 381.389 364.21L381.86 363.482C382.01 363.224 382.139 362.989 382.288 362.732L383.167 361.21C383.445 360.696 383.702 360.16 383.981 359.624C385.095 357.502 385.952 355.23 386.959 352.83L387.666 352.852C388.373 355.359 388.758 358.038 388.694 360.717C388.715 363.417 388.244 366.096 387.601 368.754C386.187 374.026 383.574 378.977 380.296 383.306C376.997 387.635 373.012 391.364 368.664 394.472C367.55 395.222 366.479 395.994 365.343 396.701C364.208 397.387 363.094 398.115 361.958 398.758C359.666 400.066 357.31 401.244 354.932 402.337C345.377 406.667 335.223 409.217 325.047 410.267C314.871 411.296 304.61 410.846 294.777 408.617L294.755 407.91Z" fill="#FFB471"/>
</g>
<g opacity="0.3">
<path opacity="0.3" d="M417.507 341.922C417.507 395.566 349.833 439.051 266.391 439.051C182.929 439.051 115.276 395.566 115.276 341.922C115.276 339.436 115.426 336.972 115.704 334.528C121.595 384.721 186.806 424.263 266.391 424.263C345.977 424.263 411.209 384.721 417.079 334.528C417.357 336.972 417.507 339.436 417.507 341.922Z" fill="#000072"/>
</g>
<path d="M266.391 442.351C225.41 442.351 186.828 432.064 157.757 413.376C128.236 394.409 111.977 369.033 111.977 341.922C111.977 314.811 128.236 289.436 157.757 270.469C186.828 251.78 225.41 241.493 266.391 241.493C307.395 241.493 345.977 251.78 375.047 270.469C404.568 289.436 420.828 314.833 420.828 341.922C420.828 369.033 404.568 394.409 375.047 413.376C345.955 432.064 307.373 442.351 266.391 442.351ZM266.391 248.073C184.878 248.073 118.553 290.165 118.553 341.922C118.553 393.658 184.878 435.75 266.391 435.75C347.905 435.75 414.23 393.658 414.23 341.922C414.208 290.165 347.905 248.073 266.391 248.073Z" fill="#000072"/>
<path d="M266.391 442.351C225.41 442.351 186.828 432.064 157.757 413.376C128.236 394.409 111.977 369.033 111.977 341.922C111.977 314.811 128.236 289.436 157.757 270.469C186.828 251.78 225.41 241.493 266.391 241.493C307.395 241.493 345.977 251.78 375.047 270.469C404.568 289.436 420.828 314.833 420.828 341.922C420.828 369.033 404.568 394.409 375.047 413.376C345.955 432.064 307.373 442.351 266.391 442.351ZM266.391 248.073C184.878 248.073 118.553 290.165 118.553 341.922C118.553 393.658 184.878 435.75 266.391 435.75C347.905 435.75 414.23 393.658 414.23 341.922C414.208 290.165 347.905 248.073 266.391 248.073Z" fill="#000072"/>
<path d="M266.391 442.351C225.41 442.351 186.828 432.064 157.757 413.376C128.236 394.409 111.977 369.033 111.977 341.922C111.977 314.811 128.236 289.436 157.757 270.469C186.828 251.78 225.41 241.493 266.391 241.493C307.395 241.493 345.977 251.78 375.047 270.469C404.568 289.436 420.828 314.833 420.828 341.922C420.828 369.033 404.568 394.409 375.047 413.376C345.955 432.064 307.373 442.351 266.391 442.351ZM266.391 248.073C184.878 248.073 118.553 290.165 118.553 341.922C118.553 393.658 184.878 435.75 266.391 435.75C347.905 435.75 414.23 393.658 414.23 341.922C414.208 290.165 347.905 248.073 266.391 248.073Z" fill="#000072"/>
<path d="M399.641 252.937C383.467 283.606 321.748 289.885 311.979 232.127C308.251 210.074 316.071 180.412 317.013 164.188C318.984 130.241 298.247 93.1851 298.247 93.1851L345.934 100.579C345.934 100.579 360.309 112.366 361.316 144.128C361.937 163.631 350.111 196.229 348.162 219.547C348.162 219.547 353.175 197.986 375.562 196.486C399.748 194.879 415.836 222.225 399.641 252.937Z" fill="#FEF26B"/>
<path d="M358.038 276.448C355.489 276.448 352.939 276.255 350.411 275.848C329.781 272.526 315.578 256.624 311.444 232.213C308.894 217.082 311.786 198.158 314.1 182.963C315.171 175.933 316.178 169.289 316.478 164.167C318.406 130.755 297.99 93.8282 297.776 93.4425L297.24 92.478L346.148 100.065L346.255 100.151C346.405 100.279 360.823 112.452 361.83 144.086C362.172 154.866 358.831 169.289 355.274 184.527C352.854 194.922 350.369 205.638 349.147 215.089C351.975 208.617 359.259 197.022 375.519 195.929C386.102 195.222 395.442 199.915 401.205 208.767C408.917 220.64 408.488 237.228 400.091 253.173C392.721 267.232 375.497 276.448 358.038 276.448ZM299.254 93.8711C302.446 99.9148 319.348 133.52 317.57 164.21C317.27 169.396 316.264 176.062 315.171 183.113C312.857 198.244 309.987 217.061 312.515 232.02C316.564 255.959 330.424 271.54 350.583 274.776C369.992 277.905 390.879 268.39 399.148 252.68C407.374 237.099 407.803 220.897 400.305 209.367C394.778 200.837 385.759 196.336 375.605 197.022C353.86 198.479 348.74 219.44 348.676 219.654L347.626 219.482C348.505 208.938 351.44 196.4 354.246 184.292C357.781 169.118 361.123 154.759 360.78 144.128C359.816 114.446 346.984 102.229 345.698 101.072L299.254 93.8711Z" fill="#000072"/>
<g opacity="0.3">
<path opacity="0.3" d="M399.641 252.937C383.467 283.606 321.748 289.885 311.979 232.127C308.251 210.074 316.071 180.412 317.013 164.188C318.813 133.091 301.568 99.3787 298.654 93.9351C310.051 105.915 324.083 125.44 323.697 148.693C323.419 164.938 314.335 198.35 319.327 220.147C331.195 271.926 386.251 268.411 404.525 240.421C403.518 244.514 401.89 248.694 399.641 252.937Z" fill="#000072"/>
</g>
<g opacity="0.35">
<g opacity="0.35">
<path opacity="0.35" d="M363.908 210.331C366.414 207.545 373.848 201.801 385.523 206.281C396.085 210.331 402.19 226.619 394.521 227.155C389.208 227.541 389.229 216.761 381.774 214.296C376.376 212.496 367.85 218.282 364.743 216.396C361.551 214.467 362.665 211.724 363.908 210.331Z" fill="white"/>
</g>
<g opacity="0.35">
<path opacity="0.35" d="M394.221 227.712C391.5 227.712 390.065 225.076 388.565 222.29C386.98 219.354 385.181 216.01 381.56 214.81C378.882 213.932 375.262 215.046 372.048 216.053C368.856 217.039 366.114 217.896 364.422 216.868C363.094 216.053 362.323 215.025 362.13 213.803C361.937 212.56 362.451 211.124 363.479 209.988C364.893 208.402 372.605 200.794 385.673 205.788C393.385 208.745 399.191 218.454 398.377 224.026C398.056 226.255 396.685 227.562 394.521 227.712C394.414 227.712 394.328 227.712 394.221 227.712ZM379.375 213.417C380.253 213.417 381.11 213.524 381.924 213.782C385.952 215.11 387.858 218.647 389.529 221.776C391.029 224.583 392.25 226.791 394.478 226.619C396.128 226.512 397.113 225.569 397.37 223.854C398.056 219.204 392.957 209.71 385.352 206.773C372.927 202.016 365.665 209.195 364.336 210.674C364.036 211.017 363.051 212.238 363.244 213.632C363.372 214.51 363.972 215.282 365.022 215.925C366.286 216.696 368.964 215.882 371.77 215.003C374.212 214.253 376.911 213.417 379.375 213.417Z" fill="#000072"/>
</g>
</g>
<path d="M362.944 248.094C359.495 248.201 355.703 247.429 352.618 245.072C349.512 242.757 347.562 239.221 346.534 235.749C345.441 232.234 345.163 228.676 345.077 225.204C345.056 221.733 345.27 218.282 345.677 214.917C347.305 201.394 350.947 188.513 353.882 175.59C355.381 169.139 356.774 162.688 357.674 156.259C358.124 153.044 358.445 149.829 358.509 146.657C358.531 145.864 358.509 145.093 358.509 144.3L358.402 141.878C358.316 140.271 358.188 138.642 358.016 137.056C357.331 130.648 356.003 124.304 353.753 118.367C352.639 115.388 351.29 112.516 349.662 109.837C348.848 108.487 347.991 107.201 347.048 105.98C346.577 105.38 346.084 104.78 345.591 104.222C345.334 103.944 345.077 103.665 344.841 103.408C344.606 103.172 344.285 102.872 344.156 102.744L345.506 103.344L297.84 95.9497L300.732 91.7919C302.682 95.3925 304.374 98.9287 306.002 102.572C307.63 106.194 309.13 109.88 310.522 113.609C313.307 121.068 315.642 128.697 317.335 136.52C319.006 144.343 320.077 152.337 319.97 160.459C319.927 164.51 319.563 168.582 319.027 172.504C318.513 176.447 317.913 180.326 317.313 184.184C316.135 191.921 315 199.615 314.336 207.309C313.693 214.982 313.5 222.697 314.528 230.134C315.621 237.592 317.785 244.922 321.362 251.415C324.94 257.909 330.038 263.482 336.315 267.232C342.571 271.004 349.897 272.954 357.288 273.083C364.679 273.212 372.113 271.583 378.797 268.432C385.459 265.282 391.415 260.524 395.442 254.502C396.449 253.001 397.284 251.415 398.12 249.701C398.548 248.865 398.912 248.008 399.277 247.151C399.662 246.293 399.984 245.415 400.305 244.557C401.59 241.064 402.533 237.463 403.004 233.799C403.497 230.155 403.497 226.447 402.94 222.868C402.704 221.068 402.233 219.311 401.719 217.596C401.119 215.903 400.498 214.21 399.619 212.667C399.234 211.852 398.72 211.145 398.27 210.374C397.734 209.666 397.263 208.916 396.684 208.252C395.592 206.859 394.307 205.637 392.936 204.544C391.586 203.408 390.065 202.53 388.501 201.737C386.916 200.965 385.245 200.429 383.552 200.001C380.125 199.251 376.569 199.208 373.034 199.829C369.521 200.387 366.2 201.608 363.179 203.366C357.138 206.923 352.489 212.967 349.105 219.761L349.062 219.825C348.826 220.297 348.269 220.489 347.798 220.254C347.434 220.082 347.241 219.697 347.284 219.332C347.455 217.21 347.948 215.239 348.633 213.267C349.297 211.317 350.219 209.431 351.29 207.609C353.453 204.008 356.453 200.794 360.073 198.415C363.694 196.036 367.871 194.45 372.091 193.871C376.29 193.185 380.703 193.421 384.902 194.407C389.101 195.479 393.085 197.429 396.449 200.129C398.12 201.48 399.684 202.98 401.033 204.673C401.74 205.487 402.319 206.387 402.961 207.245C403.518 208.166 404.118 209.045 404.589 210.009C405.639 211.874 406.389 213.867 407.096 215.86C407.696 217.896 408.253 219.932 408.531 222.011C409.174 226.169 409.174 230.391 408.617 234.506C408.081 238.621 407.032 242.65 405.618 246.486C405.254 247.451 404.911 248.415 404.482 249.337C404.075 250.28 403.69 251.223 403.218 252.123C402.34 253.944 401.355 255.83 400.176 257.588C395.485 264.639 388.715 269.975 381.26 273.49C373.784 277.026 365.514 278.827 357.245 278.698C348.976 278.569 340.643 276.362 333.466 272.054C326.268 267.746 320.462 261.36 316.499 254.137C312.515 246.872 310.201 238.942 309.023 230.905C307.887 222.804 308.144 214.746 308.787 206.816C309.451 198.886 310.629 191.064 311.808 183.327C312.386 179.448 312.986 175.59 313.5 171.754C314.014 167.896 314.357 164.167 314.4 160.373C314.486 152.808 313.479 145.178 311.893 137.677C310.287 130.176 308.016 122.782 305.317 115.56C303.967 111.938 302.51 108.38 300.925 104.844C299.361 101.329 297.669 97.7928 295.869 94.5138L295.848 94.4923C295.098 93.1207 295.612 91.4062 296.983 90.6775C297.54 90.3774 298.161 90.2703 298.761 90.3774L346.427 97.7714H346.47C346.962 97.8571 347.412 98.0714 347.776 98.3715C348.269 98.8001 348.548 99.0787 348.89 99.4216C349.212 99.7645 349.533 100.086 349.833 100.429C350.433 101.115 351.011 101.801 351.547 102.508C352.639 103.922 353.625 105.401 354.525 106.901C356.346 109.923 357.824 113.095 359.045 116.331C361.508 122.825 362.922 129.619 363.651 136.434C363.843 138.127 363.951 139.842 364.058 141.556L364.165 144.107C364.186 144.985 364.186 145.864 364.165 146.743C364.101 150.236 363.736 153.644 363.265 157.009C362.301 163.738 360.909 170.296 359.473 176.833C358.016 183.348 356.538 189.821 355.146 196.293C353.732 202.744 352.489 209.216 351.59 215.624C351.161 218.839 350.818 222.033 350.733 225.204C350.626 228.376 350.797 231.505 351.375 234.442C351.997 237.378 353.111 240.078 355.103 242.114C357.074 244.172 359.945 245.457 363.072 246.165H363.094C363.608 246.272 363.929 246.786 363.801 247.301C363.736 247.772 363.351 248.072 362.944 248.094Z" fill="#000072"/>
<path d="M427.919 235.92C416.972 268.797 357.074 285.085 338.05 229.684C330.788 208.531 333.68 177.99 331.945 161.831C328.346 128.012 301.867 94.8352 301.867 94.8352L350.111 94.3423C350.111 94.3423 366.2 103.622 372.391 134.805C376.183 153.944 369.842 188.042 371.705 211.36C371.705 211.36 373.141 189.285 394.992 184.141C418.557 178.612 438.887 202.98 427.919 235.92Z" fill="#FD6CCB"/>
<path d="M382.845 266.418C362.108 266.418 345.634 253.087 337.643 229.812C332.673 215.324 332.438 196.186 332.245 180.819C332.159 173.704 332.074 166.974 331.538 161.874C328.003 128.569 301.803 95.4139 301.546 95.0924C301.439 94.9638 301.418 94.7923 301.503 94.6637C301.568 94.5137 301.718 94.428 301.867 94.428L350.111 93.9351C350.219 93.9351 350.261 93.9565 350.326 93.9994C350.497 94.0851 366.65 103.729 372.798 134.741C374.898 145.307 373.934 160.073 372.927 175.697C372.22 186.67 371.47 197.986 371.898 207.716C373.398 201.137 378.432 187.635 394.906 183.777C405.189 181.376 415.129 184.441 422.22 192.221C431.732 202.637 434.003 219.032 428.326 236.092C422.585 253.323 403.154 266.375 383.102 266.46C382.995 266.418 382.931 266.418 382.845 266.418ZM302.703 95.2424C306.431 100.107 329.074 130.862 332.352 161.788C332.909 166.932 332.973 173.682 333.059 180.819C333.252 196.122 333.487 215.174 338.415 229.555C346.32 252.551 362.558 265.667 383.06 265.603C402.768 265.517 421.878 252.701 427.512 235.792C433.103 219.032 430.875 202.937 421.578 192.757C414.701 185.213 405.039 182.234 395.078 184.57C373.762 189.585 372.134 211.188 372.113 211.402C372.091 211.617 371.92 211.788 371.706 211.788C371.491 211.788 371.299 211.617 371.299 211.402C370.463 200.858 371.299 188.02 372.091 175.611C373.098 160.052 374.062 145.35 371.984 134.891C366.157 105.508 351.311 95.6067 350.004 94.7709L302.703 95.2424Z" fill="#000072"/>
<g opacity="0.3">
<path opacity="0.3" d="M427.919 235.92C416.972 268.797 357.074 285.085 338.05 229.684C330.788 208.53 333.68 177.99 331.945 161.831C328.646 130.862 306.152 100.407 302.403 95.521C315.599 105.487 332.631 122.461 336.037 145.457C338.415 161.531 334.901 195.993 343.385 216.675C363.522 265.818 417.272 253.366 430.747 222.783C430.339 226.962 429.44 231.355 427.919 235.92Z" fill="#000072"/>
</g>
<g opacity="0.35">
<g opacity="0.35">
<path opacity="0.35" d="M385.695 199.723C387.708 196.551 394.114 189.693 406.346 192.2C417.421 194.472 426.098 209.539 418.621 211.339C413.437 212.582 411.702 201.952 403.947 200.73C398.334 199.852 390.879 206.945 387.494 205.574C384.045 204.159 384.688 201.287 385.695 199.723Z" fill="white"/>
</g>
<g opacity="0.35">
<path opacity="0.35" d="M417.807 211.96C415.451 211.96 413.78 209.774 412.002 207.481C409.966 204.845 407.653 201.844 403.882 201.244C401.119 200.794 397.713 202.509 394.714 204.009C391.736 205.509 389.144 206.795 387.323 206.066C385.866 205.488 384.945 204.588 384.581 203.43C384.195 202.23 384.452 200.751 385.288 199.444C386.423 197.665 392.785 188.878 406.496 191.686C414.594 193.336 421.899 201.973 422.006 207.609C422.049 209.86 420.892 211.36 418.793 211.874C418.428 211.917 418.107 211.96 417.807 211.96ZM402.94 200.108C403.304 200.108 403.668 200.13 404.032 200.194C408.231 200.858 410.673 204.03 412.837 206.838C414.787 209.345 416.308 211.339 418.493 210.824C420.099 210.438 420.913 209.367 420.892 207.609C420.806 202.894 414.23 194.365 406.239 192.736C393.214 190.057 387.216 198.329 386.144 200.023C385.887 200.408 385.116 201.78 385.545 203.109C385.823 203.966 386.53 204.609 387.687 205.08C389.079 205.638 391.564 204.395 394.199 203.066C396.984 201.651 400.091 200.108 402.94 200.108Z" fill="#000072"/>
</g>
</g>
<path d="M390.9 237.121C387.516 237.785 383.66 237.657 380.232 235.835C376.783 234.056 374.298 230.884 372.713 227.626C371.063 224.347 370.227 220.875 369.563 217.468C368.985 214.039 368.621 210.61 368.471 207.223C367.871 193.614 369.349 180.305 370.163 167.082C370.592 160.481 370.913 153.88 370.763 147.386C370.677 144.128 370.485 140.914 370.035 137.785C369.928 136.992 369.778 136.242 369.649 135.47L369.156 133.091C368.792 131.505 368.428 129.941 367.978 128.398C366.264 122.182 363.929 116.16 360.716 110.652C359.131 107.909 357.331 105.294 355.296 102.894C354.289 101.694 353.218 100.558 352.082 99.5076C351.525 98.9932 350.947 98.4789 350.369 98.0074C350.069 97.7716 349.79 97.5573 349.49 97.343C349.212 97.1501 348.848 96.8929 348.698 96.8072L350.133 97.193L301.889 97.6645L304.053 93.0995C306.559 96.3357 308.809 99.5504 311.015 102.872C313.2 106.194 315.3 109.581 317.271 113.031C321.234 119.932 324.769 127.069 327.725 134.527C330.638 141.964 332.995 149.701 334.237 157.716C334.859 161.724 335.159 165.796 335.266 169.739C335.394 173.704 335.437 177.626 335.48 181.548C335.566 189.371 335.716 197.151 336.315 204.845C336.937 212.517 337.986 220.168 340.214 227.326C342.507 234.506 345.827 241.386 350.433 247.215C355.017 253.023 360.951 257.695 367.764 260.396C374.555 263.096 382.096 263.825 389.401 262.753C396.706 261.681 403.775 258.852 409.859 254.652C415.922 250.451 421.021 244.793 423.998 238.192C424.748 236.542 425.305 234.849 425.841 233.027C426.141 232.127 426.334 231.227 426.569 230.327C426.826 229.427 426.998 228.505 427.169 227.584C427.876 223.919 428.197 220.211 428.09 216.525C427.983 212.839 427.362 209.195 426.248 205.766C425.712 204.03 424.962 202.38 424.191 200.751C423.313 199.187 422.435 197.622 421.299 196.229C420.785 195.5 420.164 194.857 419.585 194.193C418.943 193.571 418.364 192.907 417.679 192.35C416.372 191.171 414.894 190.164 413.373 189.307C411.852 188.406 410.202 187.785 408.553 187.249C406.882 186.756 405.146 186.499 403.39 186.328C399.877 186.156 396.363 186.692 392.978 187.892C389.615 189.028 386.53 190.764 383.831 192.993C378.454 197.493 374.833 204.223 372.627 211.467L372.605 211.553C372.455 212.046 371.92 212.324 371.427 212.174C371.042 212.067 370.784 211.724 370.763 211.338C370.592 209.217 370.763 207.181 371.106 205.145C371.449 203.109 372.027 201.094 372.798 199.144C374.341 195.243 376.783 191.578 379.975 188.642C383.145 185.706 387.023 183.477 391.093 182.191C395.121 180.841 399.512 180.327 403.818 180.627C408.124 180.991 412.387 182.277 416.136 184.399C418.022 185.47 419.8 186.692 421.406 188.128C422.242 188.814 422.97 189.607 423.72 190.357C424.406 191.171 425.155 191.943 425.777 192.821C427.105 194.493 428.176 196.336 429.204 198.201C430.125 200.108 431.004 202.037 431.625 204.052C432.932 208.059 433.617 212.217 433.746 216.375C433.896 220.533 433.51 224.669 432.739 228.698C432.546 229.705 432.353 230.713 432.075 231.698C431.818 232.684 431.604 233.692 431.282 234.656C430.725 236.585 430.04 238.621 429.161 240.55C425.669 248.265 419.864 254.63 413.094 259.324C406.303 264.039 398.441 267.147 390.236 268.368C382.053 269.59 373.484 268.775 365.707 265.689C357.909 262.624 351.14 257.245 346.041 250.773C340.921 244.257 337.365 236.799 334.88 229.084C332.438 221.261 331.367 213.267 330.724 205.359C330.103 197.429 329.974 189.521 329.867 181.677C329.824 177.755 329.781 173.854 329.653 169.997C329.524 166.117 329.267 162.367 328.689 158.638C327.553 151.158 325.304 143.786 322.519 136.67C319.713 129.533 316.264 122.611 312.429 115.924C310.501 112.581 308.487 109.28 306.345 106.066C304.224 102.872 301.975 99.6576 299.683 96.7L299.661 96.6786C298.697 95.457 298.933 93.6782 300.154 92.7352C300.668 92.3494 301.268 92.1565 301.846 92.1351L350.09 91.6636H350.133C350.626 91.6636 351.118 91.7922 351.525 92.0493C352.082 92.3923 352.404 92.628 352.811 92.9066C353.196 93.1852 353.561 93.4638 353.903 93.7424C354.61 94.3211 355.296 94.8998 355.939 95.5213C357.245 96.7429 358.445 98.0288 359.58 99.379C361.851 102.058 363.844 104.951 365.579 107.952C369.071 113.953 371.577 120.425 373.398 127.026C373.869 128.676 374.255 130.348 374.641 131.998L375.176 134.506C375.348 135.363 375.497 136.242 375.605 137.099C376.097 140.549 376.312 143.978 376.397 147.365C376.547 154.158 376.226 160.867 375.883 167.532C375.497 174.197 375.09 180.841 374.791 187.442C374.448 194.043 374.276 200.622 374.426 207.095C374.533 210.331 374.705 213.546 375.155 216.696C375.562 219.825 376.247 222.911 377.297 225.698C378.39 228.484 379.932 230.97 382.224 232.663C384.516 234.356 387.537 235.17 390.75 235.363H390.772C391.286 235.406 391.693 235.835 391.65 236.371C391.629 236.671 391.307 237.035 390.9 237.121Z" fill="#000072"/>
<path d="M448.099 209.302C442.872 243.572 386.616 269.761 358.466 218.389C347.734 198.779 345.399 168.196 340.964 152.551C331.688 119.825 299.961 91.6209 299.961 91.6209L321.234 87.7417C344.113 83.5625 366.95 95.9072 375.626 117.489C375.84 118.003 376.033 118.518 376.247 119.053C383.231 137.27 382.738 171.947 388.522 194.622C388.522 194.622 386.187 172.611 406.86 163.846C429.183 154.416 453.326 174.99 448.099 209.302Z" fill="#39D5FF"/>
<path d="M401.098 247.794C383.745 247.794 368.342 237.485 357.995 218.647C350.626 205.187 347.155 186.37 344.37 171.24C343.085 164.253 341.864 157.63 340.45 152.701C331.324 120.511 299.94 92.3066 299.618 92.0279L298.804 91.2993L321.148 87.2272C344.306 83.0052 367.443 95.6499 376.14 117.296C376.354 117.81 376.547 118.346 376.761 118.882C380.617 128.955 382.181 143.678 383.809 159.238C384.923 169.868 386.08 180.798 388.03 190.121C388.587 183.07 391.672 169.739 406.668 163.374C416.415 159.238 426.805 160.588 435.138 167.082C446.299 175.762 451.355 191.578 448.635 209.388C445.892 227.391 428.904 243.593 409.11 247.087C406.389 247.558 403.711 247.794 401.098 247.794ZM301.139 91.9636C306.131 96.6358 333.123 122.825 341.5 152.423C342.914 157.416 344.135 164.039 345.441 171.068C348.226 186.113 351.675 204.845 358.959 218.154C370.613 239.435 388.844 249.615 408.938 246.058C428.283 242.629 444.907 226.812 447.585 209.26C450.241 191.836 445.357 176.405 434.496 167.961C426.462 161.724 416.479 160.417 407.096 164.381C387.023 172.89 389.058 194.386 389.079 194.6L388.03 194.793C385.416 184.549 384.067 171.754 382.76 159.366C381.132 143.871 379.589 129.212 375.776 119.268C375.583 118.732 375.369 118.218 375.155 117.703C366.65 96.5286 344.028 84.1625 321.362 88.2774L301.139 91.9636Z" fill="#000072"/>
<g opacity="0.3">
<path opacity="0.3" d="M448.099 209.302C442.872 243.572 386.616 269.761 358.466 218.389C347.734 198.779 345.398 168.196 340.964 152.551C332.481 122.589 305.145 96.3998 300.604 92.1992C315.3 99.7861 334.944 113.631 342.206 135.727C347.284 151.179 349.64 185.706 361.508 204.673C389.679 249.701 440.537 228.312 448.656 195.886C448.977 200.065 448.827 204.566 448.099 209.302Z" fill="#000072"/>
</g>
<g opacity="0.35">
<path opacity="0.35" d="M400.369 180.777C401.826 177.305 406.967 169.461 419.457 169.868C430.768 170.232 441.865 183.606 434.796 186.649C429.89 188.749 426.398 178.569 418.536 178.676C412.837 178.762 406.689 187.013 403.133 186.242C399.491 185.449 399.641 182.491 400.369 180.777Z" fill="white"/>
</g>
<path d="M411.809 216.761C409.752 217.553 407.481 218.046 405.125 217.982C402.768 217.961 400.348 217.275 398.248 216.032C396.127 214.832 394.371 213.139 392.914 211.295C391.457 209.452 390.279 207.481 389.336 205.445C387.387 201.394 386.144 197.15 385.095 192.95C384.088 188.728 383.317 184.506 382.717 180.262C381.474 171.797 380.767 163.353 379.91 154.973C379.032 146.593 378.154 138.235 376.461 130.176C375.604 126.126 374.576 122.268 373.012 118.517C371.47 114.853 369.52 111.359 367.164 108.144C364.722 104.994 361.937 102.144 358.831 99.6575C355.681 97.2357 352.211 95.1997 348.59 93.5923C344.927 92.0064 341.071 90.9777 337.129 90.3133C333.188 89.6703 329.181 89.6918 325.218 90.0561L322.262 90.4633C321.277 90.5919 320.205 90.8276 319.177 90.9991L312.943 92.135L300.475 94.4067L301.846 89.5203C307.802 95.0068 313.136 100.793 318.234 106.923C323.312 113.052 328.003 119.503 332.159 126.34C336.294 133.177 339.893 140.421 342.464 148.093C343.835 151.908 344.756 155.894 345.57 159.752C346.384 163.631 347.069 167.51 347.798 171.347C349.233 179.041 350.647 186.692 352.575 194.15C354.482 201.608 356.817 208.959 360.244 215.625L360.866 216.889C361.08 217.296 361.337 217.704 361.573 218.111L363.008 220.554C363.458 221.39 364.015 222.14 364.55 222.911L366.157 225.226C366.714 225.976 367.335 226.683 367.914 227.412C368.514 228.119 369.049 228.891 369.713 229.555C370.999 230.905 372.241 232.299 373.655 233.477C374.983 234.763 376.504 235.835 377.961 236.949C378.689 237.506 379.503 237.935 380.275 238.449L381.431 239.178L382.653 239.8C385.866 241.557 389.358 242.757 392.935 243.529C400.091 245.115 407.631 244.45 414.658 242.2C421.663 239.864 428.176 235.92 433.446 230.755C438.673 225.569 442.807 219.161 444.607 212.131C445.464 208.681 445.871 204.844 445.957 201.137C446.042 197.408 445.742 193.7 444.993 190.099C444.264 186.499 443.043 183.006 441.351 179.791C440.537 178.162 439.508 176.662 438.48 175.204C437.366 173.811 436.209 172.418 434.881 171.24C434.26 170.597 433.531 170.082 432.846 169.504C432.118 169.011 431.411 168.453 430.639 168.025C429.14 167.082 427.533 166.332 425.884 165.753C422.584 164.553 419.028 164.188 415.536 164.531C412.066 164.96 408.66 166.053 405.553 167.853C402.469 169.568 399.662 171.732 397.391 174.39C395.121 177.069 393.364 180.198 392.1 183.627C390.815 187.035 389.936 190.764 389.486 194.493L389.465 194.579C389.401 195.093 388.929 195.457 388.415 195.393C388.008 195.35 387.708 195.05 387.623 194.686C386.637 190.614 386.766 186.456 387.58 182.32C388.437 178.205 390.193 174.176 392.85 170.747C395.485 167.296 398.955 164.531 402.726 162.517C406.453 160.438 410.695 159.238 414.979 158.788C417.143 158.638 419.307 158.616 421.47 158.916C423.613 159.238 425.755 159.666 427.769 160.416C429.804 161.145 431.775 162.067 433.574 163.203C434.517 163.738 435.352 164.403 436.231 165.003C437.045 165.689 437.923 166.31 438.673 167.082C440.28 168.496 441.629 170.146 442.957 171.797C444.2 173.511 445.378 175.269 446.321 177.155C448.292 180.884 449.663 184.87 450.498 188.921C451.334 192.993 451.676 197.129 451.591 201.223C451.484 205.359 451.098 209.345 450.07 213.503C447.949 221.711 443.257 228.934 437.409 234.742C434.474 237.678 431.154 240.164 427.64 242.329C424.105 244.472 420.357 246.251 416.415 247.536C408.553 250.065 399.962 250.837 391.779 249.015C387.708 248.158 383.702 246.765 380.039 244.772L378.647 244.065L377.318 243.229C376.44 242.671 375.54 242.157 374.705 241.536C373.055 240.293 371.363 239.071 369.863 237.656C368.278 236.328 366.907 234.806 365.493 233.306C364.765 232.577 364.165 231.741 363.501 230.97C362.858 230.177 362.194 229.384 361.594 228.569L359.859 226.062C359.28 225.226 358.681 224.39 358.188 223.512L356.645 220.897C356.388 220.468 356.131 220.04 355.874 219.589L355.189 218.218C351.44 210.931 349.04 203.237 347.069 195.543C345.099 187.828 343.642 180.069 342.206 172.354C341.478 168.496 340.793 164.66 340 160.867C339.207 157.073 338.35 153.408 337.065 149.829C334.666 142.65 331.26 135.77 327.296 129.212C323.312 122.654 318.77 116.417 313.843 110.481C308.937 104.565 303.603 98.8217 298.054 93.6995L298.011 93.6566C296.876 92.6065 296.79 90.8276 297.84 89.6703C298.269 89.1988 298.826 88.9202 299.404 88.8131L311.872 86.5413L318.106 85.4054C319.156 85.234 320.141 84.9982 321.255 84.8482L324.576 84.3981C329.01 83.9909 333.509 83.9909 337.922 84.6982C342.314 85.4268 346.662 86.6056 350.754 88.363C354.824 90.1633 358.702 92.435 362.237 95.1783C365.729 97.9644 368.856 101.179 371.598 104.715C374.255 108.316 376.44 112.238 378.175 116.353C378.989 118.325 379.76 120.511 380.36 122.611C380.96 124.733 381.474 126.833 381.924 128.955C383.681 137.442 384.645 145.886 385.609 154.308C386.573 162.71 387.473 171.089 388.651 179.341C389.272 183.456 389.915 187.57 390.815 191.578C391.672 195.586 392.743 199.529 394.221 203.194C395.72 206.838 397.648 210.245 400.519 212.453C403.325 214.724 407.267 215.367 411.338 214.874C411.852 214.81 412.323 215.175 412.387 215.71C412.473 216.203 412.216 216.61 411.809 216.761Z" fill="#000072"/>
<path d="M433.339 315.711C424.748 323.834 412.966 329.063 411.788 334.143C408.66 347.645 393.428 355.489 377.533 349.959C362.987 344.901 352.875 331.228 358.166 310.182C359.366 305.445 361.551 301.481 363.222 298.952C363.222 298.952 363.222 298.952 363.222 298.93C364.486 297.001 365.45 295.908 365.45 295.908C365.45 295.908 365.322 295.887 365.043 295.844C362.858 295.501 351.975 293.937 340.129 295.223H195.761C182.5 293.787 170.461 295.908 170.461 295.908C170.461 295.908 175.666 301.824 177.766 310.182C183.057 331.228 172.946 344.901 158.4 349.959C142.504 355.489 127.294 347.645 124.166 334.143C121.81 324.005 77.4004 313.311 99.83 280.263C116.561 255.617 150.066 247.987 171.832 245.672C183.914 244.386 192.376 244.751 192.376 244.751H343.556C343.556 244.751 352.747 244.365 365.664 245.844C387.451 248.351 419.778 256.195 436.124 280.263C447.306 296.744 441.886 307.653 433.339 315.711Z" fill="white"/>
<g opacity="0.3">
<path opacity="0.3" d="M358.295 295.072C353.582 294.687 347.048 294.494 340.193 295.244H195.761C188.906 294.494 182.372 294.708 177.659 295.072C171.703 299.037 155.443 279.641 155.443 279.641C155.443 279.641 181.879 283.071 195.161 284.506L340.386 283.842C352.232 282.556 363.458 279.749 381.153 279.191C381.432 279.191 365.086 295.844 365.086 295.844C363.479 298.309 359.495 290.486 358.295 295.072Z" fill="#000072"/>
</g>
<path d="M433.339 315.711C424.748 323.834 412.966 329.063 411.787 334.142C408.66 347.644 393.428 355.488 377.533 349.959C362.987 344.901 352.875 331.228 358.166 310.182C359.366 305.445 361.551 301.48 363.222 298.951C363.222 298.951 363.222 298.951 363.222 298.93C363.286 298.78 363.886 297.58 365.065 295.844C369.67 288.9 382.995 273.298 406.153 280.799C427.49 287.721 432.824 303.195 433.339 315.711Z" fill="#FFCCDC"/>
<g opacity="0.4">
<path opacity="0.4" d="M410.931 282.578C413.394 283.649 411.959 287.357 409.41 286.5C409.302 286.457 409.195 286.435 409.088 286.392C385.93 278.891 372.605 294.494 368 301.437C366.843 303.173 366.243 304.374 366.157 304.524V304.545C364.486 307.074 362.301 311.039 361.101 315.775C358.895 324.519 359.366 331.978 361.68 338.086C357.052 331.163 355.274 321.798 358.209 310.16C359.409 305.424 361.594 301.459 363.265 298.93C363.265 298.93 363.265 298.93 363.265 298.909C363.329 298.758 363.929 297.558 365.107 295.822C369.713 288.878 383.038 273.276 406.196 280.777C407.867 281.356 409.431 281.935 410.931 282.578Z" fill="white"/>
</g>
<path d="M102.551 315.711C111.141 323.834 122.924 329.063 124.102 334.142C127.229 347.644 142.461 355.488 158.357 349.959C172.903 344.901 183.014 331.228 177.723 310.182C176.523 305.445 174.338 301.48 172.667 298.951C172.667 298.951 172.667 298.951 172.667 298.93C172.603 298.78 172.003 297.58 170.825 295.844C166.219 288.9 152.894 273.298 129.736 280.799C108.42 287.721 103.065 303.195 102.551 315.711Z" fill="#FFCCDC"/>
<g opacity="0.4">
<path opacity="0.4" d="M173.802 338.729C176.287 332.535 176.823 324.905 174.574 315.947C173.374 311.21 171.189 307.246 169.518 304.717C169.518 304.717 169.518 304.717 169.518 304.695C169.454 304.545 168.854 303.345 167.676 301.609C163.07 294.665 149.745 279.063 126.587 286.564C126.48 286.607 126.373 286.628 126.287 286.671C123.695 287.528 122.259 283.799 124.744 282.685C126.287 281.999 127.958 281.377 129.715 280.799C152.872 273.298 166.197 288.9 170.803 295.844C171.96 297.58 172.56 298.78 172.646 298.93V298.951C174.317 301.48 176.502 305.445 177.701 310.182C180.722 322.162 178.751 331.763 173.802 338.729Z" fill="white"/>
</g>
<path d="M387.858 355.037C384.088 355.037 380.232 354.394 376.483 353.087C362.044 348.072 348.826 333.949 354.996 309.388C356.11 304.994 357.974 301.244 359.645 298.501C355.039 298.072 347.969 297.708 340.557 298.522C340.428 298.543 340.321 298.543 340.193 298.543H195.761C195.632 298.543 195.525 298.543 195.397 298.522C188.006 297.708 180.915 298.072 176.309 298.501C177.98 301.244 179.844 304.994 180.958 309.388C187.149 333.949 173.91 348.072 159.471 353.087C150.559 356.195 141.133 355.595 133.614 351.437C127.08 347.836 122.559 341.964 120.931 334.913C120.524 333.156 115.811 329.855 112.019 327.198C99.8299 318.689 79.4355 304.437 97.0878 278.44C123.631 239.349 188.756 241.342 192.44 241.492H343.492C347.177 241.342 412.302 239.349 438.844 278.44C456.497 304.437 436.102 318.689 423.913 327.198C420.121 329.855 415.408 333.156 415.001 334.913C413.373 341.964 408.853 347.836 402.319 351.437C397.97 353.816 393 355.037 387.858 355.037ZM189.698 248.029C177.423 248.029 124.423 249.936 102.572 282.127C89.6113 301.222 100.387 310.995 115.811 321.775C121.724 325.912 126.394 329.169 127.38 333.391C128.579 338.599 131.943 342.95 136.827 345.629C142.718 348.887 150.173 349.315 157.328 346.829C172.453 341.557 178.901 328.162 174.574 310.952C172.71 303.537 168.018 298.115 167.976 298.05C167.204 297.15 166.947 295.907 167.354 294.793C167.74 293.678 168.725 292.843 169.882 292.65C170.396 292.564 182.457 290.485 195.932 291.921H340C353.496 290.485 365.557 292.564 366.05 292.65C367.228 292.864 368.192 293.678 368.578 294.814C368.963 295.929 368.728 297.193 367.935 298.093C367.892 298.136 363.201 303.58 361.337 310.995C357.01 328.183 363.458 341.6 378.582 346.872C385.716 349.358 393.193 348.929 399.084 345.672C403.968 342.971 407.332 338.621 408.531 333.434C409.517 329.212 414.187 325.955 420.099 321.818C435.524 311.038 446.299 301.265 433.339 282.17C408.681 245.843 344.285 248.093 343.642 248.115C343.599 248.115 343.556 248.115 343.513 248.115H192.376C192.333 248.115 192.29 248.115 192.248 248.115C192.183 248.072 191.262 248.029 189.698 248.029Z" fill="#000072"/>
<path d="M155.122 278.806C157.071 279.449 158.871 280.349 160.627 281.335C162.363 282.342 164.034 283.499 165.619 284.764C167.204 286.028 168.725 287.4 170.053 288.964C170.718 289.736 171.339 290.572 171.874 291.45C172.453 292.308 172.903 293.251 173.31 294.215C174.017 295.908 173.224 297.858 171.532 298.566C170.203 299.123 168.725 298.759 167.804 297.773L167.633 297.58C166.412 296.251 165.448 294.794 164.376 293.358C163.327 291.9 162.363 290.357 161.292 288.857C159.192 285.814 156.9 282.792 154.586 279.577L154.565 279.556C154.415 279.341 154.458 279.02 154.672 278.87C154.801 278.784 154.972 278.763 155.122 278.806Z" fill="#000072"/>
<path d="M381.432 279.577C379.097 282.771 376.804 285.792 374.683 288.836C373.612 290.336 372.648 291.9 371.599 293.336C370.527 294.794 369.563 296.23 368.342 297.558L368.192 297.73C366.971 299.059 364.893 299.144 363.565 297.923C362.515 296.958 362.237 295.48 362.772 294.237C363.179 293.272 363.629 292.329 364.208 291.472C364.743 290.593 365.365 289.757 366.029 288.986C367.335 287.421 368.856 286.05 370.442 284.785C372.027 283.521 373.677 282.363 375.412 281.356C377.168 280.349 378.947 279.449 380.896 278.806C381.153 278.72 381.432 278.849 381.517 279.106C381.56 279.277 381.517 279.427 381.432 279.577Z" fill="#000072"/>
<path d="M364.4 358.767C364.4 358.767 350.476 375.634 321.469 386.778C307.159 392.286 289.164 396.38 267.355 396.38H267.141C242.162 396.38 222.175 390.979 207.008 384.292C182.05 373.298 170.075 358.767 170.075 358.767C170.075 351.566 183.293 282.148 183.293 282.148H351.183C351.183 282.148 364.4 351.544 364.4 358.767Z" fill="white"/>
<path d="M322.947 373.64C322.947 378.163 322.433 382.556 321.469 386.757C307.159 392.265 289.164 396.358 267.355 396.358H267.141C242.162 396.358 222.175 390.957 207.008 384.271C206.386 380.82 206.044 377.262 206.044 373.619C206.044 341.321 232.222 315.132 264.506 315.132C296.769 315.175 322.947 341.343 322.947 373.64Z" fill="#FFCCDC"/>
<path d="M352.254 281.935C353.603 284.978 354.653 288.085 355.574 291.214C356.517 294.344 357.31 297.494 358.017 300.644C359.452 306.967 360.652 313.353 361.723 319.74L364.872 338.964L366.457 348.609L367.164 353.474L367.485 355.96C367.592 356.796 367.635 357.824 367.7 358.746C367.742 359.475 367.507 360.182 367.057 360.696L366.928 360.846C366.479 361.382 366.093 361.789 365.686 362.239C365.279 362.689 364.872 363.097 364.465 363.504C363.651 364.361 362.794 365.154 361.958 365.926L360.694 367.104L359.388 368.219C358.509 368.947 357.652 369.74 356.731 370.448C354.91 371.841 353.132 373.32 351.226 374.584L348.398 376.556C347.455 377.199 346.47 377.777 345.484 378.399C337.708 383.242 329.46 387.293 320.891 390.465C303.689 396.68 285.415 399.616 267.249 399.659C249.082 399.638 230.808 396.68 213.606 390.465C205.037 387.293 196.768 383.242 189.013 378.399C188.049 377.777 187.063 377.199 186.099 376.556L183.271 374.584C181.365 373.298 179.587 371.841 177.766 370.448C176.845 369.762 176.009 368.969 175.109 368.219L173.803 367.104L172.539 365.926C171.682 365.133 170.846 364.34 170.032 363.504C169.625 363.075 169.197 362.689 168.811 362.239C168.404 361.789 168.019 361.382 167.569 360.846L167.462 360.696C166.99 360.139 166.776 359.41 166.819 358.746C166.883 357.824 166.926 356.796 167.033 355.96L167.354 353.474L168.061 348.609C168.575 345.394 169.09 342.179 169.647 338.964C170.739 332.556 171.853 326.17 173.01 319.783C173.588 316.59 174.167 313.396 174.66 310.203C175.174 307.01 175.645 303.795 176.266 300.602C177.573 294.258 179.03 287.914 182.243 281.935C182.543 281.377 183.25 281.163 183.807 281.463C184.15 281.656 184.364 281.977 184.407 282.342C185.2 289.093 184.278 295.501 183.229 301.887C182.672 305.081 181.965 308.231 181.301 311.403C180.636 314.575 180.058 317.768 179.48 320.94C178.323 327.306 177.209 333.692 176.116 340.057C175.581 343.251 175.067 346.423 174.552 349.616L173.867 354.352L173.567 356.688C173.481 357.46 173.46 358.06 173.396 358.746L172.646 356.646C172.903 356.967 173.288 357.374 173.631 357.739C173.974 358.124 174.36 358.489 174.724 358.874C175.452 359.646 176.245 360.375 177.037 361.103L178.216 362.196L179.437 363.247C180.272 363.932 181.065 364.661 181.922 365.325C183.636 366.633 185.307 368.026 187.106 369.226L189.763 371.091C190.662 371.691 191.605 372.248 192.505 372.827C199.874 377.413 207.715 381.271 215.877 384.293C232.265 390.208 249.725 393.037 267.249 393.08C284.751 393.058 302.232 390.208 318.62 384.293C326.782 381.271 334.623 377.413 341.992 372.827C342.914 372.248 343.835 371.691 344.734 371.091L347.391 369.226C349.19 368.026 350.861 366.633 352.575 365.325C353.432 364.661 354.225 363.932 355.06 363.247L356.281 362.196L357.46 361.103C358.252 360.375 359.023 359.646 359.773 358.874C360.137 358.489 360.523 358.124 360.866 357.739C361.209 357.353 361.594 356.967 361.851 356.646L361.101 358.746C361.037 358.06 361.016 357.46 360.93 356.688L360.63 354.352L359.945 349.616C359.43 346.444 358.938 343.251 358.381 340.057C357.267 333.692 356.067 327.327 354.803 320.983C353.561 314.618 352.447 308.253 351.504 301.845C351.033 298.63 350.626 295.415 350.39 292.179C350.133 288.943 349.962 285.664 350.112 282.342C350.133 281.72 350.669 281.227 351.29 281.249C351.718 281.292 352.082 281.549 352.254 281.935Z" fill="#000072"/>
<path d="M252.231 74.4968C253.152 34.6123 270.483 2.65763 276.91 2.80765C283.337 2.95768 299.168 35.6625 298.247 75.547" fill="#FDD800"/>
<path d="M298.761 75.5684L297.69 75.547C298.59 36.4341 283.016 3.49353 276.867 3.34351C276.846 3.34351 276.846 3.34351 276.824 3.34351C274.125 3.34351 268.384 10.5017 262.964 23.8322C259.365 32.6835 253.281 51.0505 252.724 74.4968L251.653 74.4754C252.188 50.8576 258.337 32.3621 261.957 23.425C267.013 10.9303 273.118 2.25049 276.803 2.25049C276.824 2.25049 276.846 2.25049 276.867 2.25049C283.53 2.44337 299.704 35.0839 298.761 75.5684Z" fill="#000072"/>
<g opacity="0.6">
<path opacity="0.6" d="M274.468 16.4808C270.805 17.9168 260.886 39.1556 265.47 47.3425C266.22 48.6927 267.998 47.2354 269.884 44.9636C274.254 39.6485 276.675 32.9833 277.017 26.1037C277.253 20.8315 276.932 15.5164 274.468 16.4808Z" fill="white"/>
</g>
<g opacity="0.3">
<path opacity="0.3" d="M298.226 75.5685L252.21 74.5183C252.381 67.5102 253.045 60.7592 254.073 54.3725L266.627 54.6726C278.067 54.9297 287.172 45.0283 285.779 33.648C284.387 22.2035 281.794 11.9377 278.881 3.66504C286.079 9.02297 299.061 39.3274 298.226 75.5685Z" fill="#000072"/>
</g>
<path d="M298.226 78.3758C298.204 78.3758 298.183 78.3758 298.161 78.3758C296.598 78.333 295.376 77.0471 295.419 75.504C296.319 36.0267 281.195 7.45824 276.824 5.67941C272.368 7.26536 255.937 35.1052 255.037 74.5824C254.995 76.1469 253.666 77.3471 252.167 77.3257C250.603 77.2828 249.382 75.9969 249.425 74.4538C249.982 50.4717 256.216 31.6761 259.9 22.6105C262.043 17.274 269.605 0 276.846 0C276.889 0 276.91 0 276.953 0C286.657 0.214317 301.932 36.9483 301.053 75.6326C301.011 77.1542 299.768 78.3758 298.226 78.3758Z" fill="#000072"/>
<path d="M253.002 64.4882C251.888 64.4882 250.946 63.6309 250.839 62.5165C250.732 61.3163 251.61 60.2661 252.81 60.159C280.231 57.7586 293.513 41.642 293.641 41.4919C294.391 40.5704 295.762 40.4203 296.683 41.1705C297.604 41.9206 297.776 43.2708 297.026 44.2138C296.448 44.9424 282.544 61.9164 253.174 64.4882C253.131 64.4882 253.067 64.4882 253.002 64.4882Z" fill="#000072"/>
<path d="M257.501 40.6775C256.43 40.6775 255.487 39.8845 255.359 38.7915C255.209 37.6127 256.044 36.5197 257.222 36.3697C257.437 36.3483 277.895 33.5621 287.45 20.103C288.135 19.1386 289.506 18.9028 290.47 19.5887C291.435 20.2745 291.67 21.6461 290.985 22.6105C280.316 37.6342 258.679 40.5489 257.758 40.656C257.694 40.656 257.587 40.6775 257.501 40.6775Z" fill="#000072"/>
<g opacity="0.3">
<g opacity="0.3">
<path opacity="0.3" d="M365.664 245.864C355.403 275.376 333.852 294.171 264.485 294.021C219.369 293.936 189.077 272.933 171.832 245.671C183.914 244.385 192.376 244.75 192.376 244.75H343.556C343.578 244.771 352.768 244.385 365.664 245.864Z" fill="#390075"/>
</g>
<g opacity="0.3">
<path opacity="0.3" d="M265.213 294.579C264.978 294.579 264.721 294.579 264.485 294.579C224.21 294.493 191.155 277.241 171.382 245.993L170.932 245.265L171.789 245.179C183.764 243.914 192.333 244.257 192.419 244.257H343.578C343.642 244.257 352.939 243.893 365.729 245.35L366.393 245.436L366.178 246.058C356.046 275.162 334.966 294.579 265.213 294.579ZM172.753 246.143C192.355 276.619 224.896 293.422 264.485 293.507C333.659 293.679 354.846 274.776 364.936 246.336C352.575 244.965 343.685 245.307 343.599 245.307H192.397C192.29 245.307 184.193 244.986 172.753 246.143Z" fill="#000072"/>
</g>
</g>
<path d="M377.233 220.554C377.061 221.347 376.868 222.161 376.676 222.954C376.311 224.433 375.926 225.912 375.476 227.391C374.126 232.02 372.391 236.671 370.27 241.3C351.847 281.27 292.184 281.484 270.333 280.627C248.461 280.477 189.141 277.52 172.603 236.735C170.739 232.149 169.261 227.562 168.125 223.019C167.911 222.14 167.697 221.261 167.504 220.383C167.183 218.947 166.904 217.532 166.669 216.118C156.921 160.695 195.675 112.367 195.675 112.367C195.675 112.367 165.79 93.3138 180.165 70.3604C191.391 52.4435 227.231 60.2018 235.757 87.6773L314.057 89.4775C323.826 62.4307 359.987 56.3226 370.377 74.7539C383.659 98.3288 352.939 115.989 352.939 115.989C352.939 115.989 389.251 165.796 377.233 220.554Z" fill="white"/>
<path d="M279.609 281.334C276.332 281.334 273.225 281.27 270.312 281.141C240.256 280.949 187.513 274.926 172.11 236.928C170.289 232.427 168.768 227.798 167.611 223.126C167.397 222.247 167.183 221.347 166.99 220.468C166.69 219.075 166.39 217.618 166.155 216.182C156.986 164.017 191.026 117.553 194.925 112.452C191.091 109.816 166.283 91.5349 179.715 70.0603C184.343 62.6663 193.469 59.0658 204.094 60.4589C215.448 61.9377 230.594 69.8245 236.143 87.1414L313.693 88.9202C320.034 71.8605 335.523 64.7024 346.919 63.7379C357.609 62.8378 366.564 66.8455 370.849 74.4538C383.295 96.5285 357.674 113.631 353.71 116.096C357.352 121.346 389.079 169.096 377.768 220.618C377.597 221.433 377.404 222.226 377.211 223.04C376.826 224.626 376.419 226.083 376.011 227.498C374.619 232.234 372.862 236.928 370.763 241.471C355.253 275.162 310.372 281.334 279.609 281.334ZM199.681 61.2518C191.348 61.2518 184.385 64.6166 180.615 70.6604C166.69 92.8851 195.675 111.724 195.975 111.916L196.468 112.238L196.104 112.709C195.718 113.181 157.607 161.488 167.204 216.032C167.461 217.446 167.74 218.882 168.04 220.275C168.233 221.154 168.447 222.033 168.661 222.911C169.796 227.519 171.296 232.127 173.096 236.563C188.284 273.983 240.534 279.92 270.333 280.113C300.239 281.291 352.875 277.777 369.777 241.085C371.855 236.585 373.591 231.934 374.962 227.262C375.39 225.848 375.776 224.412 376.161 222.847C376.354 222.054 376.547 221.261 376.718 220.468C388.544 166.589 352.875 116.824 352.511 116.331L352.168 115.838L352.682 115.538C352.982 115.367 382.781 97.8787 369.927 75.0324C365.857 67.7885 357.288 63.9951 347.027 64.8524C335.865 65.7954 320.655 72.8464 314.571 89.6917L314.443 90.0561L235.371 88.2344L235.264 87.8701C229.973 70.7675 215.106 63.0092 203.987 61.5733C202.509 61.3376 201.074 61.2518 199.681 61.2518Z" fill="#000072"/>
<path d="M351 100.392C357.66 96.5456 360.436 88.8818 357.2 83.2749C353.964 77.6679 345.942 76.2411 339.282 80.0879C332.622 83.9347 329.846 91.5985 333.082 97.2055C336.318 102.812 344.34 104.239 351 100.392Z" fill="#F883A0"/>
<path d="M216.06 94.4805C219.551 89.0283 217.131 81.2442 210.655 77.0943C204.179 72.9443 196.099 74 192.608 79.4521C189.117 84.9043 191.537 92.6884 198.013 96.8384C204.489 100.988 212.569 99.9327 216.06 94.4805Z" fill="#F883A0"/>
<path d="M375.476 227.391C374.126 232.02 372.391 236.671 370.27 241.3C351.847 281.271 292.184 281.485 270.333 280.628C248.461 280.478 189.141 277.52 172.603 236.735C170.739 232.149 169.261 227.563 168.125 223.019C193.04 209.431 230.701 201.266 272.69 202.23C314.271 203.195 351.225 212.903 375.476 227.391Z" fill="#FFEBF6"/>
<path d="M279.609 283.606C276.31 283.606 273.161 283.542 270.226 283.413C239.677 283.22 185.928 277.005 169.989 237.785C159.171 211.167 159.835 180.712 171.853 149.722C178.923 131.505 187.856 118.217 191.648 113.009C180.594 104.908 166.133 87.4414 177.766 68.8815C182.886 60.6946 192.847 56.7083 204.373 58.2085C216.477 59.7944 232.651 68.2385 238.414 86.8413C238.863 88.3201 238.049 89.906 236.55 90.3775C235.072 90.849 233.486 90.0132 233.015 88.513C228.366 73.4679 214.891 65.2595 203.623 63.8022C194.326 62.602 186.421 65.6024 182.5 71.8605C169.797 92.1349 196.018 109.259 197.153 109.966C197.817 110.395 198.289 111.102 198.417 111.874C198.546 112.667 198.332 113.459 197.839 114.102C197.368 114.703 150.345 174.518 175.174 235.663C189.87 271.861 241.091 277.605 270.312 277.798C299.725 278.955 351.311 275.59 367.657 240.1C395.271 180.155 351.054 118.239 350.604 117.617C350.133 116.974 349.962 116.16 350.133 115.367C350.304 114.574 350.797 113.91 351.483 113.502C352.639 112.838 379.611 96.9571 367.871 76.104C364.25 69.6745 356.495 66.2883 347.155 67.0812C335.823 68.0242 322.005 75.6111 316.649 90.4204C316.114 91.8777 314.507 92.6493 313.05 92.1135C311.593 91.5777 310.822 89.9703 311.358 88.513C317.977 70.1888 334.516 62.4948 346.684 61.4661C358.295 60.5017 368.042 64.9381 372.777 73.3393C383.531 92.435 368.299 109.195 356.881 116.781C360.437 122.161 368.749 135.834 374.983 154.373C385.566 185.877 384.816 216.332 372.798 242.436C356.795 277.262 310.951 283.606 279.609 283.606Z" fill="#000072"/>
<path d="M360.152 218.129C361.405 212.94 356.044 207.192 348.178 205.291C340.312 203.391 332.92 206.056 331.667 211.245C330.414 216.433 335.775 222.181 343.641 224.082C351.507 225.983 358.9 223.317 360.152 218.129Z" fill="#FDC1E5"/>
<path d="M199.777 224.071C207.643 222.17 213.004 216.422 211.752 211.234C210.499 206.045 203.106 203.38 195.24 205.281C187.374 207.182 182.013 212.929 183.266 218.118C184.519 223.306 191.911 225.972 199.777 224.071Z" fill="#FDC1E5"/>
<path d="M195.675 115.174C195.054 115.174 194.411 114.96 193.897 114.531C192.697 113.545 192.526 111.767 193.511 110.566C193.769 110.245 199.981 102.722 204.544 98.5432C205.701 97.4931 207.479 97.5788 208.529 98.7361C209.579 99.8935 209.493 101.672 208.336 102.722C204.051 106.623 197.925 114.081 197.86 114.146C197.303 114.81 196.489 115.174 195.675 115.174Z" fill="#000072"/>
<g opacity="0.2">
<path opacity="0.2" d="M351.675 109.087C351.675 109.087 343.406 139.649 316.521 135.834C314.443 135.534 312.3 135.084 310.115 134.42C305.852 136.048 286.293 142.907 269.026 138.534C244.969 142.949 222.432 141.278 212.706 122.289C208.507 114.102 208.229 106.194 209.643 99.3573C213.156 82.4691 228.966 71.1746 246.104 72.9105C248.054 70.7245 250.496 68.9457 253.259 67.7241C270.955 59.9443 283.637 66.5453 289.699 71.2817C292.142 69.6101 295.119 68.7528 298.226 68.9671C305.167 69.4386 311.358 71.7104 316.156 74.1107C321.705 76.8968 325.904 81.7833 327.853 87.6556C334.194 106.751 351.675 109.087 351.675 109.087Z" fill="#000072"/>
</g>
<path d="M246.147 65.3881C228.966 63.6307 213.135 74.9038 209.621 91.8134C208.207 98.6502 208.486 106.58 212.685 114.767C222.839 134.591 247.004 135.556 272.283 130.369C272.283 130.369 247.175 84.1837 255.294 67.1884C255.294 67.1884 251.653 65.9453 246.147 65.3881Z" fill="#FEF26B"/>
<g opacity="0.6">
<path opacity="0.6" d="M250.282 76.147C250.282 76.147 246.64 74.9039 241.134 74.3467C229.202 73.1251 217.933 78.183 210.971 87.0557C216.198 72.825 230.616 63.7809 246.147 65.3668C251.631 65.924 255.295 67.1671 255.295 67.1671C247.175 84.1624 244.198 88.9203 250.282 76.147Z" fill="white"/>
</g>
<g opacity="0.2">
<path opacity="0.2" d="M272.283 130.348C247.025 135.534 222.861 134.57 212.706 114.745C208.507 106.558 208.229 98.65 209.643 91.7919C210.478 87.7842 211.999 84.0979 214.077 80.8188C213.413 86.8197 214.184 93.4636 217.676 100.3C226.331 117.188 245.119 120.382 266.092 117.767C269.498 125.247 272.283 130.348 272.283 130.348Z" fill="#000072"/>
</g>
<path d="M248.739 135.877C229.673 135.877 216.969 129.319 210.178 116.053C206.194 108.252 205.08 99.9149 206.879 91.2565C210.671 72.9966 227.681 60.6734 246.447 62.6023C252.188 63.2023 256.044 64.4882 256.216 64.5311C256.987 64.7883 257.587 65.3669 257.908 66.0956C258.23 66.8457 258.208 67.6816 257.865 68.4103C251.717 81.2693 267.998 116.524 274.789 129.019C275.218 129.812 275.239 130.734 274.875 131.548C274.489 132.363 273.761 132.941 272.883 133.113C263.907 134.956 255.894 135.877 248.739 135.877ZM242.591 68.0245C228.045 68.0245 215.363 78.0331 212.385 92.3924C210.864 99.7649 211.807 106.859 215.191 113.481C222.882 128.483 240.17 133.348 268.02 128.312C262.407 117.403 247.368 85.8771 251.631 69.1175C250.175 68.796 248.182 68.4317 245.869 68.1745C244.776 68.0673 243.684 68.0245 242.591 68.0245Z" fill="#000072"/>
<path d="M253.238 60.202C246.961 62.9667 242.441 68.6461 241.22 75.3971C239.206 86.5416 238.542 105.08 251.16 120.125C270.676 143.379 310.929 126.555 310.929 126.555C310.929 126.555 291.306 79.662 293.706 67.5102C293.727 67.5102 278.645 49.0146 253.238 60.202Z" fill="#FD6CCB"/>
<g opacity="0.6">
<path opacity="0.6" d="M290.856 74.8613C290.856 74.8613 275.775 56.3871 250.367 67.5531C246.554 69.2462 243.383 71.9894 241.22 75.4185V75.3971C242.441 68.6461 246.961 62.9667 253.238 60.202C278.645 49.036 293.727 67.5102 293.727 67.5102C291.327 79.662 288.971 84.4413 290.856 74.8613Z" fill="white"/>
</g>
<g opacity="0.2">
<path opacity="0.2" d="M310.951 126.554C310.951 126.554 270.676 143.378 251.181 120.104C238.564 105.058 239.206 86.52 241.241 75.3755C241.863 71.9893 243.298 68.8817 245.376 66.2456C244.005 77.4758 244.798 93.5068 255.959 106.816C269.712 123.233 293.834 119.675 306.816 116.16C309.194 122.375 310.951 126.554 310.951 126.554Z" fill="#000072"/>
</g>
<path d="M281.323 135.298C269.926 135.298 257.694 132.255 249.018 121.903C235.371 105.615 236.528 85.4481 238.456 74.8608C239.849 67.2097 244.947 60.7373 252.102 57.5868L253.238 60.1586L252.102 57.5868C279.159 45.6922 295.741 65.4951 295.89 65.688C296.426 66.331 296.64 67.1882 296.469 68.0241C294.648 77.304 308.166 112.602 313.543 125.44C313.821 126.126 313.843 126.897 313.543 127.604C313.264 128.29 312.707 128.847 312.022 129.126C311.036 129.555 296.983 135.298 281.323 135.298ZM269.262 59.4085C264.87 59.4085 259.9 60.3301 254.373 62.7733C248.932 65.1736 245.054 70.0601 244.005 75.8895C241.884 87.6341 241.777 104.522 253.345 118.303C268.534 136.413 298.247 128.012 307.245 124.925C302.981 114.488 289.849 81.1189 290.77 68.4527C288.414 66.0095 280.959 59.4085 269.262 59.4085Z" fill="#000072"/>
<path d="M298.226 61.4236C291.713 60.9736 285.822 65.2385 284.215 71.5823C282.33 79.0834 281.087 90.335 285.393 102.487C291.82 120.64 305.488 126.726 316.521 128.291C343.406 132.105 351.675 101.544 351.675 101.544C351.675 101.544 334.173 99.2078 327.853 80.1335C325.904 74.2398 321.705 69.3534 316.156 66.5887C311.358 64.1669 305.166 61.8951 298.226 61.4236Z" fill="#39D5FF"/>
<g opacity="0.6">
<path opacity="0.6" d="M348.633 100.815C343.856 100.429 330.981 98.0932 323.333 83.8839C320.398 78.4188 315.407 74.3254 309.473 72.5466C304.353 71.0035 297.84 69.8461 290.942 70.5748C288.221 70.8534 285.736 71.9465 283.744 73.5967C283.894 72.9109 284.044 72.2251 284.215 71.5821C285.822 65.2598 291.713 60.9734 298.226 61.4235C305.145 61.895 311.358 64.1667 316.135 66.5671C321.684 69.3532 325.882 74.2182 327.832 80.1119C332.545 94.2355 343.342 99.1862 348.633 100.815Z" fill="white"/>
</g>
<g opacity="0.2">
<path opacity="0.2" d="M351.675 101.522C351.675 101.522 343.406 132.105 316.521 128.269C305.509 126.705 291.82 120.639 285.393 102.465C281.087 90.3135 282.33 79.0618 284.215 71.5607C284.515 70.382 284.965 69.2675 285.543 68.2603C285.115 74.4326 285.65 81.6122 288.328 89.1776C294.755 107.33 308.423 113.417 319.455 114.981C334.28 117.082 343.449 108.745 348.676 100.836C350.497 101.372 351.675 101.522 351.675 101.522Z" fill="#000072"/>
</g>
<path d="M321.084 131.441C319.498 131.441 317.849 131.334 316.114 131.076C306.838 129.769 290.149 124.411 282.737 103.429C278.174 90.5276 279.545 78.6115 281.495 70.8961C283.423 63.245 290.513 58.08 298.418 58.6157C304.695 59.0444 311.079 60.8875 317.399 64.0594C323.633 67.1884 328.303 72.5892 330.51 79.2331C336.187 96.3142 351.397 98.6502 352.061 98.7574C352.854 98.8645 353.582 99.3146 354.032 100C354.482 100.665 354.61 101.501 354.396 102.294C354.31 102.572 346.191 131.441 321.084 131.441ZM297.283 64.2094C292.442 64.2094 288.157 67.4885 286.957 72.2678C285.201 79.2331 283.958 89.9704 288.05 101.543C294.155 118.817 307.116 124.09 316.906 125.483C336.679 128.29 345.356 110.631 348.033 103.558C342.228 101.844 330.338 96.5285 325.175 80.9905C323.44 75.7611 319.777 71.5176 314.893 69.0744C309.237 66.2454 303.56 64.6166 298.033 64.2309C297.776 64.2094 297.54 64.2094 297.283 64.2094Z" fill="#000072"/>
<path d="M282.11 216.327C283.472 214.613 283.804 212.609 282.85 211.85C281.896 211.091 280.019 211.865 278.656 213.579C277.294 215.292 276.962 217.297 277.916 218.056C278.87 218.815 280.747 218.041 282.11 216.327Z" fill="#000072"/>
<path d="M265.47 213.267C266.756 215.046 266.991 217.06 266.006 217.767C265.021 218.475 263.178 217.617 261.893 215.86C260.607 214.081 260.372 212.067 261.357 211.359C262.364 210.631 264.185 211.488 265.47 213.267Z" fill="#000072"/>
<path d="M262 228.934C264.292 230.649 266.713 231.827 269.241 232.299C271.769 232.792 274.361 232.663 276.824 232.02C279.288 231.356 281.602 230.199 283.68 228.613C285.779 227.048 287.579 225.033 289.335 222.633L289.378 222.569C289.935 221.819 290.985 221.647 291.735 222.204C292.249 222.59 292.484 223.19 292.42 223.79C291.97 227.198 290.256 230.499 287.771 233.113C285.265 235.706 281.966 237.571 278.388 238.407C274.832 239.243 271.019 239.093 267.591 237.785C264.164 236.499 261.207 234.078 259.472 231.077C259.001 230.284 259.279 229.256 260.093 228.784C260.693 228.441 261.421 228.505 261.936 228.891L262 228.934Z" fill="#000072"/>
<path d="M327.253 169.524C325.004 170.596 322.733 171.753 320.677 173.039C318.599 174.325 316.649 175.74 314.871 177.261C313.971 178.011 313.157 178.847 312.322 179.662C311.572 180.54 310.758 181.355 310.094 182.298C308.637 184.077 307.566 186.113 306.538 188.17L301.503 183.927C302.189 183.519 302.66 183.305 303.217 183.048C303.753 182.791 304.288 182.598 304.824 182.383C305.895 181.976 307.009 181.676 308.123 181.398C310.351 180.883 312.622 180.648 314.893 180.755C317.142 180.862 319.413 181.183 321.512 181.933C323.633 182.576 325.604 183.648 327.382 184.827C327.939 185.191 328.089 185.92 327.725 186.477C327.468 186.884 326.996 187.056 326.546 186.991L326.397 186.97C325.411 186.82 324.468 186.563 323.504 186.413C322.54 186.305 321.619 186.134 320.655 186.113C318.77 185.984 316.928 186.07 315.128 186.327C313.329 186.563 311.551 186.991 309.858 187.591C309.001 187.891 308.187 188.234 307.373 188.599C306.966 188.792 306.581 188.984 306.195 189.177C305.831 189.37 305.402 189.627 305.209 189.756L305.145 189.799C303.538 190.806 301.418 190.335 300.411 188.727C299.79 187.741 299.747 186.52 300.175 185.513C301.332 182.855 302.66 180.197 304.567 177.969C305.424 176.768 306.516 175.804 307.523 174.754C308.637 173.832 309.73 172.846 310.951 172.096C313.329 170.489 315.921 169.246 318.599 168.41C321.298 167.596 324.019 167.103 326.889 167.231C327.553 167.253 328.068 167.81 328.046 168.474C328.025 168.924 327.746 169.332 327.361 169.503L327.253 169.524Z" fill="#000072"/>
<path d="M230.059 151.479L233.015 156.966C233.636 158.123 233.208 159.58 232.051 160.202C230.894 160.823 229.437 160.395 228.816 159.237C228.666 158.959 228.58 158.637 228.538 158.337L227.938 152.122C227.873 151.501 228.345 150.943 228.966 150.879C229.416 150.836 229.844 151.072 230.059 151.479Z" fill="#000072"/>
<path d="M219.711 154.565L224.339 159.194C225.26 160.116 225.26 161.616 224.339 162.538C223.417 163.459 221.918 163.459 220.997 162.538C220.847 162.388 220.697 162.195 220.59 162.002L217.441 156.258C217.055 155.572 217.312 154.694 217.998 154.308C218.576 154.008 219.261 154.115 219.711 154.565Z" fill="#000072"/>
<path d="M211.271 163.759L217.012 166.524C218.19 167.103 218.683 168.517 218.126 169.696C217.548 170.875 216.134 171.368 214.956 170.811C214.72 170.703 214.506 170.553 214.334 170.382L209.771 165.945C209.236 165.431 209.236 164.574 209.75 164.06C210.157 163.609 210.778 163.524 211.271 163.759Z" fill="#000072"/>
<path d="M250.214 185.382C253.267 172.738 247.202 160.424 236.668 157.878C226.134 155.332 215.119 163.519 212.066 176.163C209.013 188.807 215.078 201.12 225.612 203.666C236.146 206.212 247.161 198.026 250.214 185.382Z" fill="#000072"/>
<path d="M240.817 174.498C241.483 170.649 239.481 167.089 236.345 166.545C233.21 166.002 230.127 168.681 229.461 172.53C228.794 176.378 230.796 179.939 233.932 180.482C237.068 181.026 240.15 178.346 240.817 174.498Z" fill="white"/>
<path d="M229.887 192.05C229.48 194.364 227.638 195.972 225.753 195.65C223.867 195.329 222.668 193.186 223.053 190.871C223.46 188.556 225.303 186.949 227.188 187.27C229.073 187.592 230.273 189.735 229.887 192.05Z" fill="white"/>
<g opacity="0.4">
<path opacity="0.4" d="M271.147 331.635C282.244 328.806 299.447 334.335 303.774 351.223C307.844 367.083 301.053 366.933 298.226 362.754C295.398 358.575 285.308 348.352 275.325 345.287C265.363 342.222 263.371 333.607 271.147 331.635Z" fill="white"/>
</g>
<g opacity="0.3">
<path opacity="0.3" d="M433.339 315.71C424.748 323.833 412.966 329.062 411.787 334.142C408.66 347.644 393.428 355.488 377.533 349.958C363.736 345.158 353.925 332.62 357.481 313.374C359.002 330.927 365.129 339.435 375.476 341.086C389.701 343.336 403.133 336.949 409.667 324.733C415.901 313.117 426.569 312.067 435.181 303.944C438.523 300.794 439.551 294.214 441.115 290.014C444.864 301.244 440.065 309.367 433.339 315.71Z" fill="#000072"/>
</g>
<g opacity="0.3">
<path opacity="0.3" d="M102.615 315.71C111.205 323.833 122.988 329.062 124.166 334.142C127.294 347.644 142.525 355.488 158.421 349.958C172.217 345.158 182.029 332.62 178.473 313.374C176.952 330.927 170.825 339.435 160.478 341.086C146.253 343.336 132.821 336.949 126.287 324.733C120.053 313.117 109.384 312.067 100.773 303.944C97.4306 300.794 96.4023 294.214 94.8385 290.014C91.0895 301.244 95.8882 309.367 102.615 315.71Z" fill="#000072"/>
</g>
<g opacity="0.3">
<path opacity="0.3" d="M364.4 358.768C364.4 358.768 350.476 375.634 321.469 386.779C307.159 392.287 289.164 396.38 267.355 396.38H267.141C242.162 396.38 222.175 390.98 207.008 384.293C182.05 373.298 170.075 358.768 170.075 358.768C170.075 353.453 177.294 314.19 181.043 294.022C181.215 301.802 181.45 311.939 181.643 321.369C182.093 342.437 194.583 361.425 213.82 370.062C214.034 370.169 214.249 370.255 214.463 370.362C227.745 376.235 245.247 380.95 267.12 380.95H267.313C286.4 380.95 302.167 377.349 314.7 372.527C316.799 371.734 318.791 370.877 320.698 370.019C339.893 361.382 352.339 342.415 352.789 321.369C353.003 311.939 353.218 301.781 353.389 294.001C357.181 314.168 364.4 353.431 364.4 358.768Z" fill="#000072"/>
</g>
<path d="M297.754 474.005C289.035 465.283 274.896 466.847 266.177 475.57L264.828 476.92L263.478 475.57C254.759 466.847 240.62 465.283 231.901 474.005C223.182 482.728 223.182 496.873 231.901 505.596L233.25 506.946L260.672 534.379C262.964 536.672 266.691 536.672 269.005 534.379L296.426 506.946L297.776 505.596C306.473 496.873 306.473 482.728 297.754 474.005Z" fill="#FF0660"/>
<g opacity="0.3">
<path opacity="0.3" d="M297.754 474.006C296.64 472.891 295.441 471.948 294.177 471.177C297.497 479.278 295.891 488.922 289.314 495.502L287.964 496.852L260.543 524.285C258.251 526.578 254.523 526.578 252.21 524.285L227.616 499.681C228.666 501.824 230.08 503.839 231.858 505.618L233.208 506.968L260.629 534.4C262.921 536.694 266.649 536.694 268.962 534.4L296.383 506.968L297.733 505.618C306.473 496.873 306.473 482.728 297.754 474.006Z" fill="#000072"/>
</g>
<g opacity="0.7">
<path opacity="0.7" d="M235.243 479.899C243.962 471.176 258.101 472.741 266.82 481.464L268.17 482.814L269.519 481.464C278.238 472.741 292.377 471.176 301.096 479.899C301.696 480.499 302.253 481.142 302.789 481.807C301.696 478.956 300.025 476.299 297.733 474.005C289.014 465.283 274.875 466.847 266.156 475.57L264.806 476.92L263.457 475.57C254.738 466.847 240.599 465.283 231.88 474.005C223.76 482.128 223.203 494.923 230.187 503.71C227.124 495.716 228.816 486.329 235.243 479.899Z" fill="white"/>
</g>
<path d="M264.806 539.351C262.364 539.351 260.072 538.408 258.337 536.672L229.566 507.889C224.724 503.045 222.068 496.637 222.068 489.801C222.068 482.964 224.724 476.534 229.566 471.712C234.365 466.911 240.877 464.533 247.882 465.004C254.116 465.433 260.072 468.026 264.806 472.377C269.541 468.047 275.518 465.433 281.73 465.004C288.735 464.533 295.248 466.911 300.047 471.712C310.03 481.699 310.03 497.923 300.047 507.91L271.276 536.693C269.541 538.408 267.248 539.351 264.806 539.351ZM246.147 471.434C241.541 471.434 237.342 473.127 234.172 476.299C230.573 479.899 228.58 484.7 228.58 489.801C228.58 494.901 230.573 499.702 234.172 503.303L262.942 532.085C263.928 533.071 265.685 533.071 266.67 532.085L295.441 503.303C302.874 495.866 302.874 483.757 295.441 476.299C288.435 469.29 276.332 469.998 268.448 477.863L267.098 479.213C265.877 480.435 263.714 480.435 262.493 479.213L261.143 477.863C257.437 474.155 252.424 471.819 247.432 471.476C247.004 471.455 246.575 471.434 246.147 471.434Z" fill="#000072"/>
</g>
<defs>
<clipPath id="clip0_631_6449">
<rect width="496" height="679" fill="white"/>
</clipPath>
</defs>
</svg>
