<svg width="400" height="732" viewBox="0 0 400 732" fill="none" xmlns="http://www.w3.org/2000/svg">
<g clip-path="url(#clip0_631_6764)">
<path d="M268.144 509.354C267.544 522.698 292.297 553.742 332.145 531.215L322.959 496.803L271.249 478.417L268.144 509.354Z" fill="#FEF26B"/>
<path d="M305.059 542.586C294.995 542.586 287.415 539.26 282.726 536.364C270.585 528.898 264.397 516.777 264.74 509.182L264.761 508.989L268.315 473.719L325.828 494.165L336.17 532.888L333.858 534.197C322.809 540.44 313.131 542.586 305.059 542.586ZM271.57 509.59C271.42 514.31 275.96 524.157 286.302 530.529C294.717 535.72 308.72 539.582 328.141 529.499L320.133 499.464L274.247 483.137L271.57 509.59Z" fill="#390075"/>
<path d="M290.905 495.688C286.473 510.598 318.013 549.236 355.699 521.089L338.398 473.462L286.559 446.258L290.905 495.688Z" fill="#FD6CCB"/>
<path d="M328.719 531.601C318.313 531.601 310.412 527.246 306.365 524.414C295.402 516.734 288.1 503.583 290.37 495.645L286.045 446.323C286.023 446.13 286.109 445.937 286.28 445.829C286.452 445.722 286.644 445.701 286.837 445.808L338.676 473.011C338.804 473.075 338.89 473.183 338.933 473.311L356.234 520.939C356.319 521.153 356.234 521.411 356.041 521.561C345.913 529.091 336.599 531.601 328.719 531.601ZM287.201 447.202L291.462 495.645C291.462 495.709 291.462 495.773 291.441 495.838C289.449 502.553 295.231 515.275 307.007 523.513C321.525 533.682 339.04 532.717 355.099 520.896L338.012 473.826L287.201 447.202Z" fill="#102770"/>
<g opacity="0.3">
<path opacity="0.3" d="M355.72 521.11C318.034 549.257 286.494 510.619 290.905 495.687L286.559 446.279L298.035 452.308L300.99 486.054C297.008 499.463 322.103 532.03 354.585 518.042L355.72 521.11Z" fill="#390075"/>
</g>
<path d="M328.741 534.519C317.585 534.519 309.063 529.82 304.716 526.774C292.875 518.471 285.274 504.591 287.458 495.387L282.619 440.315L341.202 471.037L359.831 522.333L357.797 523.856C347.027 531.858 337.134 534.519 328.741 534.519ZM290.52 452.222L294.374 496.031L294.181 496.653C292.511 502.274 298.335 513.945 308.635 521.132C316.322 526.516 331.931 533.274 351.609 519.801L335.657 475.864L290.52 452.222Z" fill="#390075"/>
<path d="M388.716 504.011C370.73 532.073 310.069 520.616 309.812 485.389L305.573 477.409L316.728 455.14L292.554 343.645L339.425 352.098C339.425 352.098 353.322 364.09 353.557 395.52C353.707 414.12 342.123 444.456 339.061 467.24C346.02 457.607 355.57 448.082 366.362 447.631C390.215 446.623 407.238 475.135 388.716 504.011Z" fill="#39D5FF"/>
<path d="M355.078 520.294C349.361 520.294 343.665 519.458 338.547 517.956C324.522 513.88 309.47 503.239 309.277 485.54L305.102 477.688C305.016 477.537 305.016 477.344 305.102 477.194L316.172 455.097L292.019 343.795C291.976 343.623 292.04 343.43 292.147 343.302C292.276 343.173 292.447 343.109 292.64 343.151L339.511 351.604C339.597 351.626 339.704 351.669 339.768 351.733C339.918 351.862 353.857 364.262 354.093 395.563C354.178 406.225 350.517 420.363 346.641 435.359C344.029 445.507 341.31 455.976 339.896 465.244C348.697 453.595 357.583 447.524 366.34 447.137C377.261 446.687 387.089 452.222 392.656 461.962C399.658 474.191 398.351 490.023 389.187 504.333C381.821 515.768 368.332 520.294 355.078 520.294ZM306.172 477.43L310.283 485.153C310.326 485.239 310.348 485.325 310.348 485.411C310.476 502.595 325.143 512.957 338.847 516.948C355.998 521.925 378.481 518.986 388.266 503.754C397.217 489.787 398.501 474.362 391.714 462.498C386.339 453.102 376.854 447.76 366.362 448.21C355.377 448.682 345.678 459.001 339.468 467.583C339.318 467.776 339.061 467.862 338.826 467.776C338.59 467.69 338.462 467.454 338.483 467.197C339.811 457.371 342.723 446.043 345.571 435.08C349.425 420.17 353.065 406.097 352.979 395.563C352.765 366.236 340.41 353.835 339.125 352.655L293.196 344.374L317.199 455.075C317.221 455.204 317.199 455.311 317.157 455.44L306.172 477.43Z" fill="#102770"/>
<g opacity="0.35">
<path opacity="0.35" d="M354.456 461.04C357.004 458.337 364.477 452.845 375.868 457.565C386.189 461.812 391.821 478.074 384.241 478.418C378.973 478.654 379.273 468.012 371.971 465.395C366.683 463.486 358.139 468.999 355.12 467.047C352.037 465.073 353.193 462.392 354.456 461.04Z" fill="white"/>
</g>
<g opacity="0.3">
<path opacity="0.3" d="M389.851 502.167C389.487 502.789 389.123 503.411 388.716 504.012C370.73 532.073 310.069 520.617 309.812 485.39L318.805 475.307C319.019 506.436 366.404 519.008 389.851 502.167Z" fill="#390075"/>
<path opacity="0.3" d="M355.077 520.295C349.36 520.295 343.686 519.458 338.547 517.957C324.479 513.88 309.405 503.175 309.277 485.411V485.197L319.341 473.934V475.328C319.426 487.02 326.278 496.932 338.633 503.239C355.163 511.671 376.575 511.048 389.529 501.738L391.564 500.279L390.3 502.446C389.936 503.068 389.551 503.69 389.165 504.312C381.821 515.768 368.331 520.295 355.077 520.295ZM310.347 485.604C310.583 502.66 325.207 512.979 338.847 516.927C355.934 521.883 378.267 519.008 388.116 503.947C374.734 512.164 354.178 512.357 338.14 504.183C325.893 497.94 318.891 488.2 318.313 476.68L310.347 485.604Z" fill="#6B184E"/>
</g>
<path d="M356.041 522.44C349.96 522.44 343.922 521.539 338.461 519.952C318.441 514.138 305.787 500.472 305.251 484.145L301.718 477.473L313.131 454.69L288.122 339.354L340.945 348.901L341.652 349.524C342.273 350.06 356.726 362.911 356.983 395.52C357.069 406.569 353.364 420.9 349.446 436.068C348.011 441.581 346.555 447.288 345.271 452.866C350.195 448.253 357.069 444.628 366.212 444.22C378.224 443.705 389.037 449.798 395.161 460.503C402.698 473.676 401.37 490.646 391.606 505.878C383.984 517.763 369.916 522.44 356.041 522.44ZM309.427 477.388L312.082 482.386V483.223C312.189 499.42 326.77 509.418 340.367 513.365C355.912 517.871 376.768 516.283 385.825 502.167C394.197 489.123 395.439 474.813 389.208 463.915C384.369 455.483 375.911 450.699 366.49 451.085C348.397 451.858 342.894 467.776 342.144 470.329C341.288 478.439 341.695 485.283 344.543 489.423C346.341 492.04 349.146 493.542 353.086 493.993C354.97 494.207 356.319 495.902 356.105 497.79C355.891 499.678 354.178 501.029 352.315 500.815C346.363 500.128 341.845 497.597 338.89 493.306C330.667 481.292 336.556 458.487 342.787 434.33C346.427 420.256 350.195 405.711 350.11 395.563C349.917 370.033 340.26 358.019 337.755 355.316L296.986 347.957L320.347 455.612L309.427 477.388Z" fill="#390075"/>
<path d="M346.491 715.245C346.513 715.374 346.47 715.481 346.384 715.502C344.714 716.125 329.982 721.016 316.45 703.038C299.427 680.383 309.234 666.245 300.691 644.748C292.832 625.011 265.254 618.189 253.734 616.172C257.224 608.856 260.95 604.823 260.95 604.823C260.95 604.823 309.363 601.047 327.713 636.596C340.132 660.667 314.266 671.587 324.265 691.667C328.719 700.592 335.699 706.17 341.995 709.603C344.436 710.911 345.934 713.035 346.491 715.245Z" fill="#B5E5FB"/>
<path d="M339.746 717.112C333.708 717.112 324.608 714.752 316.043 703.36C305.829 689.758 305.187 679.353 304.523 668.326C304.095 661.074 303.645 653.566 300.198 644.941C292.447 625.44 265.061 618.682 253.648 616.687L252.963 616.558L253.263 615.914C256.753 608.62 260.414 604.587 260.564 604.415L260.714 604.265L260.928 604.244C261.421 604.201 309.898 600.854 328.205 636.317C334.843 649.189 330.775 658.264 326.856 667.039C323.387 674.762 320.133 682.078 324.779 691.388C328.483 698.833 334.393 704.776 342.294 709.088C344.714 710.418 346.405 712.542 347.048 715.095C347.155 715.481 346.962 715.867 346.598 715.996C345.934 716.253 343.386 717.112 339.746 717.112ZM254.526 615.764C266.495 617.952 293.389 624.946 301.204 644.555C304.695 653.351 305.166 660.946 305.594 668.283C306.236 679.138 306.857 689.372 316.899 702.738C329.575 719.622 343.301 716.017 345.913 715.138C345.292 713.014 343.836 711.212 341.759 710.075C333.665 705.655 327.606 699.541 323.794 691.903C318.934 682.142 322.295 674.612 325.85 666.631C329.683 658.071 333.644 649.232 327.22 636.832C309.855 603.192 264.697 605.123 261.185 605.338C260.521 606.11 257.481 609.779 254.526 615.764Z" fill="#390075"/>
<path d="M346.384 715.502C344.714 716.124 329.961 721.016 316.45 703.037C313.688 699.347 311.632 695.893 310.09 692.611C302.125 675.598 307.842 662.747 300.69 644.748C292.832 625.01 265.253 618.188 253.734 616.171C256.517 610.358 259.451 606.603 260.521 605.316C260.8 604.994 260.95 604.822 260.95 604.822C260.95 604.822 309.362 601.047 327.713 636.595C340.132 660.666 314.266 671.586 324.265 691.667C328.719 700.592 335.699 706.17 341.994 709.602C344.435 710.932 345.934 713.078 346.491 715.266C346.534 715.373 346.47 715.459 346.384 715.502Z" fill="#39D5FF"/>
<path d="M339.725 717.111C333.687 717.111 324.586 714.751 316.022 703.359C313.345 699.798 311.247 696.365 309.598 692.825C305.444 683.944 304.994 676.349 304.502 668.325C304.074 661.074 303.603 653.565 300.177 644.941C292.425 625.439 265.039 618.703 253.627 616.686C253.455 616.665 253.327 616.558 253.241 616.407C253.156 616.257 253.156 616.086 253.241 615.935C256.046 610.057 258.98 606.303 260.093 604.973C260.371 604.629 260.543 604.458 260.543 604.458C260.628 604.35 260.757 604.286 260.907 604.286C261.399 604.243 309.876 600.896 328.184 636.359C334.821 649.232 330.753 658.306 326.835 667.102C323.366 674.826 320.111 682.142 324.758 691.452C328.462 698.897 334.35 704.84 342.273 709.152C344.714 710.482 346.384 712.627 347.026 715.159C347.133 715.545 346.941 715.91 346.598 716.06C345.934 716.253 343.408 717.111 339.725 717.111ZM254.526 615.742C266.495 617.931 293.389 624.925 301.183 644.533C304.673 653.329 305.144 660.902 305.572 668.261C306.044 676.199 306.493 683.686 310.562 692.375C312.167 695.829 314.244 699.219 316.857 702.716C329.533 719.6 343.236 716.017 345.87 715.116C345.249 712.992 343.793 711.19 341.716 710.053C333.622 705.633 327.563 699.519 323.751 691.882C318.869 682.12 322.253 674.59 325.807 666.609C329.64 658.07 333.58 649.21 327.177 636.81C309.833 603.192 264.697 605.101 261.164 605.316C261.099 605.402 261.014 605.509 260.885 605.638C259.879 606.903 257.181 610.357 254.526 615.742Z" fill="#102770"/>
<g opacity="0.35">
<path opacity="0.35" d="M341.994 709.581C335.699 706.148 328.719 700.57 324.265 691.646C314.244 671.565 340.132 660.645 327.713 636.574C309.362 601.004 260.949 604.801 260.949 604.801C260.949 604.801 260.8 604.973 260.521 605.295C259.879 606.045 258.594 607.697 257.095 610.079C265.36 609.8 305.915 610.079 322.359 641.937C334.779 666.009 308.913 676.928 318.912 697.009C323.366 705.934 330.346 711.512 336.641 714.944C337.476 715.395 338.183 715.953 338.804 716.553C342.851 716.725 345.72 715.76 346.384 715.502C346.47 715.459 346.512 715.352 346.491 715.245C345.934 713.035 344.435 710.911 341.994 709.581Z" fill="white"/>
</g>
<path d="M339.725 719.986C332.98 719.986 322.98 717.412 313.73 705.097C302.981 690.788 302.296 679.46 301.654 668.497C301.204 661.138 300.797 654.209 297.543 646.014C290.327 627.864 264.118 621.471 253.177 619.54L248.723 618.767L250.672 614.691C254.333 607.011 258.294 602.677 258.444 602.484L259.365 601.497L260.714 601.39C262.791 601.24 311.611 597.85 330.774 635.008C338.055 649.124 333.515 659.293 329.49 668.261C326.042 675.963 323.323 682.034 327.348 690.122C330.796 697.031 336.277 702.566 343.664 706.577C346.769 708.272 349.018 711.126 349.853 714.429C350.302 716.253 349.36 718.098 347.626 718.742C346.855 718.999 343.921 719.986 339.725 719.986ZM258.915 613.683C272.576 616.665 296.344 624.474 303.881 643.461C307.542 652.686 308.013 660.516 308.484 668.09C309.105 678.495 309.705 688.32 319.212 700.978C327.584 712.134 336.213 713.485 341.181 713.121C340.945 712.949 340.667 712.756 340.388 712.606C331.759 707.908 325.314 701.386 321.225 693.19C315.743 682.206 319.726 673.303 323.237 665.451C326.942 657.17 330.453 649.339 324.693 638.162C309.319 608.362 270.521 607.933 262.641 608.169C261.785 609.221 260.414 611.108 258.915 613.683ZM345.185 712.284C345.185 712.306 345.163 712.306 345.185 712.284C345.163 712.306 345.185 712.306 345.185 712.284Z" fill="#390075"/>
<path d="M337.669 726.293C317.991 730.133 293.025 707.5 281.355 677.357C274.567 659.851 258.53 647.494 247.802 640.865C248.081 630.653 250.843 622.264 253.755 616.15C265.275 618.167 292.875 624.989 300.712 644.726C309.255 666.223 299.448 680.361 316.471 703.016C329.275 720.05 343.172 716.575 346.02 715.631C346.298 715.545 346.641 715.824 346.683 716.146C346.962 718.312 346.341 720.436 344.821 721.874C342.894 723.676 340.495 725.178 337.669 726.293Z" fill="#F694AB"/>
<path d="M333.301 727.237C314.608 727.237 291.933 706.191 280.841 677.551C274.268 660.581 259.087 648.481 247.503 641.315L247.246 641.144V640.843C247.481 632.155 249.494 623.766 253.241 615.914L253.412 615.549L253.819 615.614C265.403 617.652 293.239 624.517 301.183 644.512C304.673 653.308 305.144 660.902 305.572 668.24C306.215 679.095 306.836 689.329 316.878 702.694C329.49 719.492 343.215 715.996 345.827 715.116C346.084 715.03 346.384 715.073 346.641 715.223C346.941 715.416 347.155 715.717 347.197 716.06C347.519 718.484 346.769 720.737 345.163 722.26C343.172 724.127 340.71 725.65 337.862 726.787L337.776 726.808C336.32 727.109 334.821 727.237 333.301 727.237ZM248.338 640.586C260.029 647.859 275.21 660.066 281.848 677.186C293.667 707.65 318.591 729.426 337.519 725.8C340.239 724.727 342.551 723.268 344.435 721.509C345.784 720.243 346.405 718.334 346.127 716.253C343.429 717.09 329.083 720.758 316.021 703.381C305.808 689.779 305.165 679.374 304.502 668.347C304.073 661.096 303.624 653.587 300.176 644.962C292.511 625.697 265.66 618.875 254.012 616.794C250.522 624.281 248.595 632.283 248.338 640.586Z" fill="#390075"/>
<path d="M337.669 726.293C334.243 726.958 330.667 726.829 327.027 725.993C325.593 725.671 324.136 725.22 322.68 724.684C306.664 718.72 290.198 700.184 281.355 677.379C274.567 659.872 258.53 647.515 247.802 640.886C248.081 630.696 250.821 622.329 253.712 616.214C253.733 616.193 253.733 616.171 253.733 616.171C260.093 617.287 271.313 619.861 281.441 625.246C289.684 629.623 297.179 635.887 300.69 644.748C309.234 666.244 299.427 680.382 316.45 703.037C329.254 720.072 343.15 716.596 345.998 715.652C346.255 715.566 346.619 715.845 346.662 716.167C346.94 718.334 346.319 720.458 344.799 721.895C342.894 723.676 340.495 725.177 337.669 726.293Z" fill="#FD6CCB"/>
<path d="M333.194 727.258C331.16 727.258 329.04 727.022 326.899 726.529C325.443 726.207 323.965 725.757 322.488 725.199C306.022 719.063 289.684 700.356 280.841 677.572C274.268 660.602 259.087 648.502 247.503 641.336C247.331 641.229 247.246 641.058 247.246 640.864C247.481 632.197 249.494 623.83 253.22 615.978C253.241 615.957 253.284 615.871 253.284 615.849C253.412 615.678 253.605 615.592 253.819 615.635C259.793 616.686 271.356 619.261 281.698 624.774C291.504 629.987 298.057 636.66 301.204 644.554C304.694 653.35 305.165 660.945 305.594 668.282C306.236 679.138 306.857 689.371 316.878 702.737C329.49 719.535 343.215 716.038 345.827 715.159C346.084 715.073 346.384 715.116 346.619 715.266C346.919 715.459 347.133 715.781 347.176 716.124C347.497 718.548 346.748 720.801 345.142 722.324C343.151 724.191 340.688 725.714 337.84 726.851C337.819 726.872 337.776 726.872 337.755 726.872C336.277 727.108 334.757 727.258 333.194 727.258ZM248.338 640.586C260.029 647.858 275.21 660.066 281.848 677.186C290.584 699.712 306.664 718.162 322.852 724.191C324.286 724.727 325.721 725.156 327.134 725.478C330.774 726.314 334.265 726.422 337.519 725.778C340.239 724.705 342.572 723.247 344.435 721.487C345.784 720.222 346.405 718.312 346.127 716.231C346.105 716.188 346.105 716.188 346.127 716.167C343.236 717.111 328.997 720.608 316.021 703.359C305.808 689.757 305.165 679.352 304.502 668.325C304.073 661.074 303.624 653.565 300.176 644.941C297.136 637.282 290.734 630.824 281.162 625.718C271.184 620.398 260.007 617.845 254.012 616.772C250.543 624.259 248.616 632.283 248.338 640.586Z" fill="#102770"/>
<g opacity="0.35">
<path opacity="0.35" d="M346.662 716.167C346.619 715.824 346.277 715.545 345.998 715.653C343.151 716.597 329.233 720.072 316.45 703.038C299.427 680.383 309.234 666.245 300.69 644.748C297.179 635.888 289.663 629.645 281.441 625.247C271.313 619.862 260.093 617.287 253.734 616.172C253.712 616.193 253.712 616.215 253.712 616.215C252.984 617.759 252.256 619.454 251.571 621.299C258.038 622.694 266.881 625.204 275.017 629.537C283.261 633.914 290.755 640.179 294.267 649.039C302.81 670.535 293.003 684.673 310.026 707.329C322.831 724.363 336.727 720.887 339.575 719.943C339.832 719.857 340.196 720.136 340.239 720.458C340.496 722.453 339.982 724.427 338.697 725.843C341.074 724.792 343.129 723.462 344.799 721.896C346.341 720.458 346.962 718.313 346.662 716.167Z" fill="white"/>
</g>
<g opacity="0.3">
<path opacity="0.3" d="M322.681 724.684C306.664 718.72 290.198 700.184 281.355 677.379C274.568 659.873 258.53 647.515 247.802 640.886C248.081 630.696 250.822 622.329 253.712 616.214C257.781 617.051 279.086 629.752 283.882 647.344C289.192 666.867 289.235 700.935 322.681 724.684Z" fill="#390075"/>
</g>
<path d="M333.216 730.155C313.174 730.155 289.835 708.765 278.165 678.623C271.549 661.546 255.168 649.489 246.004 643.804L244.334 642.774L244.398 640.8C244.655 631.704 246.753 622.929 250.672 614.691L251.785 612.331L254.355 612.782C266.431 614.906 295.423 622.114 303.902 643.46C307.564 652.685 308.035 660.516 308.506 668.089C309.127 678.494 309.726 688.32 319.233 700.978C330.668 716.188 342.68 713.163 344.971 712.391C346.063 712.026 347.241 712.177 348.225 712.799C349.253 713.442 349.938 714.536 350.11 715.716C350.559 719.085 349.489 722.26 347.176 724.405C344.928 726.508 342.166 728.224 338.954 729.49L338.654 729.597L338.354 729.661C336.641 729.983 334.95 730.155 333.216 730.155ZM251.293 639.019C263.134 646.614 277.887 658.971 284.524 676.113C295.787 705.183 319.126 726.1 336.684 722.968C338.676 722.152 340.41 721.123 341.845 719.878C335.25 720.415 324.008 718.784 313.688 705.075C302.939 690.766 302.254 679.438 301.611 668.475C301.162 661.117 300.755 654.187 297.5 645.992C290.82 629.172 267.759 622.436 255.725 620.011C253.198 626.083 251.7 632.455 251.293 639.019Z" fill="#390075"/>
<path d="M337.669 726.293C322.445 732.343 295.23 727.259 269.622 695.894C252.256 674.611 247.374 655.797 247.781 640.865C258.509 647.494 274.546 659.851 281.334 677.358C293.025 707.5 317.992 730.134 337.669 726.293Z" fill="#FEF26B"/>
<g opacity="0.3">
<path opacity="0.3" d="M312.253 726.658C299.17 723.011 284.139 713.679 269.622 695.893C252.256 674.611 247.374 655.797 247.781 640.865C268.165 657.041 266.345 676.65 276.709 692.976C285.359 706.577 303.431 720.265 312.253 726.658Z" fill="#390075"/>
</g>
<path d="M324.993 732C308.849 732 287.565 723.311 266.988 698.082C251.464 679.074 243.863 659.787 244.377 640.801L244.548 634.836L249.601 637.969C261.699 645.456 277.587 658.157 284.546 676.135C295.894 705.376 319.426 726.379 337.006 722.925L338.933 729.49C334.971 731.056 330.239 732 324.993 732ZM251.378 647.365C252.599 662.64 259.601 678.194 272.277 693.727C285.488 709.903 299.427 719.107 311.761 722.947C298.357 714.237 285.766 698.296 278.144 678.623C272.705 664.528 260.607 653.866 251.378 647.365Z" fill="#390075"/>
<path d="M275.488 569.059C272.683 588.882 267.887 605.488 263.626 617.759C258.487 632.648 255.918 645.52 254.248 656.59C253.091 664.249 252.363 671.05 251.507 677.078C250.565 683.751 249.451 689.479 247.417 694.392C237.589 718.162 211.145 712.67 203.073 689.071C198.683 676.242 196.927 663.434 196.306 653.458C195.6 642.087 196.371 634.386 196.371 634.386C196.371 634.386 189.497 634.557 182.945 633.721C174.766 632.669 168.899 629.773 168.899 629.773C167.593 637.046 167.4 644.812 167.122 652.6C166.693 664.807 166.094 677.057 160.762 687.441C149.243 709.988 124.062 717.733 109.887 667.339C108.26 661.567 106.675 655.11 105.219 648.202C105.134 647.816 105.048 647.429 104.984 647.043C101.429 629.902 98.7741 610.229 98.8169 592.1C98.9026 536.535 107.189 506.05 114.362 483.459C114.448 483.159 114.533 482.88 114.576 482.601C116.375 473.14 98.7099 462.928 88.5605 414.164C85.6271 400.047 84.9205 388.011 86.0125 378.336C87.8754 361.645 95.0698 351.991 105.241 350.789C122.263 348.773 128.773 362.353 134.511 379.366C135.303 381.726 136.138 384.064 137.038 386.381C150.913 422.809 173.695 450.57 173.695 450.57L269.986 475.028C271.292 479.919 272.405 484.746 273.347 489.487C275.253 498.97 276.473 508.195 277.159 517.077C278.657 536.085 277.694 553.548 275.488 569.059Z" fill="white"/>
<path d="M167.336 651.849C166.908 664.056 166.308 676.306 160.976 686.689C149.457 709.259 124.276 716.982 110.123 666.609C108.41 660.516 106.74 653.651 105.219 646.335C117.317 642.774 147.337 636.338 167.336 651.849Z" fill="#FEC2E6"/>
<path d="M254.462 655.84C252.021 671.951 251.485 684.287 247.631 693.641C237.803 717.412 211.359 711.919 203.287 688.32C198.897 675.491 197.141 662.683 196.521 652.707C210.46 648.245 235.855 643.01 254.462 655.84Z" fill="#FEC2E6"/>
<g opacity="0.3">
<path opacity="0.3" d="M251.528 677.079C250.586 683.751 249.473 689.479 247.439 694.392C237.611 718.162 211.167 712.67 203.094 689.071C198.705 676.242 196.949 663.434 196.328 653.458C195.621 642.088 196.392 634.386 196.392 634.386C196.392 634.386 189.519 634.557 182.967 633.721C174.787 632.669 168.92 629.773 168.92 629.773C167.614 637.046 167.422 644.812 167.143 652.6C166.715 664.807 166.115 677.057 160.784 687.441C149.264 709.989 124.083 717.733 109.909 667.339C108.281 661.568 106.697 655.11 105.241 648.202C110.422 657.041 120.872 670.986 135.239 671.179C159.199 671.501 149.992 638.612 142.434 625.053C136.267 613.983 136.267 607.676 136.267 607.676C136.267 607.676 157.101 619.776 189.54 619.604C221.98 619.432 232.193 615.378 232.193 615.378C232.193 615.378 230.652 621.385 222.858 632.24C220.588 635.373 217.505 639.663 214.378 646.164C204.486 666.888 214.207 684.566 227.74 686.54C234.313 687.484 246.047 684.48 251.528 677.079Z" fill="#390075"/>
</g>
<path d="M227.804 712.756C227.568 712.756 227.333 712.756 227.097 712.735C215.17 712.37 204.443 703.274 199.732 689.543C192.238 667.66 192.174 646.185 192.559 637.368C189.883 637.303 186.243 637.153 182.667 636.681C178.449 636.145 174.809 635.137 172.132 634.257C171.511 639.449 171.34 644.855 171.147 650.519C170.698 663.456 170.248 676.843 164.338 688.385C157.593 701.6 147.423 708.873 137.123 707.843C128.066 706.942 115.39 699.219 106.504 667.596C99.4379 642.495 95.2626 614.005 95.284 591.35C95.3482 538.187 102.885 507.187 111 481.571C111.707 479.34 110.037 476.315 106.483 470.265C100.873 460.697 91.4512 444.692 85.1132 414.185C79.696 388.205 81.3447 367.437 89.7597 355.724C93.6567 350.296 98.9455 347.035 105.027 346.327C125.261 343.946 132.563 360.379 138.301 377.435C150.078 412.362 171.747 441.002 176.051 446.494L273.262 471.188L273.84 473.333C286.451 520.681 284.289 569.445 267.416 618.231C260.329 638.741 258.209 655.41 256.517 668.819C255.233 679.031 254.119 687.848 251.121 695.057C246.518 706.191 237.846 712.756 227.804 712.756ZM200.717 629.752L200.31 634C200.289 634.257 197.827 660.817 206.841 687.119C210.46 697.674 218.682 704.947 227.311 705.226C234.506 705.462 240.651 700.699 244.141 692.225C246.732 685.939 247.738 677.98 249.023 667.918C250.757 654.166 252.92 637.067 260.264 615.807C276.388 569.188 278.679 522.655 267.095 477.452L171.747 453.231L170.954 452.265C169.884 450.957 144.596 419.87 131.128 379.881C125.025 361.774 119.18 352.27 105.862 353.836C101.858 354.308 98.4744 356.432 95.8193 360.165C88.7533 369.991 87.5114 389.149 92.4362 412.683C98.5386 441.989 107.211 456.728 112.928 466.489C117.124 473.633 119.908 478.353 118.152 483.91C110.208 508.925 102.864 539.282 102.8 591.414C102.778 613.404 106.868 641.122 113.741 665.601C119.779 687.076 128.344 699.433 137.851 700.399C144.853 701.085 152.433 695.207 157.636 684.995C162.775 674.933 163.203 662.404 163.632 650.304C163.888 643.01 164.145 635.458 165.409 628.4L166.287 623.466L170.762 625.676C170.805 625.697 176.222 628.314 183.609 629.258C189.797 630.052 196.392 629.88 196.456 629.88L200.717 629.752Z" fill="#390075"/>
<path d="M346.598 356.71C346.598 356.71 344.586 359.027 341.138 361.731C343.536 359.092 345.078 356.818 345.613 355.981C346.234 356.474 346.598 356.71 346.598 356.71Z" fill="#B5E5FB"/>
<path d="M341.481 362.159L340.753 361.387C343.129 358.77 344.628 356.539 345.185 355.702L345.506 355.208L345.977 355.573C346.555 356.045 346.898 356.26 346.919 356.281L347.433 356.624L347.026 357.075C346.919 357.161 344.907 359.456 341.481 362.159ZM345.742 356.753C345.677 356.839 345.613 356.925 345.549 357.032C345.635 356.946 345.72 356.86 345.785 356.775C345.785 356.775 345.763 356.775 345.742 356.753Z" fill="#390075"/>
<path d="M358.825 572.728C358.118 584.377 339.96 590.384 328.505 590.448C324.522 590.47 318.698 590.491 311.975 589.333C300.905 587.445 287.372 582.382 275.489 569.038C273.176 566.442 270.906 563.524 268.765 560.263L271.506 518.128L273.369 489.53L274.739 468.398C277.93 471.359 286.644 489.766 297.607 508.71C305.38 522.14 314.266 535.849 323.109 544.495C327.22 548.506 331.31 551.424 335.271 552.711C350.324 557.581 359.574 560.435 358.825 572.728Z" fill="white"/>
<path d="M358.824 572.728C358.118 584.377 339.96 590.384 328.505 590.449C324.522 590.47 318.698 590.491 311.975 589.333C305.551 571.29 313.816 551.21 323.109 544.495C327.22 548.506 331.31 551.424 335.271 552.711C350.324 557.581 359.574 560.435 358.824 572.728Z" fill="#FEC2E6"/>
<path d="M326.685 594.224C314.159 594.224 285.809 592.873 265.618 562.344C264.461 560.606 264.954 558.268 266.667 557.131C268.401 555.972 270.735 556.444 271.891 558.182C290.884 586.909 317.242 586.737 328.462 586.673C338.954 586.608 354.542 581.052 355.056 572.492C355.591 563.696 350.217 561.507 334.607 556.444L334.115 556.294C315.144 550.158 295.209 512.893 282.019 488.243C278.058 480.842 273.583 472.475 272.17 471.166C270.649 469.75 270.542 467.369 271.956 465.846C273.369 464.322 275.745 464.215 277.266 465.631C279.493 467.691 282.533 473.269 288.636 484.682C300.498 506.822 320.347 543.915 336.406 549.107L336.899 549.257C351.737 554.063 363.471 557.86 362.55 572.942C361.672 587.316 341.716 594.139 328.484 594.203C327.948 594.224 327.349 594.224 326.685 594.224Z" fill="#390075"/>
<path d="M270.521 290.333C288.357 255.535 317.242 234.768 322.852 237.642C328.441 240.517 328.441 276.152 310.604 310.95" fill="#FDD800"/>
<g opacity="0.3">
<path opacity="0.3" d="M310.604 310.95L270.521 290.333C273.647 284.218 277.116 278.555 280.756 273.363L291.697 278.984C301.654 284.111 313.923 279.263 317.542 268.643C321.203 257.938 323.302 247.79 324.244 239.23C328.291 247.039 326.792 279.327 310.604 310.95Z" fill="#390075"/>
</g>
<g opacity="0.35">
<path opacity="0.35" d="M314.93 250.086C311.097 249.785 293.282 264.288 293.817 273.47C293.903 274.993 296.087 274.457 298.721 273.256C304.844 270.445 309.812 265.597 313.045 259.675C315.551 255.106 317.52 250.279 314.93 250.086Z" fill="white"/>
</g>
<path d="M310.604 314.382C310.069 314.382 309.534 314.254 309.041 313.996C307.35 313.138 306.686 311.057 307.564 309.384C324.501 276.324 324.008 245.452 321.225 240.796C315.829 241.247 290.498 258.839 273.561 291.899C272.705 293.594 270.628 294.259 268.958 293.379C267.266 292.521 266.602 290.44 267.48 288.767C278.251 267.742 291.847 253.776 298.978 247.318C304.438 242.362 317.863 231.228 324.415 234.596C330.946 237.964 329.747 255.385 328.912 262.722C327.841 272.312 324.415 291.513 313.645 312.537C313.045 313.696 311.846 314.382 310.604 314.382Z" fill="#390075"/>
<path d="M301.333 287.372C294.031 287.372 285.231 286.171 275.446 282.438C274.054 281.901 273.369 280.357 273.904 278.984C274.439 277.589 275.981 276.903 277.351 277.439C302.296 286.965 320.689 278.533 320.861 278.447C322.188 277.825 323.794 278.383 324.415 279.735C325.036 281.065 324.479 282.674 323.152 283.296C322.638 283.532 314.373 287.372 301.333 287.372Z" fill="#390075"/>
<path d="M307.671 266.112C298.014 266.112 290.199 263.537 289.685 263.366C288.293 262.894 287.522 261.37 287.993 259.976C288.464 258.581 289.984 257.831 291.376 258.281C291.569 258.346 310.561 264.567 324.501 256.908C325.807 256.2 327.434 256.672 328.141 257.981C328.847 259.289 328.376 260.898 327.07 261.628C320.818 265.06 313.88 266.112 307.671 266.112Z" fill="#390075"/>
<g opacity="0.3">
<path opacity="0.3" d="M297.586 508.71C291.291 512.829 284.353 515.511 277.159 517.098C275.274 517.506 273.39 517.849 271.484 518.128C241.721 522.333 208.79 509.761 195.086 502.403C175.879 492.92 127.466 459.602 130.293 416.545C130.614 411.696 131.278 407.019 132.22 402.536C132.391 401.656 132.584 400.798 132.798 399.94C133.141 398.545 133.483 397.172 133.869 395.821C134.789 392.581 135.86 389.449 137.038 386.424C150.913 422.852 173.695 450.613 173.695 450.613L269.985 475.071C271.292 479.962 272.405 484.789 273.347 489.53L274.718 468.398C277.908 471.359 286.623 489.788 297.586 508.71Z" fill="#390075"/>
</g>
<path d="M318.313 472.646C317.82 473.268 317.307 473.912 316.793 474.534C315.851 475.671 314.866 476.808 313.838 477.924C310.669 481.421 307.179 484.789 303.303 487.964C270.029 515.36 214.785 495.344 195.9 485.239C176.693 475.757 128.28 442.439 131.107 399.382C131.428 394.533 132.07 389.856 133.034 385.373C133.205 384.493 133.398 383.635 133.612 382.777C133.933 381.382 134.297 380.009 134.683 378.658C149.757 325.581 204.529 299.536 204.529 299.536C204.529 299.536 186.329 269.952 208.769 255.857C226.305 244.851 254.569 267.034 250.351 294.902L318.57 330.001C338.719 310.306 373.192 320.411 374.477 341.092C376.126 367.587 341.524 370.012 341.524 370.012C341.524 370.012 352.273 429.503 318.313 472.646Z" fill="white"/>
<path d="M260.157 502.36C255.083 502.36 249.751 501.973 244.163 501.201C224.656 498.477 206.327 491.418 195.686 485.733C184.872 480.391 168.471 469.578 154.895 455.29C137.552 437.033 129.372 418.218 130.614 399.36C130.914 394.619 131.578 389.878 132.541 385.265C132.712 384.386 132.927 383.528 133.119 382.648C133.44 381.275 133.804 379.923 134.211 378.507C148.386 328.585 198.148 302.154 203.822 299.3C201.552 295.288 187.528 268.579 208.533 255.385C215.77 250.836 225.341 251.566 234.12 257.337C243.499 263.494 253.477 276.924 250.972 294.581L318.506 329.314C331.374 316.978 348.076 317.279 358.525 321.312C368.332 325.088 374.498 332.468 375.034 341.006C376.575 365.785 346.748 369.947 342.166 370.441C343.151 376.705 350.667 432.356 318.741 472.947C318.249 473.59 317.735 474.212 317.221 474.835C316.214 476.057 315.251 477.173 314.266 478.246C311.033 481.828 307.457 485.218 303.688 488.329C292.361 497.683 277.78 502.36 260.157 502.36ZM219.046 253.518C215.47 253.518 212.066 254.441 209.09 256.307C187.356 269.952 204.829 298.957 205.021 299.257L205.342 299.772L204.807 300.03C204.272 300.287 150.078 326.611 135.26 378.829C134.854 380.224 134.511 381.575 134.19 382.927C133.997 383.785 133.804 384.643 133.612 385.501C132.648 390.071 132.006 394.769 131.706 399.446C128.923 441.946 177.314 475.457 196.199 484.789C214.785 494.744 270.178 514.61 303.025 487.578C306.772 484.51 310.283 481.142 313.495 477.602C314.48 476.529 315.422 475.435 316.429 474.212C316.942 473.59 317.435 472.968 317.927 472.346C351.33 429.868 341.138 370.72 341.031 370.119L340.924 369.54L341.524 369.497C341.866 369.475 375.569 366.794 373.984 341.157C373.47 333.026 367.561 326.01 358.161 322.385C347.926 318.437 331.524 318.158 318.998 330.408L318.72 330.687L318.377 330.515L249.794 295.203L249.858 294.817C252.492 277.46 242.707 264.266 233.542 258.238C228.746 255.106 223.735 253.518 219.046 253.518Z" fill="#390075"/>
<path d="M346.512 355.42C354.026 354.874 359.745 349.297 359.287 342.963C358.829 336.629 352.367 331.936 344.853 332.481C337.34 333.027 331.621 338.604 332.079 344.938C332.537 351.273 338.999 355.966 346.512 355.42Z" fill="#F883A0"/>
<path d="M230.127 292.497C235.531 289.179 236.721 281.272 232.785 274.837C228.849 268.402 221.278 265.876 215.874 269.194C210.469 272.512 209.279 280.419 213.215 286.854C217.151 293.289 224.723 295.815 230.127 292.497Z" fill="#F883A0"/>
<path d="M313.859 477.924C310.69 481.421 307.2 484.789 303.324 487.964C270.05 515.36 214.807 495.344 195.921 485.239C176.714 475.757 128.302 442.439 131.128 399.382C131.449 394.533 132.091 389.856 133.055 385.372C160.784 384.042 197.463 392.946 234.035 411.76C270.264 430.404 298.656 454.775 313.859 477.924Z" fill="#FFEBF6"/>
<path d="M259.75 505.234C254.633 505.234 249.28 504.848 243.756 504.076C223.907 501.308 205.235 494.121 194.358 488.307C183.309 482.837 166.608 471.831 152.797 457.285C135.132 438.685 126.46 418.583 127.723 399.167C129.586 370.87 143.204 344.139 167.164 321.827C180.761 309.169 193.908 301.338 199.839 298.12C193.587 285.913 188.705 264.438 206.991 252.96C215.213 247.79 225.962 248.541 235.705 254.934C245.854 261.606 256.667 276.216 253.776 295.417C253.498 297.284 251.742 298.571 249.879 298.292C248.017 298.013 246.732 296.254 247.01 294.387C249.28 279.413 241.079 266.669 231.958 260.662C224.506 255.771 216.541 255.041 210.631 258.753C191.296 270.896 206.82 296.64 207.483 297.734L209.496 300.995L206.049 302.647C205.385 302.969 138.793 335.471 134.575 399.639C131.899 440.551 179.07 473.097 197.463 482.193L197.57 482.236C215.663 491.933 269.557 511.37 301.183 485.325C350.773 444.499 338.333 371.342 338.205 370.612L337.541 366.858L341.352 366.579C342.615 366.493 372.528 364.048 371.115 341.307C370.687 334.334 365.462 328.263 357.133 325.066C346.962 321.14 331.824 321.891 321.011 332.468C319.662 333.798 317.478 333.755 316.171 332.403C314.844 331.052 314.887 328.864 316.236 327.555C330.111 313.996 348.268 314.296 359.595 318.673C370.473 322.878 377.346 331.181 377.945 340.899C379.294 362.481 359.017 371.02 345.485 373.037C346.32 379.73 347.647 395.005 345.292 413.455C341.159 445.958 327.413 472.646 305.551 490.646C293.774 500.279 278.143 505.234 259.75 505.234Z" fill="#390075"/>
<path d="M238.017 435.857C240.309 434.754 241.669 432.821 241.055 431.54C240.44 430.258 238.085 430.113 235.792 431.215C233.5 432.318 232.14 434.251 232.754 435.532C233.369 436.814 235.725 436.959 238.017 435.857Z" fill="#390075"/>
<path d="M220.413 429.191C221.81 428.944 222.585 426.71 222.144 424.202C221.702 421.693 220.211 419.86 218.814 420.107C217.416 420.354 216.641 422.587 217.083 425.096C217.524 427.605 219.015 429.438 220.413 429.191Z" fill="#390075"/>
<path d="M307.471 455.542C310.436 449.755 305.744 441.414 296.991 436.912C288.239 432.41 278.74 433.451 275.775 439.238C272.81 445.025 277.501 453.366 286.254 457.868C295.007 462.37 304.506 461.328 307.471 455.542Z" fill="#FDC1E5"/>
<path d="M187.379 393.468C190.414 387.544 185.617 379.009 176.665 374.404C167.712 369.799 157.994 370.868 154.959 376.792C151.924 382.715 156.721 391.251 165.673 395.856C174.626 400.461 184.344 399.392 187.379 393.468Z" fill="#FDC1E5"/>
<path d="M204.55 302.969C203.244 302.969 202.023 302.218 201.445 300.974C200.653 299.258 201.403 297.22 203.115 296.426C203.479 296.254 212.194 292.242 218.061 290.505C219.881 289.968 221.787 290.998 222.322 292.822C222.857 294.645 221.83 296.555 220.01 297.091C214.614 298.679 206.07 302.626 205.985 302.669C205.535 302.862 205.043 302.969 204.55 302.969Z" fill="#390075"/>
<path d="M269.065 279.692C254.697 270.788 235.919 273.964 225.62 287.394C221.444 292.821 218.318 299.923 218.532 308.955C219.025 330.794 239.901 341.972 264.375 348.215C264.375 348.215 261.977 296.726 276.366 285.205C276.345 285.184 273.668 282.524 269.065 279.692Z" fill="#FEF26B"/>
<g opacity="0.6">
<path opacity="0.6" d="M268.101 290.954C268.101 290.954 265.403 288.294 260.8 285.462C250.821 279.284 238.724 278.94 228.81 283.789C239.494 273.47 256.067 271.646 269.043 279.691C273.647 282.545 276.323 285.183 276.323 285.183C261.956 296.704 257.288 299.6 268.101 290.954Z" fill="white"/>
</g>
<g opacity="0.3">
<path opacity="0.3" d="M264.354 348.193C239.88 341.95 219.003 330.794 218.51 308.933C218.318 299.923 221.423 292.821 225.598 287.372C228.039 284.197 230.972 281.58 234.184 279.584C231.037 284.583 228.874 290.783 229.045 298.314C229.473 316.914 244.655 327.769 264.247 334.442C264.076 342.487 264.354 348.193 264.354 348.193Z" fill="#390075"/>
</g>
<path d="M267.994 352.656L263.519 351.519C231.85 343.452 215.556 329.143 215.106 309.019C214.913 300.266 217.526 292.285 222.922 285.291C234.27 270.531 254.89 266.863 270.885 276.774C275.745 279.799 278.657 282.631 278.786 282.738L281.548 285.463L278.529 287.887C267.844 296.426 267.18 334.206 267.823 348.043L267.994 352.656ZM251.485 278.083C242.664 278.083 234.034 282.03 228.317 289.475C223.928 295.203 221.765 301.725 221.937 308.847C222.301 324.873 235.019 336.265 260.778 343.667C260.521 331.031 260.971 298.657 271.356 285.441C270.285 284.605 268.893 283.618 267.266 282.61C262.341 279.542 256.881 278.083 251.485 278.083Z" fill="#390075"/>
<path d="M277.523 278.125C270.821 277.868 264.418 280.957 260.457 286.385C253.926 295.353 245.426 311.421 250.137 330.108C257.395 358.963 300.048 361.366 300.048 361.366C300.048 361.366 302.768 311.614 310.069 301.896C310.069 301.896 304.673 279.134 277.523 278.125Z" fill="#FD6CCB"/>
<path d="M300.048 361.902H300.027C299.599 361.881 256.903 359.156 249.623 330.237C244.762 310.907 254.055 294.28 260.029 286.063C264.076 280.485 270.628 277.31 277.544 277.589C304.802 278.598 310.54 301.532 310.583 301.768C310.626 301.918 310.583 302.089 310.497 302.218C303.367 311.679 300.605 360.894 300.583 361.387C300.583 361.538 300.519 361.666 300.412 361.752C300.305 361.859 300.177 361.902 300.048 361.902ZM276.752 278.662C270.478 278.662 264.59 281.644 260.885 286.707C253.712 296.533 246.132 312.022 250.65 329.979C257.288 356.389 294.588 360.379 299.534 360.787C299.855 355.08 302.596 311.529 309.47 301.789C308.784 299.386 302.425 279.606 277.501 278.662C277.244 278.662 277.009 278.662 276.752 278.662Z" fill="#102770"/>
<g opacity="0.6">
<path opacity="0.6" d="M304.395 307.153C304.395 307.153 298.999 284.39 271.848 283.382C267.78 283.232 263.797 284.304 260.436 286.407L260.457 286.385C264.418 280.958 270.821 277.868 277.523 278.126C304.673 279.134 310.069 301.896 310.069 301.896C302.768 311.593 298.635 314.812 304.395 307.153Z" fill="white"/>
</g>
<g opacity="0.3">
<path opacity="0.3" d="M300.048 361.366C300.048 361.366 257.395 358.985 250.137 330.108C245.426 311.422 253.926 295.375 260.457 286.386C262.448 283.661 265.039 281.537 267.994 280.1C261.999 289.432 255.854 303.913 260.008 320.411C265.125 340.771 287.886 347.958 300.819 350.425C300.284 356.925 300.048 361.366 300.048 361.366Z" fill="#390075"/>
</g>
<path d="M303.281 364.97L299.856 364.777C298.014 364.67 254.59 361.902 246.818 330.944C241.657 310.478 251.421 292.971 257.695 284.368C262.32 278.018 269.75 274.414 277.651 274.693C307.071 275.787 313.345 300.845 313.388 301.102L313.752 302.668L312.788 303.956C307.928 310.413 304.481 342.701 303.453 361.537L303.281 364.97ZM276.752 281.558C271.399 281.558 266.367 284.09 263.219 288.423C256.41 297.756 249.216 312.408 253.455 329.271C258.873 350.811 287.008 356.303 296.836 357.59C297.607 345.919 300.262 312.451 306.322 301.403C304.759 296.897 298.164 282.352 277.373 281.579C277.18 281.558 276.966 281.558 276.752 281.558Z" fill="#390075"/>
<path d="M316.621 298.464C311.075 295.289 304.052 296.533 299.962 301.424C295.102 307.238 289.213 316.635 287.8 329.186C285.702 347.958 295.166 359.156 304.202 365.249C326.256 380.117 346.598 356.689 346.598 356.689C346.598 356.689 332.188 347.142 334.736 327.598C335.528 321.569 333.9 315.455 330.218 310.628C327.027 306.509 322.531 301.853 316.621 298.464Z" fill="#39D5FF"/>
<path d="M319.49 370.72C314.565 370.72 309.277 369.347 303.902 365.721C295.102 359.8 285.081 348.644 287.265 329.143C288.7 316.356 294.738 306.831 299.556 301.081C303.838 295.975 311.14 294.688 316.899 297.992C321.974 300.909 326.599 305.05 330.646 310.328C334.457 315.283 336.106 321.462 335.292 327.684C332.809 346.649 346.769 356.153 346.919 356.26C347.048 356.346 347.133 356.475 347.155 356.646C347.176 356.796 347.133 356.946 347.026 357.075C346.855 357.247 334.928 370.72 319.49 370.72ZM310.069 297.241C306.429 297.241 302.853 298.807 300.369 301.768C295.659 307.388 289.727 316.742 288.336 329.25C286.216 348.215 295.958 359.049 304.502 364.82C324.244 378.143 342.851 359.886 345.784 356.796C343.215 354.823 331.909 345.083 334.2 327.555C334.971 321.612 333.408 315.734 329.789 310.993C325.828 305.844 321.31 301.768 316.364 298.936C314.373 297.799 312.21 297.241 310.069 297.241Z" fill="#102770"/>
<g opacity="0.6">
<path opacity="0.6" d="M344.221 354.78C340.175 352.399 329.854 344.825 329.169 329.014C328.912 322.943 326.278 317.193 321.803 313.095C317.949 309.534 312.724 305.737 306.322 303.42C303.795 302.519 301.162 302.411 298.699 303.012C299.127 302.454 299.556 301.94 299.963 301.446C304.074 296.555 311.097 295.289 316.643 298.485C322.531 301.875 327.027 306.509 330.218 310.693C333.922 315.52 335.528 321.613 334.757 327.641C332.852 342.101 340.26 351.068 344.221 354.78Z" fill="white"/>
</g>
<g opacity="0.3">
<path opacity="0.3" d="M346.598 356.711C346.598 356.711 326.278 380.138 304.202 365.271C295.166 359.178 285.702 347.979 287.8 329.207C289.192 316.635 295.081 307.238 299.963 301.424C300.733 300.502 301.59 299.73 302.532 299.064C299.513 304.321 296.922 310.907 296.065 318.695C293.967 337.467 303.431 348.665 312.467 354.758C324.629 362.954 336.256 359.521 344.243 354.78C345.635 356.088 346.598 356.711 346.598 356.711Z" fill="#390075"/>
</g>
<path d="M319.555 373.616C314.009 373.616 308.142 372.071 302.296 368.124C294.567 362.911 281.933 350.854 284.396 328.821C285.895 315.326 292.254 305.265 297.329 299.215C302.51 293.036 311.332 291.47 318.334 295.482C323.751 298.593 328.655 302.991 332.937 308.568C337.22 314.146 339.061 321.076 338.14 328.07C335.892 345.297 348.354 353.771 348.482 353.857L351.737 356.024L349.167 358.985C343.772 365.185 332.487 373.616 319.555 373.616ZM310.069 300.137C307.264 300.137 304.502 301.36 302.575 303.634C298.121 308.955 292.511 317.772 291.205 329.572C289.256 347.099 298.228 357.097 306.129 362.417C321.439 372.737 335.892 362.138 341.545 356.947C336.963 352.591 329.318 342.766 331.353 327.169C332.038 321.999 330.667 316.871 327.498 312.752C323.773 307.903 319.555 304.085 314.93 301.446C313.409 300.566 311.718 300.137 310.069 300.137Z" fill="#390075"/>
<path d="M263.283 461.276C263.219 461.491 263.155 461.705 263.091 461.898C261.271 467.069 254.697 469.772 248.038 467.991C246.004 467.455 244.184 466.554 242.685 465.395C239.023 462.649 237.118 458.466 238.167 454.518C239.644 448.962 244.912 451.836 251.849 453.682C258.765 455.548 264.761 455.698 263.283 461.276Z" fill="#390075"/>
<path d="M263.069 461.898C261.249 467.068 254.676 469.772 248.017 467.991C245.982 467.455 244.162 466.554 242.664 465.395C244.484 460.225 251.057 457.522 257.716 459.302C259.75 459.86 261.57 460.761 263.069 461.898Z" fill="#FF4F90"/>
<path d="M252.106 471.102C250.565 471.102 248.959 470.909 247.353 470.48C239.066 468.248 233.82 460.804 235.662 453.874C236.218 451.815 237.268 450.335 238.766 449.498C241.593 447.932 245.083 449.005 249.13 450.227C250.201 450.549 251.314 450.892 252.492 451.214C253.669 451.536 254.804 451.793 255.896 452.051C260.007 452.995 263.583 453.832 265.253 456.599C266.153 458.079 266.324 459.881 265.767 461.941C264.268 467.54 258.594 471.102 252.106 471.102ZM242.064 453.853C241.721 453.853 241.464 453.896 241.272 454.003C240.951 454.175 240.736 454.84 240.629 455.205C239.516 459.388 243.113 464.022 248.68 465.502C254.226 467.004 259.665 464.794 260.8 460.611C260.907 460.246 261.035 459.56 260.842 459.238C260.307 458.337 257.224 457.629 254.74 457.05C253.605 456.792 252.406 456.513 251.164 456.17C249.922 455.848 248.745 455.483 247.631 455.14C245.704 454.561 243.37 453.853 242.064 453.853Z" fill="#390075"/>
<path d="M204.635 343.967L206.67 349.245C207.183 350.554 206.52 352.012 205.235 352.527C203.929 353.042 202.473 352.377 201.959 351.09C201.83 350.768 201.788 350.403 201.788 350.082L202.023 344.418C202.045 343.667 202.687 343.088 203.415 343.131C203.993 343.131 204.464 343.495 204.635 343.967Z" fill="#390075"/>
<path d="M196.692 346.327L199.818 351.155C200.567 352.313 200.246 353.879 199.068 354.63C197.912 355.381 196.349 355.059 195.6 353.879C195.428 353.622 195.321 353.321 195.257 353.042L194.058 347.422C193.887 346.628 194.401 345.855 195.171 345.684C195.771 345.576 196.37 345.834 196.692 346.327Z" fill="#390075"/>
<path d="M188.555 352.12L192.73 354.93C193.887 355.724 194.208 357.29 193.416 358.448C192.645 359.607 191.06 359.929 189.904 359.135C189.583 358.92 189.326 358.641 189.133 358.32L186.564 353.986C186.178 353.321 186.392 352.463 187.056 352.077C187.549 351.798 188.127 351.841 188.555 352.12Z" fill="#390075"/>
<path d="M223.671 378.293C224.549 373.509 223.907 368.875 221.872 364.992C219.86 361.109 216.584 358.105 212.622 356.496C210.631 355.702 208.533 355.273 206.391 355.209C205.856 355.209 205.321 355.252 204.786 355.252L203.18 355.466L201.574 355.788L200.011 356.282C195.857 357.762 192.217 360.83 189.776 365.013C189.497 365.485 188.876 365.657 188.405 365.378C188.02 365.142 187.849 364.713 187.934 364.284C189.133 359.049 192.966 354.308 198.041 351.798C203.094 349.202 209.368 348.901 214.785 350.982C220.224 353.021 224.72 357.483 226.712 362.868C228.746 368.21 228.339 374.41 225.512 379.001C225.213 379.473 224.613 379.623 224.121 379.323C223.778 379.13 223.607 378.701 223.671 378.293Z" fill="#390075"/>
<path d="M312.574 402.771L307.863 405.903C306.707 406.676 305.144 406.354 304.352 405.196C303.559 404.037 303.902 402.471 305.058 401.699C305.358 401.506 305.679 401.377 306.022 401.312L311.589 400.326C312.317 400.197 313.024 400.69 313.152 401.42C313.238 401.956 313.002 402.471 312.574 402.771Z" fill="#390075"/>
<path d="M314.137 411.181L308.698 413.069C307.392 413.52 305.958 412.833 305.508 411.503C305.058 410.194 305.744 408.757 307.071 408.306C307.371 408.199 307.671 408.156 307.97 408.178L313.709 408.349C314.523 408.371 315.143 409.057 315.122 409.851C315.101 410.473 314.672 410.988 314.137 411.181Z" fill="#390075"/>
<path d="M312.381 420.986L307.35 421.029C305.958 421.05 304.801 419.913 304.78 418.519C304.759 417.124 305.893 415.966 307.285 415.944C307.671 415.944 308.056 416.03 308.377 416.18L312.938 418.304C313.645 418.626 313.944 419.463 313.623 420.171C313.409 420.686 312.917 420.986 312.381 420.986Z" fill="#390075"/>
<path d="M270.863 400.562C273.326 395.756 278.4 392.195 284.01 391.187C289.642 390.114 295.787 391.659 300.348 395.263C304.93 398.824 307.928 404.359 308.335 410.023C308.806 415.687 306.75 421.436 302.917 425.169C302.51 425.555 301.889 425.555 301.504 425.148C301.183 424.826 301.14 424.354 301.333 423.968C303.645 419.72 304.373 415 303.495 410.667L303.089 409.079L302.532 407.534L301.868 406.054C301.59 405.582 301.354 405.11 301.076 404.638C299.92 402.836 298.442 401.248 296.751 399.961C293.325 397.408 289.042 396.143 284.695 396.443C280.327 396.722 276.045 398.567 272.426 401.785C272.019 402.15 271.377 402.107 271.013 401.699C270.713 401.377 270.692 400.927 270.863 400.562Z" fill="#390075"/>
<path d="M105.883 492.448C103.806 492.448 102.115 490.753 102.115 488.672V252.96C102.115 250.879 103.806 249.185 105.883 249.185C107.96 249.185 109.652 250.879 109.652 252.96V488.672C109.652 490.775 107.96 492.448 105.883 492.448Z" fill="#390075"/>
<path d="M99.652 236.72L92.3505 248.948C89.417 253.861 92.8858 260.126 98.6028 260.212L112.82 260.448C118.538 260.533 122.199 254.398 119.437 249.378L112.521 236.913C109.737 231.914 102.585 231.807 99.652 236.72Z" fill="#FF1563"/>
<path d="M112.949 260.984C112.906 260.984 112.863 260.984 112.821 260.984L98.6029 260.748C95.7337 260.705 93.1642 259.16 91.7724 256.65C90.3807 254.14 90.4235 251.158 91.9009 248.67L99.2024 236.441C100.68 233.974 103.292 232.536 106.161 232.558C109.031 232.601 111.6 234.145 112.992 236.656L119.908 249.12C121.3 251.63 121.257 254.612 119.779 257.101C118.323 259.547 115.775 260.984 112.949 260.984ZM106.011 233.631C103.571 233.631 101.365 234.875 100.102 236.999L92.8002 249.227C91.5155 251.373 91.4727 253.947 92.6932 256.135C93.9137 258.324 96.1191 259.654 98.6029 259.675L112.821 259.911C115.326 259.933 117.574 258.688 118.837 256.543C120.122 254.398 120.165 251.823 118.944 249.635L112.028 237.17C110.808 234.982 108.602 233.652 106.119 233.631C106.097 233.631 106.054 233.631 106.011 233.631Z" fill="#000072"/>
<g opacity="0.2">
<path opacity="0.2" d="M111.943 249.378L105.026 236.914C104.341 235.669 103.378 234.747 102.286 234.103C102.478 233.996 102.693 233.889 102.885 233.803C101.601 234.403 100.466 235.347 99.652 236.72L92.3505 248.949C89.417 253.862 92.8858 260.126 98.6028 260.212L106.611 260.341C111.557 259.59 114.491 254.012 111.943 249.378Z" fill="#390075"/>
</g>
<path d="M112.949 263.881C112.885 263.881 112.82 263.881 112.778 263.881L98.5599 263.645C94.6415 263.58 91.1514 261.499 89.2457 258.067C87.34 254.634 87.4042 250.558 89.417 247.19L96.7185 234.961C98.7312 231.593 102.243 229.598 106.204 229.683C110.122 229.748 113.613 231.829 115.518 235.261L122.434 247.726C124.34 251.158 124.276 255.235 122.263 258.603C120.272 261.907 116.803 263.881 112.949 263.881ZM106.033 236.527C105.305 236.527 103.635 236.742 102.607 238.479L95.3053 250.708C94.2347 252.51 94.8985 254.119 95.2411 254.72C95.5837 255.321 96.59 256.736 98.667 256.779L112.885 257.015C114.919 257.058 116.032 255.664 116.375 255.063C116.739 254.462 117.445 252.875 116.439 251.051L109.523 238.587C108.517 236.763 106.782 236.549 106.097 236.527C106.054 236.527 106.033 236.527 106.033 236.527Z" fill="#390075"/>
<path d="M105.776 236.334C162.302 236.334 208.126 184.197 208.126 119.883C208.126 55.5693 162.302 3.43262 105.776 3.43262C49.2497 3.43262 3.42603 55.5693 3.42603 119.883C3.42603 184.197 49.2497 236.334 105.776 236.334Z" fill="#FF1563"/>
<path d="M105.776 236.849C49.0338 236.849 2.89062 184.373 2.89062 119.862C2.89062 55.3722 49.0552 2.89648 105.776 2.89648C162.497 2.89648 208.661 55.3722 208.661 119.883C208.661 184.373 162.518 236.849 105.776 236.849ZM105.776 3.96917C49.6333 3.96917 3.96123 55.9729 3.96123 119.883C3.96123 183.794 49.6333 235.776 105.776 235.776C161.919 235.776 207.591 183.773 207.591 119.862C207.591 55.9729 161.919 3.96917 105.776 3.96917Z" fill="#000072"/>
<g opacity="0.4">
<path opacity="0.4" d="M112.285 12.4646C142.369 12.4646 169.413 27.2248 188.127 50.738C169.477 22.033 139.543 3.43262 105.776 3.43262C49.248 3.43262 3.42603 55.5651 3.42603 119.883C3.42603 139.814 7.83693 158.586 15.5881 174.998C18.5858 180.747 22.0118 186.154 25.8017 191.217C15.738 173.196 9.93531 151.828 9.93531 128.915C9.93531 64.5971 55.7573 12.4646 112.285 12.4646Z" fill="white"/>
</g>
<g opacity="0.3">
<path opacity="0.3" d="M8.39355 155.732C13.7252 174.526 23.1465 191.217 35.4585 204.475C35.3086 204.304 35.1373 204.132 34.9874 203.96C52.5668 220.158 74.9638 229.876 99.3737 229.876C155.902 229.876 201.724 177.744 201.724 113.426C201.724 89.8481 195.557 67.9225 184.958 49.5796C184.958 49.5796 184.958 49.5796 184.958 49.5581C186.992 58.7188 188.084 68.3086 188.084 78.1988C188.084 142.517 142.262 194.649 85.7341 194.649C58.3052 194.649 33.3815 182.356 15.0099 162.362C12.7188 160.259 10.5134 158.049 8.39355 155.732Z" fill="#390075"/>
</g>
<path d="M105.776 239.745C47.4493 239.745 0 185.961 0 119.862C0 53.7844 47.4493 0 105.776 0C164.103 0 211.552 53.7844 211.552 119.883C211.552 185.982 164.103 239.745 105.776 239.745ZM105.776 6.86518C51.2392 6.86518 6.85188 57.5603 6.85188 119.883C6.85188 182.206 51.2392 232.901 105.776 232.901C160.313 232.901 204.7 182.206 204.7 119.883C204.7 57.5603 160.334 6.86518 105.776 6.86518Z" fill="#390075"/>
<g opacity="0.3">
<g opacity="0.3">
<path opacity="0.3" d="M40.4474 111.43C33.5313 100.939 31.7327 74.3582 54.194 54.4063C72.7583 37.9084 90.0165 45.3957 89.4812 53.7198C88.9245 62.0223 81.5373 66.9352 78.197 94.1385C75.4348 116.579 58.5621 138.955 40.4474 111.43Z" fill="white"/>
</g>
</g>
<g opacity="0.3">
<path opacity="0.3" d="M107.382 436.905C112.285 461.083 124.362 465.931 119.33 476.165C117.745 479.404 116.161 481.507 114.576 482.644C116.375 473.183 98.7099 462.971 88.5605 414.207C85.6271 400.09 84.9205 388.054 86.0125 378.379C92.7787 361.902 111.493 362.353 114.641 363.276C138.451 370.227 131.577 404.509 118.131 416.052C117.917 416.223 117.702 416.395 117.488 416.566C108.474 423.41 106.033 430.275 107.382 436.905Z" fill="#390075"/>
</g>
<path d="M89.7169 417.81C89.7169 417.81 94.1278 407.277 118.131 398.867C134.832 393.01 138.451 353.063 114.641 346.091C111.193 345.083 89.0745 344.632 84.4281 366.407C79.7817 388.161 89.7169 417.81 89.7169 417.81Z" fill="#FEC2E6"/>
<g opacity="0.6">
<path opacity="0.6" d="M130.036 383.785C130.614 371.621 125.689 358.834 113.163 355.166C109.823 354.2 88.9245 353.728 83.4216 373.53C83.6143 371.084 83.9355 368.703 84.428 366.408C89.0744 344.632 111.193 345.083 114.641 346.091C130.378 350.682 134.147 369.733 130.036 383.785Z" fill="white"/>
</g>
<g opacity="0.3">
<g opacity="0.3">
<path opacity="0.3" d="M131.556 373.981C131.235 385.18 126.203 396.014 118.109 398.846C94.1061 407.256 89.6952 417.789 89.6952 417.789C89.6952 417.789 79.76 388.14 84.4064 366.386C85.0273 363.511 85.9481 361.001 87.0829 358.856C86.9116 361.43 86.8902 364.026 86.9758 366.644C87.4469 381.404 102.671 391.165 116.268 385.501C118.002 384.772 119.865 384.064 121.878 383.356C125.967 381.962 129.243 378.486 131.556 373.981Z" fill="#6B184E"/>
</g>
<g opacity="0.3">
<path opacity="0.3" d="M89.6524 419.334L89.2028 417.982C89.0957 417.682 79.2675 387.947 83.8926 366.3C84.4921 363.468 85.4128 360.894 86.6333 358.62L87.811 356.41L87.6397 358.899C87.4684 361.323 87.447 363.94 87.5326 366.622C87.7467 373.466 91.1941 379.537 96.9754 383.27C102.692 386.96 109.844 387.625 116.075 385.008C117.852 384.257 119.758 383.549 121.706 382.863C125.453 381.554 128.687 378.4 131.085 373.745L132.155 371.642L132.091 374.002C131.727 386.209 126.053 396.636 118.302 399.36C94.7913 407.599 90.252 417.896 90.2091 418.004L89.6524 419.334ZM86.4406 361.559C85.8197 363.104 85.3272 364.756 84.9418 366.515C80.8949 385.437 88.0893 410.709 89.8451 416.438C91.708 413.434 98.3457 405.217 117.938 398.352C124.811 395.928 129.971 387.025 130.892 376.255C128.515 380.074 125.496 382.691 122.049 383.892C120.122 384.557 118.238 385.287 116.482 386.016C109.908 388.741 102.393 388.054 96.3758 384.171C90.2948 380.245 86.6761 373.852 86.4406 366.665C86.3978 364.927 86.3978 363.211 86.4406 361.559Z" fill="#390075"/>
</g>
</g>
<path d="M89.2888 428.538L86.1412 418.991C85.7129 417.746 75.9276 388.119 80.7453 365.592C82.5439 357.14 87.0833 350.532 93.8709 346.477C102.778 341.157 112.992 341.671 115.69 342.465C127.402 345.898 134.939 357.075 135.325 371.664C135.646 384.043 130.272 398.567 119.373 402.407C113.056 404.617 107.618 407.17 103.142 410.002C95.1985 415.043 93.1643 419.27 93.1429 419.312L89.2888 428.538ZM110.936 349.481C107.703 349.481 102.307 350.167 97.5967 353.02C92.6505 356.024 89.46 360.787 88.0897 367.18C85.0277 381.532 88.7534 399.897 91.2801 409.701C93.1643 407.878 95.7124 405.797 99.0955 403.63C104.042 400.498 110.016 397.687 116.868 395.284C123.398 392.989 128.088 382.927 127.788 371.857C127.681 367.588 126.31 353.407 113.57 349.695C113.163 349.588 112.221 349.481 110.936 349.481Z" fill="#390075"/>
<path d="M167.678 632.498C165.944 631.983 164.424 631.382 162.861 630.674C162.09 630.331 161.319 629.966 160.57 629.58C159.82 629.194 159.071 628.808 158.343 628.379C155.388 626.748 152.604 624.796 149.885 622.758C147.187 620.698 144.617 618.446 142.198 616.043C139.843 613.576 137.637 610.937 135.86 608.019C135.71 607.762 135.796 607.419 136.053 607.268C136.245 607.161 136.481 607.161 136.652 607.29H136.674C139.414 609.178 142.155 610.894 144.939 612.503C147.744 614.091 150.591 615.571 153.461 617.008L162.111 621.149C164.959 622.543 167.892 623.981 170.548 625.547L170.655 625.611C172.453 626.662 173.053 628.979 171.982 630.782C171.083 632.326 169.284 632.97 167.678 632.498Z" fill="#390075"/>
<path d="M195.943 629.923C197.313 629.451 198.919 629.001 200.418 628.55L205 627.199C208.062 626.276 211.145 625.375 214.164 624.302C217.205 623.251 220.181 622.007 223.115 620.612C226.091 619.261 228.874 617.566 231.786 615.807L231.808 615.785C232.065 615.635 232.407 615.721 232.557 615.978C232.664 616.171 232.664 616.407 232.536 616.579C230.566 619.411 228.232 622.071 225.577 624.345C222.922 626.619 220.053 628.701 217.012 630.438C213.972 632.198 210.824 633.764 207.505 634.944C205.856 635.523 204.186 636.059 202.473 636.445C200.739 636.874 199.09 637.175 197.163 637.304C195.086 637.454 193.288 635.909 193.138 633.828C193.009 632.09 194.08 630.524 195.664 629.988L195.943 629.923Z" fill="#390075"/>
<g opacity="0.3">
<path opacity="0.3" d="M358.825 572.728C358.118 584.377 339.96 590.384 328.505 590.449C324.522 590.47 318.698 590.492 311.975 589.333C298.742 587.059 282.019 580.301 268.765 560.263V560.242C269.3 554.278 276.474 551.66 280.799 555.801C291.719 566.27 303.603 570.497 313.516 572.192C320.24 573.35 326.043 573.329 330.047 573.307C338.526 573.264 350.645 569.96 356.683 563.546C358.289 565.906 359.06 568.866 358.825 572.728Z" fill="#390075"/>
</g>
</g>
<defs>
<clipPath id="clip0_631_6764">
<rect width="400" height="732" fill="white"/>
</clipPath>
</defs>
</svg>
