<svg width="246" height="355" viewBox="0 0 246 355" fill="none" xmlns="http://www.w3.org/2000/svg">
<g clip-path="url(#clip0_631_5580)">
<path d="M240.627 332.181C240.663 332.253 240.663 332.337 240.603 332.385C239.558 333.107 230.219 339.058 217.743 329.007C202.033 316.347 206.336 304.877 196.685 291.531C187.814 279.28 167.55 279.4 159.244 280.026C160.386 274.375 162.249 270.924 162.249 270.924C162.249 270.924 195.05 259.851 213.932 281.18C226.721 295.619 210.735 307.678 221.168 319.785C225.795 325.159 231.601 327.792 236.553 329.055C238.452 329.56 239.858 330.762 240.627 332.181Z" fill="#B5E5FB"/>
<path d="M232.094 335.09C228.175 335.09 223.175 333.78 217.55 329.247C208.127 321.661 205.892 314.603 203.512 307.125C201.937 302.183 200.315 297.086 196.432 291.712C187.646 279.58 167.502 279.713 159.256 280.326C159.172 280.338 159.076 280.302 159.004 280.23C158.944 280.158 158.92 280.061 158.932 279.977C160.062 274.351 161.949 270.828 161.961 270.792C161.997 270.72 162.057 270.672 162.129 270.647C162.454 270.539 195.327 259.755 214.137 280.987C220.952 288.682 219.726 295.631 218.548 302.364C217.502 308.327 216.517 313.954 221.372 319.593C225.243 324.089 230.375 327.179 236.601 328.766C238.488 329.247 240.014 330.413 240.88 332.036C241 332.253 240.94 332.493 240.76 332.625C240.195 333.034 236.998 335.09 232.094 335.09ZM165.11 279.508C174.894 279.508 189.653 281.336 196.913 291.363C200.855 296.809 202.49 301.955 204.077 306.945C206.42 314.327 208.644 321.3 217.923 328.778C229.834 338.372 238.825 333.203 240.303 332.217C239.498 330.798 238.139 329.776 236.457 329.343C230.099 327.72 224.87 324.57 220.916 319.977C215.868 314.122 216.877 308.351 217.959 302.256C219.113 295.667 220.315 288.85 213.692 281.384C195.699 261.065 164.581 270.503 162.442 271.176C162.141 271.778 160.615 274.916 159.605 279.701C161.119 279.592 163.007 279.508 165.11 279.508Z" fill="#390075"/>
<path d="M240.603 332.385C239.558 333.107 230.219 339.058 217.743 329.007C215.194 326.951 213.163 324.931 211.529 322.923C203.055 312.571 204.774 302.713 196.685 291.543C187.814 279.292 167.55 279.412 159.244 280.037C160.146 275.541 161.516 272.439 162.045 271.357C162.177 271.08 162.249 270.936 162.249 270.936C162.249 270.936 195.05 259.863 213.932 281.192C226.721 295.631 210.735 307.69 221.168 319.797C225.796 325.171 231.601 327.804 236.553 329.067C238.476 329.56 239.882 330.774 240.651 332.193C240.663 332.265 240.651 332.337 240.603 332.385Z" fill="#39D5FF"/>
<path d="M232.094 335.102C228.175 335.102 223.163 333.78 217.538 329.247C215.074 327.263 213.031 325.256 211.276 323.115C206.865 317.729 205.23 312.571 203.488 307.125C201.913 302.184 200.291 297.086 196.408 291.724C187.622 279.593 167.49 279.725 159.232 280.338C159.124 280.35 159.04 280.302 158.98 280.23C158.92 280.158 158.884 280.061 158.908 279.965C159.821 275.421 161.18 272.331 161.732 271.213C161.865 270.936 161.949 270.78 161.949 270.78C161.985 270.708 162.045 270.66 162.129 270.636C162.454 270.527 195.339 259.743 214.149 280.975C220.964 288.67 219.738 295.631 218.56 302.364C217.514 308.315 216.529 313.942 221.384 319.581C225.255 324.077 230.375 327.167 236.613 328.754C238.5 329.247 240.026 330.413 240.904 332.036C241.024 332.253 240.976 332.493 240.784 332.638C240.195 333.046 236.998 335.102 232.094 335.102ZM165.11 279.496C174.894 279.496 189.665 281.324 196.925 291.351C200.867 296.797 202.502 301.943 204.089 306.933C205.807 312.331 207.43 317.429 211.757 322.719C213.476 324.823 215.495 326.807 217.923 328.754C229.81 338.324 238.764 333.203 240.279 332.205C239.474 330.798 238.115 329.788 236.445 329.343C230.086 327.72 224.858 324.57 220.904 319.978C215.856 314.11 216.865 308.351 217.935 302.244C219.089 295.655 220.291 288.85 213.668 281.384C195.699 261.101 164.617 270.479 162.43 271.177C162.394 271.249 162.345 271.345 162.285 271.477C161.877 272.307 160.519 275.3 159.593 279.677C161.132 279.581 163.007 279.496 165.11 279.496Z" fill="#102770"/>
<g opacity="0.6">
<path opacity="0.6" d="M240.627 332.181C239.858 330.762 238.452 329.548 236.529 329.055C231.577 327.792 225.772 325.159 221.144 319.785C210.723 307.678 226.697 295.631 213.908 281.179C195.014 259.851 162.225 270.924 162.225 270.924C162.225 270.924 162.153 271.068 162.021 271.345C161.829 271.741 161.516 272.427 161.156 273.365C168.439 271.405 194.762 265.946 210.916 284.185C223.704 298.625 207.718 310.684 218.151 322.791C222.779 328.165 228.584 330.798 233.536 332.06C234.942 332.421 236.06 333.166 236.865 334.092C238.933 333.467 240.255 332.625 240.603 332.373C240.651 332.337 240.663 332.265 240.627 332.181Z" fill="white"/>
</g>
<g opacity="0.3">
<path opacity="0.3" d="M211.529 322.923C203.055 312.571 204.774 302.712 196.685 291.543C187.814 279.292 167.55 279.412 159.244 280.037C160.146 275.541 161.516 272.439 162.045 271.357L162.766 271.669C162.766 271.669 196.084 271.441 202.418 286.001C207.718 298.204 201.192 304.311 211.529 322.923Z" fill="#390075"/>
</g>
<path d="M232.07 336.701C227.839 336.701 222.49 335.294 216.541 330.497C206.745 322.61 204.317 314.976 201.973 307.606C200.447 302.785 198.86 297.807 195.122 292.661C186.817 281.192 167.358 281.348 159.377 281.937C158.776 281.985 158.199 281.745 157.802 281.3C157.406 280.855 157.237 280.242 157.357 279.653C158.535 273.785 160.47 270.167 160.555 270.022C160.783 269.601 161.168 269.277 161.624 269.121C161.973 269 170.242 266.259 180.975 266.151C181.18 266.151 181.384 266.151 181.588 266.151C195.699 266.151 207.37 270.912 215.351 279.929C222.683 288.201 221.324 295.883 220.135 302.652C219.113 308.459 218.235 313.485 222.586 318.547C226.24 322.791 231.084 325.7 236.998 327.215C239.293 327.804 241.228 329.295 242.31 331.291C242.815 332.217 242.551 333.371 241.697 333.972C241.048 334.405 237.478 336.701 232.07 336.701ZM165.074 277.897C175.182 277.897 190.555 279.821 198.223 290.413C202.322 296.064 203.993 301.342 205.615 306.452C207.887 313.593 210.038 320.35 218.933 327.516C227.719 334.597 234.642 333.082 237.767 331.736C237.274 331.363 236.697 331.074 236.048 330.918C229.365 329.211 223.861 325.893 219.69 321.035C214.149 314.603 215.267 308.183 216.36 301.979C217.502 295.487 218.572 289.343 212.478 282.454C196.204 264.083 168.487 271.092 163.583 272.523C163.151 273.461 162.37 275.36 161.672 277.969C162.718 277.921 163.86 277.897 165.074 277.897Z" fill="#390075"/>
<path d="M236.457 341.354C223.536 347.45 202.322 336.184 188.992 317.441C181.24 306.548 168.006 300.825 159.437 298.12C157.85 291.026 158.283 284.75 159.232 280.025C167.55 279.4 187.802 279.28 196.673 291.531C206.336 304.865 202.021 316.347 217.731 329.007C229.546 338.529 238.548 333.696 240.351 332.541C240.519 332.433 240.808 332.565 240.892 332.782C241.469 334.225 241.409 335.812 240.603 337.062C239.606 338.625 238.212 340.092 236.457 341.354Z" fill="#FD6CCB"/>
<path d="M228.632 343.29C216.108 343.29 199.858 333.251 188.74 317.621C181.228 307.053 168.608 301.342 159.341 298.42C159.232 298.384 159.16 298.3 159.136 298.192C157.79 292.156 157.718 286.025 158.932 279.965C158.956 279.833 159.076 279.725 159.208 279.713C167.562 279.088 187.971 278.967 196.925 291.351C200.867 296.797 202.502 301.943 204.089 306.933C206.432 314.315 208.656 321.288 217.935 328.766C229.63 338.18 238.524 333.347 240.195 332.277C240.339 332.181 240.531 332.169 240.712 332.217C240.928 332.289 241.108 332.457 241.192 332.662C241.829 334.261 241.709 335.92 240.88 337.218C239.834 338.841 238.404 340.32 236.637 341.595C236.625 341.607 236.601 341.619 236.589 341.619C234.209 342.761 231.517 343.29 228.632 343.29ZM159.701 297.879C169.04 300.849 181.685 306.608 189.257 317.26C202.754 336.244 223.86 346.933 236.312 341.078C238.007 339.851 239.377 338.445 240.375 336.882C241.108 335.751 241.204 334.297 240.639 332.89C240.615 332.842 240.555 332.806 240.531 332.806C238.825 333.9 229.594 338.925 217.574 329.247C208.151 321.661 205.904 314.603 203.536 307.125C201.961 302.184 200.339 297.086 196.456 291.724C187.754 279.713 167.91 279.725 159.521 280.326C158.355 286.169 158.415 292.072 159.701 297.879Z" fill="#102770"/>
<g opacity="0.6">
<path opacity="0.6" d="M240.303 332.782C240.219 332.553 239.93 332.433 239.762 332.541C237.959 333.696 228.957 338.529 217.142 329.007C201.432 316.347 205.735 304.877 196.084 291.531C187.213 279.28 166.949 279.4 158.643 280.025C158.427 281.12 158.235 282.298 158.091 283.548C167.033 283.019 185.831 283.452 194.293 295.138C203.956 308.472 199.641 319.953 215.351 332.614C227.166 342.136 236.168 337.302 237.971 336.148C238.139 336.04 238.428 336.172 238.512 336.389C238.801 337.11 238.921 337.856 238.885 338.589C239.305 338.096 239.69 337.591 240.027 337.062C240.82 335.812 240.88 334.225 240.303 332.782Z" fill="white"/>
</g>
<g opacity="0.3">
<path opacity="0.3" d="M225.808 342.857C213.692 341.534 199.089 331.628 188.992 317.441C181.24 306.548 168.007 300.825 159.425 298.12C157.838 291.038 158.271 284.798 159.208 280.061C162.165 279.929 179.113 284.967 185.483 296.256C192.586 308.82 198.56 332.325 225.808 342.857Z" fill="#390075"/>
</g>
<path d="M228.476 344.937C215.411 344.937 198.98 334.789 187.43 318.559C180.17 308.351 167.886 302.809 158.848 299.959C158.199 299.755 157.706 299.214 157.55 298.552C156.156 292.3 156.083 285.952 157.333 279.664C157.502 278.823 158.211 278.198 159.064 278.125C167.694 277.476 188.764 277.38 198.199 290.425C202.298 296.076 203.968 301.354 205.591 306.463C207.863 313.605 210.014 320.362 218.908 327.528C229.738 336.256 237.791 331.904 239.293 330.942C239.846 330.593 240.531 330.509 241.168 330.714C241.841 330.93 242.394 331.447 242.647 332.096C243.476 334.176 243.308 336.376 242.19 338.12C241.036 339.911 239.474 341.534 237.538 342.929C237.442 343.001 237.346 343.061 237.238 343.109C234.618 344.336 231.649 344.937 228.476 344.937ZM161.083 296.641C170.555 299.767 182.971 305.658 190.555 316.334C203.572 334.645 223.68 345.081 235.483 339.695C236.962 338.613 238.151 337.374 239.005 336.028C239.161 335.787 239.269 335.523 239.329 335.234C235.363 336.93 226.853 338.805 216.541 330.497C206.745 322.61 204.317 314.976 201.973 307.606C200.447 302.784 198.86 297.807 195.122 292.661C187.286 281.841 169.533 281.36 160.843 281.841C160.038 286.77 160.11 291.735 161.083 296.641Z" fill="#390075"/>
<path d="M236.457 341.354C226.998 348.195 207.298 349.446 184.125 332.265C168.403 320.615 161.757 308.484 159.437 298.12C168.007 300.825 181.252 306.536 188.992 317.441C202.322 336.184 223.536 347.45 236.457 341.354Z" fill="#FEF26B"/>
<g opacity="0.3">
<path opacity="0.3" d="M218.957 346.055C209.281 345.827 197.262 342.003 184.125 332.277C168.403 320.627 161.757 308.496 159.437 298.132C176.36 305.73 178.511 319.581 188.524 329.019C196.865 336.882 211.733 343.17 218.957 346.055Z" fill="#390075"/>
</g>
<path d="M219.918 347.979C218.392 347.979 216.817 347.895 215.219 347.714C204.894 346.596 193.74 341.775 182.983 333.804C169.04 323.476 160.494 311.61 157.562 298.541C157.417 297.867 157.634 297.17 158.139 296.713C158.643 296.244 159.365 296.088 160.014 296.292C169.605 299.322 182.682 305.249 190.555 316.322C203.632 334.718 223.86 345.165 235.639 339.611C236.529 339.19 237.599 339.515 238.103 340.368C238.608 341.222 238.38 342.316 237.575 342.893C232.983 346.235 226.829 347.979 219.918 347.979ZM162.201 301.089C165.579 311.922 173.319 321.877 185.254 330.726C198.944 340.873 211.733 344.564 221.673 344.095C210.05 341.366 197.045 332.06 187.43 318.547C181.035 309.566 170.747 304.191 162.201 301.089Z" fill="#390075"/>
<path d="M157.574 204.51C159.617 214.068 182.874 231.489 206.997 208.177L194.149 185.513L154.088 182.039L157.574 204.51Z" fill="#FEF26B"/>
<g opacity="0.3">
<path opacity="0.3" d="M202.634 210.978C179.665 229.998 158.283 213.659 156.336 204.51L152.838 182.039L167.538 183.313L169.665 197.031C171.24 204.365 185.29 216.328 202.634 210.978Z" fill="#390075"/>
</g>
<path d="M181.805 221.75C178.283 221.75 175.29 221.137 173.043 220.452C163.247 217.458 156.769 210.22 155.639 204.93C155.627 204.894 155.627 204.858 155.615 204.822L152.129 182.351C152.033 181.75 152.225 181.137 152.634 180.692C153.055 180.247 153.644 180.019 154.245 180.067L194.305 183.541C194.954 183.602 195.531 183.974 195.855 184.539L208.704 207.203C209.149 207.984 209.005 208.97 208.356 209.595C198.44 219.201 189.004 221.75 181.805 221.75ZM159.521 204.149C160.447 208.309 166.3 214.248 174.197 216.665C181.324 218.841 192.286 218.997 204.509 207.804L192.935 187.389L156.42 184.227L159.521 204.149Z" fill="#390075"/>
<path d="M171.204 190.647C170.807 202.032 200.303 223.565 221.853 196.682L200.808 166.144L159.028 156.454L171.204 190.647Z" fill="#FD6CCB"/>
<path d="M197.694 209.883C193.355 209.883 189.75 208.886 187.49 208.044C178.319 204.641 170.735 196.706 170.891 190.683L158.728 156.55C158.692 156.442 158.716 156.321 158.788 156.237C158.86 156.153 158.98 156.117 159.088 156.141L200.868 165.832C200.94 165.844 201.012 165.892 201.048 165.964L222.094 196.502C222.166 196.61 222.166 196.766 222.082 196.875C213.788 207.226 204.762 209.883 197.694 209.883ZM159.509 156.887L171.504 190.539C171.516 190.575 171.528 190.611 171.516 190.659C171.336 195.817 177.802 203.8 187.706 207.467C199.93 211.999 212.226 208.068 221.457 196.658L200.615 166.409L159.509 156.887Z" fill="#102770"/>
<g opacity="0.3">
<path opacity="0.3" d="M221.853 196.67C200.303 223.554 170.819 202.021 171.204 190.635L159.016 156.454L168.271 158.606L176.588 181.966C176.24 192.186 200.026 210.629 220.495 194.723L221.853 196.67Z" fill="#390075"/>
</g>
<path d="M197.73 211.567C193.127 211.567 189.305 210.509 186.901 209.619C177.117 205.988 169.293 197.704 169.22 190.984L157.153 157.127C156.913 156.442 157.057 155.684 157.538 155.143C158.018 154.602 158.752 154.374 159.461 154.53L201.24 164.221C201.721 164.329 202.141 164.617 202.418 165.026L223.464 195.564C223.957 196.286 223.92 197.247 223.38 197.921C214.69 208.765 205.194 211.567 197.73 211.567ZM162.093 159.195L173.067 189.986C173.151 190.226 173.187 190.467 173.175 190.719C173.019 195.192 179.184 202.538 188.283 205.916C194.906 208.381 207.61 210.328 219.377 196.574L199.617 167.9L162.093 159.195Z" fill="#390075"/>
<path d="M242.106 178.48C234.521 201.672 189.377 204.75 182.706 179.875L178.235 175.017L182.045 157.187L144.352 82.6935L179.148 80.0244C179.148 80.0244 191.216 85.9517 197.177 108.158C200.699 121.299 198.079 144.924 200.11 161.612C203.271 153.496 208.295 145.008 215.867 142.688C232.598 137.566 249.918 154.614 242.106 178.48Z" fill="#39D5FF"/>
<path d="M210.218 197.548C209.846 197.548 209.473 197.548 209.101 197.536C198.415 197.247 185.819 192.486 182.43 180.019L178.007 175.21C177.934 175.137 177.91 175.029 177.934 174.933L181.721 157.211L144.076 82.8256C144.028 82.7294 144.028 82.6212 144.088 82.5371C144.136 82.4409 144.232 82.3928 144.34 82.3808L179.136 79.7117C179.196 79.7117 179.245 79.7237 179.293 79.7477C179.413 79.8079 191.552 85.9996 197.478 108.086C199.497 115.612 199.509 126.3 199.521 137.614C199.533 145.405 199.545 153.46 200.266 160.361C204.377 150.334 209.581 144.299 215.759 142.399C223.368 140.067 231.348 142.171 237.082 148.014C244.281 155.348 246.264 166.781 242.406 178.576C238.103 191.717 222.935 197.548 210.218 197.548ZM178.571 174.921L182.934 179.67C182.971 179.706 182.995 179.754 183.007 179.802C186.276 191.993 198.632 196.646 209.113 196.923C222.238 197.272 237.671 191.032 241.805 178.396C245.591 166.818 243.656 155.636 236.637 148.459C231.072 142.784 223.332 140.74 215.94 143C208.199 145.369 203.211 154.494 200.387 161.744C200.338 161.876 200.194 161.96 200.062 161.936C199.918 161.924 199.81 161.804 199.786 161.66C198.908 154.458 198.908 145.898 198.896 137.614C198.884 126.336 198.872 115.696 196.865 108.242C191.252 87.3462 180.086 80.8899 179.076 80.3489L144.833 82.9579L182.322 157.031C182.358 157.091 182.358 157.163 182.346 157.235L178.571 174.921Z" fill="#102770"/>
<g opacity="0.4">
<path opacity="0.4" d="M211.961 152.703C213.596 150.538 218.596 145.946 227.286 148.458C235.147 150.731 240.543 162.092 235.038 162.958C231.228 163.559 230.591 155.792 225.062 154.47C221.06 153.508 215.279 158.197 212.923 157.031C210.507 155.829 211.144 153.785 211.961 152.703Z" fill="white"/>
</g>
<g opacity="0.3">
<path opacity="0.3" d="M242.563 176.965C242.418 177.47 242.262 177.975 242.106 178.48C234.522 201.672 189.377 204.75 182.706 179.874L187.238 171.074C193.127 193.052 229.041 193.208 242.563 176.965Z" fill="#390075"/>
</g>
<path d="M210.603 198.534C210.206 198.534 209.81 198.534 209.413 198.522C197.562 198.197 183.62 193.04 179.713 179.562L176.769 176.364C176.336 175.895 176.156 175.234 176.288 174.609L179.954 157.464L142.574 83.5952C142.273 83.006 142.285 82.3087 142.61 81.7316C142.934 81.1545 143.523 80.7818 144.184 80.7337L178.992 78.0767C179.353 78.0526 179.701 78.1127 180.014 78.269C180.543 78.5215 192.959 84.8576 199.077 107.665C201.156 115.408 201.168 126.204 201.18 137.626C201.18 142.555 201.192 147.521 201.372 152.234C203.716 147.737 207.875 143.084 215.267 140.824C223.488 138.311 232.082 140.572 238.26 146.872C245.904 154.663 248.031 166.721 243.981 179.129C239.582 192.559 223.848 198.534 210.603 198.534ZM180.386 174.416L182.959 177.217C183.175 177.458 183.331 177.734 183.415 178.047C186.552 189.781 198.968 194.266 209.533 194.554C221.577 194.879 236.325 189.805 240.231 177.867C243.825 166.89 242.034 156.334 235.447 149.613C230.327 144.383 223.223 142.507 216.432 144.575C202.73 148.771 202.334 162.465 202.322 163.415C203.223 169.391 204.834 174.176 207.73 176.7C209.618 178.336 212.009 178.925 215.062 178.492C216.156 178.336 217.142 179.093 217.298 180.175C217.454 181.257 216.697 182.255 215.615 182.411C211.42 183 207.899 182.087 205.134 179.694C201.456 176.496 199.485 170.869 198.44 164.016C198.391 163.848 198.367 163.668 198.355 163.487C197.238 155.805 197.226 146.631 197.214 137.626C197.202 126.95 197.19 115.925 195.242 108.687C190.254 90.0875 180.795 83.3667 178.68 82.0562L147.429 84.4488L183.788 156.298C183.992 156.706 184.052 157.163 183.956 157.608L180.386 174.416Z" fill="#390075"/>
<path d="M204.63 152.823C204.618 152.715 204.606 152.607 204.594 152.498C204.738 152.27 204.882 152.041 205.038 151.813C204.894 152.15 204.762 152.486 204.63 152.823Z" fill="#B5E5FB"/>
<path d="M204.629 153.123C204.617 153.123 204.605 153.123 204.593 153.123C204.449 153.111 204.341 152.991 204.329 152.859L204.293 152.534C204.281 152.462 204.305 152.39 204.341 152.33C204.485 152.102 204.629 151.861 204.786 151.645C204.87 151.512 205.05 151.476 205.182 151.548C205.327 151.621 205.387 151.789 205.315 151.933C205.17 152.27 205.05 152.594 204.918 152.931C204.87 153.051 204.762 153.123 204.629 153.123Z" fill="#390075"/>
<g opacity="0.3">
<path opacity="0.3" d="M111.419 303.59C111.347 303.59 111.287 303.59 111.215 303.578C111.059 303.566 110.939 303.422 110.939 303.266C110.939 303.253 110.939 303.241 110.939 303.229C110.963 303.061 111.107 302.941 111.275 302.953C111.299 302.953 111.323 302.953 111.347 302.953C111.347 302.953 111.407 302.953 111.419 302.953C111.588 302.953 111.732 303.085 111.732 303.266C111.72 303.458 111.588 303.59 111.419 303.59Z" fill="#390075"/>
</g>
<g opacity="0.3">
<path opacity="0.3" d="M111.239 303.278C111.131 303.278 111.011 303.278 110.903 303.278V303.266C111.023 303.278 111.131 303.278 111.239 303.278Z" fill="#6B184E"/>
<path opacity="0.3" d="M110.903 303.59C110.734 303.59 110.59 303.458 110.59 303.278C110.59 303.193 110.626 303.097 110.686 303.037C110.746 302.977 110.83 302.941 110.927 302.953C111.023 302.965 111.119 302.965 111.215 302.953C111.215 302.953 111.227 302.953 111.239 302.953C111.407 302.953 111.54 303.085 111.552 303.241V303.254C111.552 303.422 111.419 303.554 111.263 303.566C111.143 303.59 111.023 303.59 110.903 303.59Z" fill="#390075"/>
</g>
<path d="M150.735 329.86C150.578 330.004 150.506 330.089 150.506 330.089C150.506 330.089 164.401 333.503 165.374 341.246C166.324 348.796 158.535 353.04 138.884 353.04C121.516 353.04 117.85 347.125 117.417 339.274C117.165 334.814 118.559 327.972 119.629 320.278C120.446 314.399 121.083 308.027 120.662 301.847C117.645 302.809 114.532 303.29 111.419 303.29C111.251 303.29 111.071 303.29 110.903 303.29C107.958 303.241 105.025 302.76 102.176 301.847C102.08 303.205 102.044 304.576 102.044 305.947C102.044 318.967 105.818 332.156 105.422 339.274C104.989 347.125 101.323 353.04 83.9551 353.04C64.3155 353.04 56.515 348.796 57.4645 341.246C57.8491 338.144 60.3371 335.727 63.1497 333.96C67.3564 331.315 72.3445 330.089 72.3445 330.089C72.3445 330.089 47.7409 307.209 46.1062 275.288C43.0653 215.655 69.604 164.173 69.604 164.173H153.247C153.247 164.173 179.785 215.655 176.745 275.288C175.206 305.381 153.247 327.431 150.735 329.86Z" fill="white"/>
<path d="M138.884 353.028C121.516 353.028 117.85 347.113 117.417 339.262C117.165 334.802 118.559 327.961 119.629 320.266C122.237 328.67 129.292 329.896 150.735 329.86C150.579 330.004 150.506 330.089 150.506 330.089C150.506 330.089 164.401 333.503 165.374 341.246C166.324 348.784 158.535 353.028 138.884 353.028Z" fill="#FEC2E6"/>
<path d="M84.0754 353.028C101.443 353.028 105.109 347.113 105.542 339.262C105.794 334.802 104.4 327.961 103.33 320.266C100.722 328.67 93.6668 329.896 72.2243 329.86C72.3805 330.004 72.4526 330.089 72.4526 330.089C72.4526 330.089 58.5583 333.503 57.5847 341.246C56.6352 348.784 64.4237 353.028 84.0754 353.028Z" fill="#FEC2E6"/>
<g opacity="0.3">
<path opacity="0.3" d="M137.85 353.028C120.482 353.028 116.816 347.113 116.383 339.262C115.987 332.157 119.761 318.967 119.761 305.935C119.761 304.564 119.725 303.193 119.629 301.835C116.78 302.748 113.847 303.229 110.903 303.278C107.958 303.229 105.025 302.748 102.176 301.835C102.08 303.193 102.044 304.564 102.044 305.935C102.044 318.955 105.818 332.145 105.422 339.262C104.989 347.113 101.323 353.028 83.9551 353.028C64.3155 353.028 56.515 348.784 57.4645 341.234C57.8491 338.132 60.3371 335.715 63.1496 333.948C61.5871 335.92 60.0006 339.358 64.3155 342.448C70.83 347.101 100.001 346.464 99.4361 334.164C98.8711 321.865 86.7076 300.993 83.8229 293.755C101.756 296.773 120.061 296.773 137.994 293.755C135.097 300.993 122.946 321.865 122.381 334.164C121.816 346.464 150.999 347.101 157.502 342.448C161.816 339.358 160.23 335.92 158.667 333.948C161.48 335.727 163.956 338.132 164.353 341.234C165.29 348.784 157.502 353.028 137.85 353.028Z" fill="#390075"/>
</g>
<path d="M138.884 355C123.054 355 116.047 350.323 115.446 339.37C115.254 335.872 115.975 331.219 116.804 325.82C117.826 319.172 118.98 311.73 118.799 304.408C113.931 305.55 108.907 305.55 104.04 304.408C103.859 311.73 105.001 319.172 106.035 325.82C106.864 331.219 107.585 335.884 107.393 339.37C106.792 350.335 99.7727 355 83.9552 355C70.1089 355 61.5151 352.896 57.717 348.58C55.878 346.5 55.1328 343.939 55.5174 340.981C56.3348 334.525 64.1233 330.798 68.6546 329.163C62.3324 322.454 45.5053 302.171 44.1351 275.384C41.1062 215.907 67.5849 163.776 67.8493 163.259C68.3541 162.285 69.544 161.912 70.5176 162.405C71.4912 162.91 71.8638 164.101 71.371 165.074C71.1065 165.579 45.1087 216.809 48.0895 275.192C49.652 305.899 73.4623 328.417 73.7027 328.646C74.2316 329.139 74.4479 329.884 74.2676 330.594C74.0873 331.291 73.5344 331.844 72.8253 332.012C69.3277 332.878 60.0968 336.268 59.4478 341.498C59.2194 343.326 59.616 344.757 60.6978 345.983C62.7411 348.303 68.4382 351.069 83.9793 351.069C101.359 351.069 103.138 345.189 103.475 339.166C103.643 336.088 102.958 331.616 102.153 326.434C101.035 319.22 99.6525 310.239 100.229 301.715C100.265 301.113 100.59 300.56 101.095 300.212C101.6 299.875 102.225 299.779 102.802 299.959C108.451 301.763 114.424 301.763 120.085 299.959C120.662 299.779 121.299 299.863 121.792 300.212C122.297 300.548 122.609 301.101 122.658 301.715C123.246 310.239 121.852 319.22 120.734 326.434C119.929 331.616 119.244 336.088 119.412 339.166C119.749 345.189 121.528 351.069 138.908 351.069C154.449 351.069 160.146 348.303 162.189 345.983C163.271 344.757 163.668 343.326 163.439 341.498C162.778 336.256 153.559 332.878 150.062 332.012C149.352 331.844 148.8 331.291 148.619 330.594C148.439 329.896 148.655 329.139 149.184 328.646C149.425 328.417 173.223 305.911 174.797 275.192C177.778 216.809 151.78 165.591 151.516 165.086C151.011 164.113 151.396 162.922 152.369 162.417C153.343 161.912 154.533 162.297 155.038 163.271C155.302 163.788 181.793 215.919 178.752 275.396C177.382 302.196 160.555 322.466 154.232 329.175C158.776 330.81 166.552 334.537 167.369 340.993C167.742 343.951 166.997 346.5 165.17 348.592C161.324 352.896 152.742 355 138.884 355Z" fill="#390075"/>
<path d="M83.9551 293.515C87.2003 294.549 90.3494 295.655 93.4984 296.689C95.061 297.218 96.6355 297.687 98.174 298.228C99.7124 298.769 101.239 299.274 102.729 299.935L102.777 299.959C103.775 300.404 104.232 301.582 103.787 302.58C103.414 303.434 102.513 303.878 101.636 303.734C99.9168 303.434 98.2581 302.893 96.6595 302.243C95.0609 301.594 93.5345 300.789 92.0441 299.935C90.5537 299.081 89.1114 298.168 87.7051 297.194C86.3109 296.196 84.9527 295.174 83.6786 293.996C83.5584 293.887 83.5584 293.707 83.6666 293.587C83.7387 293.503 83.8469 293.479 83.9551 293.515Z" fill="#390075"/>
<path d="M139.184 293.996C137.91 295.174 136.552 296.208 135.158 297.194C133.751 298.168 132.309 299.094 130.819 299.935C129.328 300.789 127.802 301.594 126.203 302.244C124.605 302.893 122.946 303.446 121.227 303.734C120.145 303.927 119.112 303.193 118.931 302.111C118.775 301.198 119.268 300.32 120.085 299.959L120.145 299.935C121.636 299.274 123.162 298.769 124.701 298.228C126.227 297.675 127.814 297.218 129.376 296.689C132.513 295.655 135.674 294.549 138.92 293.515C139.076 293.467 139.232 293.551 139.28 293.707C139.292 293.804 139.256 293.924 139.184 293.996Z" fill="#390075"/>
<path d="M209.365 257.278C196.432 257.302 186.588 252.913 180.218 248.802C174.605 245.183 171.672 241.78 171.672 241.78L161.756 191.705C161.756 191.705 182.694 212.877 202.31 226.271C207.622 229.902 212.839 232.956 217.526 234.855C234.257 241.672 225.723 257.242 209.365 257.278Z" fill="white"/>
<path d="M209.365 257.278C196.432 257.302 186.589 252.913 180.218 248.802C181.781 243.836 187.322 230.214 202.31 226.271C207.622 229.902 212.839 232.955 217.526 234.855C234.257 241.672 225.724 257.242 209.365 257.278Z" fill="#FEC2E6"/>
<path d="M162.237 191.248C165.158 192.739 167.586 194.699 169.93 196.767C171.108 197.789 172.261 198.847 173.403 199.905L176.805 203.127C177.935 204.197 179.076 205.255 180.254 206.289C181.432 207.311 182.586 208.357 183.788 209.355L187.358 212.373L190.976 215.33C195.831 219.214 200.807 222.941 205.976 226.331L209.894 228.784L213.908 231.008C215.267 231.681 216.649 232.282 218.019 232.932C219.497 233.593 221.096 234.29 222.526 235.264C223.969 236.238 225.351 237.416 226.457 238.919C227.022 239.664 227.478 240.506 227.863 241.384C228.019 241.841 228.187 242.297 228.308 242.766C228.404 243.247 228.524 243.716 228.548 244.209C228.74 246.169 228.32 248.141 227.49 249.812C226.673 251.495 225.507 252.938 224.185 254.128C221.517 256.509 218.259 257.927 214.93 258.673C213.259 259.033 211.565 259.25 209.882 259.262C209.449 259.286 209.053 259.262 208.644 259.25L207.43 259.202L205.002 259.105C198.524 258.637 192.129 256.953 186.204 254.308C185.459 253.972 184.75 253.599 184.016 253.238C183.656 253.058 183.283 252.878 182.923 252.685L181.865 252.084C180.435 251.303 179.028 250.485 177.646 249.607C177.31 249.379 176.973 249.151 176.649 248.91C176.312 248.67 175.987 248.441 175.675 248.165C175.362 247.9 175.05 247.636 174.749 247.359C174.437 247.095 174.148 246.806 173.872 246.506C173.596 246.205 173.319 245.892 173.055 245.58C172.802 245.255 172.562 244.906 172.322 244.558C171.865 243.848 171.468 243.115 171.192 242.225C171.072 241.841 171.288 241.444 171.673 241.324C171.841 241.276 171.997 241.288 172.153 241.348L172.201 241.372C175.278 242.586 177.586 244.401 180.05 246.145C181.276 247.022 182.49 247.924 183.812 248.646L184.798 249.211C185.134 249.391 185.471 249.547 185.807 249.716C186.48 250.04 187.153 250.401 187.839 250.714C193.355 253.166 199.269 254.729 205.303 255.162L207.574 255.246L208.704 255.294C209.077 255.306 209.461 255.33 209.822 255.306C211.264 255.294 212.707 255.114 214.101 254.813C216.877 254.2 219.546 253.01 221.565 251.194C223.572 249.403 224.906 246.95 224.63 244.594C224.461 242.225 222.671 240.097 220.363 238.558L219.473 238.005L218.524 237.5C218.211 237.32 217.875 237.188 217.55 237.043L216.529 236.587C215.062 235.901 213.56 235.252 212.118 234.519L207.899 232.186L203.848 229.649C198.524 226.163 193.452 222.364 188.524 218.42L184.858 215.426L181.24 212.373L174.1 206.181C171.697 204.137 169.341 202.045 167.141 199.785C164.93 197.548 162.838 195.156 161.336 192.21C161.168 191.873 161.3 191.453 161.636 191.284C161.805 191.14 162.033 191.14 162.237 191.248Z" fill="#390075"/>
<path d="M118.907 48.9814C125.146 21.0522 141.816 0.998012 146.312 2.00794C150.807 3.01786 157.369 28.2539 151.131 56.1831" fill="#FDD800"/>
<g opacity="0.5">
<path opacity="0.5" d="M142.67 11.0852C139.917 11.6743 130.386 25.5367 132.67 31.8728C133.042 32.9188 134.473 32.1012 136.071 30.7066C139.797 27.4604 142.285 23.036 143.331 18.2028C144.148 14.4757 144.545 10.6764 142.67 11.0852Z" fill="white"/>
</g>
<g opacity="0.3">
<path opacity="0.3" d="M151.131 56.183L118.907 48.9813C120.001 44.076 121.42 39.4231 123.03 35.0709L131.828 37.0306C139.833 38.822 147.634 33.1231 148.259 24.9355C148.884 16.6878 148.499 9.11342 147.598 2.87354C151.901 7.65865 156.792 30.8147 151.131 56.183Z" fill="#390075"/>
</g>
<path d="M151.131 58.1668C150.987 58.1668 150.843 58.1548 150.699 58.1187C149.629 57.8782 148.956 56.8202 149.196 55.7622C155.41 27.9532 148.703 5.771 145.867 3.96757C142.549 4.37635 127.044 21.6052 120.83 49.4141C120.59 50.4841 119.532 51.1454 118.475 50.917C117.405 50.6765 116.732 49.6185 116.972 48.5605C120.722 31.7765 127.754 19.429 131.6 13.5618C133.871 10.1113 141.672 -1.04598 146.732 0.0841737C151.804 1.21433 154.112 14.6439 154.689 18.7197C155.687 25.6689 156.792 39.8319 153.042 56.6158C152.862 57.5416 152.045 58.1668 151.131 58.1668Z" fill="#390075"/>
<path d="M127.225 42.4049C125.242 42.4049 123.174 42.2967 120.999 42.0562C120.145 41.96 119.544 41.2026 119.628 40.349C119.725 39.4953 120.482 38.8822 121.335 38.9783C140.975 41.1304 152.586 31.6684 152.694 31.5722C153.343 31.0312 154.316 31.1154 154.869 31.7646C155.422 32.4138 155.338 33.3877 154.677 33.9408C154.232 34.3255 144.412 42.4049 127.225 42.4049Z" fill="#390075"/>
<path d="M129.472 25.9936C128.379 25.9936 127.694 25.9455 127.561 25.9455C126.708 25.8854 126.071 25.152 126.131 24.2983C126.191 23.4447 126.924 22.8075 127.778 22.8676C127.922 22.8796 142.718 23.7934 151.336 15.6659C151.961 15.0768 152.934 15.1129 153.523 15.726C154.112 16.3512 154.076 17.3251 153.463 17.9142C145.699 25.2241 134.028 25.9936 129.472 25.9936Z" fill="#390075"/>
<path d="M186.396 169.27C186.156 169.811 185.916 170.34 185.663 170.881C185.194 171.867 184.714 172.853 184.197 173.827C182.598 176.893 180.735 179.923 178.584 182.88C160.026 208.417 117.165 204.449 101.912 200.782C86.5515 197.608 46.0703 182.964 40.1328 151.945C39.4597 148.447 39.063 145.02 38.9068 141.666C38.8707 141.016 38.8467 140.367 38.8347 139.718C38.8106 138.672 38.8106 137.638 38.8347 136.604C39.7482 96.2432 73.799 67.6768 73.799 67.6768C73.799 67.6768 55.4334 50.0873 68.7629 35.9604C79.1716 24.9234 103.306 35.4194 105.446 55.9425L160.29 68.1938C170.951 50.5322 197.262 51.3137 201.985 65.7291C208.031 84.1843 183.932 92.2877 183.932 92.2877C183.932 92.2877 202.526 132.444 186.396 169.27Z" fill="white"/>
<path d="M126.696 203.788C116.888 203.788 107.934 202.55 101.84 201.083C93.1981 199.303 79.5802 194.675 67.3204 187.064C51.6832 177.35 42.4284 165.555 39.8442 152.005C39.1951 148.603 38.7745 145.128 38.6182 141.678C38.5822 141.029 38.5581 140.379 38.5461 139.718C38.5221 138.684 38.5221 137.626 38.5461 136.592C39.4115 98.4074 70.2171 70.4061 73.3662 67.6528C71.2387 65.4767 56.0222 49.0294 68.5584 35.7441C72.8373 31.2115 79.7244 29.9731 86.9841 32.4258C94.7486 35.0588 104.292 42.7174 105.746 55.678L160.158 67.8332C166.985 56.724 178.872 53.8385 187.021 54.7763C194.641 55.642 200.351 59.6937 202.286 65.621C207.971 82.982 187.213 91.3981 184.365 92.4561C186.036 96.2673 201.925 134.536 186.673 169.379C186.432 169.92 186.192 170.461 185.939 170.99C185.447 172.036 184.966 173.009 184.461 173.959C182.826 177.097 180.927 180.151 178.824 183.049C170.711 194.206 157.321 200.951 139.028 203.079C134.881 203.584 130.722 203.788 126.696 203.788ZM79.8326 31.8126C75.5296 31.8126 71.7195 33.3034 69.0031 36.1769C56.0463 49.9191 73.8469 67.2801 74.0272 67.4605C74.0873 67.5206 74.1234 67.6048 74.1234 67.6889C74.1234 67.7731 74.0753 67.8572 74.0152 67.9173C73.6787 68.2059 40.0605 96.8685 39.1711 136.616C39.1471 137.65 39.1471 138.696 39.1711 139.718C39.1831 140.367 39.2072 141.004 39.2432 141.654C39.3995 145.068 39.8081 148.519 40.4572 151.897C46.3226 182.544 86.8639 197.368 101.984 200.482C117.008 204.101 160.002 207.948 178.343 182.7C180.435 179.826 182.31 176.797 183.932 173.683C184.425 172.745 184.906 171.783 185.386 170.737C185.639 170.208 185.879 169.667 186.108 169.138C201.997 132.853 183.848 92.8167 183.668 92.408C183.632 92.3238 183.632 92.2397 183.668 92.1555C183.704 92.0713 183.764 92.0112 183.848 91.9872C184.088 91.903 207.574 83.7635 201.697 65.8133C199.834 60.1265 194.317 56.2191 186.949 55.3895C178.932 54.4758 167.213 57.3252 160.567 68.3502C160.494 68.4584 160.374 68.5185 160.23 68.4944L105.398 56.2431C105.266 56.2191 105.169 56.1109 105.157 55.9786C103.823 43.1622 94.424 35.5998 86.7918 33.0149C84.3999 32.2094 82.0561 31.8126 79.8326 31.8126Z" fill="#390075"/>
<path d="M184.786 81.0483C190.016 79.2744 193.046 74.268 191.554 69.8663C190.062 65.4646 184.613 63.3344 179.382 65.1083C174.152 66.8823 171.122 71.8886 172.614 76.2903C174.106 80.692 179.555 82.8222 184.786 81.0483Z" fill="#F883A0"/>
<path d="M90.6582 57.9715C93.8807 54.623 93.2677 48.8027 89.289 44.9715C85.3102 41.1402 79.4725 40.7488 76.2501 44.0972C73.0276 47.4457 73.6407 53.266 77.6194 57.0973C81.5981 60.9285 87.4358 61.3199 90.6582 57.9715Z" fill="#F883A0"/>
<path d="M184.209 173.827C182.61 176.893 180.747 179.923 178.596 182.88C160.038 208.417 117.177 204.449 101.924 200.782C86.5634 197.608 46.0822 182.964 40.1447 151.945C39.4716 148.447 39.075 145.02 38.9187 141.666C58.354 135.606 85.9985 135.137 115.41 141.714C144.521 148.218 169.16 160.241 184.209 173.827Z" fill="#FFEBF6"/>
<path d="M126.708 205.459C116.768 205.459 107.669 204.209 101.479 202.718C92.6812 200.903 78.871 196.214 66.443 188.495C50.6135 178.66 40.8418 166.157 38.1975 152.33C33.3056 126.757 42.9211 104.683 51.8515 90.6648C59.4237 78.7741 67.6089 70.6707 70.9743 67.5688C69.3036 65.6932 66.5391 62.2547 64.5079 57.9745C60.3011 49.1136 61.2747 41.0342 67.3324 34.614C72.068 29.5885 79.6162 28.1818 87.5129 30.8509C95.7942 33.6522 105.975 41.8518 107.429 55.7382C107.537 56.8203 106.756 57.7942 105.662 57.9144C104.568 58.0226 103.607 57.2411 103.487 56.147C102.309 44.8936 93.9793 37.211 86.2388 34.602C79.8445 32.4379 73.8589 33.4598 70.205 37.3312C65.3011 42.5371 64.58 48.9092 68.0776 56.2793C70.818 62.0503 75.133 66.2222 75.169 66.2583C75.5777 66.643 75.794 67.184 75.782 67.7491C75.758 68.3142 75.5056 68.8432 75.0729 69.2039C74.9647 69.288 64.3997 78.2571 55.1087 92.889C46.599 106.282 37.4283 127.335 42.0677 151.585C47.7649 181.341 87.4768 195.793 102.297 198.847C102.321 198.847 102.333 198.859 102.357 198.859C117.068 202.406 159.16 206.229 176.973 181.714C191.48 161.744 192.141 138.78 190.146 123.042C187.959 105.838 182.213 93.2377 182.153 93.1054C181.913 92.6004 181.913 92.0113 182.129 91.4943C182.358 90.9773 182.778 90.5806 183.319 90.4003C184.221 90.0877 205.483 82.6936 200.122 66.3304C198.464 61.2808 193.475 57.8062 186.769 57.0367C178.656 56.111 167.85 59.5134 161.997 69.1919C161.432 70.1297 160.218 70.4302 159.28 69.8651C158.343 69.3001 158.042 68.0858 158.607 67.148C165.819 55.1972 178.523 52.1073 187.213 53.1052C195.495 54.043 201.721 58.5276 203.872 65.0921C206.625 73.484 204.065 81.2027 196.492 87.4306C192.838 90.4363 188.884 92.372 186.564 93.3579C188.295 97.602 192.262 108.411 194.052 122.405C196.168 138.889 195.483 162.97 180.17 184.023C171.889 195.408 157.73 202.574 139.22 204.726C135.013 205.243 130.795 205.459 126.708 205.459Z" fill="#390075"/>
<path d="M122.655 158.033C124.079 156.827 124.691 155.209 124.022 154.419C123.353 153.628 121.657 153.964 120.233 155.169C118.809 156.374 118.197 157.992 118.865 158.783C119.534 159.574 121.231 159.238 122.655 158.033Z" fill="#390075"/>
<path d="M108.939 156.567C109.881 156.136 110.015 154.411 109.239 152.714C108.463 151.018 107.07 149.992 106.129 150.423C105.187 150.854 105.053 152.579 105.829 154.275C106.605 155.972 107.998 156.998 108.939 156.567Z" fill="#390075"/>
<path d="M176.61 159.049C177.687 154.228 172.641 148.997 165.339 147.365C158.037 145.734 151.246 148.32 150.169 153.142C149.092 157.963 154.139 163.195 161.44 164.826C168.742 166.457 175.534 163.871 176.61 159.049Z" fill="#FDC1E5"/>
<path d="M79.044 136.957C80.1554 131.979 74.9429 126.579 67.4016 124.894C59.8603 123.209 52.8459 125.878 51.7345 130.855C50.6231 135.832 55.8356 141.233 63.3769 142.918C70.9182 144.603 77.9326 141.934 79.044 136.957Z" fill="#FDC1E5"/>
<path d="M73.823 69.6608C73.246 69.6608 72.6811 69.4083 72.2965 68.9394C71.5994 68.0978 71.7316 66.8474 72.5729 66.1621C72.8013 65.9697 78.2221 61.5453 82.0202 59.261C82.9577 58.6959 84.1716 58.9965 84.7365 59.9343C85.3015 60.8721 85.001 62.0864 84.0635 62.6514C80.5057 64.7915 75.1331 69.1799 75.085 69.2279C74.7004 69.5165 74.2557 69.6608 73.823 69.6608Z" fill="#390075"/>
<path d="M115.915 41.7196C104.075 38.0646 91.359 43.7875 86.5152 55.1852C84.5561 59.802 83.6426 65.4047 85.4455 71.7528C89.8205 87.13 106.684 91.1817 125.193 91.0856C125.193 91.0856 114.003 55.065 122.105 44.2564C122.105 44.2684 119.701 42.8858 115.915 41.7196Z" fill="#FEF26B"/>
<g opacity="0.6">
<path opacity="0.6" d="M117.321 49.2579C117.321 49.2579 114.929 47.8752 111.131 46.709C102.91 44.1722 94.2679 46.156 88.126 51.422C93.7991 42.1403 105.217 37.8001 115.915 41.0943C119.701 42.2606 122.093 43.6432 122.093 43.6432C114.004 54.4638 111.239 57.3854 117.321 49.2579Z" fill="white"/>
</g>
<g opacity="0.3">
<path opacity="0.3" d="M125.194 91.0974C106.696 91.1936 89.8206 87.1419 85.4576 71.7646C83.6547 65.4165 84.5562 59.8139 86.5153 55.1971C87.6692 52.4919 89.2557 50.1114 91.1788 48.0916C89.8687 52.2154 89.4841 57.0005 90.9865 62.3026C94.7125 75.3955 107.477 80.2768 122.609 81.3829C123.956 87.1058 125.194 91.0974 125.194 91.0974Z" fill="#390075"/>
</g>
<path d="M124.509 93.0692C114.064 93.0692 105.794 91.7588 99.2679 89.0536C91.0347 85.6511 85.7461 80.0124 83.5466 72.2937C81.8278 66.2582 82.2125 60.2347 84.6884 54.4036C89.9048 42.1042 103.583 35.8282 116.492 39.8198C120.446 41.0342 122.97 42.4889 123.078 42.549C123.571 42.8256 123.92 43.3065 124.028 43.8595C124.148 44.4126 124.016 44.9897 123.679 45.4466C117.537 53.6582 124.052 80.7578 127.081 90.5084C127.261 91.1095 127.153 91.7588 126.792 92.2637C126.42 92.7687 125.831 93.0692 125.206 93.0692C124.977 93.0692 124.737 93.0692 124.509 93.0692ZM108.643 42.5971C99.953 42.5971 91.864 47.6588 88.3423 55.9666C86.2269 60.9441 85.9024 66.0778 87.3567 71.2236C90.6741 82.8859 102.201 88.753 122.549 89.1017C120.133 80.6736 113.919 56.2672 119.316 45.0979C118.331 44.653 116.972 44.112 115.338 43.6071C113.102 42.9218 110.855 42.5971 108.643 42.5971Z" fill="#390075"/>
<path d="M121.624 39.0623C116.828 40.1204 112.85 43.4868 111.035 48.0675C108.054 55.6299 104.989 68.5665 111.768 80.9261C122.237 100.03 152.922 93.8387 152.922 93.8387C152.922 93.8387 145.687 58.1066 149.076 49.8829C149.088 49.8829 141.071 34.7581 121.624 39.0623Z" fill="#FD6CCB"/>
<path d="M141.96 95.0649C131.984 95.0649 117.922 92.7806 111.503 81.0703C104.508 68.314 108.03 54.8363 110.758 47.9472C112.597 43.2823 116.636 39.8438 121.564 38.7617C141.011 34.4696 149.28 49.5944 149.364 49.7386C149.412 49.8228 149.412 49.919 149.376 50.0031C146.059 58.0464 153.175 93.4178 153.247 93.7785C153.259 93.8626 153.247 93.9468 153.199 94.0069C153.151 94.079 153.078 94.1271 153.006 94.1392C152.874 94.1632 148.223 95.0649 141.96 95.0649ZM121.696 39.3629C116.972 40.4089 113.102 43.7031 111.335 48.1756C108.054 56.4714 105.53 68.867 112.044 80.7697C121.732 98.4313 149.34 94.1512 152.562 93.5861C151.816 89.847 145.602 58.0344 148.739 49.9069C147.922 48.4882 139.737 35.3713 121.696 39.3629Z" fill="#102770"/>
<g opacity="0.6">
<path opacity="0.6" d="M146.035 54.0308C146.035 54.0308 138.018 38.918 118.583 43.2102C115.662 43.8594 113.042 45.3503 111.035 47.4543L111.047 47.4422C112.85 42.8615 116.828 39.4951 121.636 38.4371C141.083 34.1329 149.088 49.2577 149.088 49.2577C145.698 57.4814 143.367 60.5111 146.035 54.0308Z" fill="white"/>
</g>
<g opacity="0.3">
<path opacity="0.3" d="M152.934 93.8386C152.934 93.8386 122.249 100.018 111.78 80.926C105.001 68.5665 108.066 55.6298 111.047 48.0674C111.948 45.7711 113.402 43.7873 115.241 42.2363C112.705 49.955 111.011 61.3407 116.996 72.2695C124.376 85.7472 141.84 86.6369 151.48 85.9876C152.285 90.6525 152.934 93.8386 152.934 93.8386Z" fill="#390075"/>
</g>
<path d="M141.684 96.8085C131.348 96.8085 116.888 94.3558 110.049 81.876C102.729 68.5186 106.383 54.4999 109.208 47.3343C111.251 42.1524 115.734 38.3411 121.203 37.1268C141.876 32.5581 150.747 48.789 150.831 48.9574C151.107 49.4743 151.131 50.0995 150.915 50.6406C148.319 56.9285 152.898 83.6675 154.869 93.4541C154.978 93.9711 154.869 94.5001 154.581 94.9449C154.292 95.3778 153.836 95.6904 153.319 95.7865C152.826 95.8707 148.03 96.8085 141.684 96.8085ZM122.057 40.9862C117.874 41.9119 114.448 44.8215 112.886 48.777C109.737 56.7482 107.297 68.6268 113.511 79.9644C121.696 94.8848 143.884 93.1175 150.602 92.2037C149.076 84.3047 144.485 58.8762 146.925 50.1116C145.134 47.3343 137.61 37.5476 122.057 40.9862Z" fill="#390075"/>
<path d="M153.114 46.24C148.595 45.0136 143.848 47.1898 141.84 51.4218C139.46 56.4354 137.009 64.1781 138.331 73.3276C140.302 87.0096 149.076 93.2014 156.612 95.8464C175.002 102.303 185.098 81.96 185.098 81.96C185.098 81.96 173.115 77.8602 171.336 63.5529C170.783 59.1405 168.511 55.1129 165.002 52.3837C161.961 50.0031 157.922 47.5385 153.114 46.24Z" fill="#39D5FF"/>
<path d="M163.644 97.4094C161.42 97.4094 159.04 97.0246 156.516 96.1349C149.208 93.5741 140.074 87.5386 138.03 73.3756C136.684 64.0819 139.208 56.231 141.564 51.2896C143.643 46.9252 148.535 44.677 153.199 45.9394C157.333 47.0695 161.36 49.1495 165.194 52.1191C168.788 54.9205 171.084 58.9602 171.648 63.5048C173.391 77.4514 185.086 81.6233 185.206 81.6594C185.29 81.6834 185.363 81.7556 185.399 81.8397C185.435 81.9239 185.435 82.0201 185.387 82.0922C185.29 82.2725 177.586 97.4094 163.644 97.4094ZM150.566 46.2039C147.033 46.2039 143.703 48.2237 142.117 51.542C139.797 56.4113 137.321 64.13 138.631 73.2794C140.626 87.1418 149.569 93.033 156.708 95.5458C173.391 101.401 183.295 84.605 184.653 82.1163C182.67 81.2987 172.634 76.5617 171.011 63.5769C170.459 59.2006 168.259 55.3052 164.797 52.6121C161.035 49.6785 157.069 47.6346 153.018 46.5405C152.213 46.3121 151.384 46.2039 150.566 46.2039Z" fill="#102770"/>
<g opacity="0.6">
<path opacity="0.6" d="M183.055 80.397C179.737 79.4592 171.023 75.9966 167.634 64.9355C166.324 60.6794 163.403 57.1086 159.473 55.0166C156.083 53.2132 151.672 51.4819 146.708 51.025C144.749 50.8447 142.862 51.2655 141.227 52.1432C141.432 51.6743 141.636 51.2294 141.84 50.7966C143.848 46.5645 148.595 44.3884 153.114 45.6147C157.922 46.9252 161.961 49.3779 165.002 51.7464C168.511 54.4756 170.783 58.5033 171.336 62.9157C172.658 73.5199 179.557 78.5094 183.055 80.397Z" fill="white"/>
</g>
<path d="M185.098 81.948C185.098 81.948 184.1 83.9558 182.153 86.5167C183.367 84.1962 184.04 82.3087 184.268 81.6113C184.797 81.8398 185.098 81.948 185.098 81.948Z" fill="#B5E5FB"/>
<path d="M182.153 86.8294C182.093 86.8294 182.033 86.8173 181.985 86.7813C181.853 86.6971 181.805 86.5168 181.877 86.3725C183.079 84.0641 183.74 82.2006 183.968 81.5153C183.992 81.4311 184.052 81.359 184.136 81.3349C184.221 81.2988 184.305 81.2988 184.389 81.3349C184.894 81.5633 185.182 81.6595 185.194 81.6595C185.278 81.6836 185.35 81.7557 185.374 81.8399C185.41 81.924 185.41 82.0202 185.362 82.0924C185.326 82.1765 184.329 84.1603 182.394 86.7091C182.346 86.7813 182.249 86.8294 182.153 86.8294ZM184.461 82.0322C184.353 82.3448 184.196 82.7777 183.992 83.2946C184.305 82.7777 184.533 82.3809 184.665 82.1164C184.605 82.0924 184.533 82.0563 184.461 82.0322Z" fill="#390075"/>
<path d="M184.365 81.3229C184.365 81.3229 184.329 81.419 184.269 81.6114C183.944 81.4671 183.523 81.2748 183.055 81.0103C183.872 81.2387 184.365 81.3229 184.365 81.3229Z" fill="#B5E5FB"/>
<path d="M184.269 81.9241C184.22 81.9241 184.184 81.912 184.136 81.9C183.86 81.7678 183.415 81.5754 182.898 81.2989C182.754 81.2267 182.694 81.0584 182.754 80.9141C182.814 80.7699 182.97 80.6857 183.127 80.7338C183.908 80.9502 184.389 81.0344 184.401 81.0344C184.485 81.0464 184.569 81.0945 184.617 81.1786C184.665 81.2508 184.677 81.347 184.653 81.4311L184.557 81.7197C184.533 81.8038 184.473 81.876 184.389 81.912C184.353 81.912 184.317 81.9241 184.269 81.9241Z" fill="#390075"/>
<g opacity="0.3">
<path opacity="0.3" d="M185.098 81.9479C185.098 81.9479 175.002 102.303 156.612 95.8344C149.076 93.1893 140.302 86.9976 138.331 73.3275C137.009 64.1661 139.46 56.4233 141.84 51.4218C142.213 50.6283 142.682 49.919 143.235 49.2817C142.069 53.5619 141.444 58.6957 142.261 64.3825C144.232 78.0645 153.006 84.2563 160.542 86.8894C170.687 90.4481 178.295 85.8674 183.091 81.0342C184.293 81.6834 185.098 81.9479 185.098 81.9479Z" fill="#390075"/>
</g>
<path d="M163.667 99.0806C161.264 99.0806 158.691 98.6598 155.951 97.698C149.617 95.4738 138.643 89.3782 136.372 73.6041C134.965 63.8896 137.598 55.7141 140.049 50.5563C142.477 45.4586 148.187 42.8376 153.631 44.3164C157.97 45.4946 162.213 47.6828 166.216 50.7967C170.158 53.8626 172.682 58.299 173.295 63.2885C174.906 76.2251 185.627 80.0364 185.735 80.0725C186.276 80.2528 186.709 80.6616 186.925 81.1906C187.141 81.7196 187.117 82.3087 186.865 82.8257C186.781 83.0181 178.596 99.0806 163.667 99.0806ZM150.566 47.8752C147.658 47.8752 144.917 49.5343 143.619 52.2635C141.408 56.9284 139.028 64.3104 140.278 73.0391C142.153 86.0719 150.554 91.6144 157.261 93.9709C164.16 96.3875 170.603 95.0049 176.432 89.835C179.221 87.3704 181.192 84.6051 182.297 82.8497C178.475 80.8539 170.831 75.4557 169.377 63.7814C168.884 59.85 166.901 56.3393 163.788 53.9227C160.194 51.1334 156.432 49.1857 152.598 48.1397C151.913 47.9593 151.239 47.8752 150.566 47.8752Z" fill="#390075"/>
<path d="M143.403 171.374C143.403 171.543 143.391 171.699 143.379 171.855C143.042 175.847 138.872 178.985 133.811 178.949C132.273 178.937 130.819 178.636 129.532 178.095C126.431 176.821 124.304 174.212 124.328 171.23C124.352 167.01 128.619 168.08 133.883 168.116C139.16 168.152 143.439 167.154 143.403 171.374Z" fill="#390075"/>
<path d="M143.379 171.855C143.042 175.847 138.872 178.985 133.811 178.949C132.273 178.937 130.819 178.636 129.532 178.095C129.869 174.103 134.028 170.965 139.1 171.002C140.65 171.014 142.105 171.326 143.379 171.855Z" fill="#FF4F90"/>
<path d="M133.907 180.428C133.871 180.428 133.847 180.428 133.811 180.428C130.927 180.404 128.21 179.478 126.167 177.807C124.016 176.063 122.85 173.719 122.862 171.218C122.874 169.763 123.306 168.633 124.136 167.828C125.734 166.313 128.33 166.421 131.335 166.541C132.165 166.577 133.03 166.613 133.907 166.613C134.785 166.613 135.65 166.601 136.48 166.577C139.484 166.493 142.081 166.421 143.655 167.96C144.484 168.765 144.893 169.92 144.881 171.362C144.869 173.863 143.655 176.183 141.492 177.903C139.448 179.538 136.756 180.428 133.907 180.428ZM128.992 169.463C127.705 169.463 126.624 169.571 126.179 169.992C125.951 170.208 125.83 170.641 125.818 171.254C125.806 172.841 126.588 174.344 128.03 175.51C129.556 176.749 131.624 177.446 133.835 177.458C136.035 177.494 138.114 176.809 139.665 175.582C141.119 174.44 141.924 172.937 141.936 171.35C141.936 170.737 141.828 170.304 141.6 170.088C140.927 169.427 138.715 169.487 136.588 169.547C135.734 169.571 134.845 169.595 133.907 169.595C132.97 169.583 132.08 169.547 131.227 169.511C130.458 169.487 129.689 169.463 128.992 169.463Z" fill="#390075"/>
<g opacity="0.3">
<path opacity="0.3" d="M186.396 169.27C186.156 169.811 185.915 170.34 185.663 170.882C185.194 171.867 184.713 172.853 184.197 173.839C182.598 176.905 180.735 179.935 178.584 182.892C160.026 208.429 117.165 204.461 101.912 200.794C86.8038 197.681 47.4284 183.469 40.4692 153.532C51.5992 178.384 85.6019 190.467 99.3881 193.316C114.641 196.983 157.502 200.951 176.06 175.414C178.211 172.457 180.074 169.427 181.673 166.361C182.189 165.387 182.67 164.401 183.139 163.403C183.391 162.874 183.632 162.333 183.872 161.792C194.762 136.917 189.834 110.515 185.471 96.0029C189.557 106.763 199.593 139.129 186.396 169.27Z" fill="#390075"/>
</g>
<path d="M84.4239 100.175L86.4311 103.481C86.9239 104.299 86.6715 105.357 85.8542 105.85C85.0369 106.343 83.9792 106.09 83.4864 105.272C83.3662 105.068 83.282 104.84 83.246 104.611L82.7292 100.788C82.657 100.283 83.0176 99.8261 83.5224 99.7539C83.895 99.6938 84.2436 99.8742 84.4239 100.175Z" fill="#390075"/>
<path d="M79.3637 102.7L82.044 105.561C82.6931 106.258 82.657 107.34 81.9599 107.99C81.2628 108.639 80.181 108.603 79.532 107.905C79.3877 107.749 79.2796 107.569 79.1954 107.388L77.7171 103.758C77.5127 103.253 77.7531 102.663 78.2579 102.459C78.6546 102.303 79.0993 102.411 79.3637 102.7Z" fill="#390075"/>
<path d="M74.592 107.569L77.7291 108.964C78.6065 109.348 79.0031 110.37 78.6065 111.248C78.2219 112.126 77.2002 112.522 76.3228 112.126C76.0824 112.017 75.8781 111.861 75.7098 111.669L73.4742 109.06C73.1257 108.663 73.1737 108.062 73.5704 107.713C73.8709 107.473 74.2675 107.425 74.592 107.569Z" fill="#390075"/>
<path d="M101.311 120.914C101.299 119.255 101.095 117.68 100.614 116.201C100.145 114.734 99.4241 113.388 98.5227 112.21C96.7197 109.853 94.1476 108.218 91.299 107.617C88.4504 107.016 85.3975 107.497 82.7893 108.988C80.1811 110.478 78.0898 112.979 76.9599 116.069C76.8277 116.418 76.4431 116.61 76.0825 116.478C75.7941 116.37 75.6258 116.093 75.6378 115.805C75.8181 112.15 77.8374 108.519 80.9383 106.21C84.0153 103.854 88.21 102.904 92.0803 103.661C94.0154 104.034 95.8904 104.804 97.513 105.934C99.1477 107.052 100.506 108.531 101.515 110.202C103.535 113.544 103.979 117.74 102.633 121.167C102.489 121.515 102.092 121.696 101.744 121.551C101.479 121.443 101.311 121.191 101.311 120.914Z" fill="#390075"/>
<path d="M165.663 118.378L163.679 121.684C163.187 122.501 162.129 122.766 161.312 122.273C160.494 121.78 160.23 120.722 160.723 119.905C160.843 119.7 161.011 119.52 161.203 119.388L164.341 117.139C164.749 116.839 165.326 116.935 165.627 117.356C165.843 117.68 165.843 118.077 165.663 118.378Z" fill="#390075"/>
<path d="M169.088 123.091L166.3 125.844C165.627 126.505 164.533 126.505 163.872 125.832C163.211 125.159 163.211 124.064 163.884 123.403C164.04 123.259 164.208 123.139 164.401 123.054L167.994 121.479C168.499 121.263 169.088 121.491 169.304 121.984C169.473 122.369 169.377 122.814 169.088 123.091Z" fill="#390075"/>
<path d="M170.891 129.631L167.802 131.146C166.949 131.567 165.903 131.206 165.482 130.352C165.062 129.499 165.422 128.453 166.276 128.032C166.516 127.912 166.768 127.864 167.021 127.852L170.458 127.815C170.987 127.815 171.42 128.236 171.42 128.753C171.432 129.15 171.216 129.475 170.891 129.631Z" fill="#390075"/>
<path d="M139.328 129.295C139.436 125.616 141.504 121.937 144.677 119.653C146.263 118.511 148.102 117.693 150.038 117.308C151.973 116.912 154.004 116.936 155.927 117.356C159.797 118.186 163.259 120.711 165.17 124.089C167.129 127.432 167.538 131.567 166.264 134.994C166.131 135.343 165.735 135.523 165.386 135.391C165.098 135.283 164.93 135.006 164.942 134.717V134.705C165.122 131.411 164.184 128.297 162.369 125.893C160.554 123.5 157.946 121.853 155.086 121.276C152.225 120.711 149.22 121.192 146.636 122.646C145.35 123.38 144.148 124.33 143.138 125.496C142.117 126.65 141.299 128.021 140.638 129.548L140.626 129.56C140.47 129.908 140.073 130.065 139.725 129.908C139.473 129.824 139.316 129.56 139.328 129.295Z" fill="#390075"/>
<path d="M6.21387 197.789L6.95907 205.483L13.0889 268.471C13.0769 270.106 17.0673 271.585 23.2453 272.547C27.6804 273.244 33.2574 273.665 39.3031 273.701C45.3489 273.737 50.9258 273.365 55.361 272.715C61.563 271.814 65.5534 270.383 65.5654 268.736L72.5126 204.341L73.1857 198.125L6.21387 197.789Z" fill="#23B574"/>
<path d="M40.0484 274.014C39.796 274.014 39.5556 274.014 39.3032 274.014C33.3897 273.978 27.8248 273.581 23.1973 272.86C19.303 272.258 12.7645 270.876 12.7765 268.471L5.90147 197.825C5.88945 197.741 5.92551 197.656 5.98561 197.584C6.04571 197.524 6.11782 197.488 6.21398 197.488L73.1858 197.837C73.2699 197.837 73.3541 197.873 73.4142 197.945C73.4743 198.005 73.4983 198.101 73.4863 198.185L65.866 268.796C65.854 271.176 59.3034 272.475 55.3971 273.04C50.962 273.677 45.6735 274.014 40.0484 274.014ZM6.55052 198.101L13.4015 268.447C13.4015 269.553 15.9977 271.116 23.3055 272.258C27.8969 272.98 33.4378 273.377 39.3153 273.413C45.1687 273.449 50.7096 273.1 55.325 272.439C62.6448 271.381 65.253 269.842 65.265 268.772L72.8492 198.474L6.55052 198.101Z" fill="#390075"/>
<path d="M73.186 198.137L72.5129 204.353L71.4552 214.188L65.5657 268.736C65.5657 270.371 61.5633 271.814 55.3613 272.715C50.9261 273.353 45.3492 273.725 39.3034 273.689C36.9597 273.677 34.676 273.605 32.5005 273.485C29.087 273.292 25.9499 272.968 23.2456 272.535C17.0556 271.585 13.0772 270.094 13.0772 268.459L12.5243 262.748L11.9474 256.809L9.44737 231.152L8.67813 223.301L6.94735 205.471L6.20215 197.777L73.186 198.137Z" fill="#16B767"/>
<g opacity="0.4">
<path opacity="0.4" d="M68.8709 198.113L68.318 203.283L67.2603 213.118L61.3708 267.666C61.3708 269.301 57.3684 270.743 51.1784 271.645C46.7433 272.282 41.1663 272.655 35.1206 272.619C32.7768 272.607 30.4931 272.535 28.3176 272.415C24.9041 272.222 21.7671 271.898 19.0627 271.465C18.2454 271.333 17.4641 271.2 16.731 271.056C18.4257 271.621 20.6493 272.126 23.2695 272.523C25.9738 272.956 29.1229 273.28 32.5244 273.473C34.6879 273.605 36.9715 273.665 39.3273 273.677C45.3731 273.713 50.95 273.34 55.3852 272.703C61.5872 271.814 65.5776 270.359 65.5776 268.724L71.4671 214.176L72.5248 204.341L73.1979 198.125L68.8709 198.113Z" fill="white"/>
</g>
<path d="M40.0366 275.685C39.7962 275.685 39.5438 275.685 39.3034 275.685C33.3178 275.649 27.6687 275.252 22.9571 274.507C12.6565 272.908 11.1661 270.515 11.1301 268.58L4.255 197.981C4.1949 197.428 4.38721 196.875 4.75981 196.454C5.13241 196.045 5.66126 195.805 6.22617 195.805H6.23819L73.21 196.154C73.7749 196.154 74.3037 196.394 74.6764 196.815C75.049 197.236 75.2292 197.789 75.1692 198.342L67.5489 268.88C67.4888 270.816 65.9743 273.196 55.6617 274.687C51.1305 275.336 45.7458 275.685 40.0366 275.685ZM15.0484 268.135C15.5892 268.604 17.8369 269.71 23.5581 270.599C28.0773 271.309 33.5341 271.694 39.3154 271.73C45.0967 271.766 50.5535 271.429 55.0848 270.768C60.818 269.938 63.0777 268.844 63.6186 268.387L70.9864 200.109L8.38965 199.785L15.0484 268.135Z" fill="#390075"/>
<g opacity="0.3">
<path opacity="0.3" d="M6.21411 197.789L6.95931 205.483C13.7983 207.371 24.9763 208.633 37.6086 208.705C53.342 208.79 66.8517 206.986 72.5248 204.353L73.1979 198.137L6.21411 197.789Z" fill="#390075"/>
</g>
<path d="M77.3565 194.242L76.3829 188.808L75.3973 183.325C75.3973 183.421 75.3733 183.505 75.3493 183.59C75.3733 183.505 75.3853 183.409 75.3973 183.325C75.4214 179.502 59.4837 176.328 39.8081 176.22C20.1324 176.123 4.15868 179.129 4.14666 182.952L3.1731 188.086L2.07933 193.857L1.98318 194.386C1.95914 198.426 18.8343 201.804 39.6879 201.912C60.5294 202.021 77.4406 198.823 77.4647 194.783L77.3565 194.242Z" fill="#A34F31"/>
<path d="M1.97122 194.386C1.94718 198.438 18.8344 201.804 39.6759 201.913C60.5175 202.021 77.4287 198.823 77.4527 194.783L77.3566 194.242L75.3974 183.313C75.3854 185.537 68.0776 191.609 39.736 191.609C13.3896 191.609 4.1347 185.165 4.14672 182.94L2.07939 193.845L1.97122 194.386Z" fill="#A34F31"/>
<g opacity="0.4">
<path opacity="0.4" d="M4.14688 185.958C4.13486 188.182 13.4018 194.627 39.7362 194.627C68.0778 194.627 75.3855 188.555 75.3976 186.331L77.1764 196.25C77.3447 195.961 77.4529 195.685 77.4529 195.384L77.3567 194.843L75.3976 183.914C75.3855 186.138 68.0778 192.21 39.7362 192.21C13.3898 192.21 4.13486 185.766 4.14688 183.542L2.07955 194.446L1.9834 194.987C1.9834 195.288 2.09157 195.588 2.27186 195.889L4.14688 185.958Z" fill="white"/>
</g>
<path d="M40.7216 203.896C40.3731 203.896 40.0125 203.896 39.6639 203.896C29.4595 203.848 19.856 203.018 12.6084 201.576C3.97849 199.856 -0.0239553 197.572 -0.0119359 194.386C-0.0119359 194.266 8.34456e-05 194.146 0.0241221 194.037L2.16357 182.736C2.35588 179.778 6.20207 177.698 14.231 176.183C21.094 174.885 30.1686 174.2 39.8082 174.26C49.4477 174.308 58.5223 175.089 65.3613 176.46C73.3662 178.059 77.2004 180.187 77.3566 183.133L79.2917 193.917V193.929L79.3879 194.47C79.4119 194.578 79.4119 194.699 79.4119 194.819C79.3999 198.005 75.3614 200.241 66.7195 201.876C59.7362 203.175 50.5294 203.896 40.7216 203.896ZM3.99051 194.35C5.40879 196.358 18.1373 199.82 39.688 199.941C40.0486 199.941 40.4091 199.941 40.7577 199.941C61.6714 199.941 74.0272 196.682 75.4335 194.723L75.4095 194.59L73.5946 184.479C73.4263 184.155 73.3542 183.794 73.3902 183.409C71.9599 181.534 59.9165 178.299 39.7961 178.203C19.4714 178.095 7.36794 181.269 6.11793 183.121C6.11793 183.193 6.10591 183.253 6.09389 183.325L3.99051 194.35Z" fill="#390075"/>
<path d="M40.4932 203.115C40.2168 203.115 39.9403 203.115 39.6759 203.115C29.5195 203.067 19.9642 202.237 12.7766 200.806C4.68757 199.195 0.769258 197.091 0.781278 194.386C0.781278 194.314 0.793297 194.242 0.805316 194.17L2.98082 182.724C3.10101 182.111 3.66592 181.69 4.27891 181.75C4.89189 181.81 5.37267 182.327 5.36065 182.952C5.76931 184.551 15.0362 190.419 39.748 190.419C67.5247 190.419 74.0632 184.479 74.2075 183.301C74.2075 182.676 74.6882 182.171 75.3012 182.111C75.9262 182.063 76.4791 182.496 76.5873 183.097L78.6426 194.554C78.6546 194.627 78.6667 194.699 78.6667 194.771C78.6186 201.396 54.1472 203.115 40.4932 203.115ZM3.18515 194.458C3.31736 195.096 5.27651 196.851 13.2333 198.45C20.2767 199.857 29.6758 200.662 39.6759 200.71C63.0175 200.818 75.9142 196.947 76.2387 194.855L74.7123 186.355C70.7459 189.589 60.1448 192.823 39.724 192.823C20.2406 192.823 8.97847 189.204 4.80776 185.862L3.18515 194.458Z" fill="#390075"/>
<path d="M13.2215 171.651C13.2094 173.31 17.2479 174.813 23.522 175.787C28.0173 176.484 33.6664 176.917 39.7962 176.953C45.9261 176.989 51.5872 176.616 56.0825 175.955C62.3686 175.041 66.4191 173.586 66.4311 171.927C66.4431 169.078 54.544 166.697 39.8563 166.625C25.1687 166.553 13.2455 168.801 13.2215 171.651Z" fill="#A34F31"/>
<path d="M19.6277 175.306C19.6157 176.568 22.6806 177.71 27.4403 178.444C30.8538 178.973 35.1327 179.31 39.7962 179.334C44.4477 179.358 48.7386 179.069 52.1521 178.576C56.9238 177.879 59.9887 176.773 60.0007 175.522C60.0127 173.358 50.9862 171.555 39.8322 171.495C28.6903 171.435 19.6397 173.154 19.6277 175.306Z" fill="#9B5639"/>
<path d="M40.349 179.646C40.1687 179.646 39.9764 179.646 39.7961 179.646C35.2648 179.622 30.9739 179.321 27.4042 178.756C23.7142 178.179 19.3152 177.121 19.3272 175.306C19.3272 174.055 21.4065 173.033 25.5051 172.264C29.3393 171.543 34.4475 171.158 39.8442 171.182C49.7842 171.23 60.3252 172.769 60.3131 175.51C60.3011 177.314 55.902 178.336 52.2001 178.877C48.7746 179.382 44.688 179.646 40.349 179.646ZM19.9402 175.318C19.9402 176.087 21.9113 177.278 27.5003 178.155C31.046 178.708 35.3009 179.009 39.8081 179.033C44.3034 179.057 48.5702 178.792 52.1159 178.275C57.7049 177.47 59.7002 176.28 59.7002 175.522C59.7122 173.815 51.551 171.867 39.8442 171.807C34.4715 171.783 29.4234 172.156 25.6253 172.877C21.4306 173.659 19.9402 174.657 19.9402 175.318Z" fill="#390075"/>
<path d="M19.6277 175.306C19.6157 176.568 22.6806 177.71 27.4403 178.444C30.8538 178.973 35.1327 179.31 39.7962 179.334C44.4477 179.358 48.7386 179.069 52.1521 178.576C56.9238 177.879 59.9887 176.773 60.0007 175.522C60.0127 173.358 50.9862 171.555 39.8322 171.495C28.6903 171.435 19.6397 173.154 19.6277 175.306Z" fill="#A34F31"/>
<g opacity="0.2">
<path opacity="0.2" d="M19.6277 175.306C19.6157 176.568 22.6806 177.71 27.4403 178.444C30.8538 178.973 35.1327 179.31 39.7962 179.334C44.4477 179.358 48.7386 179.069 52.1521 178.576C56.9238 177.879 59.9887 176.773 60.0007 175.522C60.0127 173.358 50.9862 171.555 39.8322 171.495C28.6903 171.435 19.6397 173.154 19.6277 175.306Z" fill="#390075"/>
</g>
<path d="M40.3491 181.137C40.1568 181.137 39.9765 181.137 39.7842 181.137C35.2048 181.113 30.8658 180.8 27.26 180.235C19.3272 178.997 18.4258 177.169 18.4258 175.895C18.4378 174.116 20.6253 172.865 25.3369 171.975C29.2312 171.242 34.3755 170.845 39.8443 170.881C42.0318 170.893 61.2267 171.134 61.2026 176.111C61.1906 177.386 60.2651 179.201 52.3324 180.355C48.8588 180.872 44.7241 181.137 40.3491 181.137ZM20.9498 175.907C21.4667 176.328 23.2455 177.169 27.6326 177.855C31.1302 178.396 35.337 178.696 39.8082 178.72C44.2433 178.744 48.4862 178.492 51.9838 177.975C56.3829 177.338 58.1738 176.508 58.6906 176.087C57.5367 175.077 51.2266 173.334 39.8322 173.274C39.6399 173.274 39.4356 173.274 39.2433 173.274C28.2215 173.298 22.0917 174.933 20.9498 175.907Z" fill="#390075"/>
<path d="M11.6108 180.199C11.5988 183.217 24.2071 185.742 39.7722 185.814C55.3372 185.898 67.9696 183.505 67.9816 180.488L67.9095 180.091L66.4431 171.927C66.4311 173.587 62.3806 175.053 56.0945 175.955C51.5872 176.604 45.9381 176.977 39.8082 176.953C33.6784 176.917 28.0293 176.484 23.534 175.787C17.2599 174.813 13.2214 173.31 13.2335 171.651L11.683 179.79L11.6108 180.199Z" fill="#9B5639"/>
<path d="M40.5294 186.126C40.277 186.126 40.0126 186.126 39.7602 186.126C32.212 186.09 25.1206 185.477 19.784 184.419C15.9018 183.65 11.2863 182.291 11.2984 180.199C11.2984 180.175 11.2984 180.163 11.2984 180.139L12.921 171.591C12.945 171.434 13.0772 171.326 13.2575 171.338C13.4138 171.35 13.534 171.483 13.534 171.651C13.534 172.745 16.1662 174.332 23.5701 175.486C28.2456 176.22 33.8587 176.616 39.8083 176.652C45.7578 176.689 51.3709 176.34 56.0584 175.655C63.4864 174.572 66.1306 173.022 66.1426 171.927C66.1426 171.771 66.2628 171.639 66.4191 171.627C66.5753 171.615 66.7196 171.723 66.7436 171.879L68.2821 180.44C68.2821 182.58 63.6426 183.89 59.7604 184.624C54.5921 185.597 47.7891 186.126 40.5294 186.126ZM11.9113 180.223C11.9474 181.474 14.9282 182.808 19.8922 183.806C25.1927 184.864 32.2481 185.465 39.7602 185.501C47.2482 185.537 54.3276 185.008 59.6402 184.01C64.6522 183.061 67.6571 181.75 67.6691 180.488L67.597 180.139L66.3109 172.961C64.7724 174.741 59.4959 175.775 56.1426 176.256C51.431 176.941 45.7819 177.278 39.8083 177.254C33.8346 177.218 28.1855 176.821 23.486 176.087C20.1446 175.57 14.8681 174.488 13.3417 172.685L11.9113 180.223Z" fill="#390075"/>
<path d="M13.2213 171.651L12.44 175.763L11.6708 179.802L11.5986 180.199C11.5866 183.217 24.1829 185.742 39.748 185.814C55.313 185.898 67.9453 183.505 67.9694 180.488L67.8973 180.091L67.092 175.63L66.4309 171.927C66.4189 173.587 62.3684 175.053 56.0822 175.967C51.575 176.616 45.9259 176.989 39.796 176.965C33.6662 176.929 28.0171 176.496 23.5218 175.799C17.2477 174.813 13.2213 173.31 13.2213 171.651Z" fill="#A34F31"/>
<g opacity="0.4">
<path opacity="0.4" d="M13.2214 171.05L12.4402 175.162C15.8417 177.458 26.6591 179.177 39.4837 179.237C53.0776 179.31 64.4359 177.506 67.1042 175.029L66.4431 171.326C66.4311 172.986 62.3806 174.452 56.0945 175.366C51.5872 176.015 45.9381 176.388 39.8082 176.364C33.6784 176.328 28.0293 175.895 23.534 175.198C17.2479 174.212 13.2214 172.709 13.2214 171.05Z" fill="white"/>
</g>
<path d="M40.5294 187.617C40.265 187.617 40.0126 187.617 39.7481 187.617C32.1038 187.581 24.9163 186.956 19.4835 185.874C12.7767 184.539 9.78392 182.784 9.79593 180.187C9.79593 180.079 9.80795 179.971 9.83199 179.862L11.4306 171.434C11.5988 169.042 14.4715 167.443 20.7095 166.265C25.8538 165.291 32.6688 164.786 39.8804 164.822C44.5799 164.846 67.8133 165.291 68.246 171.735L69.6883 179.766L69.7605 180.163C69.7845 180.271 69.7845 180.379 69.7845 180.488C69.7725 183.085 66.7676 184.804 60.0368 186.078C54.7844 187.076 47.8852 187.617 40.5294 187.617ZM13.4618 180.055C14.8681 181.437 23.7384 183.926 39.7722 184.01C55.806 184.083 64.7003 181.702 66.1186 180.331L64.6643 172.252C64.6643 172.228 64.6522 172.204 64.6522 172.18C63.4743 170.905 55.0608 168.513 39.8563 168.441C39.6039 168.441 39.3515 168.441 39.0991 168.441C24.4355 168.441 16.2623 170.665 15.0364 171.915C15.0364 171.951 15.0364 171.988 15.0364 172.024V172.913H14.9883C14.9402 173.37 14.832 173.791 14.6037 174.104L13.4618 180.055Z" fill="#390075"/>
<path d="M40.5292 187.016C40.2648 187.016 40.0124 187.016 39.748 187.016C32.1397 186.98 24.9882 186.367 19.6035 185.285C11.3342 183.638 10.3967 181.582 10.3967 180.187C10.3967 180.115 10.4087 180.043 10.4208 179.971L12.0434 171.422C12.1636 170.809 12.7165 170.388 13.3415 170.449C13.9545 170.509 14.4352 171.026 14.4232 171.651C14.5674 172.036 16.5867 173.49 23.7142 174.596C28.3416 175.318 33.9066 175.715 39.8201 175.751C45.7096 175.775 51.2986 175.438 55.926 174.765C63.0535 173.731 65.0968 172.3 65.241 171.879C65.241 171.254 65.7218 170.761 66.3348 170.713C66.9718 170.665 67.5127 171.11 67.6208 171.723L69.1593 180.283C69.1713 180.355 69.1834 180.428 69.1834 180.5C69.1713 181.894 68.2098 183.938 59.9285 185.501C54.7 186.487 47.849 187.016 40.5292 187.016ZM12.8246 180.223C13.4376 181.738 23.0411 184.515 39.772 184.612C56.5029 184.708 66.1304 182.015 66.7675 180.512L65.7098 174.584C64.1473 175.474 61.3467 176.424 56.2866 177.157C51.5269 177.843 45.8538 178.191 39.8201 178.167C33.7984 178.131 28.1012 177.722 23.3656 176.989C18.3175 176.208 15.517 175.234 13.9665 174.32L12.8246 180.223Z" fill="#390075"/>
<path d="M47.9932 235.132C45.3009 232.523 42.0437 230.816 38.7143 229.192C36.9595 228.339 35.3489 227.365 33.8705 226.235C31.8753 224.696 30.1565 222.88 28.8104 220.728C28.4738 220.187 28.1493 219.622 27.8608 219.045C27.4642 218.264 27.1277 217.458 26.8272 216.605C26.5147 215.715 26.6228 215.222 27.4522 214.717C28.9666 213.791 30.5532 213.262 32.1878 213.094C33.3897 212.962 34.6157 213.034 35.8657 213.286C45.0365 215.09 53.1856 223.674 54.5077 232.932C54.9885 236.262 54.7481 239.52 52.7048 242.574C51.7313 239.604 50.1207 237.2 47.9932 235.132Z" fill="#FCF7FB"/>
<path d="M23.5099 218.672C25.0484 222.808 27.4162 225.994 30.409 228.531C32.7648 230.539 35.5172 232.126 38.5341 233.448C40.0966 234.122 41.5389 235.048 42.8971 236.057C45.8899 238.282 48.2457 240.987 49.4236 244.618C49.7361 245.58 49.5318 246.133 48.6904 246.65C46.0101 248.285 43.1255 248.682 40.1206 248.104C34.0028 246.902 28.3898 242.61 24.9402 237.103C23.2455 234.398 22.0676 231.417 21.6108 228.363C21.6108 228.339 21.5988 228.315 21.5988 228.279C21.5027 227.617 21.4426 226.944 21.4065 226.283C21.2983 223.614 21.8032 221.065 23.5099 218.672Z" fill="#FCF7FB"/>
<g opacity="0.3">
<g opacity="0.3">
<path opacity="0.3" d="M8.29351 219.201C8.28149 219.562 8.31755 219.947 8.40169 220.319L8.29351 219.201Z" fill="#6B184E"/>
<path opacity="0.3" d="M8.40167 220.632C8.25743 220.632 8.13724 220.536 8.10118 220.392C8.00503 220.019 7.96897 219.61 7.98099 219.189C7.98099 219.021 8.1132 218.901 8.28147 218.889C8.44974 218.877 8.58196 219.009 8.59398 219.165L8.70215 220.283C8.71417 220.44 8.606 220.596 8.44974 220.62C8.43773 220.632 8.42571 220.632 8.40167 220.632Z" fill="#390075"/>
</g>
</g>
<path d="M8.48578 221.149C8.48578 221.149 9.73579 225.525 22.1638 227.557C38.5942 230.25 34.4957 250.689 26.6951 254.994C17.5003 260.067 11.9594 256.821 11.9594 256.821C11.9594 256.821 3.48573 252.745 3.46169 237.657C3.44967 229.734 8.48578 221.149 8.48578 221.149Z" fill="white"/>
<path d="M16.8392 258.18C13.7021 258.18 11.9233 257.182 11.8031 257.098C11.743 257.073 3.18519 252.781 3.16115 237.669C3.14913 229.745 8.17322 221.077 8.2213 220.993C8.2814 220.885 8.40159 220.824 8.52178 220.849C8.64198 220.861 8.75015 220.945 8.77419 221.065C8.78621 221.113 10.2045 225.297 22.1998 227.257C28.522 228.291 32.5605 232.09 33.5701 237.957C34.7119 244.558 31.5629 252.649 26.8273 255.258C22.7287 257.542 19.3512 258.18 16.8392 258.18ZM8.46169 221.822C7.40399 223.782 3.76212 231.008 3.76212 237.681C3.78616 252.373 11.9954 256.52 12.0795 256.569C12.1516 256.617 17.6084 259.67 26.5268 254.741C31.0581 252.24 34.0629 244.461 32.9571 238.089C31.9956 232.499 28.1374 228.88 22.0916 227.894C12.1757 226.247 9.26698 223.121 8.46169 221.822Z" fill="#390075"/>
<g opacity="0.3">
<path opacity="0.3" d="M29.1108 260.813C18.8582 266.476 12.7043 262.845 12.7043 262.845C12.7043 262.845 12.6442 262.821 12.5481 262.761L11.9712 256.821L9.47114 231.164L8.7019 223.313C8.78604 223.169 8.83412 223.085 8.83412 223.085C8.83412 223.085 10.2284 227.966 24.0746 230.227C42.3801 233.244 37.8007 256.016 29.1108 260.813Z" fill="#6B184E"/>
<path opacity="0.3" d="M18.1372 264.323C14.6876 264.323 12.7285 263.241 12.5362 263.121C12.5362 263.121 12.464 263.085 12.3679 263.025C12.2838 262.977 12.2357 262.892 12.2237 262.796L8.37746 223.361C8.36545 223.301 8.38948 223.229 8.41352 223.181C8.49766 223.025 8.54574 222.953 8.54574 222.953C8.60583 222.844 8.72603 222.784 8.84622 222.808C8.96641 222.82 9.07459 222.916 9.09863 223.025C9.11064 223.073 10.6852 227.762 24.0868 229.95C31.1061 231.104 35.6013 235.324 36.7311 241.852C38.0052 249.198 34.4955 258.191 29.231 261.101C24.6877 263.614 20.9257 264.323 18.1372 264.323ZM12.8246 262.58C13.029 262.688 19.0987 265.994 28.9546 260.548C34.0147 257.759 37.3681 249.066 36.1422 241.949C35.0604 235.709 30.7575 231.657 24.0146 230.551C13.8222 228.892 10.2765 225.802 9.08661 224.203L12.8246 262.58Z" fill="#390075"/>
</g>
<path d="M8.48578 221.149C8.48578 221.149 9.73579 225.525 22.1638 227.557C38.5942 230.25 34.4957 250.689 26.6951 254.994C17.5003 260.067 11.9594 256.821 11.9594 256.821C11.9594 256.821 3.48573 252.745 3.46169 237.657C3.44967 229.734 8.48578 221.149 8.48578 221.149Z" fill="#FEC2E6"/>
<g opacity="0.4">
<path opacity="0.4" d="M6.68274 225.357C6.68274 225.357 7.93275 229.734 20.3608 231.765C31.2142 233.545 33.1013 243.055 30.8897 250.557C35.3008 243.007 35.2046 229.685 22.1637 227.557C9.74767 225.525 8.48564 221.149 8.48564 221.149C8.48564 221.149 6.93515 223.794 5.56494 227.497C6.21399 226.163 6.68274 225.357 6.68274 225.357Z" fill="white"/>
</g>
<g opacity="0.3">
<path opacity="0.3" d="M26.6831 254.994C17.4763 260.067 11.9474 256.833 11.9474 256.833C11.9474 256.833 3.47375 252.757 3.44971 237.669C3.44971 237.152 3.47375 236.635 3.5098 236.118C5.96175 243.139 10.457 245.303 10.457 245.303C10.457 245.303 15.9859 248.549 25.1927 243.476C28.1735 241.829 30.6014 237.837 31.563 233.388C35.962 240.566 32.2721 251.916 26.6831 254.994Z" fill="#390075"/>
</g>
<path d="M16.8631 259.827C13.5337 259.827 11.4784 258.829 11.0337 258.588C10.1322 258.131 1.50233 253.31 1.47829 237.681C1.46627 229.301 6.55046 220.524 6.76681 220.163C7.18748 219.442 7.99278 218.949 8.8101 219.105C9.61539 219.261 10.2043 219.766 10.3606 220.56C10.613 220.993 12.6443 224.023 22.4641 225.634C29.5435 226.788 34.0627 231.08 35.2046 237.705C36.4786 245.063 33.005 253.779 27.6204 256.749C23.2934 259.129 19.6395 259.827 16.8631 259.827ZM8.87019 224.72C7.46393 227.726 5.43266 232.883 5.43266 237.669C5.4567 251.182 12.5241 254.909 12.8246 255.054C12.8606 255.078 12.9207 255.102 12.9568 255.126C13.125 255.222 17.7645 257.663 25.7333 253.274C29.255 251.326 32.3921 244.546 31.3344 238.366C30.7454 234.951 28.618 230.635 21.8511 229.529C14.7356 228.351 10.9135 226.403 8.87019 224.72Z" fill="#390075"/>
<g opacity="0.3">
<path opacity="0.3" d="M209.365 257.278C196.432 257.302 186.588 252.913 180.218 248.802C174.605 245.183 171.672 241.78 171.672 241.78L171.36 240.193C170.831 237.5 173.788 235.48 176.096 236.971C176.12 236.983 176.144 237.007 176.168 237.019C182.538 241.131 197.154 247.756 210.086 247.311C219.305 246.986 224.233 242.009 220.291 236.19C233.2 243.512 224.738 257.242 209.365 257.278Z" fill="#390075"/>
</g>
</g>
<defs>
<clipPath id="clip0_631_5580">
<rect width="246" height="355" fill="white"/>
</clipPath>
</defs>
</svg>
