<svg width="24" height="17" viewBox="0 0 24 17" fill="none" xmlns="http://www.w3.org/2000/svg">
<path d="M22.7747 3.37619C22.5154 2.41227 21.7554 1.65243 20.7916 1.39288C19.0309 0.911133 11.988 0.911133 11.988 0.911133C11.988 0.911133 4.94536 0.911133 3.18466 1.37462C2.23943 1.63389 1.46091 2.41241 1.20163 3.37619C0.738281 5.13674 0.738281 8.7879 0.738281 8.7879C0.738281 8.7879 0.738281 12.4575 1.20163 14.1996C1.46118 15.1634 2.22089 15.9232 3.1848 16.1828C4.9639 16.6647 11.9883 16.6647 11.9883 16.6647C11.9883 16.6647 19.0309 16.6647 20.7916 16.2012C21.7555 15.9418 22.5154 15.1819 22.7749 14.2182C23.2381 12.4575 23.2381 8.80644 23.2381 8.80644C23.2381 8.80644 23.2567 5.13674 22.7747 3.37619ZM9.7457 12.161V5.41483L15.6022 8.7879L9.7457 12.161Z" fill="white"/>
</svg>
